<?xml version="1.0" encoding="UTF-8"?>
<svg xmlns="http://www.w3.org/2000/svg" width="25" height="8.75" viewBox="0 0 10 3.5">
  <rect fill="#fff" width="10" height="3.2" ry="1" />
  <path d="M 6.4198 2.0015 L 6.0155 2.0015 Q 6.0155 2.167 6.0793 2.29 Q 6.143 2.4131 6.2528 2.5039 Q 6.3685 2.5962 6.5245 2.6438 Q 6.6806 2.6914 6.8402 2.6914 Q 7.0028 2.6914 7.1405 2.6526 Q 7.2782 2.6138 7.3778 2.5376 Q 7.4774 2.4629 7.5338 2.3538 Q 7.5902 2.2446 7.5902 2.104 Q 7.5902 1.9414 7.5155 1.8169 Q 7.4408 1.6924 7.3148 1.5986 Q 7.2313 1.5415 7.1317 1.4976 Q 7.0321 1.4536 6.9223 1.4229 Q 6.8197 1.395 6.7384 1.3628 Q 6.6571 1.3306 6.6 1.291 Q 6.5429 1.2529 6.5128 1.2046 Q 6.4828 1.1563 6.4828 1.0962 Q 6.4828 1.0391 6.5055 0.99 Q 6.5282 0.9409 6.5722 0.9043 Q 6.6161 0.8691 6.6798 0.8494 Q 6.7435 0.8296 6.8256 0.8296 Q 6.9149 0.8296 6.9816 0.8538 Q 7.0483 0.8779 7.0936 0.9204 Q 7.1376 0.9644 7.1603 1.0244 Q 7.183 1.0845 7.1859 1.1563 L 7.5873 1.1563 Q 7.5873 1.0127 7.5316 0.8926 Q 7.476 0.7725 7.3764 0.6846 Q 7.2768 0.5982 7.1383 0.5498 Q 6.9999 0.5015 6.8329 0.5015 Q 6.6718 0.5015 6.5341 0.5432 Q 6.3964 0.585 6.2953 0.6626 Q 6.1942 0.7402 6.1371 0.8501 Q 6.08 0.96 6.08 1.0947 Q 6.08 1.2119 6.1232 1.3115 Q 6.1664 1.4111 6.2514 1.4932 Q 6.3363 1.5752 6.4704 1.6441 Q 6.6044 1.7129 6.7816 1.7612 Q 6.8959 1.792 6.9728 1.8279 Q 7.0497 1.8638 7.0981 1.9063 Q 7.1449 1.9502 7.1647 2 Q 7.1845 2.0498 7.1845 2.1069 Q 7.1845 2.1641 7.161 2.2117 Q 7.1376 2.2593 7.0936 2.293 Q 7.0497 2.3267 6.986 2.3457 Q 6.9223 2.3647 6.8402 2.3647 Q 6.748 2.3647 6.671 2.3442 Q 6.5941 2.3237 6.5399 2.2798 Q 6.4843 2.2359 6.4535 2.167 Q 6.4228 2.0982 6.4198 2.0015 Z M 2.1571 1.9956 L 1.7455 1.9956 Q 1.7396 2.0923 1.7133 2.1611 Q 1.6869 2.23 1.6415 2.2739 Q 1.5961 2.3179 1.5316 2.3384 Q 1.4672 2.3589 1.3866 2.3589 Q 1.3266 2.3589 1.2775 2.345 Q 1.2284 2.331 1.1889 2.3018 Q 1.1522 2.2754 1.1237 2.2359 Q 1.0951 2.1963 1.0746 2.145 Q 1.0453 2.0703 1.0314 1.97 Q 1.0175 1.8696 1.0175 1.7422 L 1.0175 1.4521 Q 1.0175 1.3584 1.0263 1.2771 Q 1.0351 1.1958 1.0541 1.1284 Q 1.079 1.042 1.1208 0.9768 Q 1.1625 0.9116 1.2226 0.8765 Q 1.2577 0.8559 1.2995 0.8457 Q 1.3412 0.8355 1.3895 0.8355 Q 1.4804 0.8355 1.5456 0.8596 Q 1.6108 0.8838 1.6547 0.9307 Q 1.6972 0.979 1.7199 1.0508 Q 1.7426 1.1226 1.7484 1.2178 L 2.1586 1.2178 Q 2.144 1.0508 2.0883 0.9175 Q 2.0326 0.7842 1.9359 0.6919 Q 1.8393 0.5996 1.7023 0.5498 Q 1.5653 0.5 1.3895 0.5 Q 1.2709 0.5 1.1676 0.53 Q 1.0644 0.5601 0.9779 0.6157 Q 0.8812 0.6816 0.8051 0.7769 Q 0.7289 0.8721 0.682 0.9936 Q 0.641 1.0933 0.6205 1.2097 Q 0.6 1.3262 0.6 1.4551 L 0.6 1.7422 Q 0.6 1.8799 0.6227 2.0029 Q 0.6454 2.126 0.6879 2.2285 Q 0.7319 2.331 0.7956 2.416 Q 0.8593 2.501 0.9413 2.561 Q 1.0307 2.6255 1.1427 2.6599 Q 1.2548 2.6944 1.3866 2.6944 Q 1.5536 2.6944 1.6913 2.6453 Q 1.829 2.5962 1.9286 2.5054 Q 2.0282 2.4146 2.0875 2.2857 Q 2.1469 2.1567 2.1571 1.9956 Z M 8.787 0.8662 L 9.4447 0.8662 L 9.4447 0.5308 L 7.725 0.5308 L 7.725 0.8662 L 8.3739 0.8662 L 8.3739 2.6636 L 8.787 2.6636 L 8.787 0.8662 Z M 4.6855 2.2183 L 5.3256 2.2183 L 5.4501 2.6636 L 5.8837 2.6636 L 5.1982 0.5308 L 4.8246 0.5308 L 4.1259 2.6636 L 4.5595 2.6636 L 4.6855 2.2183 Z M 3.9647 1.7539 L 3.9647 1.4434 Q 3.9647 1.2984 3.9376 1.1694 Q 3.9106 1.0405 3.8593 0.9321 Q 3.8124 0.8369 3.7472 0.7578 Q 3.682 0.6787 3.5956 0.6231 Q 3.5092 0.5645 3.4015 0.533 Q 3.2938 0.5015 3.1708 0.5015 Q 3.0492 0.5015 2.9452 0.5322 Q 2.8412 0.563 2.7577 0.6201 Q 2.6728 0.6787 2.6076 0.7608 Q 2.5424 0.8428 2.497 0.9438 Q 2.4501 1.0508 2.4259 1.1768 Q 2.4018 1.3027 2.4018 1.4434 L 2.4018 1.7539 Q 2.4018 1.8858 2.423 2.0044 Q 2.4442 2.1231 2.4853 2.2241 Q 2.5307 2.334 2.5981 2.4211 Q 2.6654 2.5083 2.7504 2.5698 Q 2.8368 2.6284 2.9423 2.6607 Q 3.0478 2.6929 3.1723 2.6929 Q 3.2895 2.6929 3.3913 2.6643 Q 3.4931 2.6358 3.578 2.5845 Q 3.6718 2.5259 3.745 2.438 Q 3.8183 2.3501 3.8681 2.2446 Q 3.9149 2.1392 3.9398 2.0154 Q 3.9647 1.8916 3.9647 1.7539 Z M 3.5473 1.4404 L 3.5473 1.7539 Q 3.5473 1.833 3.5392 1.9063 Q 3.5311 1.9795 3.515 2.041 Q 3.4945 2.1201 3.4601 2.1824 Q 3.4257 2.2446 3.3759 2.2857 Q 3.3363 2.3194 3.2851 2.3369 Q 3.2338 2.3545 3.1723 2.3545 Q 3.1078 2.3545 3.0573 2.3355 Q 3.0067 2.3164 2.9672 2.2813 Q 2.9247 2.2417 2.8932 2.178 Q 2.8617 2.1143 2.8456 2.0366 Q 2.8309 1.9751 2.8251 1.9033 Q 2.8192 1.8316 2.8192 1.7539 L 2.8192 1.4404 Q 2.8192 1.3584 2.8258 1.2837 Q 2.8324 1.209 2.8471 1.146 Q 2.8661 1.064 2.9005 1.0024 Q 2.935 0.9409 2.9848 0.8999 Q 3.0214 0.8721 3.0675 0.8574 Q 3.1137 0.8428 3.1708 0.8428 Q 3.2308 0.8428 3.2799 0.8589 Q 3.329 0.875 3.3685 0.9043 Q 3.4183 0.9438 3.455 1.0061 Q 3.4916 1.0684 3.5136 1.1475 Q 3.5311 1.2105 3.5392 1.2844 Q 3.5473 1.3584 3.5473 1.4404 Z M 5.2289 1.8682 L 4.7865 1.8682 L 5.0107 1.083 L 5.2289 1.8682 Z"/>
</svg>
