<svg xmlns="http://www.w3.org/2000/svg" width="15" height="15" viewBox="0 0 10 10" >
  <rect fill="#0145b4" stroke="#fff" stroke-width=".4" width="9.6" height="9.6" ry="1" x=".2" y=".2" />
  <path fill="#fff" d="M 5.2441 5.7761 v -0.24 h 0.672 v 0.192 q 0 0.728 0.408 1.1 q 0.408 0.372 1.12 0.372 q 0.624 0 0.94 -0.28 q 0.316 -0.28 0.316 -0.728 v -0.048 q 0 -0.44 -0.324 -0.672 q -0.324 -0.232 -1.052 -0.336 q -0.84 -0.12 -1.34 -0.476 q -0.5 -0.356 -0.5 -1.076 v -0.096 q 0 -0.44 0.236 -0.772 t 0.652 -0.524 q 0.416 -0.192 0.96 -0.192 q 0.632 0 1.076 0.232 q 0.444 0.232 0.68 0.612 q 0.236 0.38 0.236 0.836 v 0.336 h -0.672 v -0.288 q 0 -0.368 -0.184 -0.612 t -0.488 -0.368 q -0.304 -0.124 -0.656 -0.124 q -0.304 0 -0.572 0.104 q -0.268 0.104 -0.432 0.3 q -0.164 0.196 -0.164 0.484 v 0.048 q 0 0.464 0.376 0.676 q 0.376 0.212 1.128 0.324 q 0.88 0.128 1.296 0.512 q 0.416 0.384 0.416 1.024 v 0.096 q 0 0.728 -0.492 1.18 q -0.492 0.452 -1.436 0.452 q -0.72 0 -1.208 -0.268 t -0.74 -0.732 q -0.252 -0.464 -0.252 -1.048 Z m -4.744 -0.24 v -1.248 q 0 -1.08 0.524 -1.684 q 0.524 -0.604 1.444 -0.604 q 0.64 0 1.08 0.272 q 0.44 0.272 0.664 0.732 q 0.224 0.46 0.224 1.028 v 0.096 h -0.672 v -0.096 q -0.008 -0.368 -0.14 -0.688 q -0.132 -0.32 -0.416 -0.52 t -0.74 -0.2 q -0.648 0 -0.972 0.472 q -0.324 0.472 -0.324 1.24 v 1.152 q 0 0.816 0.324 1.264 q 0.324 0.448 0.972 0.448 q 0.456 0 0.744 -0.2 t 0.42 -0.52 q 0.132 -0.32 0.132 -0.688 v -0.096 h 0.672 v 0.096 q 0 0.568 -0.224 1.028 q -0.224 0.46 -0.664 0.732 q -0.44 0.272 -1.08 0.272 q -0.92 0 -1.444 -0.588 q -0.524 -0.588 -0.524 -1.7 Z" />
</svg>
