<?xml version="1.0" encoding="UTF-8"?>
<svg xmlns="http://www.w3.org/2000/svg" width="15" height="15" viewBox="0 0 10 10" >
  <rect fill="#000" stroke="#fff" stroke-width=".4" width="9.6" height="9.6" ry="1" x=".2" y=".2" />
  <path fill="#fff" d="M5 8.5001 2.7 8.5001 2.7 7.7101 3.3 7.7101 3.3 2.2801 2.7 2.2801 2.7 1.5001 5 1.5001Q6.29 1.5001 6.895 2.1251 7.5 2.7501 7.5 4.1001L7.5 5.9001Q7.5 7.2501 6.895 7.8751 6.29 8.5001 5 8.5001ZM4.14 2.2801 4.14 7.7201 4.88 7.7201Q5.49 7.7201 5.885 7.5551 6.28 7.3901 6.47 6.9801 6.66 6.5701 6.66 5.8401L6.66 4.1601Q6.66 3.4301 6.47 3.0201 6.28 2.6101 5.885 2.4451 5.49 2.2801 4.88 2.2801L4.14 2.2801Z"/>
</svg>
