<svg xmlns="http://www.w3.org/2000/svg" width="15" height="15" viewBox="0 0 10 10" >
  <rect fill="#fff" stroke="#326a60" stroke-width=".4" width="9.6" height="9.6" ry="1" x=".2" y=".2" />
  <circle cx="5" cy="5" fill="#326a60" r="4.3" />
  <path fill="#fff" d="M3.5 4.5 3.5 4.65 4.4 4.65 7.1 6.15 4.55 7.5 3.5 7.5 3.5 8.1 6.95 8.1 6.95 7.5 5 7.5 7.55 6.15 4.85 4.65 6.8 4.65 6.8 4.5Z" />
  <path fill="#fff" d="M2.092 7.864 2.792 6.764 2.292 6.764 2.292 4.264 1.892 4.264 1.892 6.764 1.392 6.764Z" />
  <path fill="#fff" d="M5.6215 1.7293 5.9145 3.8621 6.2865 3.8621 6.4652 2.7108 6.4813 2.6023 6.4975 2.7108 6.6835 3.8621 7.0556 3.8621 7.3515 1.7293 6.9735 1.7293 6.8285 2.9246 6.8183 3.014 6.8051 2.9261 6.6264 1.7293 6.3319 1.7293 6.1635 2.9173 6.1503 3.0052 6.14 2.9217 5.998 1.7293 5.6215 1.7293ZM4.9755 3.8621 5.3827 3.8621 5.3827 1.7293 4.9755 1.7293 4.9755 2.6038 4.372 2.6038 4.372 1.7293 3.9633 1.7293 3.9633 3.8621 4.372 3.8621 4.372 2.9378 4.9755 2.9378 4.9755 3.8621ZM3.663 2.9524 3.663 2.6419Q3.663 2.4969 3.6359 2.368 3.6088 2.2391 3.5575 2.1307 3.5107 2.0355 3.4455 1.9564 3.3803 1.8772 3.2938 1.8216 3.2074 1.763 3.0998 1.7315 2.9921 1.7 2.8691 1.7 2.7475 1.7 2.6435 1.7308 2.5395 1.7615 2.456 1.8186 2.371 1.8772 2.3058 1.9593 2.2406 2.0413 2.1952 2.1424 2.1483 2.2493 2.1242 2.3753 2.1 2.5013 2.1 2.6419L2.1 2.9524Q2.1 3.0843 2.1212 3.2029 2.1425 3.3216 2.1835 3.4227 2.2289 3.5325 2.2963 3.6197 2.3637 3.7069 2.4486 3.7683 2.5351 3.827 2.6405 3.8592 2.746 3.8914 2.8705 3.8914 2.9877 3.8914 3.0895 3.8628 3.1913 3.8343 3.2763 3.783 3.37 3.7244 3.4433 3.6365 3.5165 3.5486 3.5663 3.4432 3.6132 3.3377 3.6381 3.2139 3.663 3.0901 3.663 2.9524ZM3.2455 2.639 3.2455 2.9524Q3.2455 3.0315 3.2374 3.1048 3.2294 3.178 3.2133 3.2396 3.1928 3.3186 3.1583 3.3809 3.1239 3.4432 3.0741 3.4842 3.0346 3.5179 2.9833 3.5355 2.9321 3.553 2.8705 3.553 2.806 3.553 2.7555 3.534 2.705 3.5149 2.6654 3.4798 2.623 3.4402 2.5915 3.3765 2.56 3.3128 2.5438 3.2352 2.5292 3.1736 2.5233 3.1019 2.5175 3.0301 2.5175 2.9524L2.5175 2.639Q2.5175 2.557 2.5241 2.4822 2.5307 2.4075 2.5453 2.3445 2.5644 2.2625 2.5988 2.201 2.6332 2.1395 2.683 2.0984 2.7196 2.0706 2.7658 2.056 2.8119 2.0413 2.8691 2.0413 2.9291 2.0413 2.9782 2.0574 3.0272 2.0735 3.0668 2.1028 3.1166 2.1424 3.1532 2.2046 3.1898 2.2669 3.2118 2.346 3.2294 2.409 3.2374 2.483 3.2455 2.557 3.2455 2.639Z" />
</svg>
