<svg xmlns="http://www.w3.org/2000/svg" width="15" height="15" viewBox="0 0 10 10" >
  <rect fill="#fff" stroke="#326a60" stroke-width=".4" width="9.6" height="9.6" ry="1" x=".2" y=".2" />
  <circle cx="5" cy="5" fill="#326a60" r="4.3" />
  <path fill="#fff" d="M3.2 3 3.2 3.72 5.6 3.72 5.6 5.4 3.92 5.4 3.44 5.16 3.44 5.4 3.92 5.64 7.76 5.64 8.24 5.4 8.24 5.16 7.76 5.4 6.08 5.4 6.08 3.72 8.48 3.72 8.48 3Z" />
  <path fill="#fff" d="M2.092 6.364 2.792 5.264 2.292 5.264 2.292 2.764 1.892 2.764 1.892 5.264 1.392 5.264Z" />
  <path fill="#fff" d="M5.0225 7.48 5.0225 7.405 5.2325 7.405 5.2325 7.465Q5.2325 7.6925 5.36 7.8088 5.4875 7.925 5.71 7.925 5.905 7.925 6.0038 7.8375 6.1025 7.75 6.1025 7.61L6.1025 7.595Q6.1025 7.4575 6.0013 7.385 5.9 7.3125 5.6725 7.28 5.41 7.2425 5.2538 7.1313 5.0975 7.02 5.0975 6.795L5.0975 6.765Q5.0975 6.6275 5.1713 6.5238 5.245 6.42 5.375 6.36 5.505 6.3 5.675 6.3 5.8725 6.3 6.0113 6.3725 6.15 6.445 6.2238 6.5638 6.2975 6.6825 6.2975 6.825L6.2975 6.93 6.0875 6.93 6.0875 6.84Q6.0875 6.725 6.03 6.6488 5.9725 6.5725 5.8775 6.5338 5.7825 6.495 5.6725 6.495 5.5775 6.495 5.4938 6.5275 5.41 6.56 5.3588 6.6213 5.3075 6.6825 5.3075 6.7725L5.3075 6.7875Q5.3075 6.9325 5.425 6.9988 5.5425 7.065 5.7775 7.1 6.0525 7.14 6.1825 7.26 6.3125 7.38 6.3125 7.58L6.3125 7.61Q6.3125 7.8375 6.1588 7.9788 6.005 8.12 5.71 8.12 5.485 8.12 5.3325 8.0363 5.18 7.9525 5.1013 7.8075 5.0225 7.6625 5.0225 7.48ZM6.5525 7.48 6.5525 7.405 6.7625 7.405 6.7625 7.465Q6.7625 7.6925 6.89 7.8088 7.0175 7.925 7.24 7.925 7.435 7.925 7.5338 7.8375 7.6325 7.75 7.6325 7.61L7.6325 7.595Q7.6325 7.4575 7.5313 7.385 7.43 7.3125 7.2025 7.28 6.94 7.2425 6.7838 7.1313 6.6275 7.02 6.6275 6.795L6.6275 6.765Q6.6275 6.6275 6.7013 6.5238 6.775 6.42 6.905 6.36 7.035 6.3 7.205 6.3 7.4025 6.3 7.5413 6.3725 7.68 6.445 7.7538 6.5638 7.8275 6.6825 7.8275 6.825L7.8275 6.93 7.6175 6.93 7.6175 6.84Q7.6175 6.725 7.56 6.6488 7.5025 6.5725 7.4075 6.5338 7.3125 6.495 7.2025 6.495 7.1075 6.495 7.0238 6.5275 6.94 6.56 6.8888 6.6213 6.8375 6.6825 6.8375 6.7725L6.8375 6.7875Q6.8375 6.9325 6.955 6.9988 7.0725 7.065 7.3075 7.1 7.5825 7.14 7.7125 7.26 7.8425 7.38 7.8425 7.58L7.8425 7.61Q7.8425 7.8375 7.6888 7.9788 7.535 8.12 7.24 8.12 7.015 8.12 6.8625 8.0363 6.71 7.9525 6.6313 7.8075 6.5525 7.6625 6.5525 7.48ZM4.69 8.085 3.615 8.085 3.615 6.335 4.675 6.335 4.675 6.53 3.825 6.53 3.825 7.11 4.66 7.11 4.66 7.305 3.825 7.305 3.825 7.89 4.69 7.89 4.69 8.085ZM2 7.405 2 7.015Q2 6.6775 2.1638 6.4888 2.3275 6.3 2.615 6.3 2.905 6.3 3.0675 6.4888 3.23 6.6775 3.23 7.015L3.23 7.405Q3.23 7.7525 3.0675 7.9363 2.905 8.12 2.615 8.12 2.3275 8.12 2.1638 7.9363 2 7.7525 2 7.405ZM3.02 7.39 3.02 7.03Q3.02 6.79 2.9188 6.6425 2.8175 6.495 2.615 6.495 2.4125 6.495 2.3113 6.6425 2.21 6.79 2.21 7.03L2.21 7.39Q2.21 7.645 2.3113 7.785 2.4125 7.925 2.615 7.925 2.8175 7.925 2.9188 7.785 3.02 7.645 3.02 7.39Z" />
</svg>
