<svg xmlns="http://www.w3.org/2000/svg" width="15" height="15" viewBox="0 0 10 10" >
  <rect fill="#fff" stroke="#326a60" stroke-width=".4" width="9.6" height="9.6" ry="1" x=".2" y=".2" />
  <circle cx="5" cy="5" fill="#326a60" r="4.3" />
  <path fill="#fff" d="M3.2 4.5 3.2 5.22 5.6 5.22 5.6 6.9 3.92 6.9 3.44 6.66 3.44 6.9 3.92 7.14 7.76 7.14 8.24 6.9 8.24 6.66 7.76 6.9 6.08 6.9 6.08 5.22 8.48 5.22 8.48 4.5Z" />
  <path fill="#fff" d="M2.192 4.168 1.492 5.268 1.992 5.268 1.992 7.768 2.392 7.768 2.392 5.268 2.892 5.268Z" />
  <path fill="#fff" d="M6.035 3.116 6.035 3.026 6.431 3.026 6.431 3.098Q6.431 3.287 6.542 3.3995 6.653 3.512 6.881 3.512 7.061 3.512 7.148 3.434 7.235 3.356 7.235 3.248 7.235 3.179 7.202 3.1205 7.169 3.062 7.082 3.0185 6.995 2.975 6.833 2.948 6.623 2.912 6.4595 2.843 6.296 2.774 6.2015 2.6495 6.107 2.525 6.107 2.318L6.107 2.3Q6.107 2.129 6.197 1.9925 6.287 1.856 6.4505 1.778 6.614 1.7 6.833 1.7 7.082 1.7 7.253 1.79 7.424 1.88 7.5125 2.0285 7.601 2.177 7.601 2.348L7.601 2.456 7.205 2.456 7.205 2.384Q7.205 2.258 7.1075 2.165 7.01 2.072 6.833 2.072 6.686 2.072 6.5975 2.1335 6.509 2.195 6.509 2.3 6.509 2.408 6.6035 2.474 6.698 2.54 6.959 2.588 7.289 2.645 7.463 2.7875 7.637 2.93 7.637 3.206L7.637 3.242Q7.637 3.533 7.433 3.7085 7.229 3.884 6.875 3.884 6.599 3.884 6.4115 3.7835 6.224 3.683 6.1295 3.509 6.035 3.335 6.035 3.116ZM2.714 3.842 2.3 3.842 2.801 1.742 3.545 1.742 4.046 3.842 3.632 3.842 3.53 3.392 2.816 3.392 2.714 3.842ZM4.703 3.842 4.307 3.842 4.307 1.742 5.129 1.742Q5.345 1.742 5.4875 1.8305 5.63 1.919 5.7005 2.0585 5.771 2.198 5.771 2.351L5.771 2.423Q5.771 2.579 5.7005 2.723 5.63 2.867 5.4875 2.9585 5.345 3.05 5.129 3.05L4.703 3.05 4.703 3.842ZM3.146 1.94 2.9 3.014 3.443 3.014 3.2 1.94 3.146 1.94ZM4.703 2.12 4.703 2.672 5.09 2.672Q5.222 2.672 5.2985 2.6 5.375 2.528 5.375 2.414L5.375 2.378Q5.375 2.264 5.2985 2.192 5.222 2.12 5.09 2.12L4.703 2.12Z" />
</svg>
