<?xml version="1.0" encoding="UTF-8"?>
<svg xmlns="http://www.w3.org/2000/svg" width="15" height="15" viewBox="0 0 10 10" >
  <rect fill="#000" stroke="#fff" stroke-width=".4" width="9.6" height="9.6" ry="1" x=".2" y=".2" />
  <path fill="#fff" d="M 6.7568 5.4544 L 6.7568 5.2984 L 7.1936 5.2984 L 7.1936 5.4232 Q 7.1936 5.8964 7.4588 6.1382 Q 7.724 6.38 8.1868 6.38 Q 8.5924 6.38 8.7978 6.198 Q 9.0032 6.016 9.0032 5.7248 L 9.0032 5.6936 Q 9.0032 5.4076 8.7926 5.2568 Q 8.582 5.106 8.1088 5.0384 Q 7.5628 4.9604 7.2378 4.729 Q 6.9128 4.4976 6.9128 4.0296 L 6.9128 3.9672 Q 6.9128 3.6812 7.0662 3.4654 Q 7.2196 3.2496 7.49 3.1248 Q 7.7604 3 8.114 3 Q 8.5248 3 8.8134 3.1508 Q 9.102 3.3016 9.2554 3.5486 Q 9.4088 3.7956 9.4088 4.092 L 9.4088 4.3104 L 8.972 4.3104 L 8.972 4.1232 Q 8.972 3.884 8.8524 3.7254 Q 8.7328 3.5668 8.5352 3.4862 Q 8.3376 3.4056 8.1088 3.4056 Q 7.9112 3.4056 7.737 3.4732 Q 7.5628 3.5408 7.4562 3.6682 Q 7.3496 3.7956 7.3496 3.9828 L 7.3496 4.014 Q 7.3496 4.3156 7.594 4.4534 Q 7.8384 4.5912 8.3272 4.664 Q 8.8992 4.7472 9.1696 4.9968 Q 9.44 5.2464 9.44 5.6624 L 9.44 5.7248 Q 9.44 6.198 9.1202 6.4918 Q 8.8004 6.7856 8.1868 6.7856 Q 7.7188 6.7856 7.4016 6.6114 Q 7.0844 6.4372 6.9206 6.1356 Q 6.7568 5.834 6.7568 5.4544 Z M 1.0368 6.7128 L 0.6 6.7128 L 0.6 3.0728 L 1.9 3.0728 Q 2.2744 3.0728 2.5214 3.2106 Q 2.7684 3.3484 2.8906 3.572 Q 3.0128 3.7956 3.0128 4.0608 L 3.0128 4.2168 Q 3.0128 4.4196 2.901 4.6224 Q 2.7892 4.8252 2.5552 4.9344 L 2.5552 4.9968 Q 2.7112 5.0176 2.7996 5.119 Q 2.888 5.2204 2.888 5.4024 L 2.888 6.7128 L 2.4512 6.7128 L 2.4512 5.496 Q 2.4512 5.3608 2.3888 5.288 Q 2.3264 5.2152 2.1704 5.2152 L 1.0368 5.2152 L 1.0368 6.7128 Z M 5.15 6.7128 L 4.7132 6.7128 L 4.7132 3.4784 L 3.6524 3.4784 L 3.6524 3.0728 L 6.2108 3.0728 L 6.2108 3.4784 L 5.15 3.4784 L 5.15 6.7128 Z M 1.0368 3.4784 L 1.0368 4.8096 L 1.848 4.8096 Q 2.576 4.8096 2.576 4.1856 L 2.576 4.092 Q 2.576 3.8164 2.3966 3.6474 Q 2.2172 3.4784 1.848 3.4784 L 1.0368 3.4784 Z"/>
</svg>
