<?xml version="1.0" encoding="UTF-8"?>
<svg xmlns="http://www.w3.org/2000/svg" width="15" height="15" viewBox="0 0 10 10">
  <rect fill="#000" stroke="#fff" stroke-width=".4" width="9.6" height="9.6" ry="1" x=".2" y=".2" />
  <path fill="#fff" d="M4.5984 3.2275 5.4743 3.2275 5.4743 2.9023 4.5984 2.9023 4.5984 2.3647 5.6179 2.3647 5.6179 2.0293 4.1853 2.0293 4.1853 4.1621 5.6223 4.1621 5.6223 3.8296 4.5984 3.8296 4.5984 3.2275ZM2.7043 3.5 2.3 3.5Q2.3 3.6655 2.3637 3.7886 2.4274 3.9116 2.5373 4.0024 2.653 4.0947 2.809 4.1423 2.965 4.1899 3.1247 4.1899 3.2873 4.1899 3.425 4.1511 3.5627 4.1123 3.6623 4.0361 3.7619 3.9614 3.8183 3.8523 3.8747 3.7432 3.8747 3.6025 3.8747 3.4399 3.8 3.3154 3.7253 3.1909 3.5993 3.0972 3.5158 3.04 3.4162 2.9961 3.3166 2.9522 3.2067 2.9214 3.1042 2.8935 3.0229 2.8613 2.9416 2.8291 2.8845 2.7896 2.8273 2.7515 2.7973 2.7031 2.7673 2.6548 2.7673 2.5947 2.7673 2.5376 2.79 2.4885 2.8127 2.4395 2.8566 2.4028 2.9006 2.3677 2.9643 2.3479 3.028 2.3281 3.1101 2.3281 3.1994 2.3281 3.2661 2.3523 3.3327 2.3765 3.3781 2.419 3.4221 2.4629 3.4448 2.523 3.4675 2.583 3.4704 2.6548L3.8718 2.6548Q3.8718 2.5112 3.8161 2.3911 3.7605 2.271 3.6609 2.1831 3.5612 2.0967 3.4228 2.0484 3.2844 2 3.1174 2 2.9562 2 2.8186 2.0418 2.6809 2.0835 2.5798 2.1611 2.4787 2.2388 2.4216 2.3486 2.3645 2.4585 2.3645 2.5933 2.3645 2.7105 2.4077 2.8101 2.4509 2.9097 2.5359 2.9917 2.6208 3.0737 2.7548 3.1426 2.8889 3.2114 3.0661 3.2598 3.1804 3.2905 3.2573 3.3264 3.3342 3.3623 3.3825 3.4048 3.4294 3.4487 3.4492 3.4985 3.4689 3.5484 3.4689 3.6055 3.4689 3.6626 3.4455 3.7102 3.4221 3.7578 3.3781 3.7915 3.3342 3.8252 3.2705 3.8442 3.2067 3.8633 3.1247 3.8633 3.0324 3.8633 2.9555 3.8428 2.8786 3.8223 2.8244 3.7783 2.7687 3.7344 2.738 3.6655 2.7072 3.5967 2.7043 3.5ZM6.8718 2.3647 7.5295 2.3647 7.5295 2.0293 5.8098 2.0293 5.8098 2.3647 6.4587 2.3647 6.4587 4.1621 6.8718 4.1621 6.8718 2.3647Z"/>
  <path fill="#fff" d="M8.2377 6.2275 9.1137 6.2275 9.1137 5.9023 8.2377 5.9023 8.2377 5.3647 9.2572 5.3647 9.2572 5.0293 7.8246 5.0293 7.8246 7.1621 9.2616 7.1621 9.2616 6.8296 8.2377 6.8296 8.2377 6.2275ZM5.623 6.4429 5.6215 5.0293 5.2128 5.0293 5.2113 6.4429Q5.2099 6.5469 5.1894 6.626 5.1688 6.7051 5.1278 6.7578 5.0897 6.8091 5.0319 6.8347 4.974 6.8604 4.8993 6.8604 4.8305 6.8604 4.7777 6.8362 4.725 6.812 4.6884 6.7637 4.6488 6.7109 4.6291 6.6304 4.6093 6.5498 4.6078 6.4429L4.6063 5.0293 4.1947 5.0293 4.1932 6.4429Q4.1932 6.6216 4.2438 6.7615 4.2943 6.9014 4.3866 6.9966 4.4789 7.0918 4.6085 7.1416 4.7382 7.1914 4.8993 7.1914 5.0707 7.1914 5.2047 7.1416 5.3388 7.0918 5.4325 6.9951 5.5248 6.8999 5.5739 6.7608 5.623 6.6216 5.623 6.4429ZM1.0116 6.3652 1.3236 6.3652 1.725 7.1621 2.1659 7.1621 2.1659 7.1431 1.7074 6.2627Q1.7953 6.2232 1.8664 6.169 1.9374 6.1147 1.9887 6.0415 2.0385 5.9697 2.0656 5.8782 2.0927 5.7866 2.0927 5.6724 2.0927 5.5142 2.0377 5.3941 1.9828 5.2739 1.8817 5.1933 1.7792 5.1128 1.6356 5.071 1.4921 5.0293 1.3148 5.0293L.6 5.0293.6 7.1621 1.0116 7.1621 1.0116 6.3652ZM6.9106 5.3647 7.5682 5.3647 7.5682 5.0293 5.8485 5.0293 5.8485 5.3647 6.4975 5.3647 6.4975 7.1621 6.9106 7.1621 6.9106 5.3647ZM3.8886 6.2524 3.8886 5.9419Q3.8886 5.7969 3.8615 5.668 3.8344 5.5391 3.7831 5.4307 3.7362 5.3355 3.671 5.2564 3.6058 5.1772 3.5194 5.1216 3.433 5.063 3.3253 5.0315 3.2177 5 3.0946 5 2.9731 5 2.8691 5.0308 2.765 5.0615 2.6816 5.1186 2.5966 5.1772 2.5314 5.2593 2.4662 5.3413 2.4208 5.4424 2.3739 5.5493 2.3497 5.6753 2.3256 5.8013 2.3256 5.9419L2.3256 6.2524Q2.3256 6.3843 2.3468 6.5029 2.3681 6.6216 2.4091 6.7227 2.4545 6.8325 2.5219 6.9197 2.5893 7.0069 2.6742 7.0683 2.7606 7.127 2.8661 7.1592 2.9716 7.1914 3.0961 7.1914 3.2133 7.1914 3.3151 7.1628 3.4169 7.1343 3.5019 7.083 3.5956 7.0244 3.6688 6.9365 3.7421 6.8486 3.7919 6.7432 3.8388 6.6377 3.8637 6.5139 3.8886 6.3901 3.8886 6.2524ZM3.4711 5.939 3.4711 6.2524Q3.4711 6.3316 3.463 6.4048 3.455 6.478 3.4389 6.5396 3.4183 6.6186 3.3839 6.6809 3.3495 6.7432 3.2997 6.7842 3.2602 6.8179 3.2089 6.8355 3.1576 6.853 3.0961 6.853 3.0317 6.853 2.9811 6.834 2.9306 6.8149 2.891 6.7798 2.8485 6.7402 2.817 6.6765 2.7856 6.6128 2.7694 6.5352 2.7548 6.4736 2.7489 6.4019 2.7431 6.3301 2.7431 6.2524L2.7431 5.939Q2.7431 5.857 2.7496 5.7822 2.7563 5.7075 2.7709 5.6445 2.7899 5.5625 2.8244 5.501 2.8588 5.4395 2.9086 5.3984 2.9452 5.3706 2.9914 5.3559 3.0375 5.3413 3.0946 5.3413 3.1547 5.3413 3.2038 5.3574 3.2528 5.3735 3.2924 5.4028 3.3422 5.4424 3.3788 5.5046 3.4154 5.5669 3.4374 5.646 3.455 5.709 3.463 5.783 3.4711 5.857 3.4711 5.939ZM1.3163 6.0313 1.0116 6.0313 1.0116 5.3633 1.3148 5.3633Q1.3998 5.3633 1.4657 5.3838 1.5316 5.4043 1.577 5.4424 1.6283 5.4849 1.654 5.55 1.6796 5.6152 1.6796 5.7002 1.6796 5.7705 1.6598 5.8276 1.64 5.8848 1.6019 5.9258 1.5566 5.9771 1.484 6.0042 1.4115 6.0313 1.3163 6.0313Z" />
</svg>
