<?xml version="1.0" encoding="UTF-8"?>
<svg xmlns="http://www.w3.org/2000/svg" width="15" height="15" viewBox="0 0 10 10" >
  <rect fill="#000" stroke="#fff" stroke-width=".4" width="9.6" height="9.6" ry="1" x=".2" y=".2" />
  <path fill="#fff" d="M 0.6 5.776 L 0.6 5.536 L 1.272 5.536 L 1.272 5.728 Q 1.272 6.456 1.68 6.828 Q 2.088 7.2 2.8 7.2 Q 3.424 7.2 3.74 6.92 Q 4.056 6.64 4.056 6.192 L 4.056 6.144 Q 4.056 5.704 3.732 5.472 Q 3.408 5.24 2.68 5.136 Q 1.84 5.016 1.34 4.66 Q 0.84 4.304 0.84 3.584 L 0.84 3.488 Q 0.84 3.048 1.076 2.716 Q 1.312 2.384 1.728 2.192 Q 2.144 2 2.688 2 Q 3.32 2 3.764 2.232 Q 4.208 2.464 4.444 2.844 Q 4.68 3.224 4.68 3.68 L 4.68 4.016 L 4.008 4.016 L 4.008 3.728 Q 4.008 3.36 3.824 3.116 Q 3.64 2.872 3.336 2.748 Q 3.032 2.624 2.68 2.624 Q 2.376 2.624 2.108 2.728 Q 1.84 2.832 1.676 3.028 Q 1.512 3.224 1.512 3.512 L 1.512 3.56 Q 1.512 4.024 1.888 4.236 Q 2.264 4.448 3.016 4.56 Q 3.896 4.688 4.312 5.072 Q 4.728 5.456 4.728 6.096 L 4.728 6.192 Q 4.728 6.92 4.236 7.372 Q 3.744 7.824 2.8 7.824 Q 2.08 7.824 1.592 7.556 Q 1.104 7.288 0.852 6.824 Q 0.6 6.36 0.6 5.776 Z M 9.432 7.712 L 5.832 7.712 L 5.832 2.112 L 6.504 2.112 L 6.504 7.088 L 9.432 7.088 L 9.432 7.712 Z"/>
</svg>
