<?xml version="1.0" encoding="UTF-8"?>
<svg xmlns="http://www.w3.org/2000/svg" width="15" height="15" viewBox="0 0 10 10" >
  <rect fill="#000" stroke="#fff" stroke-width=".4" width="9.6" height="9.6" ry="1" x=".2" y=".2" />
  <path fill="#fff" d="M.9 7.652.9 7.547 1.362 7.547 1.362 7.631Q1.362 7.8515 1.4915 7.9828 1.621 8.114 1.887 8.114 2.097 8.114 2.1985 8.023 2.3 7.932 2.3 7.806 2.3 7.7255 2.2615 7.6573 2.223 7.589 2.1215 7.5383 2.02 7.4875 1.831 7.456 1.586 7.414 1.3952 7.3335 1.2045 7.253 1.0942 7.1078.984 6.9625.984 6.721L.984 6.7Q.984 6.5005 1.089 6.3413 1.194 6.182 1.3847 6.091 1.5755 6 1.831 6 2.1215 6 2.321 6.105 2.5205 6.21 2.6238 6.3833 2.727 6.5565 2.727 6.756L2.727 6.882 2.265 6.882 2.265 6.798Q2.265 6.651 2.1513 6.5425 2.0375 6.434 1.831 6.434 1.6595 6.434 1.5562 6.5058 1.453 6.5775 1.453 6.7 1.453 6.826 1.5633 6.903 1.6735 6.98 1.978 7.036 2.363 7.1025 2.566 7.2688 2.769 7.435 2.769 7.757L2.769 7.799Q2.769 8.1385 2.531 8.3433 2.293 8.548 1.88 8.548 1.558 8.548 1.3393 8.4308 1.1205 8.3135 1.0103 8.1105.9 7.9075.9 7.652ZM4.218 8.499 3.756 8.499 3.756 6.49 3.105 6.49 3.105 6.049 4.869 6.049 4.869 6.49 4.218 6.49 4.218 8.499ZM7.914 8.499 7.452 8.499 7.452 6.049 8.411 6.049Q8.663 6.049 8.8293 6.1523 8.9955 6.2555 9.0777 6.4183 9.16 6.581 9.16 6.7595L9.16 6.8435Q9.16 7.0255 9.0777 7.1935 8.9955 7.3615 8.8293 7.4683 8.663 7.575 8.411 7.575L7.914 7.575 7.914 8.499ZM5.226 7.547 5.226 7.001Q5.226 6.5285 5.4675 6.2643 5.709 6 6.129 6 6.549 6 6.7905 6.2643 7.032 6.5285 7.032 7.001L7.032 7.547Q7.032 8.0335 6.7905 8.2908 6.549 8.548 6.129 8.548 5.709 8.548 5.4675 8.2908 5.226 8.0335 5.226 7.547ZM6.57 7.575 6.57 6.973Q6.57 6.819 6.5245 6.693 6.479 6.567 6.3828 6.4935 6.2865 6.42 6.129 6.42 5.9715 6.42 5.8735 6.4935 5.7755 6.567 5.7318 6.693 5.688 6.819 5.688 6.973L5.688 7.575Q5.688 7.82 5.7825 7.974 5.877 8.128 6.129 8.128 6.381 8.128 6.4755 7.974 6.57 7.82 6.57 7.575ZM7.914 6.49 7.914 7.134 8.3655 7.134Q8.5195 7.134 8.6088 7.05 8.698 6.966 8.698 6.833L8.698 6.791Q8.698 6.658 8.6088 6.574 8.5195 6.49 8.3655 6.49L7.914 6.49Z"/>
</svg>
