<?xml version="1.0" encoding="UTF-8"?>
<svg xmlns="http://www.w3.org/2000/svg" width="15" height="15" viewBox="0 0 10 10" >
  <rect fill="#000" stroke="#fff" stroke-width=".4" width="9.6" height="9.6" ry="1" x=".2" y=".2" />
  <path fill="#fff" d="M3.6467 3.0488 4.135 6.6036 4.7551 6.6036 5.053 4.6846 5.0798 4.5039 5.1067 4.6846 5.4167 6.6036 6.0369 6.6036 6.53 3.0488 5.9001 3.0488 5.6584 5.0411 5.6414 5.1899 5.6193 5.0434 5.3215 3.0488 4.8308 3.0488 4.55 5.0288 4.5281 5.1753 4.511 5.0362 4.2742 3.0488 3.6467 3.0488ZM1.4739 5.5.8 5.5Q.8 5.7759.9062 5.9809 1.0124 6.186 1.1956 6.3374 1.3884 6.4912 1.6484 6.5706 1.9084 6.6499 2.1745 6.6499 2.4455 6.6499 2.675 6.5852 2.9045 6.5205 3.0705 6.3935 3.2366 6.2691 3.3305 6.0872 3.4245 5.9053 3.4245 5.6709 3.4245 5.3999 3.3 5.1924 3.1755 4.9849 2.9656 4.8286 2.8264 4.7334 2.6604 4.6601 2.4943 4.5869 2.3113 4.5357 2.1403 4.4893 2.0049 4.4356 1.8694 4.3819 1.7742 4.3159 1.6789 4.2524 1.6289 4.1719 1.5789 4.0913 1.5789 3.9912 1.5789 3.896 1.6166 3.8142 1.6545 3.7325 1.7278 3.6714 1.801 3.6128 1.9072 3.5798 2.0134 3.5469 2.1501 3.5469 2.2991 3.5469 2.4102 3.5872 2.5212 3.6275 2.5969 3.6982 2.6702 3.7715 2.708 3.8716 2.7458 3.9717 2.7507 4.0913L3.4196 4.0913Q3.4196 3.8521 3.3269 3.6519 3.2341 3.4516 3.0681 3.3052 2.9021 3.1612 2.6714 3.0806 2.4407 3 2.1623 3 1.8938 3 1.6643 3.0696 1.4348 3.1391 1.2664 3.2685 1.0978 3.3979 1.0027 3.5811.9075 3.7641.9075 3.9888.9075 4.1841.9795 4.3501 1.0515 4.5161 1.1931 4.6528 1.3347 4.7896 1.5581 4.9043 1.7815 5.0191 2.0769 5.0996 2.2673 5.1509 2.3955 5.2107 2.5236 5.2705 2.6042 5.3413 2.6824 5.4146 2.7153 5.4976 2.7483 5.5806 2.7483 5.6758 2.7483 5.771 2.7092 5.8504 2.6702 5.9297 2.5969 5.9859 2.5236 6.042 2.4174 6.0738 2.3113 6.1055 2.1745 6.1055 2.0207 6.1055 1.8925 6.0713 1.7644 6.0371 1.6741 5.9639 1.5813 5.8907 1.53 5.7759 1.4788 5.6612 1.4739 5.5ZM9.1106 3.0488 7.0549 3.0488 7.0549 3.6031 7.7311 3.6031 7.7311 6.0518 7.0549 6.0518 7.0549 6.6036 9.1106 6.6036 9.1106 6.0518 8.4172 6.0518 8.4172 3.6031 9.1106 3.6031 9.1106 3.0488Z"/>
</svg>
