<?xml version="1.0" encoding="UTF-8"?>
<svg xmlns="http://www.w3.org/2000/svg" width="15" height="15" viewBox="0 0 10 10" >
  <rect fill="#000" stroke="#fff" stroke-width=".4" width="9.6" height="9.6" ry="1" x=".2" y=".2" />
  <path fill="#fff" d="M 0.7 5.6344 L 0.7 5.4034 L 1.3468 5.4034 L 1.3468 5.5882 Q 1.3468 6.2889 1.7395 6.647 Q 2.1322 7.005 2.8175 7.005 Q 3.4181 7.005 3.7223 6.7355 Q 4.0264 6.466 4.0264 6.0348 L 4.0264 5.9886 Q 4.0264 5.5651 3.7146 5.3418 Q 3.4027 5.1185 2.702 5.0184 Q 1.8935 4.9029 1.4123 4.5603 Q 0.931 4.2176 0.931 3.5246 L 0.931 3.4322 Q 0.931 3.0087 1.1582 2.6892 Q 1.3853 2.3696 1.7857 2.1848 Q 2.1861 2 2.7097 2 Q 3.318 2 3.7454 2.2233 Q 4.1727 2.4466 4.3999 2.8124 Q 4.627 3.1781 4.627 3.617 L 4.627 3.9404 L 3.9802 3.9404 L 3.9802 3.6632 Q 3.9802 3.309 3.8031 3.0741 Q 3.626 2.8393 3.3334 2.7199 Q 3.0408 2.6006 2.702 2.6006 Q 2.4094 2.6006 2.1515 2.7007 Q 1.8935 2.8008 1.7356 2.9895 Q 1.5778 3.1781 1.5778 3.4553 L 1.5778 3.5015 Q 1.5778 3.9481 1.9397 4.1522 Q 2.3016 4.3562 3.0254 4.464 Q 3.8724 4.5872 4.2728 4.9568 Q 4.6732 5.3264 4.6732 5.9424 L 4.6732 6.0348 Q 4.6732 6.7355 4.1997 7.1706 Q 3.7261 7.6056 2.8175 7.6056 Q 2.1245 7.6056 1.6548 7.3476 Q 1.1851 7.0897 0.9425 6.6431 Q 0.7 6.1965 0.7 5.6344 Z M 9.3548 7.4978 L 5.474 7.4978 L 5.474 6.5276 L 8.708 2.8008 L 8.708 2.7084 L 5.6588 2.7084 L 5.6588 2.1078 L 9.2624 2.1078 L 9.2624 3.078 L 6.0284 6.8048 L 6.0284 6.8972 L 9.3548 6.8972 L 9.3548 7.4978 Z"/>
  <line x1="0.7" y1="0.7" x2="9.3" y2="9.3" stroke="#aaa" stroke-width="0.5px" />
  <line x1="0.5" y1="0.5" x2="9.5" y2="9.5" stroke="#fff" stroke-width="0.45px" />
</svg>
