<?xml version="1.0" encoding="UTF-8"?>
<svg xmlns="http://www.w3.org/2000/svg" xmlns:xlink="http://www.w3.org/1999/xlink" width="20" height="14.199162" viewBox="0 0 20 14.199162">
<path fill-rule="evenodd" fill="rgb(100%, 100%, 100%)" fill-opacity="1" stroke-width="0.03" stroke-linecap="butt" stroke-linejoin="bevel" stroke="rgb(0%, 0%, 0%)" stroke-opacity="1" stroke-miterlimit="4" d="M 1.012111 0.0121211 L 30.017887 0.0121211 C 30.569397 0.0121211 31.017878 0.460602 31.017878 1.012111 L 31.017878 21.017976 C 31.017878 21.569485 30.569397 22.017966 30.017887 22.017966 L 1.012111 22.017966 C 0.460602 22.017966 0.0121211 21.569485 0.0121211 21.017976 L 0.0121211 1.012111 C 0.0121211 0.460602 0.460602 0.0121211 1.012111 0.0121211 Z M 1.012111 0.0121211 " transform="matrix(0.644538, 0, 0, 0.644538, 0, 0)"/>
<path fill-rule="nonzero" fill="rgb(0%, 0%, 0%)" fill-opacity="1" d="M 4.042969 9.023438 L 7.742188 2.59375 C 8.957031 0.46875 10.894531 0.46875 12.164062 2.59375 L 15.863281 9.023438 C 16.949219 10.816406 15.691406 13.199219 13.207031 13.199219 L 6.515625 13.199219 C 4.117188 13.183594 3.21875 10.597656 4.042969 9.023438 Z M 4.042969 9.023438 "/>
<path fill="none" stroke-width="1.7" stroke-linecap="butt" stroke-linejoin="miter" stroke="rgb(100%, 100%, 100%)" stroke-opacity="1" stroke-miterlimit="4" d="M 61.245746 24.595297 C 61.245746 30.893447 56.136946 36.002247 49.838795 36.002247 C 43.567675 36.002247 38.458875 30.893447 38.458875 24.595297 C 38.458875 18.297146 43.567675 13.188346 49.838795 13.188346 C 56.136946 13.188346 61.245746 18.297146 61.245746 24.595297 Z M 61.245746 24.595297 " transform="matrix(0.144512, 0, 0, 0.144512, 2.785994, 0.121474)"/>
<path fill-rule="nonzero" fill="rgb(100%, 100%, 100%)" fill-opacity="1" d="M 8.148438 10.339844 C 8.148438 11.25 7.410156 11.984375 6.5 11.984375 C 5.589844 11.984375 4.851562 11.25 4.851562 10.339844 C 4.851562 9.429688 5.589844 8.691406 6.5 8.691406 C 7.410156 8.691406 8.148438 9.429688 8.148438 10.339844 Z M 8.148438 10.339844 "/>
<path fill-rule="nonzero" fill="rgb(100%, 100%, 100%)" fill-opacity="1" d="M 15.113281 10.339844 C 15.113281 11.25 14.375 11.984375 13.464844 11.984375 C 12.554688 11.984375 11.816406 11.25 11.816406 10.339844 C 11.816406 9.429688 12.554688 8.691406 13.464844 8.691406 C 14.375 8.691406 15.113281 9.429688 15.113281 10.339844 Z M 15.113281 10.339844 "/>
</svg>
