<?xml version="1.0" encoding="UTF-8"?>
<svg xmlns="http://www.w3.org/2000/svg" xmlns:xlink="http://www.w3.org/1999/xlink" width="16" height="15.326743" viewBox="0 0 16 15.326743">
<path fill-rule="nonzero" fill="rgb(100%, 100%, 100%)" fill-opacity="1" stroke-width="0.3" stroke-linecap="butt" stroke-linejoin="miter" stroke="rgb(0%, 0%, 0%)" stroke-opacity="1" stroke-miterlimit="4" d="M 16.250631 10.338341 L 11.367275 1.837383 C 10.052525 -0.41239 6.835064 -0.428723 5.499899 1.837383 L 0.604294 10.338341 C -0.898277 12.971924 1.588315 15.870906 4.11982 15.870906 L 12.984172 15.870906 C 15.719831 15.887238 17.287731 12.29005 16.250631 10.338341 Z M 16.250631 10.338341 " transform="matrix(0.956694, 0, 0, 0.956694, 0.000000912374, 0)"/>
<path fill-rule="nonzero" fill="rgb(0%, 0%, 0%)" fill-opacity="1" d="M 14.558594 9.808594 L 10.480469 2.714844 C 9.136719 0.371094 7 0.371094 5.597656 2.714844 L 1.519531 9.808594 C 0.320312 11.785156 1.707031 14.417969 4.453125 14.417969 L 11.832031 14.417969 C 14.476562 14.402344 15.46875 11.546875 14.558594 9.808594 Z M 14.558594 9.808594 "/>
<path fill-rule="nonzero" fill="rgb(84.705882%, 83.137255%, 71.372549%)" fill-opacity="1" stroke-width="0.283" stroke-linecap="butt" stroke-linejoin="miter" stroke="rgb(84.705882%, 83.137255%, 71.372549%)" stroke-opacity="0.72549" stroke-miterlimit="4" d="M 2.453926 11.7715 C 2.453926 12.82085 3.303205 13.670129 4.352555 13.670129 C 5.401905 13.670129 6.251184 12.82085 6.251184 11.7715 C 6.251184 10.72215 5.401905 9.868788 4.352555 9.868788 C 3.303205 9.868788 2.453926 10.72215 2.453926 11.7715 Z M 2.453926 11.7715 " transform="matrix(0.956694, 0, 0, 0.956694, 0.000000912374, 0)"/>
<path fill-rule="nonzero" fill="rgb(84.705882%, 83.137255%, 71.372549%)" fill-opacity="1" stroke-width="0.283" stroke-linecap="butt" stroke-linejoin="miter" stroke="rgb(84.705882%, 83.137255%, 71.372549%)" stroke-opacity="0.72549" stroke-miterlimit="4" d="M 6.602328 4.091239 C 6.602328 5.136506 7.455691 5.985785 8.500958 5.985785 C 9.550307 5.985785 10.40367 5.136506 10.40367 4.091239 C 10.40367 3.037806 9.550307 2.188527 8.500958 2.188527 C 7.455691 2.188527 6.602328 3.037806 6.602328 4.091239 Z M 6.602328 4.091239 " transform="matrix(0.956694, 0, 0, 0.956694, 0.000000912374, 0)"/>
<path fill="none" stroke-width="0.283" stroke-linecap="butt" stroke-linejoin="miter" stroke="rgb(23.921569%, 23.921569%, 23.921569%)" stroke-opacity="1" stroke-miterlimit="4" d="M 10.485331 11.7715 C 10.485331 12.82085 11.338693 13.670129 12.38396 13.670129 C 13.43331 13.670129 14.286672 12.82085 14.286672 11.7715 C 14.286672 10.72215 13.43331 9.868788 12.38396 9.868788 C 11.338693 9.868788 10.485331 10.72215 10.485331 11.7715 Z M 10.485331 11.7715 " transform="matrix(0.956694, 0, 0, 0.956694, 0.000000912374, 0)"/>
</svg>
