<?xml version="1.0" encoding="UTF-8"?>
<svg xmlns="http://www.w3.org/2000/svg" xmlns:xlink="http://www.w3.org/1999/xlink" width="8.679246" height="20" viewBox="0 0 8.679246 20">
<path fill-rule="evenodd" fill="rgb(0%, 0%, 0%)" fill-opacity="1" stroke-width="2" stroke-linecap="round" stroke-linejoin="miter" stroke="rgb(7.843137%, 7.843137%, 7.843137%)" stroke-opacity="1" stroke-miterlimit="1.5" d="M 59.993746 39.993754 L 150.010927 39.993754 L 150.010927 250.006239 L 59.993746 250.006239 Z M 59.993746 39.993754 " transform="matrix(0.0943396, 0, 0, 0.0943396, -5.566038, -3.679246)"/>
<path fill="none" stroke-width="2" stroke-linecap="round" stroke-linejoin="miter" stroke="rgb(100%, 100%, 100%)" stroke-opacity="1" stroke-dasharray="0 3" stroke-miterlimit="1.5" d="M 103.511712 49.020316 L 103.511712 240.979677 " transform="matrix(0.0943396, 0, 0, 0.0943396, -5.566038, -3.679246)"/>
<path fill="none" stroke-width="2" stroke-linecap="round" stroke-linejoin="miter" stroke="rgb(100%, 100%, 100%)" stroke-opacity="1" stroke-dasharray="0 3" stroke-miterlimit="1.5" d="M 106.492962 49.020316 L 106.492962 240.979677 " transform="matrix(0.0943396, 0, 0, 0.0943396, -5.566038, -3.679246)"/>
<path fill="none" stroke-width="2" stroke-linecap="round" stroke-linejoin="miter" stroke="rgb(100%, 100%, 100%)" stroke-opacity="1" stroke-dasharray="0 3" stroke-miterlimit="1.5" d="M 106.492962 43.01641 L 148.520302 85.002344 " transform="matrix(0.0943396, 0, 0, 0.0943396, -5.566038, -3.679246)"/>
<path fill="none" stroke-width="2" stroke-linecap="round" stroke-linejoin="miter" stroke="rgb(100%, 100%, 100%)" stroke-opacity="1" stroke-dasharray="0 3" stroke-miterlimit="1.5" d="M 103.511712 43.01641 L 61.484371 85.002344 " transform="matrix(0.0943396, 0, 0, 0.0943396, -5.566038, -3.679246)"/>
<path fill="none" stroke-width="2" stroke-linecap="round" stroke-linejoin="miter" stroke="rgb(100%, 100%, 100%)" stroke-opacity="1" stroke-dasharray="0 3" stroke-miterlimit="1.5" d="M 103.511712 45.99766 L 61.484371 87.983594 " transform="matrix(0.0943396, 0, 0, 0.0943396, -5.566038, -3.679246)"/>
<path fill="none" stroke-width="2" stroke-linecap="round" stroke-linejoin="miter" stroke="rgb(100%, 100%, 100%)" stroke-opacity="1" stroke-dasharray="0 3" stroke-miterlimit="1.5" d="M 103.511712 246.983583 L 61.484371 204.997648 " transform="matrix(0.0943396, 0, 0, 0.0943396, -5.566038, -3.679246)"/>
<path fill="none" stroke-width="2" stroke-linecap="round" stroke-linejoin="miter" stroke="rgb(100%, 100%, 100%)" stroke-opacity="1" stroke-dasharray="0 3" stroke-miterlimit="1.5" d="M 103.511712 244.002333 L 61.484371 202.016398 " transform="matrix(0.0943396, 0, 0, 0.0943396, -5.566038, -3.679246)"/>
<path fill="none" stroke-width="2" stroke-linecap="round" stroke-linejoin="miter" stroke="rgb(100%, 100%, 100%)" stroke-opacity="1" stroke-dasharray="0 3" stroke-miterlimit="1.5" d="M 106.492962 45.99766 L 148.520302 87.983594 " transform="matrix(0.0943396, 0, 0, 0.0943396, -5.566038, -3.679246)"/>
<path fill="none" stroke-width="2" stroke-linecap="round" stroke-linejoin="miter" stroke="rgb(100%, 100%, 100%)" stroke-opacity="1" stroke-dasharray="0 3" stroke-miterlimit="1.5" d="M 106.492962 246.983583 L 148.520302 204.997648 " transform="matrix(0.0943396, 0, 0, 0.0943396, -5.566038, -3.679246)"/>
<path fill="none" stroke-width="2" stroke-linecap="round" stroke-linejoin="miter" stroke="rgb(100%, 100%, 100%)" stroke-opacity="1" stroke-dasharray="0 3" stroke-miterlimit="1.5" d="M 106.492962 244.002333 L 148.520302 202.016398 " transform="matrix(0.0943396, 0, 0, 0.0943396, -5.566038, -3.679246)"/>
</svg>
