<svg xmlns="http://www.w3.org/2000/svg" width="10" height="15" viewBox="0 0 10 15">
  <rect fill="#00f" stroke="#fff" stroke-width=".4" width="9.6" height="14.6" ry="1" x=".2" y=".2"/>
  <path fill="#fff" d="M2.3014 10.1264H3.3726V4.5806H3.3154L.9 5.4516v.923l1.4014-.5044v4.2562ZM9.0692 8.0152V6.6892a3.8948 3.8948 90 00-.026-.468q-.0286-.2392-.091-.4498a2.3504 2.3504 90 00-.0078-.0286 2.2308 2.2308 90 00-.1534-.377 1.7264 1.7264 90 00-.2054-.3094 1.5236 1.5236 90 00-.572-.416 1.7914 1.7914 90 00-.4758-.1248A2.2568 2.2568 90 007.2596 4.5a2.106 2.106 90 00-.429.0416 1.7108 1.7108 90 00-.3198.0988 1.4924 1.4924 90 00-.5642.416q-.2366.2782-.3614.6864a2.7248 2.7248 90 00-.0936.442q-.0286.208-.0312.4394a4.4876 4.4876 90 00-.0026.065v1.326a3.8376 3.8376 90 00.0286.468q.0286.2418.091.4498a2.3296 2.3296 90 00.0078.0286q.13.4108.364.6838a1.4742 1.4742 90 00.5694.4186 1.8018 1.8018 90 00.4966.1274 2.2438 2.2438 90 00.2522.013 2.1476 2.1476 90 00.4212-.039 1.7316 1.7316 90 00.3328-.1014 1.4742 1.4742 90 00.5694-.4186 1.6978 1.6978 90 00.2366-.3744 2.236 2.236 90 00.117-.3094 2.7612 2.7612 90 00.0936-.442q.0286-.2054.0312-.4368a4.5552 4.5552 90 000-.0676ZM8.0032 6.4578 6.5264 7.5576V7.3782 7.1364 6.5228a3.3748 3.3748 90 01.0078-.2366q.0104-.1638.039-.2964.0468-.2262.1456-.3666a.611.611 90 01.143-.1482.5642.5642 90 01.0832-.052.637.637 90 01.1872-.0572.8424.8424 90 01.1274-.0078.8554.8554 90 01.1612.013.6812.6812 90 01.1274.0364q.1274.052.2158.1586.1144.1326.1716.3562.0494.1872.0624.4368a3.4008 3.4008 90 01.0052.0988Zm0 1.0738v.6448a3.367 3.367 90 01-.0078.2444q-.0104.1196-.026.2236a1.807 1.807 90 01-.013.065 1.4092 1.4092 90 01-.0468.169q-.0286.0832-.065.1508a.754.754 90 01-.0312.052.6032.6032 90 01-.1326.1456.546.546 90 01-.0962.0598.6552.6552 90 01-.1924.0572.8528.8528 90 01-.1248.0078.8346.8346 90 01-.1586-.013A.6136.6136 90 016.932 9.2762.572.572 90 016.75 9.1176.7228.7228 90 016.7006 9.0448q-.0728-.117-.1144-.286a1.534 1.534 90 01-.0104-.039A1.9708 1.9708 90 016.542 8.5196q-.0104-.1014-.0156-.2132a3.2578 3.2578 90 010-.0312L8.0032 7.178v.169.1846Z" />
</svg>
