<svg xmlns="http://www.w3.org/2000/svg" width="10" height="15" viewBox="0 0 10 15">
  <rect fill="#00f" stroke="#fff" stroke-width=".4" width="9.6" height="14.6" ry="1" x=".2" y=".2"/>
  <path fill="#fff" d="M3.636 8.536q0 .252.028.468a2.544 2.544 90 00.068.352q.096.352.272.58a1.344 1.344 90 00.064.08 1.116 1.116 90 00.352.272 1.172 1.172 90 00.52.12 1.316 1.316 90 00.088-.004 1.1 1.1 90 00.436-.116q.232-.12.396-.332a1.38 1.38 90 00.128-.192 1.664 1.664 90 00.124-.308 1.952 1.952 90 00.06-.248A2.372 2.372 90 006.2 8.82a2.536 2.536 90 00-.008-.212 2.088 2.088 90 00-.08-.428 1.844 1.844 90 00-.056-.16A1.516 1.516 90 005.86 7.668a1.176 1.176 90 00-.4-.328 1.072 1.072 90 00-.24-.088 1.32 1.32 90 00-.3-.032 1.584 1.584 90 00-.08 0 1.368 1.368 90 00-.36.068 1.356 1.356 90 00-.376.188 1.584 1.584 90 00-.268.26q-.12.144-.2.32v.48Zm2.9-4.184H6.44a4.164 4.164 90 00-.568.04A3.028 3.028 90 005.3 4.524a2.804 2.804 90 00-.264.108 2.292 2.292 90 00-.576.372 2.248 2.248 90 00-.552.744 2.684 2.684 90 00-.132.34 3.164 3.164 90 00-.124.628 2.648 2.648 90 01.108-.112 3.228 3.228 90 01.204-.18 2.148 2.148 90 01.112-.088 2.5 2.5 90 01.284-.172 2.216 2.216 90 01.12-.056 2.536 2.536 90 01.356-.124 1.908 1.908 90 01.2-.044 2.248 2.248 90 01.356-.028 2.78 2.78 90 01.452.036 2.084 2.084 90 01.612.196 2.228 2.228 90 01.76.624 2.544 2.544 90 01.168.248 2.844 2.844 90 01.284.676 3.756 3.756 90 01.032.112 4.052 4.052 90 01.12.992q0 .62-.2 1.152a3.092 3.092 90 01-.012.036 2.72 2.72 90 01-.556.892 2.52 2.52 90 01-.144.14 2.68 2.68 90 01-.752.476 2.688 2.688 90 01-.508.16 3.292 3.292 90 01-.676.068 3.408 3.408 90 01-.376-.02 2.76 2.76 90 01-.86-.236q-.552-.256-.932-.708a2.94 2.94 90 01-.244-.328 3.348 3.348 90 01-.352-.74A3.808 3.808 90 012.08 9.204 4.508 4.508 90 012 8.336V7.712a7.024 7.024 90 01.02-.56 5.868 5.868 90 01.256-1.32 4.86 4.86 90 01.092-.264 4.144 4.144 90 01.728-1.232 3.624 3.624 90 01.232-.244 3.836 3.836 90 011.12-.736Q5.256 3 6.32 3h.216V4.352Z" />
</svg>
