<svg xmlns="http://www.w3.org/2000/svg" width="10" height="15" viewBox="0 0 10 15">
  <rect fill="#00f" stroke="#fff" stroke-width=".4" width="9.6" height="14.6" ry="1" x=".2" y=".2"/>
  <path fill="#fff" d="M4.127 4.652q0 .189.021.351a1.908 1.908 90 00.051.264q.072.264.204.435a1.008 1.008 90 00.048.06.837.837 90 00.264.204.879.879 90 00.39.09.987.987 90 00.066-.003.825.825 90 00.327-.087q.174-.09.297-.249a1.035 1.035 90 00.096-.144 1.248 1.248 90 00.093-.231 1.464 1.464 90 00.045-.186 1.779 1.779 90 00.021-.291 1.902 1.902 90 00-.006-.159 1.566 1.566 90 00-.06-.321 1.383 1.383 90 00-.042-.12 1.137 1.137 90 00-.147-.264.882.882 90 00-.3-.246.804.804 90 00-.18-.066.99.99 90 00-.225-.024 1.188 1.188 90 00-.06 0 1.026 1.026 90 00-.27.051 1.017 1.017 90 00-.282.141 1.188 1.188 90 00-.201.195q-.09.108-.15.24v.36ZM6.302 1.514H6.23a3.123 3.123 90 00-.426.03 2.271 2.271 90 00-.429.099 2.103 2.103 90 00-.198.081 1.719 1.719 90 00-.432.279 1.686 1.686 90 00-.414.558 2.013 2.013 90 00-.099.255 2.373 2.373 90 00-.093.471 1.986 1.986 90 01.081-.084 2.421 2.421 90 01.153-.135 1.611 1.611 90 01.084-.066 1.875 1.875 90 01.213-.129 1.662 1.662 90 01.09-.042 1.902 1.902 90 01.267-.093 1.431 1.431 90 01.15-.033 1.686 1.686 90 01.267-.021 2.085 2.085 90 01.339.027 1.563 1.563 90 01.459.147 1.671 1.671 90 01.57.468 1.908 1.908 90 01.126.186 2.133 2.133 90 01.213.507 2.817 2.817 90 01.024.084 3.039 3.039 90 01.09.744q0 .465-.15.864a2.319 2.319 90 01-.009.027 2.04 2.04 90 01-.417.669 1.89 1.89 90 01-.108.105 2.01 2.01 90 01-.564.357 2.016 2.016 90 01-.381.12 2.469 2.469 90 01-.507.051 2.556 2.556 90 01-.282-.015 2.07 2.07 90 01-.645-.177q-.414-.192-.699-.531A2.205 2.205 90 013.32 6.071a2.511 2.511 90 01-.264-.555A2.856 2.856 90 012.96 5.153 3.381 3.381 90 012.9 4.502V4.034a5.268 5.268 90 01.015-.42 4.401 4.401 90 01.192-.99 3.645 3.645 90 01.069-.198 3.108 3.108 90 01.546-.924 2.718 2.718 90 01.174-.183 2.877 2.877 90 01.84-.552Q5.342.5 6.14.5h.162V1.514ZM2.5 7.5l1.935 6.399h1.254L7.627 7.5H6.265L5.059 12.111 3.862 7.5H2.5Z" />
</svg>
