<svg xmlns="http://www.w3.org/2000/svg" width="10" height="15" viewBox="0 0 10 15">
  <rect fill="#00f" stroke="#fff" stroke-width=".4" width="9.6" height="14.6" ry="1" x=".2" y=".2"/>
  <path fill="#fff" d="M6.064 9.492a1.62 1.62 90 00.024-.288 1.752 1.752 90 00-.012-.212A1.368 1.368 90 006 8.676q-.084-.232-.244-.404-.164-.164-.388-.252a1.236 1.236 90 00-.224-.06A1.552 1.552 90 004.86 7.932a1.624 1.624 90 00-.196.012 1.28 1.28 90 00-.312.076 1.212 1.212 90 00-.02.008 1.052 1.052 90 00-.364.244 1.136 1.136 90 00-.08.096 1.244 1.244 90 00-.164.308 1.324 1.324 90 00-.064.236 1.68 1.68 90 00-.024.292q0 .304.092.548a1.244 1.244 90 00.044.1 1.024 1.024 90 00.22.296q.16.152.38.232a1.316 1.316 90 00.22.056 1.656 1.656 90 00.28.024 1.588 1.588 90 00.156-.008 1.296 1.296 90 00.336-.076 1.088 1.088 90 00.388-.252 1.104 1.104 90 00.092-.108A1.24 1.24 90 006 9.728a1.26 1.26 90 00.064-.236ZM5.896 5.744A1.58 1.58 90 005.92 5.46q0-.256-.076-.468a1.276 1.276 90 00-.036-.088A1.076 1.076 90 005.632 4.628.992.992 90 005.296 4.4 1.02 1.02 90 005.1 4.34a1.268 1.268 90 00-.248-.02 1.392 1.392 90 00-.2.012 1.04 1.04 90 00-.244.064.984.984 90 00-.036.016.84.84 90 00-.288.212.86.86 90 00-.104.14 1.024 1.024 90 00-.096.22 1.396 1.396 90 00-.048.196 1.72 1.72 90 00-.02.276 1.776 1.776 90 00.012.196 1.388 1.388 90 00.06.28 1.136 1.136 90 00.024.064.964.964 90 00.184.304q.136.152.332.236a.992.992 90 00.196.06 1.228 1.228 90 00.248.024 1.28 1.28 90 00.164-.008.996.996 90 00.276-.076A.932.932 90 005.64 6.3a.976.976 90 00.092-.124 1.136 1.136 90 00.116-.244 1.3 1.3 90 00.048-.188Zm1.648-.36a2.344 2.344 90 01-.004.108 2.032 2.032 90 01-.1.552q-.104.308-.288.564a2.124 2.124 90 01-.028.036 2.304 2.304 90 01-.316.324 2.26 2.26 90 01-.436.292 3.252 3.252 90 01.408.236q.196.132.348.296a2.144 2.144 90 01.44.68 2.048 2.048 90 01.084.264 2.312 2.312 90 01.072.58 2.892 2.892 90 01-.032.448 2.184 2.184 90 01-.188.612 2.156 2.156 90 01-.6.764 2.468 2.468 90 01-.28.196 2.812 2.812 90 01-.628.272 3.508 3.508 90 01-.352.088 4.06 4.06 90 01-.772.068 4.448 4.448 90 01-.32-.008 3.744 3.744 90 01-.816-.148 3.072 3.072 90 01-.22-.076 2.58 2.58 90 01-.688-.392 2.128 2.128 90 01-.608-.764 2.148 2.148 90 01-.172-.524A2.82 2.82 90 012 9.316q0-.352.096-.664a2.208 2.208 90 01.272-.576q.176-.26.424-.468.252-.208.56-.356a2.328 2.328 90 01-.476-.32 1.956 1.956 90 01-.36-.416q-.16-.24-.244-.528A1.996 1.996 90 012.264 5.96a2.124 2.124 90 01-.076-.576q0-.58.2-1.02a2.1 2.1 90 01.556-.748 2.172 2.172 90 01.284-.208 2.496 2.496 90 01.556-.252 3.164 3.164 90 01.396-.1A3.792 3.792 90 014.852 3a4.068 4.068 90 01.328.012 3.372 3.372 90 01.744.144 2.84 2.84 90 01.156.052 2.416 2.416 90 01.7.408 2.132 2.132 90 01.56.748 2.152 2.152 90 01.156.492 2.824 2.824 90 01.048.528Z" />
</svg>
