<svg xmlns="http://www.w3.org/2000/svg" width="10" height="15" viewBox="0 0 10 15">
  <rect fill="#00f" stroke="#fff" stroke-width=".4" width="9.6" height="14.6" ry="1" x=".2" y=".2"/>
  <path fill="#fff" d="M5.948 5.369a1.215 1.215 90 00.018-.216 1.314 1.314 90 00-.009-.159A1.026 1.026 90 005.9 4.757Q5.837 4.583 5.717 4.454 5.594 4.331 5.426 4.265A.927.927 90 005.258 4.22 1.164 1.164 90 005.045 4.199 1.218 1.218 90 004.898 4.208.96.96 90 004.664 4.265.909.909 90 004.649 4.271.789.789 90 004.376 4.454.852.852 90 004.316 4.526.933.933 90 004.193 4.757.993.993 90 004.145 4.934 1.26 1.26 90 004.127 5.153q0 .228.069.411a.933.933 90 00.033.075.768.768 90 00.165.222q.12.114.285.174a.987.987 90 00.165.042 1.242 1.242 90 00.21.018 1.191 1.191 90 00.117-.006.972.972 90 00.252-.057.816.816 90 00.291-.189.828.828 90 00.069-.081A.93.93 90 005.9 5.546a.945.945 90 00.048-.177ZM5.822 2.558A1.185 1.185 90 005.84 2.345Q5.84 2.153 5.783 1.994A.957.957 90 005.756 1.928.807.807 90 005.624 1.721.744.744 90 005.372 1.55.765.765 90 005.225 1.505.951.951 90 005.039 1.49 1.044 1.044 90 004.889 1.499.78.78 90 004.706 1.547.738.738 90 004.679 1.559.63.63 90 004.463 1.718.645.645 90 004.385 1.823.768.768 90 004.313 1.988 1.047 1.047 90 004.277 2.135 1.29 1.29 90 004.262 2.342 1.332 1.332 90 004.271 2.489 1.041 1.041 90 004.316 2.699.852.852 90 004.334 2.747.723.723 90 004.472 2.975Q4.574 3.089 4.721 3.152A.744.744 90 004.868 3.197.921.921 90 005.054 3.215.96.96 90 005.177 3.209.747.747 90 005.384 3.152.699.699 90 005.63 2.975.732.732 90 005.699 2.882.852.852 90 005.786 2.699.975.975 90 005.822 2.558Zm1.236-.27A1.758 1.758 90 017.055 2.369 1.524 1.524 90 016.98 2.783q-.078.231-.216.423A1.593 1.593 90 016.743 3.233 1.728 1.728 90 016.506 3.476 1.695 1.695 90 016.179 3.695a2.439 2.439 90 01.306.177q.147.099.261.222a1.608 1.608 90 01.33.51 1.536 1.536 90 01.063.198 1.734 1.734 90 01.054.435 2.169 2.169 90 01-.024.336 1.638 1.638 90 01-.141.459 1.617 1.617 90 01-.45.573 1.851 1.851 90 01-.21.147 2.109 2.109 90 01-.471.204 2.631 2.631 90 01-.264.066 3.045 3.045 90 01-.579.051A3.336 3.336 90 014.814 7.067 2.808 2.808 90 014.202 6.956 2.304 2.304 90 014.037 6.899 1.935 1.935 90 013.521 6.605 1.596 1.596 90 013.065 6.032 1.611 1.611 90 012.936 5.639 2.115 2.115 90 012.9 5.237q0-.264.072-.498a1.656 1.656 90 01.204-.432q.132-.195.318-.351.189-.156.42-.267A1.746 1.746 90 013.557 3.449 1.467 1.467 90 013.287 3.137Q3.167 2.957 3.104 2.741A1.497 1.497 90 013.098 2.72 1.593 1.593 90 013.041 2.288q0-.435.15-.765A1.575 1.575 90 013.608.962 1.629 1.629 90 013.821.806 1.872 1.872 90 014.238.617 2.373 2.373 90 014.535.542 2.844 2.844 90 015.039.5 3.051 3.051 90 015.285.509 2.529 2.529 90 015.843.617 2.13 2.13 90 015.96.656 1.812 1.812 90 016.485.962 1.599 1.599 90 016.905 1.523 1.614 1.614 90 017.022 1.892 2.118 2.118 90 017.058 2.288ZM5.936 13.899h1.221V7.5H5.936v2.625H4.127V7.5H2.9v6.399H4.127V11.124h1.809v2.775Z" />
</svg>
