<svg xmlns="http://www.w3.org/2000/svg" width="10" height="15" viewBox="0 0 10 15">
  <rect fill="#00f" stroke="#fff" stroke-width=".4" width="9.6" height="14.6" ry="1" x=".2" y=".2"/>
  <path fill="#fff" d="M5.948 5.369a1.215 1.215 90 00.018-.216 1.314 1.314 90 00-.009-.159A1.026 1.026 90 005.9 4.757q-.063-.174-.183-.303-.123-.123-.291-.189A.927.927 90 005.258 4.22a1.164 1.164 90 00-.213-.021 1.218 1.218 90 00-.147.009.96.96 90 00-.234.057.909.909 90 00-.015.006.789.789 90 00-.273.183.852.852 90 00-.06.072.933.933 90 00-.123.231.993.993 90 00-.048.177 1.26 1.26 90 00-.018.219q0 .228.069.411a.933.933 90 00.033.075.768.768 90 00.165.222q.12.114.285.174a.987.987 90 00.165.042 1.242 1.242 90 00.21.018 1.191 1.191 90 00.117-.006.972.972 90 00.252-.057.816.816 90 00.291-.189.828.828 90 00.069-.081.93.93 90 00.117-.216.945.945 90 00.048-.177ZM5.822 2.558a1.185 1.185 90 00.018-.213q0-.192-.057-.351A.957.957 90 005.756 1.928.807.807 90 005.624 1.721.744.744 90 005.372 1.55.765.765 90 005.225 1.505.951.951 90 005.039 1.49a1.044 1.044 90 00-.15.009.78.78 90 00-.183.048.738.738 90 00-.027.012.63.63 90 00-.216.159.645.645 90 00-.078.105.768.768 90 00-.072.165 1.047 1.047 90 00-.036.147 1.29 1.29 90 00-.015.207 1.332 1.332 90 00.009.147 1.041 1.041 90 00.045.21.852.852 90 00.018.048.723.723 90 00.138.228q.102.114.249.177a.744.744 90 00.147.045.921.921 90 00.186.018.96.96 90 00.123-.006.747.747 90 00.207-.057.699.699 90 00.246-.177.732.732 90 00.069-.093.852.852 90 00.087-.183.975.975 90 00.036-.141Zm1.236-.27a1.758 1.758 90 01-.003.081 1.524 1.524 90 01-.075.414q-.078.231-.216.423a1.593 1.593 90 01-.021.027 1.728 1.728 90 01-.237.243 1.695 1.695 90 01-.327.219 2.439 2.439 90 01.306.177q.147.099.261.222a1.608 1.608 90 01.33.51 1.536 1.536 90 01.063.198 1.734 1.734 90 01.054.435 2.169 2.169 90 01-.024.336 1.638 1.638 90 01-.141.459 1.617 1.617 90 01-.45.573 1.851 1.851 90 01-.21.147 2.109 2.109 90 01-.471.204 2.631 2.631 90 01-.264.066 3.045 3.045 90 01-.579.051 3.336 3.336 90 01-.24-.006 2.808 2.808 90 01-.612-.111 2.304 2.304 90 01-.165-.057 1.935 1.935 90 01-.516-.294 1.596 1.596 90 01-.456-.573 1.611 1.611 90 01-.129-.393A2.115 2.115 90 012.9 5.237q0-.264.072-.498a1.656 1.656 90 01.204-.432q.132-.195.318-.351.189-.156.42-.267a1.746 1.746 90 01-.357-.24 1.467 1.467 90 01-.27-.312q-.12-.18-.183-.396A1.497 1.497 90 013.098 2.72a1.593 1.593 90 01-.057-.432q0-.435.15-.765A1.575 1.575 90 013.608.962 1.629 1.629 90 013.821.806 1.872 1.872 90 014.238.617 2.373 2.373 90 014.535.542 2.844 2.844 90 015.039.5a3.051 3.051 90 01.246.009 2.529 2.529 90 01.558.108A2.13 2.13 90 015.96.656a1.812 1.812 90 01.525.306 1.599 1.599 90 01.42.561 1.614 1.614 90 01.117.369 2.118 2.118 90 01.036.396ZM2.5 7.5 4.435 13.899h1.254L7.627 7.5H6.265L5.059 12.111 3.862 7.5H2.5Z" />
</svg>
