<svg xmlns="http://www.w3.org/2000/svg" width="10" height="15" viewBox="0 0 10 15">
  <rect fill="#00f" stroke="#fff" stroke-width=".4" width="9.6" height="14.6" ry="1" x=".2" y=".2"/>
  <path fill="#fff" d="M4.048 10.84a1.16 1.16 90 010-.036A.888.888 90 014.3 10.192.824.824 90 014.708 9.964 1.224 1.224 90 014.996 9.932 1.244 1.244 90 015.208 9.948a.872.872 90 01.48.244.872.872 90 01.196.292.944.944 90 01.068.356 1.072 1.072 90 010 .016.844.844 90 01-.264.612q-.26.256-.692.256A1.252 1.252 90 014.708 11.692.832.832 90 014.3 11.468.856.856 90 014.108 11.184.92.92 90 014.048 10.84Zm.24-1.776a13.764 13.764 90 010-.24q.004-.252.02-.444A2.416 2.416 90 014.332 8.16 1.9 1.9 90 014.404 7.868q.076-.22.228-.412a1.728 1.728 90 01.08-.096q.14-.148.348-.312A10.36 10.36 90 005.46 6.664Q5.656 6.464 5.82 6.248A2.52 2.52 90 005.868 6.18 2.22 2.22 90 006.08 5.812 1.252 1.252 90 006.112 5.728 1.052 1.052 90 006.18 5.368a1.852 1.852 90 000-.04Q6.172 5.084 6.104 4.9A.996.996 90 006.072 4.828.824.824 90 005.884 4.576.888.888 90 005.736 4.48 1.1 1.1 90 005.532 4.4Q5.324 4.34 5.052 4.34A1.516 1.516 90 004.644 4.396 1.096 1.096 90 004.632 4.4.964.964 90 004.292 4.576.86.86 90 004.2 4.66.944.944 90 004.036 4.892Q3.94 5.084 3.936 5.356H2.3A2.876 2.876 90 012.344 4.88 2.116 2.116 90 012.524 4.316Q2.74 3.872 3.108 3.58A2.292 2.292 90 013.38 3.396 2.616 2.616 90 013.976 3.144 3.5 3.5 90 014.344 3.06 4.128 4.128 90 015.052 3 5.024 5.024 90 015.616 3.032 3.744 3.744 90 016.22 3.148 2.872 2.872 90 016.584 3.276 2.236 2.236 90 017.092 3.58 1.936 1.936 90 017.632 4.3 2.152 2.152 90 017.78 4.792 2.872 2.872 90 017.82 5.292 2.3 2.3 90 017.808 5.508 1.888 1.888 90 017.68 6.048 2.808 2.808 90 017.316 6.684a4.292 4.292 90 01-.508.568q-.284.264-.572.516-.108.112-.188.204A1.96 1.96 90 005.964 8.08 1.02 1.02 90 005.904 8.168.82.82 90 005.82 8.356 1.116 1.116 90 005.792 8.464a1.336 1.336 90 00-.028.2q-.008.104-.012.236a7.932 7.932 90 000 .164H4.288Z" />
</svg>
