<?xml version="1.0" encoding="UTF-8"?>
<svg xmlns="http://www.w3.org/2000/svg" xmlns:xlink="http://www.w3.org/1999/xlink" width="18" height="9" viewBox="0 0 18 9">
<rect x="-1.8" y="-0.9" width="21.6" height="10.8" fill="rgb(0%, 0%, 0%)" fill-opacity="1"/>
<path fill-rule="nonzero" fill="rgb(100%, 100%, 100%)" fill-opacity="1" d="M 0.539062 0.539062 L 17.460938 0.539062 L 17.460938 8.460938 L 0.539062 8.460938 Z M 0.539062 0.539062 "/>
<path fill-rule="nonzero" fill="rgb(0%, 0%, 0%)" fill-opacity="1" d="M 4.121094 6.894531 C 4.152344 6.863281 4.167969 6.824219 4.167969 6.785156 C 4.167969 6.742188 4.152344 6.703125 4.121094 6.671875 C 4.089844 6.640625 4.050781 6.625 4.011719 6.625 C 3.96875 6.625 3.929688 6.640625 3.902344 6.675781 C 3.867188 6.707031 3.851562 6.742188 3.851562 6.785156 L 3.535156 6.785156 C 3.535156 6.46875 3.695312 6.308594 4.011719 6.308594 C 4.328125 6.308594 4.484375 6.46875 4.484375 6.785156 L 4.484375 7.894531 L 4.011719 7.894531 C 3.695312 7.894531 3.535156 7.734375 3.535156 7.417969 C 3.535156 7.101562 3.695312 6.941406 4.011719 6.941406 C 4.050781 6.941406 4.089844 6.925781 4.121094 6.894531 Z M 4.011719 6.152344 L 3.75 5.832031 L 4.011719 5.832031 L 4.167969 6.152344 Z M 4.121094 7.210938 C 4.089844 7.242188 4.050781 7.257812 4.011719 7.257812 C 3.96875 7.257812 3.929688 7.277344 3.902344 7.308594 C 3.867188 7.339844 3.851562 7.375 3.851562 7.417969 C 3.851562 7.457031 3.867188 7.496094 3.902344 7.527344 C 3.929688 7.558594 3.96875 7.578125 4.011719 7.578125 C 4.050781 7.578125 4.089844 7.558594 4.121094 7.527344 C 4.152344 7.496094 4.167969 7.460938 4.167969 7.417969 L 4.167969 7.101562 C 4.167969 7.140625 4.152344 7.179688 4.121094 7.210938 Z M 4.121094 7.210938 "/>
<path fill-rule="nonzero" fill="rgb(0%, 0%, 0%)" fill-opacity="1" d="M 7.613281 6.222656 C 7.636719 6.191406 7.660156 6.15625 7.6875 6.121094 C 7.710938 6.085938 7.730469 6.042969 7.746094 6 C 7.761719 5.960938 7.769531 5.917969 7.769531 5.878906 C 7.769531 5.835938 7.761719 5.792969 7.742188 5.75 C 7.722656 5.710938 7.695312 5.671875 7.664062 5.640625 C 7.628906 5.605469 7.59375 5.578125 7.554688 5.5625 C 7.511719 5.542969 7.46875 5.53125 7.425781 5.53125 C 7.386719 5.53125 7.34375 5.542969 7.300781 5.5625 C 7.261719 5.582031 7.222656 5.605469 7.191406 5.640625 C 7.15625 5.671875 7.128906 5.710938 7.109375 5.75 C 7.089844 5.792969 7.082031 5.835938 7.082031 5.878906 L 6.5625 5.878906 C 6.5625 5.769531 6.585938 5.667969 6.636719 5.5625 C 6.683594 5.460938 6.75 5.367188 6.832031 5.28125 C 6.914062 5.199219 7.007812 5.132812 7.113281 5.085938 C 7.214844 5.035156 7.320312 5.011719 7.425781 5.011719 C 7.53125 5.011719 7.636719 5.035156 7.738281 5.085938 C 7.84375 5.132812 7.9375 5.199219 8.019531 5.28125 C 8.105469 5.367188 8.167969 5.460938 8.21875 5.5625 C 8.265625 5.667969 8.289062 5.773438 8.289062 5.878906 C 8.289062 5.960938 8.277344 6.039062 8.25 6.113281 C 8.226562 6.191406 8.195312 6.261719 8.152344 6.324219 C 8.113281 6.386719 8.074219 6.445312 8.03125 6.492188 C 7.988281 6.539062 7.933594 6.597656 7.867188 6.671875 C 7.8125 6.726562 7.773438 6.769531 7.746094 6.796875 L 7.234375 7.371094 L 8.289062 7.371094 L 8.289062 7.890625 L 6.5625 7.890625 L 6.5625 7.371094 L 7.535156 6.308594 C 7.558594 6.285156 7.585938 6.253906 7.613281 6.222656 Z M 7.613281 6.222656 "/>
<path fill-rule="nonzero" fill="rgb(0%, 0%, 0%)" fill-opacity="1" d="M 9.210938 7.820312 C 9.109375 7.773438 9.015625 7.707031 8.933594 7.621094 C 8.847656 7.539062 8.78125 7.445312 8.734375 7.34375 C 8.6875 7.238281 8.664062 7.136719 8.664062 7.03125 L 8.664062 5.878906 C 8.664062 5.773438 8.6875 5.667969 8.734375 5.566406 C 8.785156 5.460938 8.847656 5.367188 8.933594 5.28125 C 9.015625 5.199219 9.109375 5.136719 9.210938 5.085938 C 9.316406 5.039062 9.421875 5.015625 9.527344 5.015625 C 9.632812 5.015625 9.734375 5.039062 9.839844 5.085938 C 9.941406 5.136719 10.035156 5.199219 10.121094 5.28125 C 10.203125 5.367188 10.269531 5.460938 10.316406 5.566406 C 10.367188 5.671875 10.390625 5.773438 10.390625 5.878906 L 10.390625 7.03125 C 10.390625 7.136719 10.367188 7.242188 10.316406 7.34375 C 10.269531 7.449219 10.203125 7.539062 10.121094 7.621094 C 10.035156 7.707031 9.941406 7.773438 9.839844 7.820312 C 9.734375 7.871094 9.628906 7.894531 9.527344 7.894531 C 9.417969 7.894531 9.316406 7.871094 9.210938 7.820312 Z M 9.652344 7.347656 C 9.691406 7.324219 9.730469 7.300781 9.761719 7.265625 C 9.796875 7.230469 9.824219 7.195312 9.839844 7.152344 C 9.859375 7.113281 9.871094 7.070312 9.871094 7.027344 L 9.871094 5.878906 C 9.871094 5.835938 9.859375 5.792969 9.839844 5.75 C 9.820312 5.710938 9.796875 5.671875 9.761719 5.640625 C 9.730469 5.605469 9.691406 5.578125 9.652344 5.5625 C 9.609375 5.542969 9.566406 5.53125 9.527344 5.53125 C 9.484375 5.53125 9.441406 5.542969 9.402344 5.5625 C 9.359375 5.582031 9.320312 5.605469 9.289062 5.640625 C 9.253906 5.671875 9.230469 5.710938 9.207031 5.75 C 9.1875 5.792969 9.179688 5.835938 9.179688 5.878906 L 9.179688 7.027344 C 9.179688 7.070312 9.1875 7.113281 9.207031 7.152344 C 9.230469 7.195312 9.253906 7.230469 9.289062 7.265625 C 9.320312 7.300781 9.359375 7.324219 9.402344 7.347656 C 9.441406 7.367188 9.480469 7.375 9.527344 7.375 C 9.566406 7.375 9.609375 7.367188 9.652344 7.347656 Z M 9.652344 7.347656 "/>
<path fill-rule="nonzero" fill="rgb(0%, 0%, 0%)" fill-opacity="1" d="M 11.316406 7.820312 C 11.210938 7.773438 11.117188 7.707031 11.035156 7.621094 C 10.953125 7.539062 10.882812 7.445312 10.835938 7.34375 C 10.789062 7.238281 10.765625 7.136719 10.765625 7.03125 L 10.765625 5.878906 C 10.765625 5.773438 10.789062 5.667969 10.835938 5.566406 C 10.886719 5.460938 10.953125 5.367188 11.035156 5.28125 C 11.117188 5.199219 11.210938 5.136719 11.316406 5.085938 C 11.417969 5.039062 11.523438 5.015625 11.628906 5.015625 C 11.734375 5.015625 11.839844 5.039062 11.941406 5.085938 C 12.046875 5.136719 12.140625 5.199219 12.222656 5.28125 C 12.304688 5.367188 12.371094 5.460938 12.421875 5.566406 C 12.46875 5.671875 12.492188 5.773438 12.492188 5.878906 L 12.492188 7.03125 C 12.492188 7.136719 12.46875 7.242188 12.421875 7.34375 C 12.371094 7.449219 12.304688 7.539062 12.222656 7.621094 C 12.140625 7.707031 12.046875 7.773438 11.941406 7.820312 C 11.835938 7.871094 11.730469 7.894531 11.628906 7.894531 C 11.523438 7.894531 11.417969 7.871094 11.316406 7.820312 Z M 11.753906 7.347656 C 11.792969 7.324219 11.832031 7.300781 11.867188 7.265625 C 11.898438 7.230469 11.925781 7.195312 11.941406 7.152344 C 11.960938 7.113281 11.972656 7.070312 11.972656 7.027344 L 11.972656 5.878906 C 11.972656 5.835938 11.960938 5.792969 11.941406 5.75 C 11.921875 5.710938 11.898438 5.671875 11.867188 5.640625 C 11.832031 5.605469 11.792969 5.578125 11.753906 5.5625 C 11.710938 5.542969 11.667969 5.53125 11.628906 5.53125 C 11.585938 5.53125 11.546875 5.542969 11.503906 5.5625 C 11.460938 5.582031 11.425781 5.605469 11.390625 5.640625 C 11.359375 5.671875 11.332031 5.710938 11.3125 5.75 C 11.292969 5.792969 11.28125 5.835938 11.28125 5.878906 L 11.28125 7.027344 C 11.28125 7.070312 11.292969 7.113281 11.3125 7.152344 C 11.332031 7.195312 11.359375 7.230469 11.390625 7.265625 C 11.425781 7.300781 11.460938 7.324219 11.503906 7.347656 C 11.542969 7.367188 11.585938 7.375 11.628906 7.375 C 11.667969 7.375 11.710938 7.367188 11.753906 7.347656 Z M 11.753906 7.347656 "/>
<path fill-rule="nonzero" fill="rgb(0%, 0%, 0%)" fill-opacity="1" d="M 14.464844 6.785156 L 14.464844 7.894531 L 14.148438 7.894531 L 14.148438 6.785156 C 14.148438 6.742188 14.132812 6.703125 14.101562 6.671875 C 14.070312 6.640625 14.03125 6.625 13.988281 6.625 C 13.949219 6.625 13.910156 6.640625 13.878906 6.675781 C 13.847656 6.707031 13.832031 6.742188 13.832031 6.785156 L 13.832031 7.894531 L 13.515625 7.894531 L 13.515625 6.785156 C 13.515625 6.742188 13.5 6.703125 13.46875 6.671875 C 13.433594 6.640625 13.398438 6.625 13.355469 6.625 C 13.316406 6.625 13.277344 6.640625 13.246094 6.675781 C 13.214844 6.707031 13.199219 6.742188 13.199219 6.785156 L 13.199219 7.894531 L 12.878906 7.894531 L 12.878906 6.308594 L 13.199219 6.308594 L 13.199219 6.328125 C 13.21875 6.320312 13.238281 6.316406 13.261719 6.3125 C 13.28125 6.3125 13.3125 6.308594 13.355469 6.308594 C 13.433594 6.308594 13.5 6.316406 13.550781 6.332031 C 13.601562 6.351562 13.640625 6.371094 13.671875 6.394531 C 13.707031 6.371094 13.753906 6.347656 13.800781 6.332031 C 13.851562 6.316406 13.914062 6.308594 13.988281 6.308594 C 14.304688 6.308594 14.464844 6.46875 14.464844 6.785156 Z M 14.464844 6.785156 "/>
</svg>
