<?xml version="1.0" encoding="UTF-8"?>
<svg xmlns="http://www.w3.org/2000/svg" xmlns:xlink="http://www.w3.org/1999/xlink" width="18" height="9.313234" viewBox="0 0 18 9.313234">
<path fill-rule="nonzero" fill="rgb(100%, 100%, 100%)" fill-opacity="1" stroke-width="0.316617" stroke-linecap="round" stroke-linejoin="round" stroke="rgb(0%, 0%, 0%)" stroke-opacity="1" stroke-miterlimit="10" d="M 31.878208 205.619357 L 51.608971 205.619357 L 51.608971 195.562584 L 31.878208 195.562584 Z M 31.878208 205.619357 " transform="matrix(0.898027, 0, 0, 0.898027, -28.486855, -175.479782)"/>
<path fill-rule="evenodd" fill="rgb(100%, 100%, 100%)" fill-opacity="1" stroke-width="0.313267" stroke-linecap="round" stroke-linejoin="round" stroke="rgb(0%, 0%, 0%)" stroke-opacity="1" stroke-miterlimit="10" d="M 33.126605 203.944678 L 41.700091 203.944678 L 41.700091 197.128517 L 33.126605 197.128517 Z M 33.126605 203.944678 " transform="matrix(0.898027, 0, 0, 0.898027, -28.486855, -175.479782)"/>
<path fill-rule="evenodd" fill="rgb(0%, 0%, 0%)" fill-opacity="1" stroke-width="0.313267" stroke-linecap="round" stroke-linejoin="round" stroke="rgb(0%, 0%, 0%)" stroke-opacity="1" stroke-miterlimit="10" d="M 41.700091 203.944678 L 50.360574 203.944678 L 50.360574 197.128517 L 41.700091 197.128517 Z M 41.700091 203.944678 " transform="matrix(0.898027, 0, 0, 0.898027, -28.486855, -175.479782)"/>
<path fill-rule="evenodd" fill="rgb(0%, 0%, 0%)" fill-opacity="1" stroke-width="0.313267" stroke-linecap="round" stroke-linejoin="round" stroke="rgb(0%, 0%, 0%)" stroke-opacity="1" stroke-miterlimit="10" d="M 41.700091 195.671329 L 41.700091 197.128517 L 33.126605 197.128517 L 33.126605 203.944678 L 41.700091 203.944678 L 41.700091 205.510612 L 31.878208 205.510612 L 31.878208 195.671329 Z M 41.700091 195.671329 " transform="matrix(0.898027, 0, 0, 0.898027, -28.486855, -175.479782)"/>
</svg>
