<?xml version="1.0" encoding="UTF-8"?>
<svg xmlns="http://www.w3.org/2000/svg" xmlns:xlink="http://www.w3.org/1999/xlink" width="16" height="16" viewBox="0 0 16 16">
<rect x="-1.6" y="-1.6" width="19.2" height="19.2" fill="rgb(0%, 0%, 0%)" fill-opacity="1"/>
<path fill="none" stroke-width="3.9351" stroke-linecap="butt" stroke-linejoin="miter" stroke="rgb(100%, 100%, 100%)" stroke-opacity="1" stroke-miterlimit="4" d="M 110.698751 7.810752 L 168.776876 7.810752 L 168.776876 65.873252 L 110.698751 65.873252 Z M 110.698751 7.810752 " transform="matrix(0.25, 0, 0, 0.25, -26.9325, -1.2105)"/>
<path fill-rule="nonzero" fill="rgb(100%, 100%, 100%)" fill-opacity="1" d="M 5.546875 4.125 L 6.382812 4.125 L 6.382812 3.414062 L 4 3.414062 L 4 4.125 L 4.832031 4.125 L 4.832031 7.386719 L 5.546875 7.386719 Z M 7.972656 6.195312 L 8.449219 6.195312 C 8.449219 6.253906 8.433594 6.308594 8.40625 6.363281 C 8.378906 6.421875 8.34375 6.476562 8.300781 6.515625 C 8.253906 6.566406 8.203125 6.601562 8.144531 6.628906 C 8.085938 6.652344 8.027344 6.667969 7.972656 6.671875 C 7.914062 6.671875 7.855469 6.65625 7.800781 6.628906 C 7.738281 6.601562 7.691406 6.566406 7.644531 6.519531 C 7.601562 6.476562 7.5625 6.421875 7.535156 6.363281 C 7.507812 6.304688 7.492188 6.25 7.492188 6.195312 L 7.492188 4.605469 C 7.492188 4.546875 7.507812 4.484375 7.535156 4.429688 C 7.558594 4.371094 7.597656 4.320312 7.644531 4.273438 C 7.691406 4.230469 7.738281 4.195312 7.800781 4.171875 C 7.859375 4.140625 7.914062 4.128906 7.972656 4.128906 C 8.03125 4.128906 8.089844 4.140625 8.144531 4.171875 C 8.203125 4.195312 8.253906 4.230469 8.300781 4.273438 C 8.34375 4.320312 8.378906 4.371094 8.40625 4.429688 C 8.429688 4.488281 8.445312 4.546875 8.449219 4.605469 L 9.164062 4.605469 C 9.164062 4.457031 9.128906 4.316406 9.0625 4.171875 C 8.992188 4.03125 8.90625 3.898438 8.796875 3.78125 C 8.675781 3.667969 8.546875 3.578125 8.402344 3.515625 C 8.261719 3.449219 8.113281 3.414062 7.972656 3.414062 C 7.828125 3.414062 7.679688 3.449219 7.539062 3.515625 C 7.394531 3.578125 7.265625 3.671875 7.152344 3.78125 C 7.039062 3.898438 6.945312 4.027344 6.878906 4.171875 C 6.808594 4.316406 6.777344 4.457031 6.78125 4.605469 L 6.78125 6.195312 C 6.78125 6.335938 6.8125 6.484375 6.878906 6.625 C 6.945312 6.765625 7.039062 6.894531 7.152344 7.011719 C 7.265625 7.128906 7.394531 7.21875 7.539062 7.285156 C 7.679688 7.351562 7.824219 7.386719 7.972656 7.386719 C 8.113281 7.386719 8.261719 7.351562 8.402344 7.285156 C 8.546875 7.214844 8.671875 7.125 8.796875 7.011719 C 8.90625 6.898438 8.996094 6.765625 9.0625 6.625 C 9.128906 6.484375 9.164062 6.335938 9.164062 6.195312 L 9.164062 5.476562 L 7.972656 5.476562 Z M 10.804688 5.535156 L 10.332031 3.414062 L 9.613281 3.414062 L 10.449219 7.386719 L 11.167969 7.386719 L 12 3.414062 L 11.328125 3.414062 Z M 10.804688 5.535156 "/>
<path fill-rule="nonzero" fill="rgb(100%, 100%, 100%)" fill-opacity="1" d="M 4.832031 12.585938 L 5.550781 12.585938 L 5.550781 8.613281 L 4.832031 8.613281 Z M 8.132812 11.515625 L 8.132812 10.796875 L 6.34375 10.796875 L 6.34375 11.515625 Z M 10.128906 10.402344 L 8.785156 11.871094 L 8.785156 12.585938 L 11.167969 12.585938 L 11.167969 11.871094 L 9.710938 11.871094 L 10.417969 11.078125 L 10.578125 10.902344 C 10.675781 10.800781 10.753906 10.71875 10.808594 10.65625 C 10.867188 10.585938 10.925781 10.507812 10.980469 10.421875 C 11.039062 10.335938 11.082031 10.238281 11.113281 10.132812 C 11.148438 10.027344 11.167969 9.921875 11.167969 9.804688 C 11.167969 9.664062 11.132812 9.515625 11.066406 9.375 C 11 9.234375 10.910156 9.105469 10.796875 8.984375 C 10.679688 8.871094 10.550781 8.78125 10.40625 8.714844 C 10.265625 8.648438 10.121094 8.613281 9.976562 8.613281 C 9.828125 8.613281 9.6875 8.648438 9.542969 8.714844 C 9.398438 8.785156 9.269531 8.871094 9.160156 8.984375 C 9.042969 9.101562 8.953125 9.234375 8.882812 9.375 C 8.816406 9.515625 8.785156 9.664062 8.785156 9.804688 L 9.5 9.804688 C 9.5 9.746094 9.515625 9.6875 9.539062 9.632812 C 9.5625 9.578125 9.601562 9.523438 9.648438 9.476562 C 9.695312 9.433594 9.746094 9.398438 9.804688 9.371094 C 9.859375 9.347656 9.921875 9.332031 9.976562 9.328125 C 10.035156 9.328125 10.09375 9.34375 10.148438 9.371094 C 10.207031 9.398438 10.261719 9.433594 10.304688 9.476562 C 10.351562 9.523438 10.386719 9.578125 10.410156 9.632812 C 10.4375 9.691406 10.453125 9.75 10.453125 9.804688 C 10.453125 9.863281 10.441406 9.921875 10.417969 9.976562 C 10.394531 10.039062 10.367188 10.089844 10.335938 10.140625 C 10.300781 10.191406 10.269531 10.238281 10.234375 10.277344 C 10.199219 10.328125 10.160156 10.367188 10.128906 10.402344 "/>
</svg>
