<?xml version="1.0" encoding="UTF-8"?>
<svg xmlns="http://www.w3.org/2000/svg" xmlns:xlink="http://www.w3.org/1999/xlink" width="18" height="9.562063" viewBox="0 0 18 9.562063">
<path fill-rule="nonzero" fill="rgb(100%, 100%, 100%)" fill-opacity="1" d="M 0.0078125 9.5625 L 18 9.5625 L 18 0.0703125 L 0.0078125 0.0703125 Z M 0.0078125 9.5625 "/>
<path fill-rule="nonzero" fill="rgb(0%, 0%, 0%)" fill-opacity="1" d="M 1.082031 8.6875 L 17.054688 8.6875 L 17.054688 0.886719 L 1.082031 0.886719 Z M 1.082031 8.6875 "/>
<path fill="none" stroke-width="0.0462139" stroke-linecap="round" stroke-linejoin="round" stroke="rgb(0%, 0%, 0%)" stroke-opacity="1" stroke-miterlimit="10" d="M 61.643757 171.752695 L 37.282657 171.752695 L 37.282657 183.650253 L 61.643757 183.650253 Z M 61.643757 171.752695 " transform="matrix(0.655662, 0, 0, 0.655662, -23.362804, -111.72506)"/>
<path fill-rule="evenodd" fill="rgb(0%, 0%, 0%)" fill-opacity="1" d="M 1.109375 0.886719 L 1.070312 0.886719 L 1.070312 8.6875 L 17.054688 8.6875 L 17.042969 8.675781 L 1.109375 8.675781 L 1.109375 0.886719 "/>
<path fill-rule="evenodd" fill="rgb(0%, 0%, 0%)" fill-opacity="1" d="M 17.054688 8.6875 L 17.070312 0.875 L 1.082031 0.875 L 1.070312 0.886719 L 1.097656 0.902344 L 17.027344 0.902344 L 17.042969 8.675781 L 17.054688 8.6875 "/>
<path fill-rule="evenodd" fill="rgb(0%, 0%, 0%)" fill-opacity="1" d="M 0.292969 0.140625 L 0 0.140625 L 0 9.5625 L 18 9.5625 L 17.734375 9.296875 L 0.292969 9.296875 L 0.292969 0.140625 "/>
<path fill-rule="evenodd" fill="rgb(0%, 0%, 0%)" fill-opacity="1" d="M 18 9.5625 L 18 0 L 0.015625 0 L 0 0.140625 L 0.277344 0.265625 L 17.722656 0.265625 L 17.734375 9.296875 L 18 9.5625 "/>
<path fill-rule="evenodd" fill="rgb(100%, 100%, 100%)" fill-opacity="1" d="M 2.011719 6.382812 L 3.164062 3.371094 L 3.609375 3.371094 L 4.828125 6.382812 L 4.386719 6.382812 L 4.023438 5.46875 L 2.757812 5.46875 L 2.445312 6.382812 Z M 2.871094 5.148438 L 3.914062 5.148438 L 3.59375 4.316406 L 3.582031 4.246094 L 3.554688 4.191406 L 3.539062 4.136719 L 3.511719 4.082031 L 3.5 4.023438 L 3.46875 3.96875 L 3.457031 3.914062 L 3.429688 3.871094 L 3.429688 3.8125 L 3.398438 3.761719 L 3.386719 3.71875 L 3.371094 3.671875 L 3.359375 3.71875 L 3.34375 3.773438 L 3.34375 3.832031 L 3.332031 3.871094 L 3.304688 3.984375 L 3.289062 4.023438 L 3.273438 4.078125 L 3.261719 4.121094 L 3.246094 4.175781 L 3.234375 4.21875 L 3.207031 4.261719 L 2.871094 5.148438 "/>
<path fill-rule="evenodd" fill="rgb(100%, 100%, 100%)" fill-opacity="1" d="M 5.164062 6.382812 L 5.164062 3.371094 L 6.496094 3.371094 L 6.5625 3.386719 L 6.855469 3.386719 L 6.90625 3.398438 L 6.996094 3.429688 L 7.035156 3.429688 L 7.078125 3.441406 L 7.117188 3.457031 L 7.148438 3.46875 L 7.1875 3.5 L 7.214844 3.5 L 7.246094 3.523438 L 7.273438 3.539062 L 7.355469 3.621094 L 7.410156 3.679688 L 7.425781 3.710938 L 7.453125 3.734375 L 7.464844 3.773438 L 7.496094 3.8125 L 7.507812 3.84375 L 7.523438 3.882812 L 7.523438 3.925781 L 7.535156 3.953125 L 7.5625 4.039062 L 7.5625 4.359375 L 7.550781 4.398438 L 7.535156 4.441406 L 7.523438 4.496094 L 7.507812 4.539062 L 7.496094 4.578125 L 7.453125 4.625 L 7.4375 4.664062 L 7.410156 4.703125 L 7.371094 4.734375 L 7.339844 4.773438 L 7.300781 4.796875 L 7.257812 4.828125 L 7.148438 4.886719 L 7.105469 4.914062 L 6.996094 4.96875 L 6.925781 4.96875 L 6.855469 4.996094 L 6.804688 4.996094 L 6.71875 5.007812 L 6.746094 5.039062 L 6.773438 5.039062 L 6.804688 5.050781 L 6.8125 5.078125 L 6.84375 5.078125 L 6.855469 5.09375 L 6.882812 5.105469 L 6.898438 5.121094 L 6.925781 5.136719 L 6.9375 5.148438 L 6.953125 5.148438 L 6.996094 5.191406 L 7.023438 5.230469 L 7.046875 5.261719 L 7.132812 5.34375 L 7.160156 5.386719 L 7.1875 5.414062 L 7.214844 5.453125 L 7.246094 5.480469 L 7.300781 5.566406 L 7.8125 6.382812 L 7.3125 6.382812 L 6.90625 5.757812 L 6.882812 5.71875 L 6.828125 5.632812 L 6.8125 5.609375 L 6.773438 5.566406 L 6.757812 5.523438 L 6.734375 5.480469 L 6.703125 5.453125 L 6.6875 5.425781 L 6.664062 5.414062 L 6.648438 5.371094 L 6.621094 5.34375 L 6.621094 5.328125 L 6.578125 5.289062 L 6.550781 5.261719 L 6.550781 5.246094 L 6.523438 5.230469 L 6.507812 5.203125 L 6.496094 5.191406 L 6.46875 5.191406 L 6.46875 5.164062 L 6.4375 5.148438 L 6.410156 5.148438 L 6.382812 5.121094 L 6.371094 5.105469 L 6.355469 5.105469 L 6.300781 5.078125 L 6.257812 5.078125 L 6.246094 5.066406 L 6.203125 5.066406 L 6.191406 5.050781 L 6.050781 5.050781 L 6.023438 5.039062 L 5.566406 5.039062 L 5.566406 6.382812 Z M 5.566406 4.703125 L 6.621094 4.703125 L 6.664062 4.695312 L 6.703125 4.695312 L 6.734375 4.675781 L 6.757812 4.675781 L 6.785156 4.664062 L 6.8125 4.664062 L 6.898438 4.625 L 6.925781 4.625 L 6.9375 4.609375 L 6.96875 4.59375 L 6.996094 4.554688 L 7.023438 4.554688 L 7.035156 4.523438 L 7.0625 4.511719 L 7.078125 4.484375 L 7.078125 4.46875 L 7.117188 4.425781 L 7.117188 4.398438 L 7.132812 4.386719 L 7.148438 4.359375 L 7.148438 4.316406 L 7.160156 4.289062 L 7.160156 4.136719 L 7.148438 4.09375 L 7.148438 4.023438 L 7.117188 3.996094 L 7.117188 3.96875 L 7.089844 3.953125 L 7.078125 3.914062 L 6.976562 3.8125 L 6.925781 3.789062 L 6.882812 3.761719 L 6.855469 3.761719 L 6.8125 3.742188 L 6.773438 3.734375 L 6.71875 3.71875 L 6.578125 3.71875 L 6.507812 3.710938 L 5.566406 3.710938 L 5.566406 4.703125 "/>
<path fill-rule="evenodd" fill="rgb(100%, 100%, 100%)" fill-opacity="1" d="M 8.203125 6.382812 L 8.203125 3.371094 L 9.535156 3.371094 L 9.605469 3.386719 L 9.898438 3.386719 L 9.949219 3.398438 L 9.992188 3.414062 L 10.046875 3.429688 L 10.089844 3.429688 L 10.132812 3.441406 L 10.160156 3.457031 L 10.199219 3.46875 L 10.226562 3.5 L 10.257812 3.5 L 10.28125 3.523438 L 10.3125 3.539062 L 10.351562 3.570312 L 10.367188 3.59375 L 10.449219 3.679688 L 10.464844 3.710938 L 10.492188 3.734375 L 10.503906 3.773438 L 10.535156 3.8125 L 10.546875 3.84375 L 10.5625 3.882812 L 10.574219 3.925781 L 10.574219 3.953125 L 10.601562 4.039062 L 10.617188 4.082031 L 10.617188 4.300781 L 10.601562 4.359375 L 10.589844 4.398438 L 10.574219 4.441406 L 10.5625 4.496094 L 10.546875 4.539062 L 10.535156 4.578125 L 10.503906 4.625 L 10.449219 4.703125 L 10.410156 4.734375 L 10.382812 4.773438 L 10.296875 4.828125 L 10.242188 4.855469 L 10.199219 4.886719 L 10.039062 4.96875 L 9.976562 4.96875 L 9.898438 4.996094 L 9.839844 4.996094 L 9.757812 5.007812 L 9.785156 5.039062 L 9.828125 5.039062 L 9.867188 5.078125 L 9.882812 5.078125 L 9.898438 5.09375 L 9.921875 5.105469 L 9.9375 5.121094 L 9.96875 5.136719 L 9.976562 5.148438 L 9.992188 5.148438 L 10.039062 5.191406 L 10.0625 5.230469 L 10.089844 5.261719 L 10.132812 5.289062 L 10.140625 5.316406 L 10.171875 5.34375 L 10.199219 5.382812 L 10.242188 5.414062 L 10.257812 5.453125 L 10.28125 5.480469 L 10.339844 5.566406 L 10.851562 6.382812 L 10.351562 6.382812 L 9.949219 5.757812 L 9.9375 5.71875 L 9.898438 5.679688 L 9.851562 5.609375 L 9.828125 5.566406 L 9.796875 5.523438 L 9.785156 5.480469 L 9.730469 5.425781 L 9.714844 5.414062 L 9.6875 5.371094 L 9.671875 5.34375 L 9.660156 5.328125 L 9.617188 5.289062 L 9.605469 5.261719 L 9.589844 5.246094 L 9.5625 5.230469 L 9.535156 5.191406 L 9.519531 5.191406 L 9.507812 5.164062 L 9.492188 5.148438 L 9.449219 5.148438 L 9.449219 5.136719 L 9.421875 5.121094 L 9.410156 5.105469 L 9.394531 5.105469 L 9.367188 5.09375 L 9.339844 5.078125 L 9.296875 5.078125 L 9.285156 5.066406 L 9.257812 5.066406 L 9.226562 5.050781 L 9.085938 5.050781 L 9.0625 5.039062 L 8.605469 5.039062 L 8.605469 6.382812 Z M 8.605469 4.703125 L 9.671875 4.703125 L 9.699219 4.695312 L 9.742188 4.695312 L 9.769531 4.675781 L 9.796875 4.675781 L 9.828125 4.664062 L 9.867188 4.664062 L 9.882812 4.648438 L 9.9375 4.625 L 9.96875 4.625 L 9.976562 4.609375 L 10.007812 4.59375 L 10.046875 4.554688 L 10.0625 4.554688 L 10.101562 4.511719 L 10.117188 4.484375 L 10.132812 4.46875 L 10.140625 4.441406 L 10.160156 4.425781 L 10.160156 4.398438 L 10.171875 4.386719 L 10.1875 4.359375 L 10.1875 4.328125 L 10.199219 4.316406 L 10.199219 4.066406 L 10.1875 4.023438 L 10.160156 3.996094 L 10.160156 3.96875 L 10.132812 3.953125 L 10.117188 3.914062 L 10.070312 3.871094 L 10.046875 3.832031 L 9.992188 3.800781 L 9.96875 3.789062 L 9.9375 3.761719 L 9.898438 3.761719 L 9.855469 3.742188 L 9.8125 3.734375 L 9.757812 3.71875 L 9.617188 3.71875 L 9.5625 3.710938 L 8.605469 3.710938 L 8.605469 4.703125 "/>
<path fill-rule="evenodd" fill="rgb(100%, 100%, 100%)" fill-opacity="1" d="M 11.226562 6.382812 L 11.226562 3.371094 L 13.40625 3.371094 L 13.40625 3.71875 L 11.628906 3.71875 L 11.628906 4.648438 L 13.296875 4.648438 L 13.296875 4.996094 L 11.628906 4.996094 L 11.628906 6.035156 L 13.488281 6.035156 L 13.488281 6.382812 L 11.226562 6.382812 "/>
<path fill-rule="evenodd" fill="rgb(100%, 100%, 100%)" fill-opacity="1" d="M 14.792969 6.382812 L 14.792969 3.71875 L 13.808594 3.71875 L 13.808594 3.371094 L 16.195312 3.371094 L 16.195312 3.71875 L 15.210938 3.71875 L 15.210938 6.382812 L 14.792969 6.382812 "/>
</svg>
