<?xml version="1.0" encoding="UTF-8"?>
<svg xmlns="http://www.w3.org/2000/svg" xmlns:xlink="http://www.w3.org/1999/xlink" width="16" height="16" viewBox="0 0 16 16">
<rect x="-1.6" y="-1.6" width="19.2" height="19.2" fill="rgb(0%, 0%, 0%)" fill-opacity="1"/>
<path fill="none" stroke-width="3.93508" stroke-linecap="butt" stroke-linejoin="miter" stroke="rgb(100%, 100%, 100%)" stroke-opacity="1" stroke-miterlimit="4" d="M 110.700751 7.810752 L 168.763251 7.810752 L 168.763251 65.873252 L 110.700751 65.873252 Z M 110.700751 7.810752 " transform="matrix(0.25, 0, 0, 0.25, -26.933, -1.2105)"/>
<path fill-rule="nonzero" fill="rgb(100%, 100%, 100%)" fill-opacity="1" d="M 5.546875 4.125 L 6.382812 4.125 L 6.382812 3.414062 L 4 3.414062 L 4 4.125 L 4.832031 4.125 L 4.832031 7.386719 L 5.546875 7.386719 Z M 7.972656 6.195312 L 8.449219 6.195312 C 8.449219 6.253906 8.433594 6.308594 8.40625 6.363281 C 8.378906 6.421875 8.34375 6.476562 8.300781 6.515625 C 8.253906 6.566406 8.203125 6.601562 8.144531 6.628906 C 8.085938 6.652344 8.027344 6.667969 7.972656 6.671875 C 7.914062 6.671875 7.855469 6.65625 7.796875 6.628906 C 7.738281 6.601562 7.6875 6.566406 7.644531 6.519531 C 7.597656 6.476562 7.5625 6.421875 7.53125 6.363281 C 7.507812 6.304688 7.492188 6.25 7.492188 6.195312 L 7.492188 4.605469 C 7.492188 4.546875 7.507812 4.484375 7.53125 4.429688 C 7.558594 4.371094 7.597656 4.320312 7.644531 4.273438 C 7.6875 4.230469 7.738281 4.195312 7.796875 4.171875 C 7.859375 4.140625 7.914062 4.128906 7.972656 4.128906 C 8.03125 4.128906 8.085938 4.140625 8.144531 4.171875 C 8.203125 4.195312 8.253906 4.230469 8.300781 4.273438 C 8.34375 4.320312 8.378906 4.371094 8.40625 4.429688 C 8.429688 4.488281 8.445312 4.546875 8.449219 4.605469 L 9.164062 4.605469 C 9.164062 4.457031 9.128906 4.316406 9.058594 4.171875 C 8.992188 4.03125 8.902344 3.898438 8.792969 3.78125 C 8.675781 3.667969 8.546875 3.578125 8.402344 3.515625 C 8.261719 3.449219 8.113281 3.414062 7.972656 3.414062 C 7.828125 3.414062 7.679688 3.449219 7.539062 3.515625 C 7.394531 3.578125 7.265625 3.671875 7.152344 3.78125 C 7.035156 3.898438 6.945312 4.027344 6.878906 4.171875 C 6.808594 4.316406 6.777344 4.457031 6.78125 4.605469 L 6.78125 6.195312 C 6.78125 6.335938 6.8125 6.484375 6.878906 6.625 C 6.945312 6.765625 7.035156 6.894531 7.152344 7.011719 C 7.265625 7.128906 7.394531 7.21875 7.539062 7.285156 C 7.675781 7.351562 7.824219 7.386719 7.972656 7.386719 C 8.113281 7.386719 8.261719 7.351562 8.402344 7.285156 C 8.546875 7.214844 8.671875 7.125 8.792969 7.011719 C 8.90625 6.898438 8.996094 6.765625 9.058594 6.625 C 9.128906 6.484375 9.164062 6.335938 9.164062 6.195312 L 9.164062 5.476562 L 7.972656 5.476562 Z M 10.804688 5.535156 L 10.332031 3.414062 L 9.613281 3.414062 L 10.449219 7.386719 L 11.167969 7.386719 L 12 3.414062 L 11.328125 3.414062 Z M 10.804688 5.535156 "/>
<path fill-rule="nonzero" fill="rgb(100%, 100%, 100%)" fill-opacity="1" d="M 8.152344 10.402344 L 6.808594 11.871094 L 6.808594 12.585938 L 9.191406 12.585938 L 9.191406 11.871094 L 7.734375 11.871094 L 8.441406 11.078125 C 8.476562 11.042969 8.53125 10.984375 8.605469 10.902344 C 8.703125 10.800781 8.777344 10.71875 8.832031 10.65625 C 8.890625 10.585938 8.953125 10.507812 9.003906 10.421875 C 9.0625 10.335938 9.109375 10.238281 9.140625 10.132812 C 9.171875 10.027344 9.191406 9.921875 9.191406 9.804688 C 9.191406 9.664062 9.15625 9.515625 9.089844 9.375 C 9.023438 9.234375 8.933594 9.105469 8.824219 8.984375 C 8.703125 8.871094 8.578125 8.78125 8.429688 8.714844 C 8.289062 8.648438 8.144531 8.613281 8 8.613281 C 7.855469 8.613281 7.710938 8.648438 7.566406 8.714844 C 7.421875 8.785156 7.296875 8.871094 7.179688 8.984375 C 7.066406 9.101562 6.972656 9.234375 6.90625 9.375 C 6.839844 9.515625 6.804688 9.664062 6.808594 9.804688 L 7.523438 9.804688 C 7.523438 9.746094 7.535156 9.6875 7.5625 9.632812 C 7.585938 9.578125 7.625 9.523438 7.671875 9.476562 C 7.71875 9.433594 7.769531 9.398438 7.828125 9.371094 C 7.886719 9.347656 7.945312 9.332031 8 9.328125 C 8.058594 9.328125 8.117188 9.34375 8.171875 9.371094 C 8.234375 9.398438 8.285156 9.433594 8.328125 9.476562 C 8.375 9.523438 8.410156 9.578125 8.433594 9.632812 C 8.460938 9.691406 8.476562 9.75 8.476562 9.804688 C 8.476562 9.863281 8.464844 9.921875 8.441406 9.976562 C 8.421875 10.039062 8.390625 10.089844 8.359375 10.140625 C 8.328125 10.191406 8.296875 10.238281 8.261719 10.277344 C 8.222656 10.328125 8.183594 10.367188 8.152344 10.402344 "/>
</svg>
