<?xml version="1.0" encoding="UTF-8"?>
<svg xmlns="http://www.w3.org/2000/svg" xmlns:xlink="http://www.w3.org/1999/xlink" width="16" height="16" viewBox="0 0 16 16">
<rect x="-1.6" y="-1.6" width="19.2" height="19.2" fill="rgb(100%, 100%, 100%)" fill-opacity="1"/>
<path fill="none" stroke-width="3.97394" stroke-linecap="butt" stroke-linejoin="miter" stroke="rgb(0%, 0%, 0%)" stroke-opacity="1" stroke-miterlimit="4" d="M -39.283624 -2.173623 L 18.747626 -2.173623 L 18.747626 55.857627 L -39.283624 55.857627 Z M -39.283624 -2.173623 " transform="matrix(0.25, 0, 0, 0.25, 10.567, 1.2895)"/>
<path fill-rule="nonzero" fill="rgb(0%, 0%, 0%)" fill-opacity="1" d="M 4.035156 5.066406 L 4.222656 5.835938 L 3.859375 5.835938 Z M 4.414062 6.636719 L 4.613281 7.433594 L 5.367188 7.433594 L 4.433594 3 L 3.636719 3 L 2.703125 7.433594 L 3.503906 7.433594 L 3.675781 6.636719 Z M 4.414062 6.636719 "/>
<path fill-rule="nonzero" fill="rgb(0%, 0%, 0%)" fill-opacity="1" d="M 7.453125 5.5625 C 7.453125 5.464844 7.425781 5.371094 7.382812 5.273438 C 7.335938 5.179688 7.277344 5.09375 7.203125 5.015625 C 7.125 4.9375 7.039062 4.878906 6.941406 4.832031 C 6.84375 4.789062 6.746094 4.765625 6.648438 4.765625 L 5.847656 4.765625 L 5.847656 7.433594 L 6.328125 7.433594 L 6.328125 6.363281 L 6.648438 6.363281 C 6.691406 6.363281 6.730469 6.375 6.765625 6.394531 C 6.804688 6.414062 6.839844 6.433594 6.871094 6.464844 C 6.902344 6.496094 6.921875 6.53125 6.941406 6.570312 C 6.957031 6.609375 6.96875 6.648438 6.96875 6.6875 L 6.96875 7.433594 L 7.453125 7.433594 L 7.453125 6.6875 C 7.453125 6.59375 7.441406 6.515625 7.421875 6.445312 C 7.394531 6.375 7.367188 6.320312 7.335938 6.273438 C 7.304688 6.230469 7.277344 6.199219 7.253906 6.175781 L 7.183594 6.125 L 7.191406 6.121094 C 7.210938 6.101562 7.234375 6.078125 7.261719 6.046875 C 7.285156 6.019531 7.3125 5.984375 7.34375 5.929688 C 7.371094 5.882812 7.394531 5.828125 7.421875 5.765625 C 7.441406 5.703125 7.453125 5.636719 7.453125 5.5625 M 6.648438 5.886719 L 6.328125 5.886719 L 6.328125 5.246094 L 6.648438 5.246094 C 6.691406 5.246094 6.730469 5.257812 6.765625 5.273438 C 6.804688 5.292969 6.839844 5.316406 6.871094 5.34375 C 6.902344 5.375 6.921875 5.410156 6.941406 5.449219 C 6.957031 5.488281 6.96875 5.527344 6.96875 5.566406 C 6.96875 5.609375 6.957031 5.644531 6.941406 5.679688 C 6.921875 5.722656 6.902344 5.757812 6.871094 5.785156 C 6.839844 5.816406 6.804688 5.839844 6.765625 5.859375 C 6.730469 5.878906 6.691406 5.886719 6.648438 5.886719 M 9.488281 5.5625 C 9.488281 5.464844 9.464844 5.371094 9.421875 5.273438 C 9.375 5.179688 9.316406 5.09375 9.242188 5.015625 C 9.164062 4.9375 9.078125 4.878906 8.980469 4.832031 C 8.882812 4.789062 8.789062 4.765625 8.691406 4.765625 L 7.890625 4.765625 L 7.890625 7.433594 L 8.367188 7.433594 L 8.367188 6.363281 L 8.691406 6.363281 C 8.730469 6.363281 8.765625 6.375 8.804688 6.394531 C 8.84375 6.414062 8.878906 6.433594 8.910156 6.464844 C 8.941406 6.496094 8.964844 6.53125 8.984375 6.570312 C 9 6.609375 9.007812 6.648438 9.007812 6.6875 L 9.007812 7.433594 L 9.488281 7.433594 L 9.488281 6.6875 C 9.488281 6.59375 9.480469 6.515625 9.457031 6.445312 C 9.433594 6.375 9.410156 6.320312 9.378906 6.273438 C 9.347656 6.230469 9.316406 6.199219 9.292969 6.175781 L 9.222656 6.125 L 9.230469 6.121094 C 9.25 6.101562 9.273438 6.078125 9.296875 6.046875 C 9.324219 6.019531 9.351562 5.984375 9.382812 5.929688 C 9.410156 5.882812 9.433594 5.828125 9.457031 5.765625 C 9.480469 5.703125 9.488281 5.636719 9.488281 5.5625 Z M 8.691406 5.886719 L 8.367188 5.886719 L 8.367188 5.246094 L 8.691406 5.246094 C 8.730469 5.246094 8.765625 5.257812 8.804688 5.273438 C 8.84375 5.292969 8.878906 5.316406 8.910156 5.34375 C 8.941406 5.375 8.964844 5.410156 8.984375 5.449219 C 9 5.488281 9.007812 5.527344 9.007812 5.566406 C 9.007812 5.609375 9 5.644531 8.984375 5.679688 C 8.964844 5.722656 8.941406 5.757812 8.910156 5.785156 C 8.878906 5.816406 8.84375 5.839844 8.804688 5.859375 C 8.765625 5.878906 8.730469 5.886719 8.691406 5.886719 M 10.410156 5.855469 L 10.410156 5.246094 L 11.527344 5.246094 L 11.527344 4.765625 L 9.925781 4.765625 L 9.925781 7.433594 L 11.527344 7.433594 L 11.527344 6.953125 L 10.410156 6.953125 L 10.410156 6.332031 L 10.890625 6.332031 L 10.890625 5.855469 Z M 10.660156 4.125 L 10.722656 4.289062 L 11.09375 4.289062 L 10.855469 3.804688 L 10.464844 3.804688 L 10.226562 4.289062 L 10.597656 4.289062 Z M 12.796875 5.246094 L 13.355469 5.246094 L 13.355469 4.765625 L 11.753906 4.765625 L 11.753906 5.246094 L 12.316406 5.246094 L 12.316406 7.433594 L 12.796875 7.433594 Z M 12.796875 5.246094 "/>
<path fill-rule="nonzero" fill="rgb(0%, 0%, 0%)" fill-opacity="1" d="M 12.5625 10.5625 C 12.449219 10.5625 12.351562 10.574219 12.273438 10.597656 C 12.195312 10.621094 12.128906 10.65625 12.074219 10.699219 C 12.027344 10.660156 11.964844 10.625 11.890625 10.597656 C 11.804688 10.574219 11.707031 10.5625 11.589844 10.5625 C 11.523438 10.5625 11.472656 10.5625 11.441406 10.566406 C 11.40625 10.574219 11.375 10.578125 11.34375 10.585938 L 11.34375 10.5625 L 10.859375 10.5625 L 10.859375 13 L 11.34375 13 L 11.34375 11.296875 C 11.34375 11.230469 11.367188 11.171875 11.421875 11.125 C 11.464844 11.078125 11.523438 11.046875 11.589844 11.046875 C 11.65625 11.046875 11.710938 11.074219 11.765625 11.121094 C 11.808594 11.171875 11.832031 11.230469 11.832031 11.296875 L 11.832031 13 L 12.320312 13 L 12.320312 11.296875 C 12.320312 11.230469 12.347656 11.171875 12.394531 11.125 C 12.441406 11.078125 12.496094 11.046875 12.5625 11.046875 C 12.628906 11.046875 12.6875 11.074219 12.734375 11.121094 C 12.78125 11.171875 12.804688 11.230469 12.804688 11.296875 L 12.804688 13 L 13.296875 13 L 13.296875 11.296875 C 13.296875 10.804688 13.050781 10.5625 12.5625 10.5625 "/>
</svg>
