<?xml version="1.0" encoding="UTF-8"?>
<svg xmlns="http://www.w3.org/2000/svg" xmlns:xlink="http://www.w3.org/1999/xlink" width="16" height="16" viewBox="0 0 16 16">
<rect x="-1.6" y="-1.6" width="19.2" height="19.2" fill="rgb(0%, 0%, 0%)" fill-opacity="1"/>
<path fill="none" stroke-width="3.9351" stroke-linecap="butt" stroke-linejoin="miter" stroke="rgb(100%, 100%, 100%)" stroke-opacity="1" stroke-miterlimit="4" d="M 110.698751 7.810752 L 168.776876 7.810752 L 168.776876 65.873252 L 110.698751 65.873252 Z M 110.698751 7.810752 " transform="matrix(0.25, 0, 0, 0.25, -26.9325, -1.2105)"/>
<path fill-rule="nonzero" fill="rgb(100%, 100%, 100%)" fill-opacity="1" d="M 6.285156 3.558594 L 7.753906 3.558594 L 7.753906 2.300781 L 3.554688 2.300781 L 3.554688 3.558594 L 5.027344 3.558594 L 5.027344 9.300781 L 6.285156 9.300781 Z M 10.972656 3.558594 L 12.445312 3.558594 L 12.445312 2.300781 L 8.246094 2.300781 L 8.246094 3.558594 L 9.714844 3.558594 L 9.714844 9.300781 L 10.972656 9.300781 Z M 10.972656 3.558594 "/>
<path fill-rule="nonzero" fill="rgb(100%, 100%, 100%)" fill-opacity="1" d="M 5.109375 11.621094 L 5.109375 10.828125 L 6.578125 10.828125 L 6.578125 10.199219 L 4.476562 10.199219 L 4.476562 13.699219 L 6.578125 13.699219 L 6.578125 13.070312 L 5.109375 13.070312 L 5.109375 12.25 L 5.734375 12.25 L 5.734375 11.621094 Z M 7.976562 11.828125 L 8.125 12.4375 L 7.835938 12.4375 Z M 8.273438 13.070312 L 8.433594 13.699219 L 9.027344 13.699219 L 8.292969 10.199219 L 7.660156 10.199219 L 6.921875 13.699219 L 7.558594 13.699219 L 7.695312 13.070312 Z M 11.492188 11.210938 C 11.492188 11.082031 11.464844 10.957031 11.410156 10.832031 C 11.355469 10.710938 11.277344 10.605469 11.183594 10.503906 C 11.085938 10.410156 10.976562 10.332031 10.851562 10.277344 C 10.730469 10.226562 10.605469 10.199219 10.476562 10.199219 C 10.347656 10.199219 10.222656 10.226562 10.101562 10.277344 C 9.976562 10.335938 9.867188 10.410156 9.769531 10.503906 C 9.675781 10.605469 9.601562 10.710938 9.542969 10.832031 C 9.484375 10.953125 9.457031 11.082031 9.460938 11.210938 C 9.460938 11.339844 9.488281 11.464844 9.542969 11.585938 C 9.601562 11.710938 9.675781 11.820312 9.769531 11.917969 C 9.867188 12.011719 9.976562 12.085938 10.101562 12.140625 C 10.222656 12.199219 10.347656 12.226562 10.476562 12.226562 C 10.527344 12.226562 10.578125 12.238281 10.628906 12.261719 C 10.679688 12.285156 10.726562 12.316406 10.765625 12.359375 C 10.804688 12.398438 10.835938 12.445312 10.859375 12.492188 C 10.882812 12.546875 10.894531 12.597656 10.894531 12.648438 C 10.894531 12.703125 10.886719 12.75 10.859375 12.796875 C 10.835938 12.851562 10.804688 12.894531 10.765625 12.933594 C 10.726562 12.976562 10.679688 13.007812 10.628906 13.03125 C 10.578125 13.050781 10.527344 13.066406 10.476562 13.070312 C 10.421875 13.070312 10.375 13.054688 10.328125 13.03125 C 10.273438 13.007812 10.230469 12.976562 10.191406 12.933594 C 10.148438 12.894531 10.113281 12.851562 10.089844 12.796875 C 10.066406 12.746094 10.054688 12.699219 10.054688 12.648438 L 9.425781 12.648438 C 9.425781 12.773438 9.453125 12.902344 9.515625 13.027344 C 9.574219 13.152344 9.652344 13.265625 9.753906 13.367188 C 9.855469 13.472656 9.96875 13.550781 10.09375 13.609375 C 10.21875 13.667969 10.347656 13.699219 10.476562 13.699219 C 10.605469 13.699219 10.730469 13.667969 10.855469 13.609375 C 10.984375 13.546875 11.097656 13.46875 11.203125 13.367188 C 11.300781 13.265625 11.378906 13.15625 11.4375 13.027344 C 11.496094 12.902344 11.523438 12.773438 11.523438 12.648438 C 11.523438 12.519531 11.496094 12.390625 11.4375 12.265625 C 11.378906 12.140625 11.296875 12.023438 11.203125 11.921875 C 11.097656 11.824219 10.984375 11.742188 10.855469 11.683594 C 10.730469 11.625 10.605469 11.597656 10.476562 11.597656 C 10.371094 11.597656 10.28125 11.558594 10.203125 11.484375 C 10.128906 11.40625 10.089844 11.316406 10.089844 11.210938 C 10.089844 11.109375 10.128906 11.015625 10.203125 10.9375 C 10.28125 10.863281 10.371094 10.828125 10.476562 10.828125 C 10.578125 10.828125 10.671875 10.863281 10.75 10.9375 C 10.828125 11.015625 10.859375 11.109375 10.859375 11.210938 Z M 11.492188 11.210938 "/>
</svg>
