<?xml version="1.0" encoding="UTF-8"?>
<svg xmlns="http://www.w3.org/2000/svg" xmlns:xlink="http://www.w3.org/1999/xlink" width="16" height="16.000003" viewBox="0 0 16 16.000003">
<path fill-rule="nonzero" fill="rgb(100%, 100%, 100%)" fill-opacity="1" stroke-width="0.274108" stroke-linecap="round" stroke-linejoin="round" stroke="rgb(0%, 0%, 0%)" stroke-opacity="1" stroke-miterlimit="10" d="M 4.610014 206.928328 L 21.902791 206.928328 L 21.902791 189.635552 L 4.610014 189.635552 Z M 4.610014 206.928328 " transform="matrix(0.910785, 0, 0, 0.910785, -4.073732, -172.592204)"/>
<path fill-rule="evenodd" fill="rgb(0%, 0%, 0%)" fill-opacity="1" stroke-width="0.274108" stroke-linecap="round" stroke-linejoin="round" stroke="rgb(0%, 0%, 0%)" stroke-opacity="1" stroke-miterlimit="10" d="M 5.712257 205.826085 L 20.800548 205.826085 L 20.800548 190.737795 L 5.712257 190.737795 Z M 5.712257 205.826085 " transform="matrix(0.910785, 0, 0, 0.910785, -4.073732, -172.592204)"/>
<path fill-rule="nonzero" fill="rgb(100%, 100%, 100%)" fill-opacity="1" d="M 2.316406 11.132812 L 2.316406 10.019531 L 3.140625 10.019531 L 3.140625 11.132812 Z M 4.675781 11.132812 L 4.675781 10.019531 L 5.5 10.019531 L 5.5 11.132812 Z M 7.042969 11.132812 L 7.042969 10.019531 L 7.863281 10.019531 L 7.863281 11.132812 Z M 11.871094 11.132812 L 11.0625 11.132812 L 8.664062 3.972656 L 9.5 3.972656 L 11.117188 9.019531 C 11.117188 9.019531 11.160156 9.171875 11.246094 9.464844 L 11.359375 9.878906 C 11.359375 9.878906 11.394531 10.015625 11.472656 10.277344 C 11.472656 10.277344 11.507812 10.144531 11.574219 9.878906 C 11.574219 9.878906 11.609375 9.746094 11.6875 9.480469 L 11.816406 9.019531 L 13.417969 3.972656 L 14.257812 3.972656 Z M 1.550781 3.558594 "/>
</svg>
