<?xml version="1.0" encoding="UTF-8"?>
<svg xmlns="http://www.w3.org/2000/svg" xmlns:xlink="http://www.w3.org/1999/xlink" width="16" height="16.000005" viewBox="0 0 16 16.000005">
<path fill-rule="nonzero" fill="rgb(100%, 100%, 100%)" fill-opacity="1" stroke-width="0.276225" stroke-linecap="round" stroke-linejoin="round" stroke="rgb(0%, 0%, 0%)" stroke-opacity="1" stroke-miterlimit="10" d="M 16.977554 199.355698 L 34.355761 199.355698 L 34.355761 181.977491 L 16.977554 181.977491 Z M 16.977554 199.355698 " transform="matrix(0.906308, 0, 0, 0.906308, -15.261885, -164.802572)"/>
<path fill-rule="evenodd" fill="rgb(0%, 0%, 0%)" fill-opacity="1" stroke-width="0.276225" stroke-linecap="round" stroke-linejoin="round" stroke="rgb(0%, 0%, 0%)" stroke-opacity="1" stroke-miterlimit="10" d="M 18.076622 198.25663 L 33.256693 198.25663 L 33.256693 183.076559 L 18.076622 183.076559 Z M 18.076622 198.25663 " transform="matrix(0.906308, 0, 0, 0.906308, -15.261885, -164.802572)"/>
<path fill-rule="nonzero" fill="rgb(100%, 100%, 100%)" fill-opacity="1" d="M 5.769531 4.765625 L 5.769531 11.140625 L 4.992188 11.140625 L 4.992188 4.765625 L 2.988281 4.765625 L 2.988281 3.96875 L 7.792969 3.96875 L 7.792969 4.765625 Z M 10.96875 4.765625 L 10.96875 11.140625 L 10.191406 11.140625 L 10.191406 4.765625 L 8.1875 4.765625 L 8.1875 3.96875 L 12.988281 3.96875 L 12.988281 4.765625 Z M 2.792969 3.546875 "/>
</svg>
