<?xml version="1.0" encoding="UTF-8"?>
<svg xmlns="http://www.w3.org/2000/svg" xmlns:xlink="http://www.w3.org/1999/xlink" width="18" height="24" viewBox="0 0 18 24">
<rect x="-1.8" y="-2.4" width="21.6" height="28.8" fill="rgb(0%, 0%, 0%)" fill-opacity="1"/>
<path fill="none" stroke-width="3.935" stroke-linecap="butt" stroke-linejoin="miter" stroke="rgb(100%, 100%, 100%)" stroke-opacity="1" stroke-miterlimit="4" d="M 2.978516 2.978516 L 72.021484 2.978516 L 72.021484 97.021484 L 2.978516 97.021484 Z M 2.978516 2.978516 " transform="matrix(0.24, 0, 0, 0.24, 0, 0)"/>
<path fill-rule="nonzero" fill="rgb(100%, 100%, 100%)" fill-opacity="1" d="M 4.707031 5.085938 L 4.957031 6.109375 L 4.480469 6.109375 Z M 5.207031 7.171875 L 5.464844 8.230469 L 6.449219 8.230469 L 5.234375 2.34375 L 4.1875 2.34375 L 2.972656 8.230469 L 4.019531 8.230469 L 4.246094 7.171875 Z M 5.207031 7.171875 "/>
<path fill-rule="nonzero" fill="rgb(100%, 100%, 100%)" fill-opacity="1" d="M 8.445312 6.40625 C 8.445312 6.308594 8.421875 6.214844 8.378906 6.121094 C 8.335938 6.03125 8.277344 5.945312 8.207031 5.867188 C 8.132812 5.792969 8.046875 5.734375 7.953125 5.691406 C 7.863281 5.648438 7.769531 5.625 7.675781 5.625 L 6.90625 5.625 L 6.90625 8.230469 L 7.371094 8.230469 L 7.371094 7.1875 L 7.675781 7.1875 C 7.714844 7.1875 7.753906 7.199219 7.789062 7.214844 C 7.828125 7.234375 7.859375 7.253906 7.890625 7.285156 C 7.917969 7.316406 7.941406 7.347656 7.957031 7.386719 C 7.972656 7.425781 7.980469 7.464844 7.980469 7.5 L 7.980469 8.230469 L 8.445312 8.230469 L 8.445312 7.5 C 8.445312 7.410156 8.433594 7.332031 8.414062 7.265625 C 8.394531 7.195312 8.367188 7.140625 8.335938 7.097656 C 8.308594 7.054688 8.28125 7.023438 8.253906 7.003906 L 8.191406 6.953125 L 8.195312 6.949219 C 8.214844 6.929688 8.238281 6.90625 8.261719 6.878906 C 8.285156 6.851562 8.3125 6.8125 8.34375 6.761719 C 8.367188 6.714844 8.394531 6.660156 8.414062 6.601562 C 8.433594 6.539062 8.445312 6.472656 8.445312 6.40625 M 7.675781 6.71875 L 7.371094 6.71875 L 7.371094 6.09375 L 7.675781 6.09375 C 7.714844 6.09375 7.753906 6.105469 7.789062 6.121094 C 7.828125 6.140625 7.859375 6.164062 7.890625 6.191406 C 7.917969 6.222656 7.941406 6.253906 7.957031 6.292969 C 7.972656 6.332031 7.980469 6.371094 7.980469 6.40625 C 7.980469 6.445312 7.972656 6.484375 7.957031 6.519531 C 7.941406 6.558594 7.917969 6.59375 7.890625 6.621094 C 7.859375 6.652344 7.828125 6.675781 7.789062 6.695312 C 7.753906 6.710938 7.714844 6.71875 7.675781 6.71875 M 10.402344 6.40625 C 10.402344 6.308594 10.378906 6.214844 10.335938 6.121094 C 10.292969 6.03125 10.234375 5.945312 10.164062 5.867188 C 10.089844 5.792969 10.003906 5.734375 9.914062 5.691406 C 9.820312 5.648438 9.726562 5.625 9.632812 5.625 L 8.863281 5.625 L 8.863281 8.230469 L 9.328125 8.230469 L 9.328125 7.1875 L 9.632812 7.1875 C 9.671875 7.1875 9.710938 7.199219 9.746094 7.214844 C 9.785156 7.234375 9.816406 7.253906 9.847656 7.285156 C 9.875 7.316406 9.898438 7.347656 9.914062 7.386719 C 9.929688 7.425781 9.941406 7.464844 9.941406 7.5 L 9.941406 8.230469 L 10.402344 8.230469 L 10.402344 7.5 C 10.402344 7.410156 10.390625 7.332031 10.371094 7.265625 C 10.351562 7.195312 10.324219 7.140625 10.292969 7.097656 C 10.265625 7.054688 10.238281 7.023438 10.210938 7.003906 L 10.148438 6.953125 L 10.152344 6.949219 C 10.171875 6.929688 10.195312 6.90625 10.21875 6.878906 C 10.242188 6.851562 10.269531 6.8125 10.300781 6.761719 C 10.328125 6.714844 10.351562 6.660156 10.371094 6.601562 C 10.390625 6.539062 10.402344 6.472656 10.402344 6.40625 Z M 9.632812 6.71875 L 9.328125 6.71875 L 9.328125 6.09375 L 9.632812 6.09375 C 9.671875 6.09375 9.710938 6.105469 9.746094 6.121094 C 9.785156 6.140625 9.816406 6.164062 9.847656 6.191406 C 9.875 6.222656 9.898438 6.253906 9.914062 6.292969 C 9.929688 6.332031 9.941406 6.371094 9.941406 6.40625 C 9.941406 6.445312 9.929688 6.484375 9.914062 6.519531 C 9.898438 6.558594 9.875 6.59375 9.847656 6.621094 C 9.816406 6.652344 9.785156 6.675781 9.746094 6.695312 C 9.710938 6.710938 9.671875 6.71875 9.632812 6.71875 M 11.285156 6.6875 L 11.285156 6.09375 L 12.359375 6.09375 L 12.359375 5.625 L 10.820312 5.625 L 10.820312 8.230469 L 12.359375 8.230469 L 12.359375 7.761719 L 11.285156 7.761719 L 11.285156 7.15625 L 11.746094 7.15625 L 11.746094 6.6875 Z M 11.527344 5 L 11.585938 5.160156 L 11.941406 5.160156 L 11.710938 4.6875 L 11.339844 4.6875 L 11.109375 5.160156 L 11.46875 5.160156 Z M 13.574219 6.09375 L 14.113281 6.09375 L 14.113281 5.625 L 12.578125 5.625 L 12.578125 6.09375 L 13.113281 6.09375 L 13.113281 8.230469 L 13.574219 8.230469 Z M 13.574219 6.09375 "/>
<path fill-rule="nonzero" fill="rgb(100%, 100%, 100%)" fill-opacity="1" d="M 7.09375 9.382812 C 7.132812 9.382812 7.171875 9.394531 7.210938 9.414062 C 7.246094 9.429688 7.28125 9.453125 7.3125 9.484375 C 7.34375 9.515625 7.363281 9.550781 7.382812 9.589844 C 7.398438 9.628906 7.40625 9.667969 7.40625 9.707031 L 7.40625 10.78125 C 7.40625 10.820312 7.398438 10.859375 7.382812 10.898438 C 7.363281 10.9375 7.34375 10.972656 7.3125 11.003906 C 7.28125 11.035156 7.246094 11.058594 7.210938 11.074219 C 7.171875 11.09375 7.132812 11.101562 7.09375 11.105469 L 6.777344 11.105469 L 6.777344 9.382812 Z M 7.09375 8.902344 L 6.300781 8.902344 L 6.300781 11.585938 L 7.09375 11.585938 C 7.191406 11.585938 7.285156 11.5625 7.378906 11.519531 C 7.472656 11.472656 7.5625 11.414062 7.640625 11.335938 C 7.714844 11.257812 7.773438 11.171875 7.816406 11.074219 C 7.863281 10.976562 7.886719 10.878906 7.886719 10.78125 L 7.886719 9.707031 C 7.886719 9.609375 7.863281 9.511719 7.816406 9.414062 C 7.773438 9.320312 7.714844 9.230469 7.640625 9.152344 C 7.5625 9.074219 7.476562 9.011719 7.378906 8.96875 C 7.285156 8.925781 7.191406 8.902344 7.09375 8.902344 Z M 7.09375 8.902344 "/>
<path fill-rule="nonzero" fill="rgb(100%, 100%, 100%)" fill-opacity="1" d="M 8.796875 9.996094 L 8.796875 9.382812 L 9.902344 9.382812 L 9.902344 8.902344 L 8.316406 8.902344 L 8.316406 11.585938 L 9.902344 11.585938 L 9.902344 11.105469 L 8.796875 11.105469 L 8.796875 10.476562 L 9.269531 10.476562 L 9.269531 9.996094 Z M 11.765625 9.679688 C 11.765625 9.582031 11.746094 9.484375 11.703125 9.390625 C 11.660156 9.296875 11.601562 9.210938 11.53125 9.136719 C 11.460938 9.0625 11.375 9.007812 11.28125 8.964844 C 11.191406 8.921875 11.09375 8.902344 11 8.902344 C 10.902344 8.902344 10.808594 8.921875 10.714844 8.964844 C 10.621094 9.007812 10.539062 9.066406 10.46875 9.136719 C 10.394531 9.210938 10.339844 9.296875 10.296875 9.390625 C 10.253906 9.484375 10.230469 9.582031 10.234375 9.679688 C 10.234375 9.777344 10.253906 9.875 10.296875 9.96875 C 10.339844 10.0625 10.394531 10.148438 10.46875 10.21875 C 10.539062 10.292969 10.621094 10.351562 10.714844 10.394531 C 10.808594 10.4375 10.902344 10.460938 11 10.460938 C 11.039062 10.460938 11.078125 10.46875 11.117188 10.484375 C 11.152344 10.503906 11.1875 10.527344 11.21875 10.558594 C 11.246094 10.589844 11.269531 10.625 11.289062 10.664062 C 11.304688 10.703125 11.316406 10.742188 11.316406 10.78125 C 11.316406 10.820312 11.308594 10.859375 11.289062 10.898438 C 11.269531 10.9375 11.246094 10.972656 11.21875 11 C 11.1875 11.035156 11.152344 11.058594 11.117188 11.074219 C 11.074219 11.09375 11.039062 11.101562 11 11.105469 C 10.960938 11.105469 10.921875 11.09375 10.886719 11.074219 C 10.847656 11.058594 10.8125 11.035156 10.78125 11 C 10.75 10.972656 10.726562 10.9375 10.707031 10.898438 C 10.691406 10.859375 10.683594 10.820312 10.683594 10.78125 L 10.207031 10.78125 C 10.207031 10.878906 10.230469 10.976562 10.273438 11.074219 C 10.316406 11.167969 10.378906 11.257812 10.457031 11.335938 C 10.53125 11.414062 10.617188 11.476562 10.710938 11.519531 C 10.804688 11.5625 10.902344 11.585938 11 11.585938 C 11.09375 11.585938 11.191406 11.5625 11.285156 11.519531 C 11.378906 11.472656 11.46875 11.410156 11.546875 11.335938 C 11.621094 11.257812 11.679688 11.171875 11.722656 11.074219 C 11.769531 10.976562 11.789062 10.878906 11.789062 10.78125 C 11.789062 10.683594 11.769531 10.585938 11.722656 10.488281 C 11.679688 10.390625 11.621094 10.304688 11.546875 10.226562 C 11.46875 10.148438 11.382812 10.085938 11.285156 10.042969 C 11.191406 9.996094 11.09375 9.976562 11 9.976562 C 10.921875 9.976562 10.851562 9.945312 10.796875 9.886719 C 10.738281 9.828125 10.707031 9.761719 10.707031 9.679688 C 10.707031 9.601562 10.738281 9.53125 10.796875 9.46875 C 10.851562 9.414062 10.921875 9.382812 11 9.382812 C 11.078125 9.382812 11.148438 9.414062 11.207031 9.46875 C 11.261719 9.53125 11.289062 9.601562 11.289062 9.679688 Z M 11.765625 9.679688 "/>
<path fill-rule="nonzero" fill="rgb(100%, 100%, 100%)" fill-opacity="1" d="M 4.785156 12.742188 L 5.335938 12.742188 L 5.335938 12.257812 L 3.753906 12.257812 L 3.753906 12.742188 L 4.308594 12.742188 L 4.308594 14.941406 L 4.785156 14.941406 Z M 7.277344 13.0625 C 7.277344 12.960938 7.257812 12.867188 7.210938 12.769531 C 7.167969 12.675781 7.109375 12.585938 7.035156 12.507812 C 6.957031 12.429688 6.871094 12.371094 6.773438 12.328125 C 6.679688 12.28125 6.582031 12.257812 6.488281 12.257812 L 5.695312 12.257812 L 5.695312 14.941406 L 6.171875 14.941406 L 6.171875 13.867188 L 6.488281 13.867188 C 6.527344 13.867188 6.566406 13.878906 6.601562 13.898438 C 6.640625 13.914062 6.675781 13.9375 6.707031 13.96875 C 6.734375 14 6.757812 14.035156 6.777344 14.074219 C 6.792969 14.113281 6.800781 14.152344 6.800781 14.191406 L 6.800781 14.941406 L 7.277344 14.941406 L 7.277344 14.191406 C 7.277344 14.097656 7.269531 14.015625 7.246094 13.945312 C 7.226562 13.878906 7.199219 13.820312 7.167969 13.777344 C 7.136719 13.730469 7.109375 13.699219 7.082031 13.675781 C 7.058594 13.65625 7.035156 13.640625 7.015625 13.628906 L 7.019531 13.621094 C 7.042969 13.601562 7.066406 13.578125 7.089844 13.546875 C 7.113281 13.519531 7.140625 13.480469 7.171875 13.429688 C 7.199219 13.382812 7.226562 13.324219 7.246094 13.261719 C 7.269531 13.199219 7.277344 13.132812 7.277344 13.0625 Z M 6.488281 13.386719 L 6.171875 13.386719 L 6.171875 12.742188 L 6.488281 12.742188 C 6.527344 12.742188 6.566406 12.75 6.601562 12.769531 C 6.640625 12.785156 6.675781 12.8125 6.707031 12.839844 C 6.734375 12.871094 6.757812 12.90625 6.777344 12.945312 C 6.792969 12.984375 6.800781 13.023438 6.800781 13.0625 C 6.800781 13.101562 6.792969 13.140625 6.777344 13.179688 C 6.757812 13.21875 6.734375 13.253906 6.707031 13.285156 C 6.675781 13.316406 6.640625 13.339844 6.601562 13.359375 C 6.566406 13.378906 6.527344 13.386719 6.488281 13.386719 Z M 8.371094 13.507812 L 8.484375 13.976562 L 8.269531 13.976562 Z M 8.597656 14.460938 L 8.71875 14.941406 L 9.167969 14.941406 L 8.613281 12.257812 L 8.136719 12.257812 L 7.582031 14.941406 L 8.058594 14.941406 L 8.160156 14.460938 Z M 9.558594 14.941406 L 10.035156 14.941406 L 10.035156 12.257812 L 9.558594 12.257812 Z M 11.039062 13.40625 L 11.667969 14.941406 L 12.144531 14.941406 L 12.144531 12.257812 L 11.667969 12.257812 L 11.667969 13.792969 L 11.039062 12.257812 L 10.5625 12.257812 L 10.5625 14.941406 L 11.039062 14.941406 Z M 14.140625 13.035156 C 14.140625 12.9375 14.117188 12.84375 14.078125 12.746094 C 14.035156 12.652344 13.976562 12.570312 13.90625 12.496094 C 13.832031 12.421875 13.75 12.363281 13.65625 12.320312 C 13.5625 12.277344 13.46875 12.257812 13.375 12.257812 C 13.277344 12.257812 13.183594 12.277344 13.089844 12.320312 C 12.996094 12.363281 12.914062 12.421875 12.84375 12.496094 C 12.769531 12.570312 12.710938 12.652344 12.667969 12.746094 C 12.625 12.839844 12.605469 12.9375 12.609375 13.035156 C 12.609375 13.136719 12.628906 13.230469 12.667969 13.324219 C 12.710938 13.417969 12.769531 13.503906 12.84375 13.578125 C 12.914062 13.652344 12.996094 13.707031 13.089844 13.75 C 13.179688 13.792969 13.277344 13.816406 13.375 13.816406 C 13.414062 13.816406 13.453125 13.824219 13.488281 13.84375 C 13.527344 13.859375 13.5625 13.882812 13.59375 13.914062 C 13.621094 13.945312 13.644531 13.980469 13.664062 14.019531 C 13.679688 14.058594 13.6875 14.101562 13.691406 14.136719 C 13.691406 14.179688 13.679688 14.21875 13.664062 14.253906 C 13.644531 14.292969 13.621094 14.328125 13.59375 14.359375 C 13.5625 14.390625 13.527344 14.414062 13.488281 14.433594 C 13.449219 14.449219 13.410156 14.460938 13.375 14.460938 C 13.335938 14.460938 13.296875 14.453125 13.261719 14.433594 C 13.21875 14.414062 13.1875 14.390625 13.15625 14.359375 C 13.125 14.328125 13.101562 14.292969 13.082031 14.253906 C 13.066406 14.214844 13.054688 14.175781 13.054688 14.136719 L 12.582031 14.136719 C 12.582031 14.234375 12.605469 14.332031 12.648438 14.429688 C 12.691406 14.527344 12.753906 14.613281 12.828125 14.691406 C 12.90625 14.769531 12.992188 14.832031 13.085938 14.875 C 13.179688 14.921875 13.277344 14.941406 13.375 14.941406 C 13.46875 14.941406 13.566406 14.921875 13.660156 14.875 C 13.753906 14.828125 13.839844 14.769531 13.921875 14.691406 C 13.996094 14.613281 14.054688 14.527344 14.097656 14.429688 C 14.144531 14.332031 14.164062 14.234375 14.164062 14.136719 C 14.164062 14.039062 14.144531 13.941406 14.097656 13.84375 C 14.054688 13.75 13.996094 13.660156 13.921875 13.582031 C 13.84375 13.503906 13.757812 13.445312 13.660156 13.398438 C 13.566406 13.351562 13.46875 13.332031 13.375 13.332031 C 13.292969 13.332031 13.226562 13.304688 13.171875 13.246094 C 13.113281 13.1875 13.082031 13.117188 13.082031 13.035156 C 13.082031 12.957031 13.113281 12.886719 13.171875 12.828125 C 13.226562 12.769531 13.292969 12.742188 13.375 12.742188 C 13.453125 12.742188 13.519531 12.769531 13.578125 12.828125 C 13.636719 12.886719 13.664062 12.957031 13.664062 13.035156 Z M 14.140625 13.035156 "/>
<path fill-rule="nonzero" fill="rgb(100%, 100%, 100%)" fill-opacity="1" d="M 7.992188 16.097656 C 8.03125 16.097656 8.070312 16.105469 8.105469 16.125 C 8.144531 16.144531 8.179688 16.167969 8.210938 16.195312 C 8.238281 16.226562 8.261719 16.261719 8.28125 16.300781 C 8.296875 16.34375 8.304688 16.382812 8.304688 16.417969 L 8.304688 17.496094 C 8.304688 17.535156 8.296875 17.574219 8.28125 17.609375 C 8.261719 17.648438 8.238281 17.683594 8.210938 17.714844 C 8.179688 17.746094 8.144531 17.769531 8.105469 17.789062 C 8.066406 17.804688 8.027344 17.816406 7.992188 17.816406 L 7.671875 17.816406 L 7.671875 16.097656 Z M 7.992188 15.613281 L 7.195312 15.613281 L 7.195312 18.300781 L 7.992188 18.300781 C 8.085938 18.300781 8.183594 18.277344 8.277344 18.230469 C 8.371094 18.1875 8.457031 18.125 8.539062 18.046875 C 8.613281 17.972656 8.671875 17.882812 8.714844 17.785156 C 8.761719 17.691406 8.78125 17.59375 8.78125 17.496094 L 8.78125 16.417969 C 8.78125 16.320312 8.761719 16.226562 8.714844 16.128906 C 8.671875 16.03125 8.609375 15.945312 8.539062 15.863281 C 8.460938 15.785156 8.375 15.726562 8.277344 15.683594 C 8.183594 15.636719 8.085938 15.613281 7.992188 15.613281 Z M 10.800781 15.613281 L 10.324219 15.613281 L 10.324219 17.496094 C 10.324219 17.535156 10.316406 17.574219 10.296875 17.609375 C 10.28125 17.648438 10.257812 17.683594 10.230469 17.714844 C 10.199219 17.746094 10.164062 17.769531 10.125 17.789062 C 10.085938 17.804688 10.046875 17.816406 10.007812 17.816406 C 9.96875 17.816406 9.933594 17.808594 9.894531 17.789062 C 9.855469 17.769531 9.820312 17.746094 9.792969 17.714844 C 9.761719 17.683594 9.738281 17.648438 9.71875 17.609375 C 9.699219 17.570312 9.691406 17.535156 9.691406 17.496094 L 9.691406 15.613281 L 9.214844 15.613281 L 9.214844 17.496094 C 9.214844 17.59375 9.238281 17.691406 9.28125 17.785156 C 9.328125 17.882812 9.386719 17.96875 9.464844 18.046875 C 9.542969 18.125 9.625 18.1875 9.722656 18.230469 C 9.816406 18.277344 9.910156 18.300781 10.007812 18.300781 C 10.105469 18.300781 10.199219 18.277344 10.296875 18.230469 C 10.390625 18.1875 10.476562 18.125 10.554688 18.046875 C 10.632812 17.972656 10.691406 17.882812 10.734375 17.785156 C 10.777344 17.691406 10.800781 17.59375 10.800781 17.496094 Z M 10.800781 15.613281 "/>
<path fill-rule="nonzero" fill="rgb(100%, 100%, 100%)" fill-opacity="1" d="M 3.371094 20.851562 L 2.898438 20.851562 C 2.898438 20.890625 2.886719 20.929688 2.871094 20.964844 C 2.851562 21.007812 2.828125 21.042969 2.800781 21.070312 C 2.769531 21.101562 2.734375 21.128906 2.695312 21.144531 C 2.65625 21.164062 2.617188 21.171875 2.582031 21.171875 C 2.539062 21.171875 2.503906 21.164062 2.46875 21.144531 C 2.425781 21.128906 2.394531 21.101562 2.363281 21.070312 C 2.332031 21.042969 2.308594 21.007812 2.289062 20.964844 C 2.273438 20.929688 2.261719 20.890625 2.261719 20.851562 L 2.261719 19.777344 C 2.261719 19.734375 2.273438 19.695312 2.289062 19.65625 C 2.304688 19.621094 2.332031 19.585938 2.363281 19.554688 C 2.394531 19.523438 2.425781 19.5 2.46875 19.480469 C 2.503906 19.464844 2.542969 19.457031 2.582031 19.453125 C 2.621094 19.453125 2.660156 19.464844 2.695312 19.480469 C 2.734375 19.5 2.769531 19.523438 2.800781 19.554688 C 2.828125 19.585938 2.851562 19.621094 2.871094 19.65625 C 2.886719 19.699219 2.894531 19.738281 2.898438 19.777344 L 3.371094 19.777344 C 3.371094 19.679688 3.351562 19.582031 3.304688 19.484375 C 3.261719 19.390625 3.199219 19.300781 3.128906 19.21875 C 3.050781 19.144531 2.964844 19.082031 2.867188 19.039062 C 2.773438 18.992188 2.675781 18.972656 2.582031 18.972656 C 2.484375 18.972656 2.386719 18.992188 2.292969 19.039062 C 2.195312 19.085938 2.113281 19.144531 2.035156 19.21875 C 1.960938 19.296875 1.898438 19.386719 1.851562 19.484375 C 1.808594 19.582031 1.789062 19.679688 1.789062 19.777344 L 1.789062 20.851562 C 1.789062 20.949219 1.808594 21.046875 1.851562 21.140625 C 1.898438 21.238281 1.960938 21.324219 2.035156 21.40625 C 2.113281 21.484375 2.195312 21.542969 2.292969 21.589844 C 2.386719 21.632812 2.484375 21.65625 2.582031 21.65625 C 2.675781 21.65625 2.773438 21.632812 2.867188 21.589844 C 2.960938 21.542969 3.046875 21.480469 3.128906 21.40625 C 3.203125 21.328125 3.261719 21.238281 3.304688 21.140625 C 3.351562 21.046875 3.371094 20.949219 3.371094 20.851562 Z M 5.390625 18.972656 L 4.914062 18.972656 L 4.914062 20.0625 L 4.28125 20.0625 L 4.28125 18.972656 L 3.804688 18.972656 L 3.804688 21.65625 L 4.28125 21.65625 L 4.28125 20.546875 L 4.914062 20.546875 L 4.914062 21.65625 L 5.390625 21.65625 Z M 6.578125 20.222656 L 6.691406 20.6875 L 6.472656 20.6875 Z M 6.804688 21.171875 L 6.921875 21.65625 L 7.371094 21.65625 L 6.816406 18.972656 L 6.339844 18.972656 L 5.785156 21.65625 L 6.261719 21.65625 L 6.363281 21.171875 Z M 8.238281 20.121094 L 8.871094 21.65625 L 9.347656 21.65625 L 9.347656 18.972656 L 8.871094 18.972656 L 8.871094 20.507812 L 8.238281 18.972656 L 7.761719 18.972656 L 7.761719 21.65625 L 8.238281 21.65625 Z M 10.734375 19.453125 L 11.285156 19.453125 L 11.285156 18.972656 L 9.703125 18.972656 L 9.703125 19.453125 L 10.257812 19.453125 L 10.257812 21.65625 L 10.734375 21.65625 Z M 11.644531 21.65625 L 12.121094 21.65625 L 12.121094 18.972656 L 11.644531 18.972656 Z M 13.121094 20.0625 L 13.121094 19.453125 L 14.230469 19.453125 L 14.230469 18.972656 L 12.644531 18.972656 L 12.644531 21.65625 L 14.230469 21.65625 L 14.230469 21.171875 L 13.121094 21.171875 L 13.121094 20.546875 L 13.597656 20.546875 L 13.597656 20.0625 Z M 16.210938 19.773438 C 16.210938 19.675781 16.1875 19.578125 16.144531 19.480469 C 16.097656 19.386719 16.039062 19.300781 15.964844 19.21875 C 15.890625 19.144531 15.800781 19.082031 15.707031 19.039062 C 15.609375 18.992188 15.515625 18.972656 15.417969 18.972656 L 14.625 18.972656 L 14.625 21.65625 L 15.101562 21.65625 L 15.101562 20.582031 L 15.417969 20.582031 C 15.460938 20.582031 15.496094 20.589844 15.535156 20.609375 C 15.574219 20.628906 15.609375 20.652344 15.640625 20.679688 C 15.667969 20.710938 15.691406 20.746094 15.707031 20.785156 C 15.726562 20.824219 15.734375 20.863281 15.734375 20.902344 L 15.734375 21.65625 L 16.210938 21.65625 L 16.210938 20.902344 C 16.210938 20.8125 16.199219 20.730469 16.179688 20.660156 C 16.15625 20.589844 16.132812 20.53125 16.101562 20.488281 C 16.070312 20.445312 16.039062 20.410156 16.015625 20.390625 C 15.988281 20.371094 15.96875 20.355469 15.949219 20.339844 L 15.953125 20.335938 C 15.972656 20.3125 15.996094 20.289062 16.023438 20.261719 C 16.046875 20.234375 16.074219 20.195312 16.105469 20.144531 C 16.132812 20.09375 16.15625 20.039062 16.179688 19.976562 C 16.199219 19.914062 16.210938 19.84375 16.210938 19.773438 Z M 15.417969 20.097656 L 15.101562 20.097656 L 15.101562 19.453125 L 15.417969 19.453125 C 15.460938 19.453125 15.496094 19.464844 15.535156 19.480469 C 15.574219 19.5 15.609375 19.523438 15.640625 19.554688 C 15.667969 19.585938 15.691406 19.621094 15.707031 19.65625 C 15.726562 19.699219 15.734375 19.738281 15.734375 19.777344 C 15.734375 19.816406 15.726562 19.855469 15.707031 19.890625 C 15.691406 19.929688 15.667969 19.964844 15.640625 19.996094 C 15.609375 20.027344 15.574219 20.054688 15.535156 20.070312 C 15.496094 20.089844 15.460938 20.097656 15.417969 20.097656 Z M 15.417969 20.097656 "/>
</svg>
