<?xml version="1.0" encoding="UTF-8"?>
<svg xmlns="http://www.w3.org/2000/svg" xmlns:xlink="http://www.w3.org/1999/xlink" width="16" height="16" viewBox="0 0 16 16">
<rect x="-1.6" y="-1.6" width="19.2" height="19.2" fill="rgb(100%, 100%, 100%)" fill-opacity="1"/>
<path fill="none" stroke-width="3.9739" stroke-linecap="butt" stroke-linejoin="miter" stroke="rgb(0%, 0%, 0%)" stroke-opacity="1" stroke-miterlimit="4" d="M -39.283627 -2.173625 L 18.747623 -2.173625 L 18.747623 55.857625 L -39.283627 55.857625 Z M -39.283627 -2.173625 " transform="matrix(0.25, 0, 0, 0.25, 10.567, 1.2895)"/>
<path fill-rule="nonzero" fill="rgb(0%, 0%, 0%)" fill-opacity="1" d="M 6.070312 6.550781 C 6.070312 6.285156 6.015625 6.027344 5.90625 5.777344 C 5.792969 5.53125 5.640625 5.3125 5.449219 5.113281 C 5.253906 4.921875 5.035156 4.773438 4.792969 4.664062 C 4.550781 4.554688 4.304688 4.5 4.046875 4.5 L 1.941406 4.5 L 1.941406 11.5 L 4.046875 11.5 C 4.304688 11.5 4.558594 11.441406 4.808594 11.320312 C 5.054688 11.203125 5.28125 11.042969 5.492188 10.84375 C 5.691406 10.644531 5.847656 10.414062 5.960938 10.160156 C 6.082031 9.914062 6.140625 9.664062 6.140625 9.40625 C 6.140625 9.25 6.121094 9.089844 6.078125 8.9375 C 6.039062 8.785156 5.984375 8.648438 5.914062 8.527344 C 5.847656 8.398438 5.773438 8.289062 5.695312 8.199219 C 5.625 8.105469 5.546875 8.035156 5.46875 7.980469 C 5.53125 7.914062 5.59375 7.832031 5.660156 7.734375 C 5.726562 7.640625 5.792969 7.53125 5.859375 7.40625 C 5.917969 7.28125 5.96875 7.148438 6.011719 7 C 6.050781 6.855469 6.070312 6.707031 6.070312 6.550781 Z M 4.046875 8.558594 C 4.152344 8.558594 4.257812 8.582031 4.355469 8.628906 C 4.457031 8.679688 4.546875 8.746094 4.628906 8.828125 C 4.707031 8.910156 4.769531 9 4.8125 9.101562 C 4.859375 9.207031 4.882812 9.304688 4.882812 9.402344 C 4.882812 9.507812 4.859375 9.605469 4.8125 9.703125 C 4.769531 9.808594 4.707031 9.898438 4.628906 9.976562 C 4.546875 10.058594 4.457031 10.121094 4.355469 10.167969 C 4.25 10.210938 4.148438 10.238281 4.046875 10.242188 L 3.207031 10.242188 L 3.207031 8.558594 Z M 4.046875 7.300781 L 3.207031 7.300781 L 3.207031 5.757812 L 4.046875 5.757812 C 4.257812 5.757812 4.4375 5.832031 4.589844 5.984375 C 4.738281 6.136719 4.8125 6.320312 4.8125 6.53125 C 4.8125 6.738281 4.738281 6.917969 4.589844 7.070312 C 4.4375 7.226562 4.257812 7.300781 4.046875 7.300781 Z M 7.191406 11.5 L 8.457031 11.5 L 8.457031 4.5 L 7.191406 4.5 Z M 11.117188 11.5 L 11.117188 8.609375 L 12.375 8.609375 L 12.375 7.351562 L 11.117188 7.351562 L 11.117188 5.757812 L 14.054688 5.757812 L 14.054688 4.5 L 9.851562 4.5 L 9.851562 11.5 Z M 11.117188 11.5 "/>
</svg>
