<?xml version="1.0" encoding="UTF-8"?>
<svg xmlns="http://www.w3.org/2000/svg" xmlns:xlink="http://www.w3.org/1999/xlink" width="16" height="16" viewBox="0 0 16 16">
<rect x="-1.6" y="-1.6" width="19.2" height="19.2" fill="rgb(0%, 0%, 0%)" fill-opacity="1"/>
<path fill="none" stroke-width="3.93508" stroke-linecap="butt" stroke-linejoin="miter" stroke="rgb(100%, 100%, 100%)" stroke-opacity="1" stroke-miterlimit="4" d="M 2.96875 2.96875 L 61.03125 2.96875 L 61.03125 61.03125 L 2.96875 61.03125 Z M 2.96875 2.96875 " transform="matrix(0.25, 0, 0, 0.25, 0, 0)"/>
<path fill-rule="nonzero" fill="rgb(100%, 100%, 100%)" fill-opacity="1" d="M 5.410156 9.203125 L 4.332031 9.203125 C 4.332031 9.292969 4.3125 9.375 4.269531 9.457031 C 4.230469 9.546875 4.175781 9.625 4.109375 9.691406 C 4.039062 9.761719 3.960938 9.816406 3.875 9.859375 C 3.785156 9.898438 3.699219 9.917969 3.613281 9.921875 C 3.523438 9.921875 3.4375 9.902344 3.355469 9.859375 C 3.265625 9.816406 3.1875 9.761719 3.121094 9.691406 C 3.050781 9.625 2.992188 9.550781 2.949219 9.460938 C 2.910156 9.371094 2.890625 9.285156 2.890625 9.203125 L 2.890625 6.796875 C 2.890625 6.707031 2.910156 6.621094 2.949219 6.535156 C 2.988281 6.449219 3.046875 6.371094 3.121094 6.300781 C 3.1875 6.234375 3.265625 6.183594 3.355469 6.140625 C 3.441406 6.101562 3.527344 6.082031 3.613281 6.078125 C 3.703125 6.078125 3.789062 6.101562 3.875 6.140625 C 3.960938 6.183594 4.039062 6.234375 4.109375 6.300781 C 4.175781 6.371094 4.230469 6.449219 4.269531 6.535156 C 4.308594 6.625 4.328125 6.714844 4.332031 6.796875 L 5.410156 6.796875 C 5.410156 6.582031 5.359375 6.363281 5.257812 6.148438 C 5.15625 5.933594 5.023438 5.734375 4.855469 5.558594 C 4.679688 5.382812 4.480469 5.25 4.261719 5.152344 C 4.046875 5.050781 3.832031 5 3.613281 5 C 3.394531 5 3.175781 5.050781 2.957031 5.152344 C 2.742188 5.253906 2.546875 5.390625 2.375 5.558594 C 2.199219 5.730469 2.0625 5.929688 1.960938 6.148438 C 1.859375 6.363281 1.808594 6.582031 1.8125 6.796875 L 1.8125 9.203125 C 1.8125 9.417969 1.863281 9.636719 1.960938 9.851562 C 2.0625 10.066406 2.199219 10.261719 2.375 10.4375 C 2.546875 10.613281 2.742188 10.75 2.953125 10.847656 C 3.171875 10.949219 3.390625 11 3.613281 11 C 3.832031 11 4.046875 10.949219 4.261719 10.847656 C 4.476562 10.746094 4.675781 10.609375 4.851562 10.4375 C 5.027344 10.265625 5.160156 10.070312 5.257812 9.851562 C 5.359375 9.636719 5.410156 9.417969 5.410156 9.203125 Z M 7.894531 7.796875 L 8.152344 8.839844 L 7.660156 8.839844 Z M 8.410156 9.921875 L 8.679688 11 L 9.699219 11 L 8.441406 5 L 7.355469 5 L 6.097656 11 L 7.179688 11 L 7.414062 9.921875 Z M 14.128906 6.757812 C 14.128906 6.53125 14.082031 6.308594 13.988281 6.097656 C 13.890625 5.882812 13.761719 5.695312 13.597656 5.527344 C 13.429688 5.363281 13.242188 5.234375 13.035156 5.140625 C 12.824219 5.046875 12.613281 5 12.394531 5 L 10.589844 5 L 10.589844 11 L 12.394531 11 C 12.613281 11 12.828125 10.949219 13.042969 10.847656 C 13.253906 10.746094 13.449219 10.609375 13.628906 10.4375 C 13.800781 10.265625 13.9375 10.070312 14.035156 9.851562 C 14.136719 9.640625 14.1875 9.425781 14.1875 9.207031 C 14.1875 9.070312 14.167969 8.9375 14.132812 8.804688 C 14.097656 8.675781 14.050781 8.558594 13.992188 8.453125 C 13.933594 8.339844 13.871094 8.246094 13.804688 8.171875 C 13.742188 8.089844 13.679688 8.027344 13.613281 7.984375 C 13.664062 7.929688 13.71875 7.859375 13.777344 7.773438 C 13.832031 7.691406 13.886719 7.597656 13.945312 7.492188 C 13.996094 7.382812 14.039062 7.269531 14.074219 7.144531 C 14.109375 7.019531 14.128906 6.890625 14.128906 6.757812 Z M 12.394531 8.480469 C 12.484375 8.480469 12.574219 8.5 12.660156 8.539062 C 12.746094 8.582031 12.824219 8.636719 12.894531 8.710938 C 12.960938 8.78125 13.011719 8.855469 13.050781 8.941406 C 13.089844 9.035156 13.109375 9.121094 13.109375 9.203125 C 13.109375 9.292969 13.089844 9.375 13.050781 9.457031 C 13.011719 9.546875 12.960938 9.625 12.894531 9.691406 C 12.824219 9.761719 12.746094 9.816406 12.660156 9.859375 C 12.570312 9.898438 12.480469 9.917969 12.394531 9.921875 L 11.675781 9.921875 L 11.675781 8.480469 Z M 12.394531 7.402344 L 11.675781 7.402344 L 11.675781 6.078125 L 12.394531 6.078125 C 12.574219 6.078125 12.730469 6.140625 12.859375 6.273438 C 12.988281 6.40625 13.050781 6.5625 13.050781 6.742188 C 13.050781 6.917969 12.988281 7.074219 12.859375 7.203125 C 12.730469 7.335938 12.574219 7.402344 12.394531 7.402344 "/>
</svg>
