<?xml version="1.0" encoding="UTF-8"?>
<svg xmlns="http://www.w3.org/2000/svg" xmlns:xlink="http://www.w3.org/1999/xlink" width="16" height="16.16" viewBox="0 0 16 16.16">
<path fill-rule="nonzero" fill="rgb(0%, 0%, 0%)" fill-opacity="1" d="M 0 0 L 16 0 L 16 16.160156 L 0 16.160156 Z M 0 0 "/>
<path fill="none" stroke-width="5.702253" stroke-linecap="butt" stroke-linejoin="miter" stroke="rgb(100%, 100%, 100%)" stroke-opacity="1" stroke-miterlimit="4" d="M 111.638161 8.748134 L 203.825661 8.748134 L 203.825661 101.93661 L 111.638161 101.93661 Z M 111.638161 8.748134 " transform="matrix(0.16, 0, 0, 0.16, -17.237106, -0.774701)"/>
<path fill-rule="nonzero" fill="rgb(100%, 100%, 100%)" fill-opacity="1" d="M 4.160156 3.5 L 7.539062 3.5 C 8.304688 3.5 8.882812 3.558594 9.285156 3.671875 C 9.820312 3.832031 10.28125 4.113281 10.664062 4.515625 C 11.050781 4.921875 11.339844 5.417969 11.539062 6 C 11.742188 6.585938 11.839844 7.308594 11.839844 8.167969 C 11.839844 8.921875 11.746094 9.570312 11.558594 10.117188 C 11.332031 10.785156 11.003906 11.324219 10.578125 11.734375 C 10.257812 12.046875 9.824219 12.292969 9.277344 12.46875 C 8.871094 12.597656 8.324219 12.660156 7.640625 12.660156 L 4.160156 12.660156 Z M 6.007812 5.046875 L 6.007812 11.117188 L 7.390625 11.117188 C 7.90625 11.117188 8.28125 11.089844 8.507812 11.03125 C 8.808594 10.953125 9.058594 10.828125 9.257812 10.648438 C 9.453125 10.46875 9.617188 10.175781 9.742188 9.765625 C 9.867188 9.355469 9.929688 8.792969 9.929688 8.085938 C 9.929688 7.378906 9.867188 6.835938 9.742188 6.453125 C 9.617188 6.074219 9.441406 5.78125 9.214844 5.566406 C 8.992188 5.355469 8.707031 5.210938 8.359375 5.136719 C 8.101562 5.078125 7.59375 5.046875 6.839844 5.046875 Z M 6.007812 5.046875 "/>
</svg>
