<?xml version="1.0" encoding="UTF-8"?>
<svg xmlns="http://www.w3.org/2000/svg" xmlns:xlink="http://www.w3.org/1999/xlink" width="16" height="16.16" viewBox="0 0 16 16.16">
<path fill-rule="nonzero" fill="rgb(0%, 0%, 0%)" fill-opacity="1" d="M 0 0 L 16 0 L 16 16.160156 L 0 16.160156 Z M 0 0 "/>
<path fill="none" stroke-width="5.702253" stroke-linecap="butt" stroke-linejoin="miter" stroke="rgb(100%, 100%, 100%)" stroke-opacity="1" stroke-miterlimit="4" d="M 111.638161 8.748134 L 203.825661 8.748134 L 203.825661 101.93661 L 111.638161 101.93661 Z M 111.638161 8.748134 " transform="matrix(0.16, 0, 0, 0.16, -17.237106, -0.774701)"/>
<path fill-rule="nonzero" fill="rgb(100%, 100%, 100%)" fill-opacity="1" d="M 8.296875 9.292969 L 8.296875 7.75 L 12.285156 7.75 L 12.285156 11.398438 C 11.898438 11.773438 11.335938 12.105469 10.601562 12.390625 C 9.863281 12.675781 9.121094 12.816406 8.367188 12.816406 C 7.40625 12.816406 6.570312 12.617188 5.859375 12.214844 C 5.148438 11.8125 4.613281 11.238281 4.253906 10.488281 C 3.894531 9.742188 3.714844 8.929688 3.714844 8.046875 C 3.714844 7.09375 3.914062 6.246094 4.316406 5.503906 C 4.714844 4.761719 5.300781 4.195312 6.070312 3.796875 C 6.660156 3.496094 7.390625 3.34375 8.265625 3.34375 C 9.402344 3.34375 10.292969 3.582031 10.929688 4.058594 C 11.570312 4.535156 11.980469 5.195312 12.164062 6.035156 L 10.328125 6.378906 C 10.199219 5.929688 9.957031 5.574219 9.601562 5.3125 C 9.242188 5.054688 8.800781 4.921875 8.265625 4.921875 C 7.457031 4.921875 6.816406 5.179688 6.335938 5.691406 C 5.859375 6.203125 5.621094 6.964844 5.621094 7.972656 C 5.621094 9.0625 5.863281 9.875 6.347656 10.421875 C 6.832031 10.964844 7.464844 11.234375 8.246094 11.234375 C 8.632812 11.234375 9.023438 11.160156 9.414062 11.007812 C 9.800781 10.855469 10.136719 10.671875 10.414062 10.453125 L 10.414062 9.292969 Z M 8.296875 9.292969 "/>
</svg>
