<?xml version="1.0" encoding="UTF-8"?>
<svg xmlns="http://www.w3.org/2000/svg" xmlns:xlink="http://www.w3.org/1999/xlink" width="18" height="9.394188" viewBox="0 0 18 9.394188">
<path fill-rule="nonzero" fill="rgb(100%, 100%, 100%)" fill-opacity="1" stroke-width="2.673" stroke-linecap="round" stroke-linejoin="round" stroke="rgb(0%, 0%, 0%)" stroke-opacity="1" stroke-miterlimit="10" d="M 118.960327 -398.750022 L 175.121684 -398.750022 L 175.121684 -426.649903 L 118.960327 -426.649903 Z M 118.960327 -398.750022 " transform="matrix(0.305899, 0, 0, 0.307321, -35.979656, 131.528624)"/>
<path fill-rule="nonzero" fill="rgb(0%, 0%, 0%)" fill-opacity="1" d="M 1.429688 4.878906 C 1.429688 4.507812 1.46875 4.175781 1.550781 3.882812 C 1.632812 3.582031 1.746094 3.332031 1.902344 3.117188 C 2.0625 2.910156 2.261719 2.75 2.496094 2.640625 C 2.738281 2.523438 3.015625 2.464844 3.335938 2.464844 C 3.566406 2.464844 3.769531 2.492188 3.941406 2.546875 C 4.121094 2.601562 4.273438 2.679688 4.402344 2.777344 C 4.535156 2.871094 4.648438 2.980469 4.738281 3.117188 C 4.828125 3.253906 4.90625 3.414062 4.96875 3.582031 L 4.484375 3.761719 C 4.4375 3.644531 4.378906 3.539062 4.308594 3.445312 C 4.242188 3.359375 4.160156 3.277344 4.0625 3.214844 C 3.972656 3.144531 3.863281 3.089844 3.738281 3.050781 C 3.613281 3.015625 3.472656 2.996094 3.320312 2.996094 C 3.085938 2.996094 2.882812 3.042969 2.710938 3.132812 C 2.539062 3.214844 2.394531 3.34375 2.28125 3.515625 C 2.171875 3.679688 2.089844 3.878906 2.035156 4.113281 C 1.984375 4.34375 1.957031 4.597656 1.957031 4.878906 C 1.957031 5.164062 1.984375 5.421875 2.035156 5.65625 C 2.097656 5.894531 2.1875 6.101562 2.308594 6.269531 C 2.421875 6.433594 2.566406 6.566406 2.738281 6.667969 C 2.917969 6.757812 3.121094 6.804688 3.347656 6.804688 C 3.5 6.804688 3.636719 6.789062 3.765625 6.761719 C 3.890625 6.730469 4.003906 6.6875 4.105469 6.640625 C 4.210938 6.585938 4.300781 6.53125 4.375 6.476562 C 4.457031 6.414062 4.523438 6.351562 4.578125 6.285156 L 4.578125 5.425781 L 3.441406 5.425781 L 3.441406 4.894531 L 5.050781 4.894531 L 5.050781 6.515625 C 4.96875 6.625 4.867188 6.730469 4.753906 6.832031 C 4.644531 6.921875 4.515625 7.007812 4.375 7.089844 C 4.230469 7.164062 4.070312 7.21875 3.902344 7.253906 C 3.730469 7.296875 3.542969 7.320312 3.347656 7.320312 C 3.03125 7.320312 2.753906 7.261719 2.511719 7.144531 C 2.265625 7.019531 2.0625 6.84375 1.902344 6.625 C 1.746094 6.40625 1.632812 6.15625 1.550781 5.863281 C 1.46875 5.5625 1.429688 5.234375 1.429688 4.878906 Z M 8.644531 7.253906 L 8.199219 5.875 L 6.457031 5.875 L 6.023438 7.253906 L 5.484375 7.253906 L 7.039062 2.546875 L 7.632812 2.546875 L 9.171875 7.253906 Z M 7.550781 3.828125 C 7.523438 3.738281 7.496094 3.648438 7.46875 3.554688 L 7.402344 3.296875 L 7.347656 3.117188 C 7.335938 3.0625 7.335938 3.035156 7.335938 3.023438 C 7.324219 3.035156 7.3125 3.0625 7.308594 3.117188 C 7.296875 3.167969 7.28125 3.226562 7.253906 3.308594 L 7.1875 3.554688 L 7.105469 3.828125 L 6.617188 5.371094 L 8.050781 5.371094 Z M 12.339844 7.253906 L 11.339844 5.300781 L 10.152344 5.300781 L 10.152344 7.253906 L 9.636719 7.253906 L 9.636719 2.546875 L 11.4375 2.546875 C 11.652344 2.546875 11.839844 2.578125 12.003906 2.640625 C 12.171875 2.695312 12.3125 2.785156 12.421875 2.902344 C 12.539062 3.019531 12.628906 3.160156 12.691406 3.324219 C 12.753906 3.488281 12.789062 3.675781 12.789062 3.882812 C 12.789062 4.039062 12.765625 4.191406 12.734375 4.332031 C 12.695312 4.480469 12.636719 4.613281 12.558594 4.730469 C 12.484375 4.847656 12.386719 4.953125 12.273438 5.042969 C 12.15625 5.125 12.015625 5.1875 11.855469 5.21875 L 12.9375 7.253906 Z M 12.261719 3.898438 C 12.261719 3.753906 12.238281 3.628906 12.191406 3.527344 C 12.15625 3.417969 12.097656 3.332031 12.015625 3.269531 C 11.941406 3.199219 11.855469 3.144531 11.746094 3.105469 C 11.636719 3.070312 11.515625 3.050781 11.382812 3.050781 L 10.152344 3.050781 L 10.152344 4.796875 L 11.410156 4.796875 C 11.550781 4.796875 11.679688 4.777344 11.789062 4.730469 C 11.894531 4.683594 11.984375 4.621094 12.058594 4.539062 C 12.128906 4.457031 12.179688 4.359375 12.207031 4.25 C 12.238281 4.140625 12.261719 4.027344 12.261719 3.898438 Z M 13.648438 7.253906 L 13.648438 2.546875 L 16.554688 2.546875 L 16.554688 3.0625 L 14.164062 3.0625 L 14.164062 4.578125 L 16.390625 4.578125 L 16.390625 5.085938 L 14.164062 5.085938 L 14.164062 6.734375 L 16.664062 6.734375 L 16.664062 7.253906 Z M 1.144531 2.269531 "/>
</svg>
