<?xml version="1.0" encoding="UTF-8"?>
<svg xmlns="http://www.w3.org/2000/svg" xmlns:xlink="http://www.w3.org/1999/xlink" width="16" height="7.384615" viewBox="0 0 16 7.384615">
<path fill-rule="nonzero" fill="rgb(0%, 0%, 0%)" fill-opacity="1" d="M 3.691406 0 L 12.308594 0 C 14.347656 0 16 1.652344 16 3.691406 C 16 5.730469 14.347656 7.382812 12.308594 7.382812 L 3.691406 7.382812 C 1.652344 7.382812 0 5.730469 0 3.691406 C 0 1.652344 1.652344 0 3.691406 0 Z M 3.691406 0 "/>
<path fill="none" stroke-width="30" stroke-linecap="butt" stroke-linejoin="miter" stroke="rgb(100%, 100%, 100%)" stroke-opacity="1" stroke-miterlimit="4" d="M 299.926758 30.151367 L 1000.073242 30.151367 C 1149.243164 30.151367 1269.848633 150.756836 1269.848633 299.926758 C 1269.848633 449.09668 1149.243164 570.019531 1000.073242 570.019531 L 299.926758 570.019531 C 150.756836 570.019531 30.151367 449.09668 30.151367 299.926758 C 30.151367 150.756836 150.756836 30.151367 299.926758 30.151367 Z M 299.926758 30.151367 " transform="matrix(0.0123077, 0, 0, 0.0123077, 0, 0)"/>
<path fill-rule="nonzero" fill="rgb(100%, 100%, 100%)" fill-opacity="1" d="M 4.738281 3.691406 C 4.738281 4.269531 4.269531 4.738281 3.691406 4.738281 C 3.113281 4.738281 2.644531 4.269531 2.644531 3.691406 C 2.644531 3.113281 3.113281 2.644531 3.691406 2.644531 C 4.269531 2.644531 4.738281 3.113281 4.738281 3.691406 Z M 4.738281 3.691406 "/>
<path fill-rule="nonzero" fill="rgb(100%, 100%, 100%)" fill-opacity="1" d="M 9.046875 3.691406 C 9.046875 4.269531 8.578125 4.738281 8 4.738281 C 7.421875 4.738281 6.953125 4.269531 6.953125 3.691406 C 6.953125 3.113281 7.421875 2.644531 8 2.644531 C 8.578125 2.644531 9.046875 3.113281 9.046875 3.691406 Z M 9.046875 3.691406 "/>
<path fill-rule="nonzero" fill="rgb(100%, 100%, 100%)" fill-opacity="1" d="M 13.355469 3.691406 C 13.355469 4.269531 12.886719 4.738281 12.308594 4.738281 C 11.730469 4.738281 11.261719 4.269531 11.261719 3.691406 C 11.261719 3.113281 11.730469 2.644531 12.308594 2.644531 C 12.886719 2.644531 13.355469 3.113281 13.355469 3.691406 Z M 13.355469 3.691406 "/>
</svg>
