<?xml version="1.0" encoding="UTF-8"?>
<svg xmlns="http://www.w3.org/2000/svg" xmlns:xlink="http://www.w3.org/1999/xlink" width="16" height="15.977813" viewBox="0 0 16 15.977813">
<path fill-rule="nonzero" fill="rgb(100%, 100%, 100%)" fill-opacity="1" stroke-width="0.254353" stroke-linecap="round" stroke-linejoin="round" stroke="rgb(0%, 0%, 0%)" stroke-opacity="1" stroke-miterlimit="10" d="M 126.102543 101.479639 L 141.110691 101.479639 L 141.110691 86.493847 L 126.102543 86.493847 Z M 126.866364 100.719544 L 140.34687 100.719544 L 140.34687 87.257668 L 126.866364 87.257668 Z M 126.866364 94.031455 L 133.65878 94.031455 L 133.65878 87.257668 L 126.866364 87.257668 Z M 133.65878 100.719544 L 140.34687 100.719544 L 140.34687 94.031455 L 133.65878 94.031455 Z M 133.65878 100.719544 " transform="matrix(1.048389, 0, 0, 1.048389, -132.071689, -90.546373)"/>
<path fill-rule="evenodd" fill="rgb(100%, 0%, 0%)" fill-opacity="1" stroke-width="0.254353" stroke-linecap="round" stroke-linejoin="round" stroke="rgb(0%, 0%, 0%)" stroke-opacity="1" stroke-miterlimit="10" d="M 133.65878 94.031455 L 140.34687 94.031455 L 140.34687 87.257668 L 133.65878 87.257668 Z M 133.65878 94.031455 " transform="matrix(1.048389, 0, 0, 1.048389, -132.071689, -90.546373)"/>
<path fill-rule="evenodd" fill="rgb(100%, 0%, 0%)" fill-opacity="1" stroke-width="0.254353" stroke-linecap="round" stroke-linejoin="round" stroke="rgb(0%, 0%, 0%)" stroke-opacity="1" stroke-miterlimit="10" d="M 126.866364 100.719544 L 133.65878 100.719544 L 133.65878 94.031455 L 126.866364 94.031455 Z M 126.866364 100.719544 " transform="matrix(1.048389, 0, 0, 1.048389, -132.071689, -90.546373)"/>
<path fill-rule="evenodd" fill="rgb(100%, 0%, 0%)" fill-opacity="1" stroke-width="0.254353" stroke-linecap="round" stroke-linejoin="round" stroke="rgb(0%, 0%, 0%)" stroke-opacity="1" stroke-miterlimit="10" d="M 126.102543 94.031455 L 126.866364 94.031455 L 126.866364 87.257668 L 133.65878 87.257668 L 133.65878 86.493847 L 126.102543 86.493847 Z M 126.102543 94.031455 " transform="matrix(1.048389, 0, 0, 1.048389, -132.071689, -90.546373)"/>
<path fill-rule="evenodd" fill="rgb(100%, 0%, 0%)" fill-opacity="1" stroke-width="0.254353" stroke-linecap="round" stroke-linejoin="round" stroke="rgb(0%, 0%, 0%)" stroke-opacity="1" stroke-miterlimit="10" d="M 140.34687 94.031455 L 141.110691 94.031455 L 141.110691 101.479639 L 133.65878 101.479639 L 133.65878 100.719544 L 140.34687 100.719544 Z M 140.34687 94.031455 " transform="matrix(1.048389, 0, 0, 1.048389, -132.071689, -90.546373)"/>
</svg>
