<?xml version="1.0" encoding="UTF-8"?>
<svg xmlns="http://www.w3.org/2000/svg" xmlns:xlink="http://www.w3.org/1999/xlink" width="14" height="29.4" viewBox="0 0 14 29.4">
<path fill-rule="nonzero" fill="rgb(0.392157%, 25.098039%, 69.803922%)" fill-opacity="1" d="M 0 0 L 14 0 L 14 14 L 0 14 Z M 0 0 "/>
<path fill-rule="nonzero" fill="rgb(0.392157%, 25.098039%, 69.803922%)" fill-opacity="1" d="M 0 15.398438 L 14 15.398438 L 14 29.398438 L 0 29.398438 Z M 0 15.398438 "/>
<path fill-rule="evenodd" fill="rgb(100%, 100%, 100%)" fill-opacity="1" d="M 14 15.992188 L 0 15.992188 L 7.085938 29.292969 Z M 14 15.992188 "/>
<path fill-rule="evenodd" fill="rgb(98.039216%, 98.039216%, 9.019608%)" fill-opacity="1" d="M 13.035156 15.992188 L 0.960938 15.992188 L 7.089844 27.367188 Z M 13.035156 15.992188 "/>
<path fill-rule="evenodd" fill="rgb(100%, 100%, 100%)" fill-opacity="1" d="M 4.664062 0.488281 L 4.664062 6.886719 L 0.601562 6.886719 L 7 14 L 13.398438 6.886719 L 9.335938 6.886719 L 9.335938 0.488281 Z M 4.664062 0.488281 "/>
<path fill-rule="evenodd" fill="rgb(98.039216%, 98.039216%, 9.019608%)" fill-opacity="1" d="M 5.375 0.488281 L 5.375 7.601562 L 2.195312 7.601562 L 7 12.9375 L 11.800781 7.601562 L 8.625 7.601562 L 8.625 0.488281 Z M 5.375 0.488281 "/>
</svg>
