<?xml version="1.0" encoding="UTF-8"?>
<svg xmlns="http://www.w3.org/2000/svg" xmlns:xlink="http://www.w3.org/1999/xlink" width="14" height="29.128822" viewBox="0 0 14 29.128822">
<path fill-rule="nonzero" fill="rgb(0.392157%, 25.098039%, 69.803922%)" fill-opacity="1" d="M 0 0 L 14 0 L 14 14 L 0 14 Z M 0 0 "/>
<path fill-rule="evenodd" fill="rgb(100%, 100%, 100%)" fill-opacity="1" d="M 13.511719 4.664062 L 7.113281 4.664062 L 7.113281 0.601562 L 0 7 L 7.113281 13.398438 L 7.113281 9.335938 L 13.511719 9.335938 Z M 13.511719 4.664062 "/>
<path fill-rule="evenodd" fill="rgb(98.039216%, 98.039216%, 9.019608%)" fill-opacity="1" d="M 13.511719 5.375 L 6.398438 5.375 L 6.398438 2.195312 L 1.0625 7 L 6.398438 11.800781 L 6.398438 8.625 L 13.511719 8.625 Z M 13.511719 5.375 "/>
<path fill-rule="nonzero" fill="rgb(0.392157%, 25.098039%, 69.803922%)" fill-opacity="1" d="M 0 15.128906 L 14 15.128906 L 14 29.128906 L 0 29.128906 Z M 0 15.128906 "/>
<path fill-rule="evenodd" fill="rgb(100%, 100%, 100%)" fill-opacity="1" d="M 13.511719 29.128906 L 13.511719 15.128906 L 0 22.214844 Z M 13.511719 29.128906 "/>
<path fill-rule="evenodd" fill="rgb(98.039216%, 98.039216%, 9.019608%)" fill-opacity="1" d="M 13.511719 28.164062 L 13.511719 16.089844 L 1.953125 22.21875 Z M 13.511719 28.164062 "/>
</svg>
