<?xml version="1.0" encoding="UTF-8"?>
<svg xmlns="http://www.w3.org/2000/svg" xmlns:xlink="http://www.w3.org/1999/xlink" width="14" height="29.41427" viewBox="0 0 14 29.41427">
<path fill-rule="nonzero" fill="rgb(0.392157%, 25.098039%, 69.803922%)" fill-opacity="1" d="M 0 0 L 14 0 L 14 14 L 0 14 Z M 0 0 "/>
<path fill-rule="evenodd" fill="rgb(100%, 100%, 100%)" fill-opacity="1" d="M 0.488281 9.335938 L 6.886719 9.335938 L 6.886719 13.398438 L 14 7 L 6.886719 0.601562 L 6.886719 4.664062 L 0.488281 4.664062 Z M 0.488281 9.335938 "/>
<path fill-rule="evenodd" fill="rgb(98.039216%, 98.039216%, 9.019608%)" fill-opacity="1" d="M 0.488281 8.625 L 7.601562 8.625 L 7.601562 11.804688 L 12.9375 7 L 7.601562 2.199219 L 7.601562 5.375 L 0.488281 5.375 Z M 0.488281 8.625 "/>
<path fill-rule="nonzero" fill="rgb(0.392157%, 25.098039%, 69.803922%)" fill-opacity="1" d="M 0 15.414062 L 14 15.414062 L 14 29.414062 L 0 29.414062 Z M 0 15.414062 "/>
<path fill-rule="evenodd" fill="rgb(100%, 100%, 100%)" fill-opacity="1" d="M 0.488281 15.414062 L 0.488281 29.414062 L 14 22.328125 Z M 0.488281 15.414062 "/>
<path fill-rule="evenodd" fill="rgb(98.039216%, 98.039216%, 9.019608%)" fill-opacity="1" d="M 0.488281 16.378906 L 0.488281 28.453125 L 12.046875 22.324219 Z M 0.488281 16.378906 "/>
</svg>
