<?xml version="1.0" encoding="UTF-8"?>
<svg xmlns="http://www.w3.org/2000/svg" xmlns:xlink="http://www.w3.org/1999/xlink" width="18" height="9.55814" viewBox="0 0 18 9.55814">
<path fill-rule="nonzero" fill="rgb(100%, 100%, 100%)" fill-opacity="1" d="M 0 9.558594 L 17.984375 9.558594 L 17.984375 0 L 0 0 Z M 0 9.558594 "/>
<path fill-rule="nonzero" fill="rgb(0%, 0%, 0%)" fill-opacity="1" d="M 1.105469 8.695312 L 17.066406 8.695312 L 17.066406 0.910156 L 1.105469 0.910156 Z M 1.105469 8.695312 "/>
<path fill="none" stroke-width="0.0462139" stroke-linecap="round" stroke-linejoin="round" stroke="rgb(0%, 0%, 0%)" stroke-opacity="1" stroke-miterlimit="10" d="M 57.9049 245.979162 L 33.693039 245.979162 L 33.693039 257.788814 L 57.9049 257.788814 Z M 57.9049 245.979162 " transform="matrix(0.65922, 0, 0, 0.65922, -21.121274, -161.259797)"/>
<path fill-rule="evenodd" fill="rgb(0%, 0%, 0%)" fill-opacity="1" d="M 1.101562 0.894531 L 1.074219 0.894531 L 1.074219 8.691406 L 17.050781 8.691406 L 17.039062 8.664062 L 1.101562 8.664062 L 1.101562 0.894531 "/>
<path fill-rule="evenodd" fill="rgb(0%, 0%, 0%)" fill-opacity="1" d="M 17.050781 8.691406 L 17.066406 0.894531 L 1.074219 0.894531 L 1.101562 0.90625 L 17.023438 0.90625 L 17.039062 8.664062 L 17.050781 8.691406 "/>
<path fill-rule="evenodd" fill="rgb(0%, 0%, 0%)" fill-opacity="1" d="M 0.292969 0.140625 L 0 0.140625 L 0 9.558594 L 17.984375 9.558594 L 17.722656 9.292969 L 0.292969 9.292969 L 0.292969 0.140625 "/>
<path fill-rule="evenodd" fill="rgb(0%, 0%, 0%)" fill-opacity="1" d="M 17.984375 9.558594 L 18 0 L 0.015625 0 L 0 0.140625 L 0.277344 0.265625 L 17.722656 0.265625 L 17.722656 9.292969 L 17.984375 9.558594 "/>
<path fill-rule="evenodd" fill="rgb(100%, 100%, 100%)" fill-opacity="1" d="M 3.53125 5.554688 L 3.90625 5.511719 L 3.921875 5.554688 L 3.921875 5.625 L 3.933594 5.664062 L 3.949219 5.691406 L 3.949219 5.734375 L 4.019531 5.875 L 4.03125 5.886719 L 4.046875 5.917969 L 4.089844 5.957031 L 4.117188 5.984375 L 4.128906 6 L 4.144531 6.027344 L 4.1875 6.042969 L 4.214844 6.070312 L 4.242188 6.082031 L 4.296875 6.113281 L 4.339844 6.125 L 4.367188 6.140625 L 4.410156 6.152344 L 4.449219 6.167969 L 4.480469 6.179688 L 4.519531 6.179688 L 4.5625 6.195312 L 4.589844 6.210938 L 4.632812 6.222656 L 4.941406 6.222656 L 4.980469 6.210938 L 5.007812 6.210938 L 5.039062 6.195312 L 5.078125 6.179688 L 5.148438 6.179688 L 5.175781 6.167969 L 5.191406 6.140625 L 5.21875 6.140625 L 5.261719 6.125 L 5.273438 6.113281 L 5.300781 6.097656 L 5.332031 6.082031 L 5.34375 6.070312 L 5.371094 6.054688 L 5.398438 6.027344 L 5.414062 6.027344 L 5.429688 6 L 5.441406 5.984375 L 5.457031 5.957031 L 5.484375 5.945312 L 5.484375 5.917969 L 5.496094 5.902344 L 5.511719 5.886719 L 5.527344 5.859375 L 5.527344 5.820312 L 5.539062 5.804688 L 5.539062 5.625 L 5.527344 5.59375 L 5.527344 5.554688 L 5.511719 5.539062 L 5.496094 5.511719 L 5.484375 5.496094 L 5.484375 5.484375 L 5.441406 5.441406 L 5.441406 5.429688 L 5.414062 5.398438 L 5.398438 5.398438 L 5.359375 5.359375 L 5.332031 5.34375 L 5.300781 5.332031 L 5.273438 5.316406 L 5.261719 5.300781 L 5.21875 5.289062 L 5.191406 5.273438 L 5.164062 5.273438 L 5.148438 5.261719 L 5.105469 5.261719 L 5.078125 5.246094 L 5.039062 5.230469 L 4.996094 5.21875 L 4.953125 5.21875 L 4.898438 5.191406 L 4.84375 5.175781 L 4.785156 5.175781 L 4.714844 5.148438 L 4.648438 5.132812 L 4.589844 5.121094 L 4.519531 5.105469 L 4.464844 5.09375 L 4.410156 5.066406 L 4.351562 5.050781 L 4.296875 5.035156 L 4.253906 5.023438 L 4.214844 5.007812 L 4.171875 4.996094 L 4.144531 4.980469 L 4.101562 4.953125 L 4.074219 4.9375 L 4.03125 4.925781 L 4.003906 4.910156 L 3.976562 4.882812 L 3.949219 4.871094 L 3.894531 4.8125 L 3.851562 4.800781 L 3.835938 4.773438 L 3.808594 4.742188 L 3.78125 4.714844 L 3.765625 4.6875 L 3.738281 4.660156 L 3.738281 4.632812 L 3.710938 4.605469 L 3.699219 4.578125 L 3.699219 4.546875 L 3.683594 4.519531 L 3.667969 4.480469 L 3.667969 4.410156 L 3.65625 4.382812 L 3.65625 4.324219 L 3.640625 4.285156 L 3.65625 4.253906 L 3.65625 4.1875 L 3.667969 4.144531 L 3.667969 4.074219 L 3.699219 4.03125 L 3.699219 4.003906 L 3.710938 3.960938 L 3.738281 3.921875 L 3.753906 3.894531 L 3.765625 3.851562 L 3.796875 3.824219 L 3.808594 3.796875 L 3.851562 3.765625 L 3.878906 3.738281 L 3.894531 3.710938 L 3.921875 3.683594 L 3.960938 3.667969 L 4.003906 3.628906 L 4.03125 3.613281 L 4.074219 3.585938 L 4.117188 3.570312 L 4.144531 3.558594 L 4.199219 3.542969 L 4.242188 3.515625 L 4.285156 3.515625 L 4.367188 3.488281 L 4.410156 3.488281 L 4.464844 3.472656 L 4.507812 3.472656 L 4.5625 3.460938 L 4.660156 3.460938 L 4.703125 3.445312 L 4.757812 3.460938 L 4.871094 3.460938 L 4.925781 3.472656 L 4.96875 3.472656 L 5.023438 3.488281 L 5.078125 3.488281 L 5.121094 3.503906 L 5.164062 3.515625 L 5.21875 3.53125 L 5.261719 3.558594 L 5.300781 3.558594 L 5.34375 3.585938 L 5.386719 3.601562 L 5.414062 3.628906 L 5.457031 3.640625 L 5.484375 3.667969 L 5.527344 3.699219 L 5.554688 3.726562 L 5.59375 3.753906 L 5.652344 3.808594 L 5.664062 3.851562 L 5.691406 3.878906 L 5.722656 3.921875 L 5.75 3.960938 L 5.75 3.992188 L 5.777344 4.03125 L 5.777344 4.074219 L 5.804688 4.117188 L 5.820312 4.144531 L 5.820312 4.1875 L 5.832031 4.226562 L 5.847656 4.269531 L 5.847656 4.351562 L 5.457031 4.382812 L 5.457031 4.339844 L 5.441406 4.296875 L 5.441406 4.253906 L 5.414062 4.214844 L 5.414062 4.171875 L 5.386719 4.144531 L 5.371094 4.101562 L 5.34375 4.074219 L 5.332031 4.03125 L 5.300781 4.003906 L 5.21875 3.921875 L 5.191406 3.90625 L 5.148438 3.894531 L 5.105469 3.878906 L 5.078125 3.851562 L 5.023438 3.851562 L 4.980469 3.835938 L 4.925781 3.824219 L 4.882812 3.808594 L 4.5625 3.808594 L 4.507812 3.824219 L 4.449219 3.835938 L 4.410156 3.851562 L 4.367188 3.851562 L 4.324219 3.863281 L 4.296875 3.894531 L 4.253906 3.90625 L 4.226562 3.921875 L 4.1875 3.933594 L 4.171875 3.960938 L 4.144531 3.992188 L 4.117188 4.003906 L 4.117188 4.03125 L 4.089844 4.058594 L 4.046875 4.144531 L 4.03125 4.171875 L 4.03125 4.339844 L 4.046875 4.367188 L 4.046875 4.394531 L 4.058594 4.410156 L 4.074219 4.4375 L 4.074219 4.449219 L 4.101562 4.480469 L 4.117188 4.492188 L 4.128906 4.519531 L 4.144531 4.519531 L 4.1875 4.5625 L 4.226562 4.589844 L 4.253906 4.589844 L 4.3125 4.617188 L 4.351562 4.632812 L 4.410156 4.660156 L 4.464844 4.660156 L 4.519531 4.6875 L 4.589844 4.703125 L 4.675781 4.730469 L 4.8125 4.757812 L 4.898438 4.773438 L 4.96875 4.800781 L 5.105469 4.828125 L 5.164062 4.855469 L 5.21875 4.855469 L 5.261719 4.882812 L 5.316406 4.882812 L 5.359375 4.910156 L 5.386719 4.925781 L 5.414062 4.925781 L 5.46875 4.953125 L 5.511719 4.980469 L 5.539062 4.996094 L 5.582031 5.023438 L 5.609375 5.050781 L 5.636719 5.066406 L 5.679688 5.105469 L 5.707031 5.132812 L 5.734375 5.148438 L 5.761719 5.175781 L 5.777344 5.21875 L 5.804688 5.246094 L 5.820312 5.289062 L 5.847656 5.316406 L 5.859375 5.34375 L 5.875 5.371094 L 5.886719 5.414062 L 5.886719 5.441406 L 5.902344 5.484375 L 5.917969 5.511719 L 5.929688 5.554688 L 5.929688 5.789062 L 5.917969 5.832031 L 5.902344 5.875 L 5.886719 5.902344 L 5.886719 5.945312 L 5.875 5.984375 L 5.859375 6.011719 L 5.832031 6.054688 L 5.820312 6.082031 L 5.789062 6.109375 L 5.777344 6.152344 L 5.75 6.179688 L 5.722656 6.222656 L 5.664062 6.277344 L 5.625 6.304688 L 5.59375 6.335938 L 5.554688 6.363281 L 5.527344 6.390625 L 5.484375 6.402344 L 5.441406 6.433594 L 5.386719 6.445312 L 5.34375 6.472656 L 5.300781 6.488281 L 5.261719 6.515625 L 5.21875 6.515625 L 5.164062 6.53125 L 5.121094 6.542969 L 5.078125 6.542969 L 4.96875 6.570312 L 4.617188 6.570312 L 4.5625 6.558594 L 4.492188 6.542969 L 4.4375 6.542969 L 4.382812 6.53125 L 4.324219 6.515625 L 4.269531 6.515625 L 4.226562 6.488281 L 4.171875 6.472656 L 4.117188 6.445312 L 4.074219 6.433594 L 4.03125 6.402344 L 4.003906 6.390625 L 3.960938 6.363281 L 3.921875 6.335938 L 3.878906 6.304688 L 3.851562 6.277344 L 3.808594 6.25 L 3.78125 6.207031 L 3.738281 6.179688 L 3.710938 6.140625 L 3.683594 6.097656 L 3.667969 6.054688 L 3.640625 6.011719 L 3.628906 5.972656 L 3.601562 5.929688 L 3.585938 5.886719 L 3.570312 5.847656 L 3.558594 5.789062 L 3.558594 5.75 L 3.542969 5.691406 L 3.542969 5.59375 L 3.53125 5.554688 "/>
<path fill-rule="evenodd" fill="rgb(100%, 100%, 100%)" fill-opacity="1" d="M 7.226562 6.515625 L 7.226562 3.851562 L 6.238281 3.851562 L 6.238281 3.503906 L 8.636719 3.503906 L 8.636719 3.851562 L 7.632812 3.851562 L 7.632812 6.515625 L 7.226562 6.515625 "/>
<path fill-rule="evenodd" fill="rgb(100%, 100%, 100%)" fill-opacity="1" d="M 8.917969 5.050781 L 8.929688 4.925781 L 8.929688 4.8125 L 8.945312 4.703125 L 8.972656 4.589844 L 8.984375 4.480469 L 9.015625 4.382812 L 9.054688 4.296875 L 9.097656 4.199219 L 9.152344 4.117188 L 9.195312 4.03125 L 9.265625 3.960938 L 9.320312 3.878906 L 9.390625 3.808594 L 9.460938 3.753906 L 9.542969 3.699219 L 9.628906 3.640625 L 9.710938 3.601562 L 9.78125 3.558594 L 9.976562 3.503906 L 10.058594 3.488281 L 10.15625 3.472656 L 10.269531 3.460938 L 10.367188 3.445312 L 10.4375 3.460938 L 10.507812 3.460938 L 10.5625 3.472656 L 10.632812 3.488281 L 10.703125 3.488281 L 10.757812 3.503906 L 10.828125 3.515625 L 10.882812 3.542969 L 10.941406 3.570312 L 11.007812 3.585938 L 11.050781 3.628906 L 11.105469 3.65625 L 11.164062 3.699219 L 11.203125 3.726562 L 11.261719 3.765625 L 11.300781 3.808594 L 11.34375 3.851562 L 11.398438 3.894531 L 11.441406 3.933594 L 11.484375 3.992188 L 11.527344 4.046875 L 11.582031 4.15625 L 11.625 4.214844 L 11.636719 4.269531 L 11.679688 4.324219 L 11.691406 4.410156 L 11.707031 4.464844 L 11.734375 4.519531 L 11.75 4.589844 L 11.761719 4.660156 L 11.777344 4.730469 L 11.777344 4.800781 L 11.789062 4.871094 L 11.789062 5.164062 L 11.777344 5.234375 L 11.761719 5.316406 L 11.75 5.371094 L 11.75 5.441406 L 11.722656 5.511719 L 11.707031 5.59375 L 11.679688 5.652344 L 11.664062 5.707031 L 11.636719 5.777344 L 11.609375 5.832031 L 11.566406 5.886719 L 11.539062 5.957031 L 11.511719 6 L 11.46875 6.070312 L 11.429688 6.113281 L 11.386719 6.152344 L 11.289062 6.25 L 11.246094 6.277344 L 11.191406 6.320312 L 11.136719 6.347656 L 11.078125 6.375 L 11.023438 6.417969 L 10.96875 6.433594 L 10.925781 6.476562 L 10.855469 6.488281 L 10.800781 6.515625 L 10.746094 6.53125 L 10.675781 6.542969 L 10.617188 6.542969 L 10.5625 6.558594 L 10.492188 6.574219 L 10.226562 6.574219 L 10.089844 6.542969 L 10.03125 6.542969 L 9.960938 6.515625 L 9.894531 6.515625 L 9.835938 6.488281 L 9.78125 6.460938 L 9.710938 6.433594 L 9.65625 6.40625 L 9.601562 6.363281 L 9.542969 6.335938 L 9.488281 6.292969 L 9.445312 6.25 L 9.40625 6.222656 L 9.347656 6.183594 L 9.308594 6.125 L 9.265625 6.070312 L 9.222656 6.027344 L 9.195312 5.972656 L 9.152344 5.917969 L 9.125 5.859375 L 9.082031 5.804688 L 9.070312 5.75 L 9.042969 5.691406 L 9.015625 5.625 L 9 5.566406 L 8.972656 5.511719 L 8.972656 5.441406 L 8.945312 5.371094 L 8.929688 5.316406 L 8.929688 5.121094 Z M 9.335938 5.066406 L 9.335938 5.246094 L 9.347656 5.332031 L 9.375 5.398438 L 9.390625 5.484375 L 9.417969 5.554688 L 9.433594 5.625 L 9.460938 5.679688 L 9.503906 5.75 L 9.542969 5.804688 L 9.585938 5.859375 L 9.628906 5.917969 L 9.667969 5.957031 L 9.738281 6.015625 L 9.78125 6.054688 L 9.851562 6.097656 L 9.894531 6.125 L 9.960938 6.152344 L 10.019531 6.179688 L 10.089844 6.195312 L 10.15625 6.222656 L 10.578125 6.222656 L 10.648438 6.195312 L 10.714844 6.179688 L 10.773438 6.152344 L 10.828125 6.125 L 10.898438 6.097656 L 10.941406 6.054688 L 10.996094 6.015625 L 11.039062 5.957031 L 11.078125 5.917969 L 11.121094 5.859375 L 11.175781 5.804688 L 11.21875 5.734375 L 11.246094 5.664062 L 11.332031 5.457031 L 11.34375 5.371094 L 11.371094 5.289062 L 11.386719 5.203125 L 11.386719 4.84375 L 11.371094 4.785156 L 11.359375 4.730469 L 11.34375 4.675781 L 11.34375 4.632812 L 11.332031 4.5625 L 11.300781 4.519531 L 11.289062 4.480469 L 11.273438 4.421875 L 11.261719 4.367188 L 11.234375 4.324219 L 11.203125 4.296875 L 11.191406 4.253906 L 11.164062 4.214844 L 11.136719 4.171875 L 11.105469 4.128906 L 10.980469 4.003906 L 10.941406 3.976562 L 10.898438 3.949219 L 10.871094 3.921875 L 10.828125 3.90625 L 10.785156 3.894531 L 10.746094 3.863281 L 10.660156 3.835938 L 10.605469 3.824219 L 10.5625 3.808594 L 10.410156 3.808594 L 10.367188 3.796875 L 10.296875 3.808594 L 10.15625 3.808594 L 10.101562 3.835938 L 10.046875 3.851562 L 9.976562 3.878906 L 9.921875 3.894531 L 9.863281 3.921875 L 9.796875 3.960938 L 9.753906 4.003906 L 9.699219 4.046875 L 9.640625 4.089844 L 9.601562 4.144531 L 9.542969 4.199219 L 9.503906 4.257812 L 9.472656 4.324219 L 9.445312 4.410156 L 9.417969 4.480469 L 9.390625 4.5625 L 9.375 4.660156 L 9.347656 4.746094 L 9.335938 4.855469 L 9.335938 5.066406 "/>
<path fill-rule="evenodd" fill="rgb(100%, 100%, 100%)" fill-opacity="1" d="M 12.308594 6.515625 L 12.308594 3.503906 L 13.449219 3.503906 L 13.492188 3.515625 L 13.828125 3.515625 L 13.855469 3.53125 L 13.910156 3.53125 L 13.941406 3.542969 L 13.980469 3.558594 L 14.050781 3.558594 L 14.078125 3.570312 L 14.121094 3.585938 L 14.148438 3.601562 L 14.175781 3.613281 L 14.203125 3.628906 L 14.234375 3.640625 L 14.261719 3.671875 L 14.289062 3.671875 L 14.300781 3.699219 L 14.332031 3.710938 L 14.359375 3.738281 L 14.386719 3.753906 L 14.398438 3.78125 L 14.441406 3.824219 L 14.457031 3.851562 L 14.484375 3.878906 L 14.496094 3.90625 L 14.527344 3.964844 L 14.539062 4.003906 L 14.554688 4.03125 L 14.566406 4.0625 L 14.566406 4.101562 L 14.59375 4.160156 L 14.609375 4.199219 L 14.609375 4.339844 L 14.625 4.367188 L 14.609375 4.4375 L 14.609375 4.5625 L 14.59375 4.632812 L 14.566406 4.675781 L 14.554688 4.730469 L 14.527344 4.785156 L 14.496094 4.84375 L 14.46875 4.882812 L 14.441406 4.925781 L 14.398438 4.980469 L 14.371094 5.023438 L 14.316406 5.066406 L 14.273438 5.105469 L 14.21875 5.148438 L 14.164062 5.175781 L 14.09375 5.203125 L 14.023438 5.21875 L 13.941406 5.246094 L 13.871094 5.261719 L 13.785156 5.273438 L 13.675781 5.289062 L 12.710938 5.289062 L 12.710938 6.515625 Z M 12.710938 4.925781 L 13.714844 4.925781 L 13.773438 4.910156 L 13.828125 4.898438 L 13.871094 4.882812 L 13.898438 4.871094 L 13.941406 4.855469 L 13.980469 4.839844 L 14.007812 4.8125 L 14.050781 4.785156 L 14.066406 4.773438 L 14.078125 4.742188 L 14.121094 4.714844 L 14.121094 4.6875 L 14.148438 4.660156 L 14.164062 4.617188 L 14.175781 4.589844 L 14.191406 4.550781 L 14.191406 4.4375 L 14.203125 4.382812 L 14.191406 4.351562 L 14.191406 4.242188 L 14.164062 4.1875 L 14.164062 4.15625 L 14.148438 4.128906 L 14.136719 4.117188 L 14.121094 4.089844 L 14.121094 4.058594 L 14.078125 4.019531 L 14.050781 4.003906 L 14.007812 3.960938 L 13.996094 3.960938 L 13.980469 3.933594 L 13.953125 3.921875 L 13.941406 3.921875 L 13.898438 3.90625 L 13.882812 3.894531 L 13.828125 3.894531 L 13.785156 3.878906 L 13.746094 3.878906 L 13.714844 3.863281 L 13.535156 3.863281 L 13.492188 3.851562 L 12.710938 3.851562 L 12.710938 4.925781 "/>
</svg>
