<?xml version="1.0" encoding="UTF-8"?>
<svg xmlns="http://www.w3.org/2000/svg" xmlns:xlink="http://www.w3.org/1999/xlink" width="16" height="16" viewBox="0 0 16 16">
<rect x="-1.6" y="-1.6" width="19.2" height="19.2" fill="rgb(100%, 100%, 100%)" fill-opacity="1"/>
<path fill="none" stroke-width="3.97394" stroke-linecap="butt" stroke-linejoin="miter" stroke="rgb(0%, 0%, 0%)" stroke-opacity="1" stroke-miterlimit="4" d="M -39.283627 -2.173625 L 18.747623 -2.173625 L 18.747623 55.857625 L -39.283627 55.857625 Z M -39.283627 -2.173625 " transform="matrix(0.25, 0, 0, 0.25, 10.567, 1.2895)"/>
<path fill-rule="nonzero" fill="rgb(0%, 0%, 0%)" fill-opacity="1" d="M 4.488281 4.285156 C 4.488281 4.125 4.453125 3.964844 4.382812 3.804688 C 4.3125 3.652344 4.21875 3.515625 4.097656 3.390625 C 3.976562 3.269531 3.835938 3.171875 3.679688 3.105469 C 3.523438 3.035156 3.363281 3 3.203125 3 C 3.042969 3 2.882812 3.035156 2.726562 3.105469 C 2.570312 3.175781 2.433594 3.269531 2.3125 3.390625 C 2.1875 3.515625 2.09375 3.652344 2.019531 3.804688 C 1.949219 3.960938 1.914062 4.121094 1.917969 4.285156 C 1.917969 4.449219 1.953125 4.605469 2.019531 4.761719 C 2.09375 4.917969 2.1875 5.054688 2.308594 5.179688 C 2.433594 5.300781 2.570312 5.394531 2.726562 5.464844 C 2.878906 5.535156 3.039062 5.570312 3.203125 5.570312 C 3.269531 5.570312 3.335938 5.585938 3.398438 5.617188 C 3.460938 5.644531 3.519531 5.683594 3.570312 5.734375 C 3.621094 5.789062 3.660156 5.847656 3.6875 5.910156 C 3.714844 5.976562 3.730469 6.039062 3.734375 6.105469 C 3.734375 6.171875 3.71875 6.234375 3.6875 6.296875 C 3.660156 6.363281 3.621094 6.417969 3.570312 6.46875 C 3.519531 6.519531 3.460938 6.558594 3.398438 6.589844 C 3.332031 6.617188 3.265625 6.632812 3.203125 6.636719 C 3.136719 6.636719 3.074219 6.621094 3.011719 6.589844 C 2.945312 6.558594 2.886719 6.519531 2.839844 6.46875 C 2.785156 6.417969 2.746094 6.363281 2.714844 6.296875 C 2.683594 6.230469 2.671875 6.167969 2.671875 6.105469 L 1.875 6.105469 C 1.875 6.265625 1.910156 6.425781 1.980469 6.585938 C 2.058594 6.742188 2.160156 6.886719 2.289062 7.019531 C 2.417969 7.148438 2.558594 7.25 2.71875 7.320312 C 2.875 7.394531 3.039062 7.433594 3.203125 7.433594 C 3.363281 7.433594 3.523438 7.394531 3.683594 7.320312 C 3.84375 7.246094 3.988281 7.144531 4.121094 7.019531 C 4.246094 6.890625 4.347656 6.746094 4.417969 6.585938 C 4.496094 6.425781 4.53125 6.265625 4.53125 6.105469 C 4.53125 5.941406 4.496094 5.78125 4.417969 5.621094 C 4.34375 5.460938 4.246094 5.316406 4.121094 5.1875 C 3.992188 5.058594 3.84375 4.957031 3.683594 4.882812 C 3.523438 4.808594 3.363281 4.773438 3.203125 4.773438 C 3.070312 4.773438 2.957031 4.726562 2.859375 4.628906 C 2.761719 4.53125 2.714844 4.417969 2.714844 4.285156 C 2.714844 4.152344 2.761719 4.039062 2.859375 3.941406 C 2.957031 3.84375 3.070312 3.796875 3.203125 3.796875 C 3.335938 3.796875 3.449219 3.84375 3.550781 3.941406 C 3.644531 4.039062 3.691406 4.152344 3.6875 4.285156 Z M 6.699219 3.796875 L 7.632812 3.796875 L 7.632812 3 L 4.972656 3 L 4.972656 3.796875 L 5.90625 3.796875 L 5.90625 7.433594 L 6.699219 7.433594 Z M 10.734375 6.105469 L 10.734375 4.328125 C 10.734375 4.167969 10.699219 4.007812 10.625 3.847656 C 10.546875 3.691406 10.449219 3.542969 10.324219 3.410156 C 10.195312 3.285156 10.050781 3.183594 9.886719 3.113281 C 9.730469 3.039062 9.570312 3 9.40625 3 C 9.246094 3 9.082031 3.039062 8.921875 3.113281 C 8.761719 3.1875 8.621094 3.285156 8.492188 3.410156 C 8.363281 3.542969 8.261719 3.6875 8.1875 3.847656 C 8.109375 4.007812 8.074219 4.167969 8.078125 4.328125 L 8.078125 6.105469 C 8.078125 6.265625 8.113281 6.425781 8.1875 6.585938 C 8.261719 6.742188 8.363281 6.886719 8.492188 7.019531 C 8.621094 7.148438 8.761719 7.25 8.921875 7.320312 C 9.082031 7.394531 9.242188 7.433594 9.40625 7.433594 C 9.570312 7.433594 9.730469 7.394531 9.886719 7.320312 C 10.046875 7.246094 10.191406 7.144531 10.324219 7.019531 C 10.453125 6.890625 10.550781 6.746094 10.625 6.585938 C 10.699219 6.425781 10.734375 6.265625 10.734375 6.105469 M 9.941406 6.105469 C 9.941406 6.171875 9.925781 6.234375 9.890625 6.296875 C 9.863281 6.363281 9.824219 6.417969 9.773438 6.46875 C 9.722656 6.519531 9.664062 6.558594 9.601562 6.589844 C 9.535156 6.617188 9.46875 6.632812 9.40625 6.636719 C 9.339844 6.636719 9.277344 6.621094 9.214844 6.589844 C 9.148438 6.558594 9.09375 6.519531 9.042969 6.46875 C 8.992188 6.417969 8.949219 6.363281 8.917969 6.296875 C 8.890625 6.230469 8.875 6.167969 8.875 6.105469 L 8.875 4.328125 C 8.875 4.261719 8.890625 4.199219 8.917969 4.132812 C 8.945312 4.070312 8.988281 4.011719 9.042969 3.960938 C 9.09375 3.910156 9.148438 3.875 9.214844 3.84375 C 9.28125 3.816406 9.34375 3.800781 9.40625 3.796875 C 9.472656 3.796875 9.539062 3.8125 9.601562 3.84375 C 9.664062 3.875 9.722656 3.910156 9.773438 3.960938 C 9.824219 4.011719 9.863281 4.070312 9.890625 4.132812 C 9.921875 4.199219 9.9375 4.265625 9.941406 4.328125 Z M 12.265625 4.863281 L 12.265625 3.796875 L 12.796875 3.796875 C 12.863281 3.796875 12.929688 3.8125 12.992188 3.84375 C 13.054688 3.875 13.113281 3.910156 13.164062 3.960938 C 13.214844 4.011719 13.253906 4.070312 13.28125 4.132812 C 13.3125 4.199219 13.324219 4.265625 13.324219 4.328125 C 13.324219 4.394531 13.3125 4.460938 13.28125 4.519531 C 13.253906 4.585938 13.214844 4.644531 13.164062 4.691406 C 13.113281 4.746094 13.054688 4.785156 12.992188 4.820312 C 12.925781 4.847656 12.859375 4.863281 12.796875 4.863281 Z M 12.265625 5.660156 L 12.796875 5.660156 C 12.957031 5.660156 13.121094 5.621094 13.277344 5.550781 C 13.4375 5.476562 13.582031 5.371094 13.714844 5.242188 C 13.84375 5.117188 13.941406 4.972656 14.015625 4.8125 C 14.089844 4.65625 14.125 4.492188 14.125 4.328125 C 14.125 4.167969 14.089844 4.007812 14.015625 3.847656 C 13.9375 3.691406 13.839844 3.542969 13.714844 3.410156 C 13.585938 3.285156 13.4375 3.183594 13.277344 3.113281 C 13.117188 3.039062 12.957031 3 12.796875 3 L 11.464844 3 L 11.464844 7.433594 L 12.265625 7.433594 Z M 12.5625 10.5625 C 12.449219 10.5625 12.351562 10.574219 12.273438 10.597656 C 12.195312 10.621094 12.128906 10.65625 12.074219 10.695312 C 12.027344 10.660156 11.964844 10.625 11.886719 10.597656 C 11.808594 10.574219 11.707031 10.5625 11.589844 10.5625 C 11.523438 10.5625 11.472656 10.5625 11.441406 10.566406 C 11.40625 10.574219 11.375 10.578125 11.34375 10.589844 L 11.34375 10.5625 L 10.859375 10.5625 L 10.859375 13 L 11.34375 13 L 11.34375 11.292969 C 11.34375 11.230469 11.367188 11.175781 11.421875 11.125 C 11.464844 11.074219 11.523438 11.050781 11.589844 11.046875 C 11.65625 11.046875 11.714844 11.070312 11.761719 11.121094 C 11.808594 11.167969 11.832031 11.226562 11.832031 11.292969 L 11.832031 13 L 12.320312 13 L 12.320312 11.292969 C 12.320312 11.230469 12.34375 11.175781 12.394531 11.125 C 12.441406 11.074219 12.496094 11.050781 12.5625 11.046875 C 12.628906 11.046875 12.6875 11.070312 12.738281 11.121094 C 12.78125 11.167969 12.804688 11.226562 12.804688 11.292969 L 12.804688 13 L 13.296875 13 L 13.296875 11.292969 C 13.296875 10.804688 13.050781 10.5625 12.5625 10.5625 "/>
</svg>
