<?xml version="1.0" encoding="UTF-8"?>
<svg xmlns="http://www.w3.org/2000/svg" xmlns:xlink="http://www.w3.org/1999/xlink" width="10" height="30" viewBox="0 0 10 30">
<path fill-rule="nonzero" fill="rgb(0%, 100%, 0%)" fill-opacity="1" d="M 6.945312 4.953125 C 6.945312 6.019531 6.070312 6.890625 5 6.890625 C 3.929688 6.890625 3.054688 6.019531 3.054688 4.953125 C 3.054688 3.875 3.929688 3.007812 5 3.007812 C 6.070312 3.007812 6.945312 3.875 6.945312 4.953125 Z M 6.945312 4.953125 "/>
<path fill-rule="nonzero" fill="rgb(30.980392%, 30.980392%, 30.980392%)" fill-opacity="1" d="M 6.945312 14.953125 C 6.945312 16.019531 6.070312 16.890625 5 16.890625 C 3.929688 16.890625 3.054688 16.019531 3.054688 14.953125 C 3.054688 13.875 3.929688 13.007812 5 13.007812 C 6.070312 13.007812 6.945312 13.875 6.945312 14.953125 Z M 6.945312 14.953125 "/>
<path fill-rule="nonzero" fill="rgb(30.980392%, 30.980392%, 30.980392%)" fill-opacity="1" d="M 6.945312 24.953125 C 6.945312 26.019531 6.070312 26.890625 5 26.890625 C 3.929688 26.890625 3.054688 26.019531 3.054688 24.953125 C 3.054688 23.875 3.929688 23.007812 5 23.007812 C 6.070312 23.007812 6.945312 23.875 6.945312 24.953125 Z M 6.945312 24.953125 "/>
</svg>
