<?xml version="1.0" encoding="UTF-8"?>
<svg xmlns="http://www.w3.org/2000/svg" xmlns:xlink="http://www.w3.org/1999/xlink" width="12" height="5.936631" viewBox="0 0 12 5.936631">
<path fill-rule="nonzero" fill="rgb(0%, 0%, 0%)" fill-opacity="1" d="M 3.003906 0 L 9.003906 0 L 9.003906 5.9375 L 3.003906 5.9375 Z M 3.003906 0 "/>
<path fill-rule="nonzero" fill="rgb(0%, 0%, 0%)" fill-opacity="1" d="M 12 2.964844 C 12 4.605469 10.652344 5.9375 9.003906 5.9375 C 7.347656 5.9375 6 4.605469 6 2.964844 C 6 1.324219 7.347656 0 9.003906 0 C 10.652344 0 12 1.324219 12 2.964844 Z M 12 2.964844 "/>
<path fill-rule="nonzero" fill="rgb(100%, 100%, 100%)" fill-opacity="1" d="M 11.066406 2.96875 C 11.066406 4.109375 10.136719 5.03125 9 5.03125 C 7.863281 5.03125 6.933594 4.109375 6.933594 2.96875 C 6.933594 1.824219 7.863281 0.898438 9 0.898438 C 10.136719 0.898438 11.066406 1.824219 11.066406 2.96875 Z M 11.066406 2.96875 "/>
<path fill-rule="nonzero" fill="rgb(0%, 0%, 0%)" fill-opacity="1" d="M 6 2.964844 C 6 4.605469 4.652344 5.9375 3.003906 5.9375 C 1.347656 5.9375 0 4.605469 0 2.964844 C 0 1.324219 1.347656 0 3.003906 0 C 4.652344 0 6 1.324219 6 2.964844 Z M 6 2.964844 "/>
<path fill-rule="nonzero" fill="rgb(100%, 100%, 100%)" fill-opacity="1" d="M 5.066406 2.96875 C 5.066406 4.109375 4.136719 5.03125 3 5.03125 C 1.863281 5.03125 0.933594 4.109375 0.933594 2.96875 C 0.933594 1.824219 1.863281 0.898438 3 0.898438 C 4.136719 0.898438 5.066406 1.824219 5.066406 2.96875 Z M 5.066406 2.96875 "/>
</svg>
