<?xml version="1.0" encoding="UTF-8"?>
<svg xmlns="http://www.w3.org/2000/svg" xmlns:xlink="http://www.w3.org/1999/xlink" width="12" height="11.873437" viewBox="0 0 12 11.873437">
<path fill-rule="nonzero" fill="rgb(0%, 0%, 0%)" fill-opacity="1" d="M 12 2.964844 C 12 4.605469 10.652344 5.941406 9.003906 5.941406 C 7.347656 5.941406 6 4.605469 6 2.964844 C 6 1.324219 7.347656 0 9.003906 0 C 10.652344 0 12 1.324219 12 2.964844 Z M 12 2.964844 "/>
<path fill-rule="nonzero" fill="rgb(32.941176%, 74.901961%, 100%)" fill-opacity="1" d="M 11.066406 2.96875 C 11.066406 4.113281 10.136719 5.042969 9 5.042969 C 7.863281 5.042969 6.933594 4.113281 6.933594 2.96875 C 6.933594 1.824219 7.863281 0.902344 9 0.902344 C 10.136719 0.902344 11.066406 1.824219 11.066406 2.96875 Z M 11.066406 2.96875 "/>
<path fill-rule="nonzero" fill="rgb(0%, 0%, 0%)" fill-opacity="1" d="M 6 2.964844 C 6 4.605469 4.652344 5.941406 3.003906 5.941406 C 1.347656 5.941406 0 4.605469 0 2.964844 C 0 1.324219 1.347656 0 3.003906 0 C 4.652344 0 6 1.324219 6 2.964844 Z M 6 2.964844 "/>
<path fill-rule="nonzero" fill="rgb(32.941176%, 74.901961%, 100%)" fill-opacity="1" d="M 5.066406 2.96875 C 5.066406 4.113281 4.136719 5.042969 3 5.042969 C 1.863281 5.042969 0.933594 4.113281 0.933594 2.96875 C 0.933594 1.824219 1.863281 0.902344 3 0.902344 C 4.136719 0.902344 5.066406 1.824219 5.066406 2.96875 Z M 5.066406 2.96875 "/>
<path fill-rule="nonzero" fill="rgb(0%, 0%, 0%)" fill-opacity="1" d="M 3.003906 5.941406 L 9.003906 5.941406 L 9.003906 11.871094 L 3.003906 11.871094 Z M 3.003906 5.941406 "/>
<path fill-rule="nonzero" fill="rgb(0%, 0%, 0%)" fill-opacity="1" d="M 12 8.90625 C 12 10.546875 10.652344 11.871094 9.003906 11.871094 C 7.347656 11.871094 6 10.546875 6 8.90625 C 6 7.265625 7.347656 5.941406 9.003906 5.941406 C 10.652344 5.941406 12 7.265625 12 8.90625 Z M 12 8.90625 "/>
<path fill-rule="nonzero" fill="rgb(100%, 100%, 100%)" fill-opacity="1" d="M 11.066406 8.910156 C 11.066406 10.042969 10.136719 10.972656 9 10.972656 C 7.863281 10.972656 6.933594 10.042969 6.933594 8.910156 C 6.933594 7.765625 7.863281 6.839844 9 6.839844 C 10.136719 6.839844 11.066406 7.765625 11.066406 8.910156 Z M 11.066406 8.910156 "/>
<path fill-rule="nonzero" fill="rgb(0%, 0%, 0%)" fill-opacity="1" d="M 6 8.90625 C 6 10.546875 4.652344 11.871094 3.003906 11.871094 C 1.347656 11.871094 0 10.546875 0 8.90625 C 0 7.265625 1.347656 5.941406 3.003906 5.941406 C 4.652344 5.941406 6 7.265625 6 8.90625 Z M 6 8.90625 "/>
<path fill-rule="nonzero" fill="rgb(100%, 100%, 100%)" fill-opacity="1" d="M 5.066406 8.910156 C 5.066406 10.042969 4.136719 10.972656 3 10.972656 C 1.863281 10.972656 0.933594 10.042969 0.933594 8.910156 C 0.933594 7.765625 1.863281 6.839844 3 6.839844 C 4.136719 6.839844 5.066406 7.765625 5.066406 8.910156 Z M 5.066406 8.910156 "/>
</svg>
