<?xml version="1.0" encoding="UTF-8"?>
<svg xmlns="http://www.w3.org/2000/svg" xmlns:xlink="http://www.w3.org/1999/xlink" width="9" height="27.005852" viewBox="0 0 9 27.005852">
<path fill-rule="nonzero" fill="rgb(0%, 0%, 0%)" fill-opacity="1" d="M 3.796875 21.128906 L 5.203125 21.128906 L 5.203125 23.589844 L 3.796875 23.589844 Z M 3.796875 21.128906 "/>
<path fill-rule="nonzero" fill="rgb(0%, 0%, 0%)" fill-opacity="1" d="M 3.796875 17.714844 L 5.203125 17.714844 L 5.203125 20.175781 L 3.796875 20.175781 Z M 3.796875 17.714844 "/>
<path fill-rule="nonzero" fill="rgb(100%, 100%, 100%)" fill-opacity="1" d="M 3.796875 20.078125 L 5.203125 20.078125 L 5.203125 21.128906 L 3.796875 21.128906 Z M 3.796875 20.078125 "/>
<path fill-rule="nonzero" fill="rgb(0%, 0%, 0%)" fill-opacity="1" d="M 3.796875 24.542969 L 5.203125 24.542969 L 5.203125 27.003906 L 3.796875 27.003906 Z M 3.796875 24.542969 "/>
<path fill-rule="nonzero" fill="rgb(100%, 100%, 100%)" fill-opacity="1" d="M 3.796875 23.492188 L 5.203125 23.492188 L 5.203125 24.542969 L 3.796875 24.542969 Z M 3.796875 23.492188 "/>
<path fill-rule="nonzero" fill="rgb(0%, 0%, 0%)" fill-opacity="1" stroke-width="0.2" stroke-linecap="butt" stroke-linejoin="miter" stroke="rgb(100%, 100%, 100%)" stroke-opacity="1" stroke-miterlimit="4" d="M 0.1 0.1 L 8.9 0.1 L 8.9 8.9 L 0.1 8.9 Z" />
<path fill-rule="nonzero" fill="rgb(100%, 86.666667%, 0%)" fill-opacity="1" d="M 6.25 4.457031 C 6.25 5.417969 5.464844 6.203125 4.5 6.203125 C 3.535156 6.203125 2.75 5.417969 2.75 4.457031 C 2.75 3.488281 3.535156 2.707031 4.5 2.707031 C 5.464844 2.707031 6.25 3.488281 6.25 4.457031 Z M 6.25 4.457031 "/>
<path fill-rule="nonzero" fill="rgb(0%, 0%, 0%)" fill-opacity="1" stroke-width="0.2" stroke-linecap="butt" stroke-linejoin="miter" stroke="rgb(100%, 100%, 100%)" stroke-opacity="1" stroke-miterlimit="4" d="M 0.1 9.1 L 8.9 9.1 L 8.9 17.9 L 0.1 17.9 Z" />
<path fill-rule="nonzero" fill="rgb(13.333333%, 100%, 0%)" fill-opacity="1" d="M 6.25 13.355469 C 6.25 14.324219 5.464844 15.105469 4.5 15.105469 C 3.535156 15.105469 2.75 14.324219 2.75 13.355469 C 2.75 12.390625 3.535156 11.605469 4.5 11.605469 C 5.464844 11.605469 6.25 12.390625 6.25 13.355469 Z M 6.25 13.355469 "/>
</svg>
