<?xml version="1.0" encoding="UTF-8"?>
<svg xmlns="http://www.w3.org/2000/svg" xmlns:xlink="http://www.w3.org/1999/xlink" width="10" height="19.793253" viewBox="0 0 10 19.793253">
<path fill-rule="nonzero" fill="rgb(0%, 0%, 0%)" fill-opacity="1" stroke-width="0.217292" stroke-linecap="butt" stroke-linejoin="miter" stroke="rgb(100%, 100%, 100%)" stroke-opacity="1" stroke-miterlimit="4" d="M 8.889576 4.453576 C 8.889576 6.854359 6.921145 8.8017 4.502786 8.8017 C 2.073883 8.8017 0.108967 6.854359 0.108967 4.453576 C 0.108967 2.052793 2.073883 0.108967 4.502786 0.108967 C 6.921145 0.108967 8.889576 2.052793 8.889576 4.453576 Z M 8.889576 4.453576 " transform="matrix(1.111291, 0, 0, 1.111291, 0, 0)"/>
<path fill-rule="nonzero" fill="rgb(0%, 0%, 0%)" fill-opacity="1" stroke-width="0.217292" stroke-linecap="butt" stroke-linejoin="miter" stroke="rgb(100%, 100%, 100%)" stroke-opacity="1" stroke-miterlimit="4" d="M 8.889576 13.350182 C 8.889576 15.75448 6.921145 17.701821 4.502786 17.701821 C 2.073883 17.701821 0.108967 15.75448 0.108967 13.350182 C 0.108967 10.952914 2.073883 9.012603 4.502786 9.012603 C 6.921145 9.012603 8.889576 10.952914 8.889576 13.350182 Z M 8.889576 13.350182 " transform="matrix(1.111291, 0, 0, 1.111291, 0, 0)"/>
</svg>
