<?xml version="1.0" encoding="UTF-8"?>
<svg xmlns="http://www.w3.org/2000/svg" xmlns:xlink="http://www.w3.org/1999/xlink" width="10" height="29.695004" viewBox="0 0 10 29.695004">
<path fill-rule="nonzero" fill="rgb(0%, 0%, 0%)" fill-opacity="1" stroke-width="0.217304" stroke-linecap="butt" stroke-linejoin="miter" stroke="rgb(100%, 100%, 100%)" stroke-opacity="1" stroke-miterlimit="4" d="M 8.889587 4.453581 C 8.889587 6.854367 6.921154 8.801711 4.502792 8.801711 C 2.073886 8.801711 0.108967 6.854367 0.108967 4.453581 C 0.108967 2.052795 2.073886 0.108967 4.502792 0.108967 C 6.921154 0.108967 8.889587 2.052795 8.889587 4.453581 Z M 8.889587 4.453581 " transform="matrix(1.11129, 0, 0, 1.11129, 0, 0)"/>
<path fill-rule="nonzero" fill="rgb(0%, 0%, 0%)" fill-opacity="1" stroke-width="0.217304" stroke-linecap="butt" stroke-linejoin="miter" stroke="rgb(100%, 100%, 100%)" stroke-opacity="1" stroke-miterlimit="4" d="M 8.889587 13.364259 C 8.889587 15.765045 6.921154 17.708874 4.502792 17.708874 C 2.073886 17.708874 0.108967 15.765045 0.108967 13.364259 C 0.108967 10.963473 2.073886 9.019645 4.502792 9.019645 C 6.921154 9.019645 8.889587 10.963473 8.889587 13.364259 Z M 8.889587 13.364259 " transform="matrix(1.11129, 0, 0, 1.11129, 0, 0)"/>
<path fill-rule="nonzero" fill="rgb(0%, 0%, 0%)" fill-opacity="1" stroke-width="0.217304" stroke-linecap="butt" stroke-linejoin="miter" stroke="rgb(100%, 100%, 100%)" stroke-opacity="1" stroke-miterlimit="4" d="M 8.889587 22.260877 C 8.889587 24.661663 6.921154 26.612521 4.502792 26.612521 C 2.073886 26.612521 0.108967 24.661663 0.108967 22.260877 C 0.108967 19.863605 2.073886 17.919777 4.502792 17.919777 C 6.921154 17.919777 8.889587 19.863605 8.889587 22.260877 Z M 8.889587 22.260877 " transform="matrix(1.11129, 0, 0, 1.11129, 0, 0)"/>
</svg>
