<?xml version="1.0" encoding="UTF-8"?>
<svg xmlns="http://www.w3.org/2000/svg" xmlns:xlink="http://www.w3.org/1999/xlink" width="10" height="36.994068" viewBox="0 0 10 36.994068">
<path fill-rule="nonzero" fill="rgb(0%, 0%, 0%)" fill-opacity="1" stroke-width="0.2" stroke-linecap="butt" stroke-linejoin="miter" stroke="rgb(100%, 100%, 100%)" stroke-opacity="1" stroke-miterlimit="4" d="M 0.6 0.1 L 9.4 0.6 L 9.4 8.9 L 0.6 8.9 Z" />
<path fill-rule="nonzero" fill="rgb(100%, 0%, 0%)" fill-opacity="1" d="M 6.75 4.457031 C 6.75 5.417969 5.964844 6.203125 5 6.203125 C 4.035156 6.203125 3.25 5.417969 3.25 4.457031 C 3.25 3.488281 4.035156 2.707031 5 2.707031 C 5.964844 2.707031 6.75 3.488281 6.75 4.457031 Z M 6.75 4.457031 "/>
<path fill-rule="nonzero" fill="rgb(0%, 0%, 0%)" fill-opacity="1" stroke-width="0.2" stroke-linecap="butt" stroke-linejoin="miter" stroke="rgb(100%, 100%, 100%)" stroke-opacity="1" stroke-miterlimit="4" d="M 0.6 9.1 L 9.4 9.1 L 9.4 17.9 L 0.6 17.9 Z" />
<path fill-rule="nonzero" fill="rgb(100%, 86.666667%, 0%)" fill-opacity="1" d="M 6.75 13.363281 C 6.75 14.328125 5.964844 15.113281 5 15.113281 C 4.035156 15.113281 3.25 14.328125 3.25 13.363281 C 3.25 12.398438 4.035156 11.617188 5 11.617188 C 5.964844 11.617188 6.75 12.398438 6.75 13.363281 Z M 6.75 13.363281 "/>
<path fill-rule="nonzero" fill="rgb(0%, 0%, 0%)" fill-opacity="1" stroke-width="0.2" stroke-linecap="butt" stroke-linejoin="miter" stroke="rgb(100%, 100%, 100%)" stroke-opacity="1" stroke-miterlimit="4" d="M 0.6 18.1 L 9.4 18.1 L 9.4 26.9 L 0.6 26.9 Z" />
<path fill-rule="nonzero" fill="rgb(30.980392%, 30.980392%, 30.980392%)" fill-opacity="1" d="M 6.75 22.265625 C 6.75 23.230469 5.964844 24.015625 5 24.015625 C 4.035156 24.015625 3.25 23.230469 3.25 22.265625 C 3.25 21.300781 4.035156 20.519531 5 20.519531 C 5.964844 20.519531 6.75 21.300781 6.75 22.265625 Z M 6.75 22.265625 "/>
<path fill-rule="nonzero" fill="rgb(0%, 0%, 0%)" fill-opacity="1" d="M 10 29.574219 C 10 30.941406 8.878906 32.046875 7.503906 32.046875 C 6.121094 32.046875 5 30.941406 5 29.574219 C 5 28.207031 6.121094 27.101562 7.503906 27.101562 C 8.878906 27.101562 10 28.207031 10 29.574219 Z M 10 29.574219 "/>
<path fill-rule="nonzero" fill="rgb(32.941176%, 74.901961%, 100%)" fill-opacity="1" d="M 9.222656 29.578125 C 9.222656 30.523438 8.449219 31.296875 7.5 31.296875 C 6.550781 31.296875 5.777344 30.523438 5.777344 29.578125 C 5.777344 28.621094 6.550781 27.851562 7.5 27.851562 C 8.449219 27.851562 9.222656 28.621094 9.222656 29.578125 Z M 9.222656 29.578125 "/>
<path fill-rule="nonzero" fill="rgb(0%, 0%, 0%)" fill-opacity="1" d="M 5 29.574219 C 5 30.941406 3.878906 32.046875 2.503906 32.046875 C 1.121094 32.046875 0 30.941406 0 29.574219 C 0 28.207031 1.121094 27.101562 2.503906 27.101562 C 3.878906 27.101562 5 28.207031 5 29.574219 Z M 5 29.574219 "/>
<path fill-rule="nonzero" fill="rgb(32.941176%, 74.901961%, 100%)" fill-opacity="1" d="M 4.222656 29.578125 C 4.222656 30.523438 3.449219 31.296875 2.5 31.296875 C 1.550781 31.296875 0.777344 30.523438 0.777344 29.578125 C 0.777344 28.621094 1.550781 27.851562 2.5 27.851562 C 3.449219 27.851562 4.222656 28.621094 4.222656 29.578125 Z M 4.222656 29.578125 "/>
<path fill-rule="nonzero" fill="rgb(0%, 0%, 0%)" fill-opacity="1" d="M 2.503906 32.046875 L 7.503906 32.046875 L 7.503906 36.992188 L 2.503906 36.992188 Z M 2.503906 32.046875 "/>
<path fill-rule="nonzero" fill="rgb(0%, 0%, 0%)" fill-opacity="1" d="M 10 34.519531 C 10 35.886719 8.878906 36.992188 7.503906 36.992188 C 6.121094 36.992188 5 35.886719 5 34.519531 C 5 33.152344 6.121094 32.046875 7.503906 32.046875 C 8.878906 32.046875 10 33.152344 10 34.519531 Z M 10 34.519531 "/>
<path fill-rule="nonzero" fill="rgb(100%, 100%, 100%)" fill-opacity="1" d="M 9.222656 34.523438 C 9.222656 35.46875 8.449219 36.242188 7.5 36.242188 C 6.550781 36.242188 5.777344 35.46875 5.777344 34.523438 C 5.777344 33.566406 6.550781 32.796875 7.5 32.796875 C 8.449219 32.796875 9.222656 33.566406 9.222656 34.523438 Z M 9.222656 34.523438 "/>
<path fill-rule="nonzero" fill="rgb(0%, 0%, 0%)" fill-opacity="1" d="M 5 34.519531 C 5 35.886719 3.878906 36.992188 2.503906 36.992188 C 1.121094 36.992188 0 35.886719 0 34.519531 C 0 33.152344 1.121094 32.046875 2.503906 32.046875 C 3.878906 32.046875 5 33.152344 5 34.519531 Z M 5 34.519531 "/>
<path fill-rule="nonzero" fill="rgb(100%, 100%, 100%)" fill-opacity="1" d="M 4.222656 34.523438 C 4.222656 35.46875 3.449219 36.242188 2.5 36.242188 C 1.550781 36.242188 0.777344 35.46875 0.777344 34.523438 C 0.777344 33.566406 1.550781 32.796875 2.5 32.796875 C 3.449219 32.796875 4.222656 33.566406 4.222656 34.523438 Z M 4.222656 34.523438 "/>
</svg>
