<?xml version="1.0" encoding="UTF-8"?>
<svg xmlns="http://www.w3.org/2000/svg" width="15" height="15" viewBox="0 0 10 10">
  <rect fill="#000" stroke="#fff" stroke-width=".4" width="9.6" height="9.6" ry="10" x=".2" y=".2" />
  <path fill="#555" stroke="#fff" stroke-width="0.1" d="M3.964 2.8823l.352-.352.352.352v1.76l-.352.352-.352-.352Zm1.408 2.464.352-.352.352.352v1.76l-.352.352-.352-.352Zm-3.52-2.464.352-.352.352.352v1.76l-.352.352-.352-.352Zm2.112 2.464.352-.352.352.352v1.76l-.352.352-.352-.352Zm2.112 2.464-.352-.352.352-.352H7.484l.352.352-.352.352Zm0-4.928-.352-.352.352-.352H7.484l.352.352-.352.352Zm-3.52 2.464-.352-.352.352-.352H3.964l.352.352-.352.352Zm0 2.464-.352-.352.352-.352H3.964l.352.352-.352.352Zm-.704-2.464.352-.352.352.352v1.76l-.352.352-.352-.352Zm.704-2.464-.352-.352.352-.352H3.964l.352.352-.352.352Zm2.816 0 .352-.352.352.352v1.76l-.352.352-.352-.352Zm2.112 0 .352-.352.352.352v1.76l-.352.352-.352-.352Zm0 2.464.352-.352.352.352v1.76l-.352.352-.352-.352Zm-1.408 0-.352-.352.352-.352H7.484l.352.352-.352.352Z"  />
</svg>
