<?xml version="1.0" encoding="UTF-8"?>
<svg xmlns="http://www.w3.org/2000/svg" xmlns:xlink="http://www.w3.org/1999/xlink" width="16" height="16" viewBox="0 0 16 16">
<path fill-rule="nonzero" fill="rgb(100%, 100%, 100%)" fill-opacity="1" d="M 14 16 C 15.105469 16 16 15.105469 16 14 L 16 2 C 16 0.894531 15.105469 0 14 0 L 2 0 C 0.894531 0 0 0.894531 0 2 L 0 14 C 0 15.105469 0.894531 16 2 16 Z M 14 16 "/>
<path fill-rule="nonzero" fill="rgb(0%, 0%, 0%)" fill-opacity="1" d="M 14 16 L 2 16 C 0.894531 16 0 15.105469 0 14 L 0 2 C 0 0.894531 0.894531 0 2 0 L 14 0 C 15.105469 0 16 0.894531 16 2 L 16 14 C 16 15.105469 15.105469 16 14 16 Z M 3.910156 13.5 L 5.9375 13.5 L 5.9375 9.527344 L 7.984375 9.527344 L 8.191406 9.53125 L 8.296875 9.527344 L 8.507812 9.527344 L 8.71875 9.519531 L 8.769531 9.519531 L 8.824219 9.515625 L 8.875 9.515625 L 8.898438 9.511719 L 8.921875 9.511719 L 8.972656 9.507812 L 9.207031 9.488281 L 9.25 9.484375 L 9.300781 9.480469 L 9.347656 9.472656 L 9.394531 9.46875 L 9.421875 9.464844 L 9.445312 9.464844 L 9.472656 9.460938 L 9.496094 9.457031 L 9.550781 9.449219 L 9.578125 9.449219 L 9.605469 9.445312 L 9.800781 9.398438 L 9.847656 9.386719 L 9.898438 9.371094 L 9.992188 9.347656 L 10.042969 9.332031 L 10.183594 9.285156 L 10.226562 9.265625 L 10.273438 9.25 L 10.296875 9.238281 L 10.320312 9.230469 L 10.339844 9.21875 L 10.363281 9.210938 L 10.386719 9.199219 L 10.40625 9.1875 L 10.453125 9.164062 L 10.496094 9.140625 L 10.535156 9.117188 L 10.621094 9.0625 L 10.660156 9.035156 L 10.703125 9.007812 L 10.742188 8.980469 L 10.785156 8.949219 L 10.824219 8.921875 L 10.863281 8.890625 L 10.945312 8.832031 L 11.023438 8.769531 L 11.058594 8.730469 L 11.089844 8.691406 L 11.125 8.652344 L 11.15625 8.617188 L 11.1875 8.578125 L 11.21875 8.542969 L 11.25 8.503906 L 11.28125 8.46875 L 11.3125 8.429688 L 11.339844 8.394531 L 11.371094 8.355469 L 11.398438 8.320312 L 11.429688 8.28125 L 11.457031 8.246094 L 11.484375 8.207031 L 11.511719 8.171875 L 11.539062 8.132812 L 11.566406 8.097656 L 11.613281 8.019531 L 11.640625 7.984375 L 11.664062 7.945312 L 11.683594 7.90625 L 11.730469 7.828125 L 11.808594 7.671875 L 11.824219 7.628906 L 11.84375 7.589844 L 11.875 7.503906 L 11.890625 7.464844 L 11.902344 7.421875 L 11.917969 7.378906 L 11.941406 7.292969 L 11.953125 7.246094 L 11.960938 7.203125 L 11.972656 7.160156 L 11.980469 7.117188 L 11.988281 7.070312 L 11.996094 7.027344 L 12.003906 6.980469 L 12.011719 6.9375 L 12.027344 6.84375 L 12.03125 6.796875 L 12.039062 6.753906 L 12.0625 6.472656 L 12.070312 6.382812 L 12.078125 6.285156 L 12.089844 6.097656 L 12.078125 5.910156 L 12.070312 5.816406 L 12.066406 5.71875 L 12.050781 5.53125 L 12.042969 5.488281 L 12.035156 5.394531 L 12.027344 5.347656 L 12.023438 5.300781 L 12.015625 5.253906 L 12.007812 5.210938 L 11.992188 5.117188 L 11.984375 5.074219 L 11.976562 5.027344 L 11.96875 4.984375 L 11.957031 4.9375 L 11.910156 4.765625 L 11.898438 4.71875 L 11.882812 4.675781 L 11.867188 4.636719 L 11.820312 4.507812 L 11.800781 4.46875 L 11.78125 4.425781 L 11.722656 4.308594 L 11.675781 4.230469 L 11.65625 4.191406 L 11.632812 4.152344 L 11.605469 4.113281 L 11.558594 4.035156 L 11.503906 3.957031 L 11.476562 3.921875 L 11.367188 3.765625 L 11.335938 3.730469 L 11.308594 3.691406 L 11.214844 3.574219 L 11.1875 3.535156 L 11.15625 3.496094 L 11.121094 3.457031 L 11.058594 3.378906 L 10.992188 3.324219 L 10.925781 3.265625 L 10.855469 3.210938 L 10.824219 3.1875 L 10.71875 3.105469 L 10.648438 3.058594 L 10.613281 3.03125 L 10.578125 3.007812 L 10.542969 2.988281 L 10.503906 2.964844 L 10.46875 2.941406 L 10.429688 2.921875 L 10.394531 2.902344 L 10.355469 2.882812 L 10.316406 2.867188 L 10.28125 2.847656 L 10.242188 2.832031 L 10.203125 2.8125 L 10.125 2.78125 L 10.082031 2.765625 L 10.003906 2.734375 L 9.875 2.6875 L 9.8125 2.671875 L 9.78125 2.667969 L 9.71875 2.652344 L 9.6875 2.648438 L 9.660156 2.640625 L 9.628906 2.636719 L 9.601562 2.628906 L 9.570312 2.625 L 9.460938 2.601562 L 9.402344 2.59375 L 9.347656 2.582031 L 9.128906 2.550781 L 9.070312 2.542969 L 9.042969 2.539062 L 9.015625 2.539062 L 8.953125 2.53125 L 8.835938 2.523438 L 8.773438 2.519531 L 8.714844 2.515625 L 8.589844 2.507812 L 8.53125 2.507812 L 8.46875 2.503906 L 8.347656 2.503906 L 8.226562 2.5 L 3.910156 2.5 Z M 3.910156 13.5 "/>
<path fill-rule="nonzero" fill="rgb(0%, 0%, 0%)" fill-opacity="1" d="M 7.238281 4.171875 L 7.679688 4.171875 L 7.789062 4.175781 L 7.84375 4.175781 L 7.902344 4.179688 L 7.957031 4.179688 L 8.066406 4.1875 L 8.121094 4.1875 L 8.148438 4.191406 L 8.171875 4.191406 L 8.199219 4.195312 L 8.222656 4.195312 L 8.273438 4.203125 L 8.324219 4.207031 L 8.371094 4.210938 L 8.421875 4.214844 L 8.515625 4.230469 L 8.566406 4.234375 L 8.613281 4.242188 L 8.714844 4.257812 L 8.738281 4.261719 L 8.792969 4.269531 L 8.816406 4.273438 L 8.871094 4.28125 L 8.902344 4.285156 L 8.929688 4.292969 L 9.0625 4.339844 L 9.09375 4.355469 L 9.128906 4.367188 L 9.160156 4.382812 L 9.191406 4.394531 L 9.285156 4.441406 L 9.3125 4.457031 L 9.34375 4.476562 L 9.371094 4.492188 L 9.398438 4.511719 L 9.429688 4.53125 L 9.453125 4.550781 L 9.507812 4.597656 L 9.578125 4.667969 L 9.625 4.722656 L 9.648438 4.746094 L 9.671875 4.773438 L 9.691406 4.800781 L 9.714844 4.828125 L 9.757812 4.886719 L 9.800781 4.941406 L 9.835938 5.007812 L 9.867188 5.074219 L 9.886719 5.105469 L 9.902344 5.136719 L 9.917969 5.171875 L 9.933594 5.203125 L 9.949219 5.238281 L 9.960938 5.269531 L 9.976562 5.304688 L 9.988281 5.335938 L 10.003906 5.371094 L 10.015625 5.402344 L 10.023438 5.4375 L 10.035156 5.472656 L 10.042969 5.507812 L 10.054688 5.542969 L 10.0625 5.578125 L 10.066406 5.613281 L 10.074219 5.648438 L 10.078125 5.683594 L 10.085938 5.71875 L 10.089844 5.757812 L 10.097656 5.828125 L 10.097656 5.867188 L 10.101562 5.902344 L 10.105469 5.976562 L 10.113281 6.046875 L 10.101562 6.1875 L 10.101562 6.234375 L 10.097656 6.28125 L 10.089844 6.328125 L 10.082031 6.421875 L 10.074219 6.464844 L 10.066406 6.511719 L 10.058594 6.554688 L 10.046875 6.625 L 10.039062 6.644531 L 10.035156 6.667969 L 10.027344 6.6875 L 10.023438 6.710938 L 10.015625 6.730469 L 10.007812 6.753906 L 10 6.773438 L 9.992188 6.796875 L 9.96875 6.855469 L 9.960938 6.878906 L 9.949219 6.898438 L 9.941406 6.917969 L 9.90625 6.976562 L 9.898438 6.996094 L 9.863281 7.054688 L 9.835938 7.09375 L 9.808594 7.128906 L 9.785156 7.167969 L 9.753906 7.207031 L 9.726562 7.246094 L 9.699219 7.28125 L 9.605469 7.398438 L 9.496094 7.460938 L 9.472656 7.476562 L 9.445312 7.488281 L 9.421875 7.503906 L 9.394531 7.519531 L 9.371094 7.53125 L 9.34375 7.546875 L 9.296875 7.570312 L 9.246094 7.59375 L 9.199219 7.617188 L 9.171875 7.628906 L 9.125 7.652344 L 9.097656 7.660156 L 9.074219 7.671875 L 9.050781 7.679688 L 9.023438 7.691406 L 9 7.699219 L 8.972656 7.707031 L 8.949219 7.71875 L 8.921875 7.726562 L 8.898438 7.734375 L 8.871094 7.738281 L 8.789062 7.761719 L 8.761719 7.765625 L 8.734375 7.773438 L 8.679688 7.78125 L 8.648438 7.785156 L 8.566406 7.796875 L 8.507812 7.804688 L 8.390625 7.8125 L 8.335938 7.816406 L 8.277344 7.820312 L 8.160156 7.820312 L 8.101562 7.824219 L 5.9375 7.824219 L 5.9375 4.171875 Z M 7.238281 4.171875 "/>
</svg>
