<?xml version="1.0" encoding="UTF-8"?>
<svg xmlns="http://www.w3.org/2000/svg" xmlns:xlink="http://www.w3.org/1999/xlink" width="16" height="16" viewBox="0 0 16 16">
<path fill-rule="nonzero" fill="rgb(100%, 100%, 100%)" fill-opacity="1" d="M 14 16 C 15.105469 16 16 15.105469 16 14 L 16 2 C 16 0.894531 15.105469 0 14 0 L 2 0 C 0.894531 0 0 0.894531 0 2 L 0 14 C 0 15.105469 0.894531 16 2 16 Z M 14 16 "/>
<path fill-rule="nonzero" fill="rgb(0%, 0%, 0%)" fill-opacity="1" d="M 14 16 L 2 16 C 0.894531 16 0 15.105469 0 14 L 0 2 C 0 0.894531 0.894531 0 2 0 L 14 0 C 15.105469 0 16 0.894531 16 2 L 16 14 C 16 15.105469 15.105469 16 14 16 Z M 3.261719 13.5 L 5.289062 13.5 L 5.289062 5.304688 L 10.15625 13.5 L 12.738281 13.5 L 12.738281 2.5 L 10.710938 2.5 L 10.710938 10.644531 L 5.84375 2.5 L 3.261719 2.5 Z M 3.261719 13.5 "/>
</svg>
