<?xml version="1.0" encoding="UTF-8"?>
<svg xmlns="http://www.w3.org/2000/svg" xmlns:xlink="http://www.w3.org/1999/xlink" width="16" height="16" viewBox="0 0 16 16">
<path fill-rule="nonzero" fill="rgb(0%, 0%, 0%)" fill-opacity="1" d="M 16 15.039062 L 16 0.960938 C 16 0.429688 15.570312 0 15.039062 0 L 0.960938 0 C 0.429688 0 0 0.429688 0 0.960938 L 0 15.039062 C 0 15.570312 0.429688 16 0.960938 16 L 15.039062 16 C 15.570312 16 16 15.570312 16 15.039062 Z M 16 15.039062 "/>
<path fill-rule="nonzero" fill="rgb(100%, 100%, 100%)" fill-opacity="1" d="M 15.039062 15.359375 L 0.960938 15.359375 C 0.785156 15.359375 0.640625 15.214844 0.640625 15.039062 L 0.640625 0.960938 C 0.640625 0.785156 0.785156 0.640625 0.960938 0.640625 L 15.039062 0.640625 C 15.214844 0.640625 15.359375 0.785156 15.359375 0.960938 L 15.359375 15.039062 C 15.359375 15.214844 15.214844 15.359375 15.039062 15.359375 Z M 5.699219 7.144531 L 5.683594 7.066406 L 5.679688 7.027344 L 5.648438 6.871094 L 5.636719 6.835938 L 5.625 6.777344 L 5.617188 6.761719 L 5.609375 6.722656 L 5.601562 6.707031 L 5.59375 6.6875 L 5.589844 6.671875 L 5.582031 6.652344 L 5.574219 6.636719 L 5.566406 6.617188 L 5.5625 6.601562 L 5.554688 6.582031 L 5.546875 6.566406 L 5.535156 6.550781 L 5.527344 6.53125 L 5.519531 6.515625 L 5.507812 6.5 L 5.5 6.484375 L 5.488281 6.46875 L 5.480469 6.453125 L 5.457031 6.421875 L 5.449219 6.40625 L 5.402344 6.34375 L 5.390625 6.332031 L 5.378906 6.316406 L 5.363281 6.300781 L 5.339844 6.273438 L 5.3125 6.242188 L 5.285156 6.214844 L 5.261719 6.1875 L 5.230469 6.160156 L 5.203125 6.128906 L 5.148438 6.074219 L 5.109375 6.046875 L 5.074219 6.023438 L 5.035156 6 L 5 5.976562 L 4.960938 5.957031 L 4.925781 5.933594 L 4.890625 5.914062 L 4.851562 5.890625 L 4.835938 5.882812 L 4.816406 5.871094 L 4.796875 5.863281 L 4.78125 5.851562 L 4.722656 5.828125 L 4.707031 5.816406 L 4.628906 5.785156 L 4.609375 5.78125 L 4.59375 5.773438 L 4.574219 5.765625 L 4.554688 5.761719 L 4.535156 5.753906 L 4.515625 5.75 L 4.496094 5.742188 L 4.472656 5.738281 L 4.355469 5.714844 L 4.332031 5.710938 L 4.3125 5.707031 L 4.273438 5.703125 L 4.230469 5.695312 L 4.1875 5.691406 L 4.148438 5.6875 L 4.0625 5.679688 L 4.023438 5.679688 L 3.980469 5.675781 L 3.894531 5.671875 L 3.789062 5.679688 L 3.738281 5.683594 L 3.683594 5.6875 L 3.632812 5.691406 L 3.582031 5.699219 L 3.554688 5.699219 L 3.527344 5.703125 L 3.503906 5.707031 L 3.476562 5.710938 L 3.453125 5.714844 L 3.425781 5.71875 L 3.402344 5.722656 L 3.375 5.730469 L 3.328125 5.738281 L 3.300781 5.746094 L 3.277344 5.75 L 3.253906 5.757812 L 3.226562 5.761719 L 3.109375 5.800781 L 3.085938 5.8125 L 3.0625 5.820312 L 3.039062 5.832031 L 3.015625 5.839844 L 2.996094 5.851562 L 2.949219 5.875 L 2.929688 5.886719 L 2.90625 5.898438 L 2.886719 5.914062 L 2.863281 5.925781 L 2.84375 5.941406 L 2.820312 5.953125 L 2.78125 5.984375 L 2.757812 6 L 2.738281 6.011719 L 2.71875 6.027344 L 2.695312 6.046875 L 2.636719 6.09375 L 2.613281 6.109375 L 2.59375 6.128906 L 2.574219 6.144531 L 2.53125 6.179688 L 2.492188 6.214844 L 2.449219 6.253906 L 2.410156 6.289062 L 2.390625 6.316406 L 2.375 6.339844 L 2.355469 6.367188 L 2.339844 6.390625 L 2.324219 6.417969 L 2.308594 6.441406 L 2.292969 6.46875 L 2.273438 6.492188 L 2.257812 6.515625 L 2.242188 6.542969 L 2.230469 6.566406 L 2.199219 6.613281 L 2.183594 6.640625 L 2.171875 6.664062 L 2.15625 6.6875 L 2.140625 6.714844 L 2.117188 6.761719 L 2.101562 6.785156 L 2.089844 6.8125 L 2.066406 6.859375 L 2.054688 6.886719 L 2.042969 6.910156 L 2.035156 6.9375 L 2.023438 6.960938 L 2.015625 6.988281 L 2.003906 7.011719 L 1.996094 7.039062 L 1.988281 7.0625 L 1.957031 7.171875 L 1.949219 7.195312 L 1.945312 7.222656 L 1.9375 7.25 L 1.933594 7.277344 L 1.925781 7.304688 L 1.910156 7.414062 L 1.90625 7.445312 L 1.890625 7.554688 L 1.890625 7.582031 L 1.882812 7.640625 L 1.878906 7.695312 L 1.875 7.753906 L 1.875 7.8125 L 1.871094 7.867188 L 1.863281 7.984375 L 1.871094 8.097656 L 1.882812 8.273438 L 1.886719 8.328125 L 1.890625 8.386719 L 1.894531 8.414062 L 1.894531 8.445312 L 1.90625 8.527344 L 1.910156 8.558594 L 1.917969 8.613281 L 1.925781 8.640625 L 1.933594 8.695312 L 1.941406 8.722656 L 1.945312 8.75 L 1.960938 8.804688 L 1.964844 8.832031 L 1.980469 8.886719 L 1.992188 8.914062 L 2 8.9375 L 2.007812 8.964844 L 2.019531 8.992188 L 2.027344 9.015625 L 2.050781 9.070312 L 2.074219 9.117188 L 2.085938 9.144531 L 2.097656 9.167969 L 2.109375 9.195312 L 2.121094 9.21875 L 2.136719 9.242188 L 2.148438 9.269531 L 2.164062 9.292969 L 2.175781 9.316406 L 2.191406 9.34375 L 2.222656 9.390625 L 2.238281 9.417969 L 2.269531 9.464844 L 2.285156 9.492188 L 2.300781 9.515625 L 2.316406 9.542969 L 2.332031 9.566406 L 2.351562 9.59375 L 2.367188 9.617188 L 2.382812 9.644531 L 2.402344 9.671875 L 2.417969 9.695312 L 2.460938 9.734375 L 2.503906 9.769531 L 2.542969 9.808594 L 2.585938 9.84375 L 2.605469 9.859375 L 2.625 9.878906 L 2.644531 9.894531 L 2.667969 9.910156 L 2.6875 9.929688 L 2.726562 9.960938 L 2.75 9.976562 L 2.789062 10.007812 L 2.8125 10.023438 L 2.832031 10.039062 L 2.855469 10.050781 L 2.875 10.066406 L 2.898438 10.078125 L 2.917969 10.09375 L 2.941406 10.105469 L 2.960938 10.117188 L 3.03125 10.152344 L 3.050781 10.164062 L 3.074219 10.171875 L 3.097656 10.183594 L 3.121094 10.191406 L 3.144531 10.203125 L 3.167969 10.210938 L 3.195312 10.21875 L 3.242188 10.234375 L 3.265625 10.238281 L 3.292969 10.246094 L 3.316406 10.253906 L 3.339844 10.257812 L 3.367188 10.261719 L 3.390625 10.269531 L 3.417969 10.273438 L 3.441406 10.277344 L 3.496094 10.285156 L 3.519531 10.289062 L 3.546875 10.292969 L 3.570312 10.296875 L 3.597656 10.300781 L 3.652344 10.304688 L 3.703125 10.3125 L 3.757812 10.316406 L 3.808594 10.320312 L 3.914062 10.328125 L 3.984375 10.328125 L 4.050781 10.324219 L 4.085938 10.320312 L 4.117188 10.320312 L 4.1875 10.3125 L 4.21875 10.3125 L 4.253906 10.308594 L 4.285156 10.304688 L 4.320312 10.296875 L 4.351562 10.292969 L 4.386719 10.289062 L 4.449219 10.273438 L 4.46875 10.269531 L 4.546875 10.25 L 4.578125 10.238281 L 4.609375 10.230469 L 4.640625 10.21875 L 4.667969 10.207031 L 4.730469 10.183594 L 4.761719 10.167969 L 4.824219 10.144531 L 4.886719 10.113281 L 4.917969 10.101562 L 4.953125 10.085938 L 5 10.050781 L 5.050781 10.019531 L 5.074219 10.003906 L 5.101562 9.984375 L 5.125 9.96875 L 5.148438 9.949219 L 5.171875 9.933594 L 5.21875 9.894531 L 5.238281 9.875 L 5.261719 9.855469 L 5.28125 9.835938 L 5.292969 9.828125 L 5.304688 9.816406 L 5.3125 9.804688 L 5.324219 9.796875 L 5.332031 9.785156 L 5.34375 9.773438 L 5.351562 9.761719 L 5.371094 9.742188 L 5.378906 9.730469 L 5.398438 9.707031 L 5.429688 9.660156 L 5.445312 9.632812 L 5.460938 9.609375 L 5.476562 9.582031 L 5.492188 9.558594 L 5.507812 9.53125 L 5.523438 9.507812 L 5.539062 9.480469 L 5.550781 9.453125 L 5.582031 9.402344 L 5.585938 9.382812 L 5.59375 9.363281 L 5.601562 9.347656 L 5.605469 9.332031 L 5.613281 9.3125 L 5.621094 9.296875 L 5.632812 9.265625 L 5.640625 9.230469 L 5.652344 9.199219 L 5.65625 9.183594 L 5.660156 9.164062 L 5.667969 9.148438 L 5.671875 9.132812 L 5.675781 9.113281 L 5.679688 9.097656 L 5.683594 9.078125 L 5.6875 9.0625 L 5.691406 9.027344 L 5.699219 8.992188 L 5.703125 8.957031 L 5.710938 8.921875 L 5.71875 8.851562 L 4.859375 8.851562 L 4.835938 8.914062 L 4.820312 8.949219 L 4.785156 9.042969 L 4.769531 9.074219 L 4.757812 9.105469 L 4.734375 9.152344 L 4.730469 9.164062 L 4.707031 9.210938 L 4.699219 9.222656 L 4.6875 9.238281 L 4.679688 9.25 L 4.664062 9.28125 L 4.652344 9.292969 L 4.644531 9.304688 L 4.632812 9.320312 L 4.621094 9.332031 L 4.613281 9.34375 L 4.558594 9.398438 L 4.550781 9.402344 L 4.546875 9.410156 L 4.539062 9.414062 L 4.53125 9.421875 L 4.523438 9.425781 L 4.515625 9.433594 L 4.507812 9.4375 L 4.5 9.445312 L 4.488281 9.449219 L 4.480469 9.453125 L 4.472656 9.460938 L 4.460938 9.464844 L 4.453125 9.472656 L 4.429688 9.480469 L 4.421875 9.488281 L 4.386719 9.5 L 4.375 9.507812 L 4.363281 9.511719 L 4.335938 9.519531 L 4.289062 9.535156 L 4.261719 9.542969 L 4.238281 9.546875 L 4.210938 9.554688 L 4.183594 9.558594 L 4.15625 9.566406 L 4.046875 9.582031 L 3.992188 9.59375 L 3.9375 9.601562 L 3.871094 9.59375 L 3.746094 9.578125 L 3.710938 9.574219 L 3.679688 9.566406 L 3.652344 9.5625 L 3.527344 9.53125 L 3.511719 9.523438 L 3.496094 9.519531 L 3.484375 9.511719 L 3.46875 9.507812 L 3.453125 9.5 L 3.4375 9.496094 L 3.425781 9.488281 L 3.410156 9.480469 L 3.398438 9.472656 L 3.382812 9.464844 L 3.371094 9.457031 L 3.355469 9.449219 L 3.34375 9.4375 L 3.328125 9.429688 L 3.316406 9.421875 L 3.304688 9.410156 L 3.289062 9.402344 L 3.277344 9.390625 L 3.265625 9.382812 L 3.242188 9.359375 L 3.226562 9.351562 L 3.085938 9.210938 L 3.039062 9.160156 L 3.015625 9.121094 L 2.898438 8.910156 L 2.882812 8.875 L 2.867188 8.84375 L 2.859375 8.824219 L 2.851562 8.808594 L 2.84375 8.789062 L 2.828125 8.757812 L 2.820312 8.738281 L 2.8125 8.722656 L 2.808594 8.703125 L 2.800781 8.6875 L 2.796875 8.667969 L 2.789062 8.648438 L 2.785156 8.632812 L 2.777344 8.613281 L 2.773438 8.59375 L 2.769531 8.578125 L 2.761719 8.539062 L 2.757812 8.523438 L 2.742188 8.445312 L 2.738281 8.429688 L 2.734375 8.410156 L 2.714844 8.214844 L 2.714844 8.179688 L 2.710938 8.140625 L 2.710938 8.101562 L 2.707031 8.0625 L 2.703125 7.984375 L 2.707031 7.90625 L 2.710938 7.867188 L 2.710938 7.828125 L 2.714844 7.792969 L 2.714844 7.753906 L 2.722656 7.675781 L 2.726562 7.640625 L 2.730469 7.601562 L 2.734375 7.566406 L 2.742188 7.527344 L 2.742188 7.507812 L 2.746094 7.492188 L 2.753906 7.453125 L 2.757812 7.4375 L 2.765625 7.398438 L 2.769531 7.382812 L 2.777344 7.363281 L 2.78125 7.347656 L 2.785156 7.328125 L 2.792969 7.308594 L 2.796875 7.292969 L 2.804688 7.277344 L 2.8125 7.257812 L 2.816406 7.242188 L 2.824219 7.222656 L 2.839844 7.191406 L 2.84375 7.171875 L 2.859375 7.140625 L 2.875 7.105469 L 2.894531 7.070312 L 2.910156 7.035156 L 2.929688 7.003906 L 3.027344 6.828125 L 3.074219 6.777344 L 3.09375 6.753906 L 3.164062 6.683594 L 3.1875 6.664062 L 3.222656 6.628906 L 3.234375 6.621094 L 3.246094 6.609375 L 3.257812 6.601562 L 3.269531 6.589844 L 3.28125 6.582031 L 3.292969 6.570312 L 3.308594 6.5625 L 3.320312 6.554688 L 3.332031 6.542969 L 3.34375 6.535156 L 3.359375 6.527344 L 3.382812 6.511719 L 3.398438 6.507812 L 3.410156 6.5 L 3.425781 6.492188 L 3.4375 6.488281 L 3.453125 6.480469 L 3.464844 6.476562 L 3.480469 6.46875 L 3.492188 6.464844 L 3.539062 6.453125 L 3.550781 6.445312 L 3.582031 6.4375 L 3.597656 6.4375 L 3.644531 6.425781 L 3.671875 6.421875 L 3.703125 6.414062 L 3.734375 6.410156 L 3.769531 6.40625 L 3.832031 6.398438 L 3.894531 6.394531 L 3.972656 6.402344 L 4.007812 6.410156 L 4.046875 6.414062 L 4.082031 6.421875 L 4.121094 6.425781 L 4.15625 6.433594 L 4.195312 6.441406 L 4.210938 6.445312 L 4.230469 6.449219 L 4.246094 6.453125 L 4.265625 6.460938 L 4.296875 6.46875 L 4.316406 6.476562 L 4.332031 6.480469 L 4.347656 6.488281 L 4.363281 6.492188 L 4.410156 6.515625 L 4.425781 6.519531 L 4.441406 6.53125 L 4.488281 6.554688 L 4.5 6.566406 L 4.515625 6.578125 L 4.53125 6.585938 L 4.539062 6.59375 L 4.542969 6.601562 L 4.550781 6.605469 L 4.566406 6.621094 L 4.574219 6.625 L 4.589844 6.640625 L 4.59375 6.648438 L 4.601562 6.65625 L 4.609375 6.667969 L 4.632812 6.691406 L 4.644531 6.710938 L 4.660156 6.730469 L 4.671875 6.75 L 4.683594 6.773438 L 4.699219 6.792969 L 4.710938 6.8125 L 4.734375 6.859375 L 4.746094 6.878906 L 4.757812 6.902344 L 4.765625 6.925781 L 4.789062 6.972656 L 4.796875 6.996094 L 4.820312 7.046875 L 4.839844 7.09375 L 4.859375 7.144531 Z M 10.5625 10.238281 L 12.792969 10.238281 L 12.832031 10.234375 L 12.851562 10.234375 L 12.871094 10.230469 L 12.90625 10.230469 L 12.976562 10.222656 L 12.996094 10.222656 L 13.015625 10.21875 L 13.03125 10.21875 L 13.050781 10.214844 L 13.070312 10.214844 L 13.109375 10.207031 L 13.128906 10.207031 L 13.167969 10.195312 L 13.207031 10.1875 L 13.242188 10.179688 L 13.28125 10.167969 L 13.296875 10.164062 L 13.316406 10.160156 L 13.335938 10.152344 L 13.351562 10.148438 L 13.390625 10.132812 L 13.40625 10.125 L 13.425781 10.121094 L 13.457031 10.105469 L 13.476562 10.09375 L 13.523438 10.070312 L 13.542969 10.058594 L 13.558594 10.050781 L 13.589844 10.027344 L 13.621094 10.007812 L 13.65625 9.988281 L 13.6875 9.964844 L 13.769531 9.882812 L 13.792969 9.855469 L 13.820312 9.824219 L 13.84375 9.796875 L 13.855469 9.785156 L 13.867188 9.769531 L 13.878906 9.757812 L 13.890625 9.742188 L 13.902344 9.730469 L 13.910156 9.714844 L 13.921875 9.699219 L 13.933594 9.6875 L 13.941406 9.671875 L 13.953125 9.660156 L 13.960938 9.644531 L 13.972656 9.628906 L 13.980469 9.613281 L 13.988281 9.601562 L 13.996094 9.585938 L 14.007812 9.570312 L 14.015625 9.554688 L 14.019531 9.539062 L 14.042969 9.492188 L 14.046875 9.476562 L 14.054688 9.457031 L 14.058594 9.441406 L 14.066406 9.425781 L 14.070312 9.410156 L 14.074219 9.390625 L 14.082031 9.359375 L 14.085938 9.339844 L 14.09375 9.308594 L 14.097656 9.289062 L 14.101562 9.273438 L 14.105469 9.253906 L 14.105469 9.238281 L 14.113281 9.199219 L 14.125 9.09375 L 14.125 9.054688 L 14.128906 9.019531 L 14.136719 8.945312 L 14.132812 8.890625 L 14.128906 8.832031 L 14.125 8.804688 L 14.125 8.777344 L 14.101562 8.613281 L 14.09375 8.589844 L 14.09375 8.574219 L 14.089844 8.5625 L 14.085938 8.546875 L 14.074219 8.511719 L 14.070312 8.496094 L 14.066406 8.484375 L 14.058594 8.472656 L 14.050781 8.449219 L 14.042969 8.433594 L 14.039062 8.421875 L 14.03125 8.410156 L 14.027344 8.398438 L 14.019531 8.386719 L 14.007812 8.363281 L 13.992188 8.339844 L 13.980469 8.316406 L 13.917969 8.222656 L 13.898438 8.199219 L 13.882812 8.175781 L 13.863281 8.152344 L 13.847656 8.128906 L 13.828125 8.113281 L 13.8125 8.101562 L 13.800781 8.089844 L 13.753906 8.054688 L 13.738281 8.046875 L 13.726562 8.035156 L 13.710938 8.023438 L 13.695312 8.015625 L 13.683594 8.003906 L 13.652344 7.988281 L 13.636719 7.976562 L 13.605469 7.960938 L 13.585938 7.953125 L 13.554688 7.9375 L 13.535156 7.929688 L 13.519531 7.921875 L 13.503906 7.917969 L 13.484375 7.910156 L 13.46875 7.90625 L 13.429688 7.890625 L 13.394531 7.882812 L 13.324219 7.859375 L 13.386719 7.832031 L 13.417969 7.816406 L 13.445312 7.800781 L 13.507812 7.769531 L 13.519531 7.761719 L 13.550781 7.746094 L 13.5625 7.734375 L 13.578125 7.726562 L 13.589844 7.71875 L 13.605469 7.707031 L 13.617188 7.699219 L 13.628906 7.6875 L 13.640625 7.679688 L 13.664062 7.65625 L 13.675781 7.648438 L 13.710938 7.613281 L 13.726562 7.601562 L 13.738281 7.589844 L 13.75 7.574219 L 13.761719 7.5625 L 13.777344 7.542969 L 13.789062 7.523438 L 13.796875 7.507812 L 13.820312 7.46875 L 13.832031 7.453125 L 13.839844 7.433594 L 13.851562 7.417969 L 13.859375 7.398438 L 13.871094 7.378906 L 13.878906 7.363281 L 13.894531 7.324219 L 13.902344 7.308594 L 13.90625 7.289062 L 13.914062 7.269531 L 13.917969 7.25 L 13.925781 7.230469 L 13.929688 7.207031 L 13.9375 7.167969 L 13.9375 7.148438 L 13.941406 7.125 L 13.945312 7.105469 L 13.945312 7.085938 L 13.949219 7.0625 L 13.949219 7.042969 L 13.953125 7.023438 L 13.953125 6.980469 L 13.957031 6.9375 L 13.953125 6.867188 L 13.949219 6.835938 L 13.941406 6.765625 L 13.941406 6.734375 L 13.9375 6.699219 L 13.929688 6.667969 L 13.925781 6.632812 L 13.921875 6.617188 L 13.921875 6.601562 L 13.910156 6.554688 L 13.90625 6.535156 L 13.894531 6.488281 L 13.886719 6.472656 L 13.882812 6.457031 L 13.875 6.441406 L 13.871094 6.425781 L 13.855469 6.394531 L 13.851562 6.382812 L 13.828125 6.335938 L 13.816406 6.324219 L 13.808594 6.308594 L 13.800781 6.296875 L 13.789062 6.28125 L 13.78125 6.269531 L 13.769531 6.253906 L 13.761719 6.242188 L 13.75 6.226562 L 13.726562 6.203125 L 13.714844 6.1875 L 13.691406 6.164062 L 13.679688 6.148438 L 13.617188 6.085938 L 13.5625 6.039062 L 13.535156 6.011719 L 13.507812 5.988281 L 13.488281 5.980469 L 13.472656 5.972656 L 13.433594 5.957031 L 13.417969 5.949219 L 13.398438 5.941406 L 13.382812 5.933594 L 13.363281 5.925781 L 13.328125 5.910156 L 13.296875 5.898438 L 13.261719 5.886719 L 13.226562 5.871094 L 13.195312 5.859375 L 13.160156 5.851562 L 13.128906 5.839844 L 13.09375 5.828125 L 13.078125 5.824219 L 13.058594 5.820312 L 13.042969 5.816406 L 13.023438 5.8125 L 13.007812 5.808594 L 12.988281 5.804688 L 12.972656 5.800781 L 12.953125 5.796875 L 12.9375 5.792969 L 12.917969 5.792969 L 12.882812 5.785156 L 12.84375 5.78125 L 12.808594 5.777344 L 12.769531 5.773438 L 12.734375 5.769531 L 12.695312 5.769531 L 12.660156 5.765625 L 12.621094 5.765625 L 12.585938 5.761719 L 10.5625 5.761719 Z M 6.023438 10.238281 L 6.894531 10.238281 L 7.164062 9.40625 L 8.925781 9.40625 L 9.171875 10.238281 L 10.039062 10.238281 L 8.644531 5.761719 L 7.507812 5.761719 Z M 6.023438 10.238281 "/>
<path fill-rule="nonzero" fill="rgb(100%, 100%, 100%)" fill-opacity="1" d="M 12.359375 8.230469 L 12.5 8.230469 L 12.535156 8.234375 L 12.585938 8.234375 L 12.605469 8.238281 L 12.640625 8.238281 L 12.65625 8.242188 L 12.671875 8.242188 L 12.703125 8.25 L 12.71875 8.25 L 12.78125 8.265625 L 12.796875 8.265625 L 12.84375 8.277344 L 12.859375 8.285156 L 12.878906 8.289062 L 12.894531 8.292969 L 12.949219 8.320312 L 12.972656 8.335938 L 13 8.351562 L 13.09375 8.414062 L 13.113281 8.433594 L 13.125 8.441406 L 13.160156 8.476562 L 13.167969 8.488281 L 13.191406 8.511719 L 13.195312 8.523438 L 13.203125 8.53125 L 13.207031 8.539062 L 13.214844 8.550781 L 13.21875 8.558594 L 13.222656 8.570312 L 13.230469 8.585938 L 13.234375 8.597656 L 13.238281 8.605469 L 13.246094 8.628906 L 13.25 8.636719 L 13.257812 8.660156 L 13.265625 8.699219 L 13.273438 8.746094 L 13.277344 8.765625 L 13.289062 8.835938 L 13.289062 8.859375 L 13.296875 8.90625 L 13.289062 8.976562 L 13.289062 8.996094 L 13.285156 9.015625 L 13.285156 9.03125 L 13.28125 9.050781 L 13.28125 9.066406 L 13.277344 9.085938 L 13.269531 9.117188 L 13.265625 9.136719 L 13.257812 9.152344 L 13.253906 9.167969 L 13.222656 9.230469 L 13.214844 9.242188 L 13.207031 9.257812 L 13.195312 9.269531 L 13.1875 9.285156 L 13.164062 9.308594 L 13.152344 9.324219 L 13.140625 9.335938 L 13.128906 9.351562 L 13.117188 9.363281 L 13.101562 9.375 L 13.089844 9.390625 L 13.074219 9.402344 L 13.035156 9.425781 L 13.011719 9.4375 L 12.992188 9.445312 L 12.972656 9.457031 L 12.933594 9.472656 L 12.914062 9.484375 L 12.855469 9.507812 L 12.835938 9.511719 L 12.796875 9.527344 L 12.738281 9.539062 L 12.714844 9.542969 L 12.675781 9.550781 L 12.652344 9.554688 L 12.632812 9.554688 L 12.609375 9.558594 L 12.589844 9.558594 L 12.566406 9.5625 L 12.5 9.5625 L 12.457031 9.566406 L 11.390625 9.566406 L 11.390625 8.230469 Z M 12.359375 8.230469 "/>
<path fill-rule="nonzero" fill="rgb(100%, 100%, 100%)" fill-opacity="1" d="M 12.3125 6.414062 L 12.457031 6.414062 L 12.480469 6.417969 L 12.519531 6.417969 L 12.539062 6.421875 L 12.5625 6.421875 L 12.699219 6.449219 L 12.71875 6.457031 L 12.734375 6.460938 L 12.773438 6.476562 L 12.789062 6.484375 L 12.808594 6.492188 L 12.824219 6.5 L 12.84375 6.507812 L 12.859375 6.519531 L 12.878906 6.527344 L 12.898438 6.539062 L 12.917969 6.546875 L 12.9375 6.558594 L 12.972656 6.59375 L 12.980469 6.605469 L 12.992188 6.621094 L 13.003906 6.632812 L 13.011719 6.644531 L 13.023438 6.65625 L 13.039062 6.679688 L 13.050781 6.691406 L 13.058594 6.707031 L 13.066406 6.71875 L 13.070312 6.730469 L 13.078125 6.746094 L 13.085938 6.757812 L 13.089844 6.773438 L 13.097656 6.789062 L 13.101562 6.800781 L 13.113281 6.847656 L 13.113281 6.863281 L 13.121094 6.894531 L 13.121094 6.910156 L 13.125 6.925781 L 13.125 6.941406 L 13.128906 6.972656 L 13.128906 7.039062 L 13.125 7.074219 L 13.125 7.089844 L 13.121094 7.109375 L 13.121094 7.125 L 13.117188 7.140625 L 13.117188 7.15625 L 13.113281 7.171875 L 13.109375 7.191406 L 13.097656 7.238281 L 13.089844 7.253906 L 13.085938 7.269531 L 13.070312 7.300781 L 13.0625 7.3125 L 13.054688 7.328125 L 13.042969 7.339844 L 13.035156 7.355469 L 13.011719 7.378906 L 13 7.394531 L 12.964844 7.429688 L 12.949219 7.441406 L 12.9375 7.453125 L 12.925781 7.46875 L 12.910156 7.480469 L 12.871094 7.496094 L 12.855469 7.503906 L 12.835938 7.511719 L 12.820312 7.519531 L 12.800781 7.527344 L 12.785156 7.53125 L 12.769531 7.539062 L 12.75 7.546875 L 12.71875 7.554688 L 12.699219 7.5625 L 12.683594 7.566406 L 12.664062 7.570312 L 12.648438 7.574219 L 12.609375 7.582031 L 12.589844 7.582031 L 12.570312 7.585938 L 12.554688 7.589844 L 12.535156 7.589844 L 12.515625 7.59375 L 12.457031 7.59375 L 12.4375 7.597656 L 11.390625 7.597656 L 11.390625 6.414062 Z M 12.3125 6.414062 "/>
<path fill-rule="nonzero" fill="rgb(100%, 100%, 100%)" fill-opacity="1" d="M 8.710938 8.699219 L 7.382812 8.699219 L 8.050781 6.59375 Z M 8.710938 8.699219 "/>
<path fill-rule="nonzero" fill="rgb(0%, 0%, 0%)" fill-opacity="1" d="M 15.039062 16 L 0.960938 16 C 0.429688 16 0 15.570312 0 15.039062 L 0 0.960938 C 0 0.429688 0.429688 0 0.960938 0 L 15.039062 0 C 15.570312 0 16 0.429688 16 0.960938 L 16 15.039062 C 16 15.570312 15.570312 16 15.039062 16 Z M 15.359375 15.039062 L 15.359375 0.960938 C 15.359375 0.785156 15.214844 0.640625 15.039062 0.640625 L 0.960938 0.640625 C 0.785156 0.640625 0.640625 0.785156 0.640625 0.960938 L 0.640625 15.039062 C 0.640625 15.214844 0.785156 15.359375 0.960938 15.359375 L 15.039062 15.359375 C 15.214844 15.359375 15.359375 15.214844 15.359375 15.039062 Z M 15.359375 15.039062 "/>
</svg>
