<?xml version="1.0" encoding="UTF-8"?>
<svg xmlns="http://www.w3.org/2000/svg" xmlns:xlink="http://www.w3.org/1999/xlink" width="16" height="13.436236" viewBox="0 0 16 13.436236">
<path fill-rule="nonzero" fill="rgb(100%, 100%, 100%)" fill-opacity="1" d="M 9.671875 13.210938 L 15.792969 7.214844 C 16.070312 6.941406 16.070312 6.492188 15.792969 6.222656 L 9.671875 0.226562 C 9.523438 0.0820312 9.324219 0 9.117188 0 L 0.796875 0 C 0.355469 0 0 0.355469 0 0.796875 L 0 12.640625 C 0 13.082031 0.355469 13.4375 0.796875 13.4375 L 9.117188 13.4375 C 9.324219 13.4375 9.523438 13.355469 9.671875 13.210938 Z M 9.671875 13.210938 "/>
<path fill-rule="nonzero" fill="rgb(54.901961%, 30.980392%, 60.784314%)" fill-opacity="1" d="M 15.792969 7.214844 C 15.925781 7.085938 16 6.90625 16 6.71875 C 16 6.53125 15.925781 6.351562 15.792969 6.222656 L 9.671875 0.226562 C 9.523438 0.0820312 9.324219 0 9.117188 0 L 6.855469 0 L 13.714844 6.71875 L 6.855469 13.4375 L 9.117188 13.4375 C 9.324219 13.4375 9.523438 13.355469 9.671875 13.210938 Z M 15.792969 7.214844 "/>
<path fill-rule="nonzero" fill="rgb(54.901961%, 30.980392%, 60.784314%)" fill-opacity="1" d="M 11.128906 6.71875 L 4.273438 0 L 0.796875 0 C 0.355469 0 0 0.355469 0 0.796875 L 0 12.640625 C 0 13.082031 0.355469 13.4375 0.796875 13.4375 L 4.273438 13.4375 Z M 11.128906 6.71875 "/>
</svg>
