<?xml version="1.0" encoding="UTF-8"?>
<svg xmlns="http://www.w3.org/2000/svg" xmlns:xlink="http://www.w3.org/1999/xlink" width="16" height="5.33334" viewBox="0 0 16 5.33334">
<path fill-rule="nonzero" fill="rgb(100%, 100%, 100%)" fill-opacity="1" d="M 16 4.890625 C 16 5.132812 15.800781 5.332031 15.554688 5.332031 L 0.445312 5.332031 C 0.199219 5.332031 0 5.132812 0 4.890625 L 0 0.445312 C 0 0.199219 0.199219 0 0.445312 0 L 15.554688 0 C 15.800781 0 16 0.199219 16 0.445312 Z M 16 4.890625 "/>
<path fill-rule="nonzero" fill="rgb(0%, 0%, 0%)" fill-opacity="1" d="M 7.792969 3.34375 C 7.789062 3.332031 7.789062 3.320312 7.789062 3.308594 C 7.789062 3.292969 7.789062 3.28125 7.789062 3.269531 C 7.789062 3.078125 7.828125 2.921875 7.902344 2.796875 C 7.976562 2.671875 8.085938 2.550781 8.238281 2.433594 C 8.382812 2.320312 8.488281 2.21875 8.558594 2.125 C 8.632812 2.03125 8.667969 1.914062 8.667969 1.777344 C 8.667969 1.625 8.617188 1.496094 8.511719 1.394531 C 8.40625 1.292969 8.242188 1.242188 8.023438 1.242188 C 7.804688 1.242188 7.632812 1.300781 7.507812 1.414062 C 7.382812 1.527344 7.320312 1.6875 7.320312 1.894531 L 6.878906 1.894531 C 6.878906 1.679688 6.925781 1.496094 7.023438 1.347656 C 7.121094 1.195312 7.257812 1.082031 7.429688 1.003906 C 7.601562 0.921875 7.800781 0.882812 8.023438 0.882812 C 8.246094 0.882812 8.441406 0.917969 8.605469 0.992188 C 8.769531 1.0625 8.898438 1.164062 8.988281 1.300781 C 9.078125 1.429688 9.121094 1.589844 9.121094 1.777344 C 9.121094 1.917969 9.097656 2.039062 9.050781 2.144531 C 9.007812 2.242188 8.941406 2.335938 8.859375 2.421875 C 8.777344 2.503906 8.675781 2.589844 8.5625 2.675781 C 8.464844 2.753906 8.386719 2.824219 8.335938 2.890625 C 8.285156 2.957031 8.25 3.027344 8.230469 3.097656 C 8.210938 3.171875 8.195312 3.25 8.191406 3.34375 Z M 7.996094 4.449219 C 7.902344 4.449219 7.824219 4.417969 7.761719 4.355469 C 7.699219 4.292969 7.667969 4.214844 7.667969 4.121094 C 7.667969 4.027344 7.699219 3.953125 7.761719 3.890625 C 7.824219 3.828125 7.902344 3.800781 7.996094 3.800781 C 8.09375 3.800781 8.171875 3.828125 8.234375 3.890625 C 8.296875 3.953125 8.332031 4.027344 8.332031 4.121094 C 8.332031 4.214844 8.296875 4.292969 8.234375 4.355469 C 8.171875 4.417969 8.09375 4.449219 7.996094 4.449219 Z M 7.996094 4.449219 "/>
</svg>
