<?xml version="1.0" encoding="UTF-8"?>
<svg xmlns="http://www.w3.org/2000/svg" xmlns:xlink="http://www.w3.org/1999/xlink" width="16" height="13.436236" viewBox="0 0 16 13.436236">
<path fill-rule="nonzero" fill="rgb(100%, 100%, 100%)" fill-opacity="1" d="M 6.328125 0.226562 L 0.207031 6.222656 C -0.0703125 6.492188 -0.0703125 6.941406 0.207031 7.214844 L 6.328125 13.210938 C 6.476562 13.355469 6.675781 13.4375 6.882812 13.4375 L 15.203125 13.4375 C 15.644531 13.4375 16 13.082031 16 12.640625 L 16 0.796875 C 16 0.355469 15.644531 0 15.203125 0 L 6.882812 0 C 6.675781 0 6.476562 0.0820312 6.328125 0.226562 Z M 6.328125 0.226562 "/>
<path fill-rule="nonzero" fill="rgb(54.901961%, 30.980392%, 60.784314%)" fill-opacity="1" d="M 0.207031 6.222656 C 0.0742188 6.351562 0 6.53125 0 6.71875 C 0 6.90625 0.0742188 7.085938 0.207031 7.214844 L 6.328125 13.210938 C 6.476562 13.355469 6.675781 13.4375 6.882812 13.4375 L 9.144531 13.4375 L 2.285156 6.71875 L 9.144531 0 L 6.882812 0 C 6.675781 0 6.476562 0.0820312 6.328125 0.226562 Z M 0.207031 6.222656 "/>
<path fill-rule="nonzero" fill="rgb(54.901961%, 30.980392%, 60.784314%)" fill-opacity="1" d="M 4.871094 6.71875 L 11.726562 13.4375 L 15.203125 13.4375 C 15.644531 13.4375 16 13.082031 16 12.640625 L 16 0.796875 C 16 0.355469 15.644531 0 15.203125 0 L 11.726562 0 Z M 4.871094 6.71875 "/>
</svg>
