<?xml version="1.0" encoding="UTF-8"?>
<svg xmlns="http://www.w3.org/2000/svg" xmlns:xlink="http://www.w3.org/1999/xlink" width="16" height="19.052955" viewBox="0 0 16 19.052955">
<path fill-rule="nonzero" fill="rgb(100%, 100%, 100%)" fill-opacity="1" d="M 0.269531 11.519531 L 7.410156 18.804688 C 7.734375 19.136719 8.265625 19.136719 8.589844 18.804688 L 15.730469 11.519531 C 15.902344 11.339844 16 11.105469 16 10.855469 L 16 0.945312 C 16 0.425781 15.574219 0 15.054688 0 L 0.945312 0 C 0.425781 0 0 0.425781 0 0.945312 L 0 10.855469 C 0 11.105469 0.0976562 11.339844 0.269531 11.519531 Z M 0.269531 11.519531 "/>
<path fill-rule="nonzero" fill="rgb(54.901961%, 30.980392%, 60.784314%)" fill-opacity="1" d="M 7.410156 18.804688 C 7.5625 18.964844 7.777344 19.054688 8 19.054688 C 8.222656 19.054688 8.4375 18.964844 8.589844 18.804688 L 15.730469 11.519531 C 15.902344 11.339844 16 11.105469 16 10.855469 L 16 8.164062 L 8 16.332031 L 0 8.164062 L 0 10.855469 C 0 11.105469 0.0976562 11.339844 0.269531 11.519531 Z M 7.410156 18.804688 "/>
<path fill-rule="nonzero" fill="rgb(54.901961%, 30.980392%, 60.784314%)" fill-opacity="1" d="M 8 13.253906 L 16 5.089844 L 16 0.945312 C 16 0.425781 15.574219 0 15.054688 0 L 0.945312 0 C 0.425781 0 0 0.425781 0 0.945312 L 0 5.089844 Z M 8 13.253906 "/>
</svg>
