<?xml version="1.0" encoding="UTF-8"?>
<svg xmlns="http://www.w3.org/2000/svg" xmlns:xlink="http://www.w3.org/1999/xlink" width="16" height="16" viewBox="0 0 16 16">
<path fill-rule="nonzero" fill="rgb(91.372549%, 67.843137%, 4.705882%)" fill-opacity="1" d="M 0.78125 0 C 0.347656 0 0 0.347656 0 0.78125 L 0 15.21875 C 0 15.652344 0.347656 16 0.78125 16 L 15.21875 16 C 15.652344 16 16 15.652344 16 15.21875 L 16 0.78125 C 16 0.347656 15.652344 0 15.21875 0 Z M 0.78125 0 "/>
<path fill-rule="nonzero" fill="rgb(100%, 100%, 100%)" fill-opacity="1" d="M 0.871094 0 L 0.78125 0 C 0.535156 0 0.304688 0.117188 0.15625 0.3125 L 8 16 L 15.84375 0.3125 C 15.695312 0.117188 15.464844 0 15.21875 0 L 15.128906 0 L 8 14.253906 Z M 0.871094 0 "/>
<path fill-rule="nonzero" fill="rgb(0%, 21.960784%, 61.176471%)" fill-opacity="1" d="M 16 0.78125 C 16 0.613281 15.945312 0.449219 15.84375 0.3125 L 8 16 L 15.21875 16 C 15.652344 16 16 15.652344 16 15.21875 Z M 16 0.78125 "/>
<path fill-rule="nonzero" fill="rgb(0%, 21.960784%, 61.176471%)" fill-opacity="1" d="M 0 0.78125 L 0 15.21875 C 0 15.652344 0.347656 16 0.78125 16 L 8 16 L 0.15625 0.3125 C 0.0546875 0.449219 0 0.613281 0 0.78125 Z M 0 0.78125 "/>
</svg>
