<?xml version="1.0" encoding="UTF-8"?>
<svg xmlns="http://www.w3.org/2000/svg" xmlns:xlink="http://www.w3.org/1999/xlink" width="16" height="16" viewBox="0 0 16 16">
<path fill-rule="nonzero" fill="rgb(91.372549%, 67.843137%, 4.705882%)" fill-opacity="1" d="M 16 0.78125 C 16 0.347656 15.652344 0 15.21875 0 L 0.78125 0 C 0.347656 0 0 0.347656 0 0.78125 L 0 15.21875 C 0 15.652344 0.347656 16 0.78125 16 L 15.21875 16 C 15.652344 16 16 15.652344 16 15.21875 Z M 16 0.78125 "/>
<path fill-rule="nonzero" fill="rgb(100%, 100%, 100%)" fill-opacity="1" d="M 16 0.871094 L 16 0.78125 C 16 0.535156 15.882812 0.304688 15.6875 0.15625 L 0 8 L 15.6875 15.84375 C 15.882812 15.695312 16 15.464844 16 15.21875 L 16 15.128906 L 1.746094 8 Z M 16 0.871094 "/>
<path fill-rule="nonzero" fill="rgb(0%, 21.960784%, 61.176471%)" fill-opacity="1" d="M 15.21875 16 C 15.386719 16 15.550781 15.945312 15.6875 15.84375 L 0 8 L 0 15.21875 C 0 15.652344 0.347656 16 0.78125 16 Z M 15.21875 16 "/>
<path fill-rule="nonzero" fill="rgb(0%, 21.960784%, 61.176471%)" fill-opacity="1" d="M 15.21875 0 L 0.78125 0 C 0.347656 0 0 0.347656 0 0.78125 L 0 8 L 15.6875 0.15625 C 15.550781 0.0546875 15.386719 0 15.21875 0 Z M 15.21875 0 "/>
</svg>
