<svg width="8.449" height="28" version="1.1" viewBox="0 0 8.449 28" xmlns="http://www.w3.org/2000/svg">
 <path d="m0 4.18h8.449v19.64h-8.449z" fill="#262626"/>
 <path d="m8.449 23.82c0 2.309-1.891 4.18-4.223 4.18-2.336 0-4.227-1.871-4.227-4.18 0-2.309 1.891-4.184 4.227-4.184 2.332 0 4.223 1.875 4.223 4.184z" fill="#262626"/>
 <path d="m8.449 4.18c0 2.309-1.891 4.184-4.223 4.184-2.336 0-4.227-1.875-4.227-4.184 0-2.309 1.891-4.18 4.227-4.18 2.332 0 4.223 1.871 4.223 4.18z" fill="#262626"/>
 <path d="m5.906 18.91c0 0.9297-0.75 1.68-1.684 1.68-0.9297 0-1.68-0.75-1.68-1.68 0-0.9297 0.75-1.684 1.68-1.684 0.9336 0 1.684 0.7539 1.684 1.684z" fill="#ffb200"/>
 <path d="m5.906 23.82c0 0.9258-0.75 1.68-1.684 1.68-0.9297 0-1.68-0.7539-1.68-1.68 0-0.9297 0.75-1.684 1.68-1.684 0.9336 0 1.684 0.7539 1.684 1.684z" fill="#0d0d0d"/>
 <path d="m5.906 14c0 0.9297-0.75 1.684-1.684 1.684-0.9297 0-1.68-0.7539-1.68-1.684s0.75-1.684 1.68-1.684c0.9336 0 1.684 0.7539 1.684 1.684z" fill="#0d0d0d"/>
 <path d="m5.906 4.18c0 0.9297-0.75 1.684-1.684 1.684-0.9297 0-1.684-0.7539-1.684-1.684 0-0.9258 0.7539-1.68 1.684-1.68 0.9336 0 1.684 0.7539 1.684 1.68z" fill="#0e0e0e"/>
 <path d="m5.906 9.09c0 0.9297-0.75 1.684-1.684 1.684-0.9297 0-1.684-0.7539-1.684-1.684 0-0.9297 0.7539-1.68 1.684-1.68 0.9336 0 1.684 0.75 1.684 1.68z" fill="#ffb200"/>
</svg>
