<?xml version="1.0" encoding="UTF-8"?>
<svg xmlns="http://www.w3.org/2000/svg" xmlns:xlink="http://www.w3.org/1999/xlink" width="10" height="21.234008" viewBox="0 0 10 21.234008">
<path fill-rule="nonzero" fill="rgb(5.882353%, 5.882353%, 5.882353%)" fill-opacity="1" d="M 0 4.945312 L 10 4.945312 L 10 16.570312 L 0 16.570312 Z M 0 4.945312 "/>
<path fill-rule="nonzero" fill="rgb(5.882353%, 5.882353%, 5.882353%)" fill-opacity="1" d="M 10 16.289062 C 10 19.019531 7.757812 21.230469 5.003906 21.230469 C 2.242188 21.230469 0 19.019531 0 16.289062 C 0 13.554688 2.242188 11.339844 5.003906 11.339844 C 7.757812 11.339844 10 13.554688 10 16.289062 Z M 10 16.289062 "/>
<path fill-rule="nonzero" fill="rgb(5.882353%, 5.882353%, 5.882353%)" fill-opacity="1" d="M 10 4.945312 C 10 7.679688 7.757812 9.898438 5.003906 9.898438 C 2.242188 9.898438 0 7.679688 0 4.945312 C 0 2.210938 2.242188 0 5.003906 0 C 7.757812 0 10 2.210938 10 4.945312 Z M 10 4.945312 "/>
<path fill-rule="nonzero" fill="rgb(0%, 69.019608%, 31.372549%)" fill-opacity="1" d="M 6.964844 4.804688 C 6.964844 5.902344 6.085938 6.789062 5.003906 6.789062 C 3.914062 6.789062 3.039062 5.902344 3.039062 4.804688 C 3.039062 3.707031 3.914062 2.820312 5.003906 2.820312 C 6.085938 2.820312 6.964844 3.707031 6.964844 4.804688 Z M 6.964844 4.804688 "/>
<path fill-rule="nonzero" fill="rgb(20.784314%, 20.784314%, 20.784314%)" fill-opacity="1" d="M 6.964844 10.546875 C 6.964844 11.644531 6.085938 12.527344 5.003906 12.527344 C 3.914062 12.527344 3.039062 11.644531 3.039062 10.546875 C 3.039062 9.449219 3.914062 8.558594 5.003906 8.558594 C 6.085938 8.558594 6.964844 9.449219 6.964844 10.546875 Z M 6.964844 10.546875 "/>
<path fill-rule="nonzero" fill="rgb(20.784314%, 20.784314%, 20.784314%)" fill-opacity="1" d="M 6.9375 16.289062 C 6.9375 17.378906 6.058594 18.273438 4.972656 18.273438 C 3.890625 18.273438 3.011719 17.378906 3.011719 16.289062 C 3.011719 15.191406 3.890625 14.304688 4.972656 14.304688 C 6.058594 14.304688 6.9375 15.191406 6.9375 16.289062 Z M 6.9375 16.289062 "/>
</svg>
