<?xml version="1.0" encoding="UTF-8"?>
<svg xmlns="http://www.w3.org/2000/svg" xmlns:xlink="http://www.w3.org/1999/xlink" width="12" height="16.8" viewBox="0 0 12 16.8">
<path fill-rule="nonzero" fill="rgb(89.019608%, 90.588235%, 15.686275%)" fill-opacity="1" d="M 1.441406 0 L 10.558594 0 C 11.355469 0 12 0.644531 12 1.441406 L 12 15.363281 C 12 16.15625 11.355469 16.800781 10.558594 16.800781 L 1.441406 16.800781 C 0.644531 16.800781 0 16.15625 0 15.363281 L 0 1.441406 C 0 0.644531 0.644531 0 1.441406 0 Z M 1.441406 0 "/>
<path fill-rule="nonzero" fill="rgb(0%, 0%, 0%)" fill-opacity="1" d="M 2.652344 11.519531 L 6.980469 11.519531 C 7.886719 11.519531 8.558594 11.269531 9.070312 10.71875 C 9.546875 10.21875 9.808594 9.53125 9.808594 8.785156 C 9.808594 7.628906 9.28125 6.929688 8.058594 6.457031 C 8.941406 6.050781 9.386719 5.351562 9.386719 4.367188 C 9.386719 3.65625 9.125 3.050781 8.625 2.605469 C 8.113281 2.144531 7.464844 1.933594 6.546875 1.933594 L 2.652344 1.933594 Z M 3.878906 6.0625 L 3.878906 3.011719 L 6.246094 3.011719 C 6.925781 3.011719 7.308594 3.105469 7.636719 3.351562 C 7.980469 3.617188 8.164062 4.011719 8.164062 4.535156 C 8.164062 5.0625 7.980469 5.457031 7.636719 5.71875 C 7.308594 5.96875 6.925781 6.0625 6.246094 6.0625 Z M 3.878906 10.441406 L 3.878906 7.140625 L 6.859375 7.140625 C 7.9375 7.140625 8.585938 7.757812 8.585938 8.800781 C 8.585938 9.824219 7.9375 10.441406 6.859375 10.441406 Z M 1.613281 1.933594 "/>
</svg>
