<?xml version="1.0" encoding="UTF-8"?>
<svg xmlns="http://www.w3.org/2000/svg" xmlns:xlink="http://www.w3.org/1999/xlink" width="12" height="16.693377" viewBox="0 0 12 16.693377">
<path fill-rule="nonzero" fill="rgb(98.823529%, 82.745098%, 0%)" fill-opacity="1" stroke-width="10.55" stroke-linecap="butt" stroke-linejoin="round" stroke="rgb(0%, 0%, 0%)" stroke-opacity="1" stroke-miterlimit="4" d="M 392.131796 433.151691 L 490.014679 433.151691 C 500.295698 433.151691 508.586843 441.490214 508.586843 451.723855 L 508.586843 606.555057 C 508.586843 616.788698 500.295698 625.079843 490.014679 625.079843 L 392.131796 625.079843 C 381.898155 625.079843 373.559632 616.788698 373.559632 606.555057 L 373.559632 451.723855 C 373.559632 441.490214 381.898155 433.151691 392.131796 433.151691 Z M 392.131796 433.151691 " transform="matrix(0.0824487, 0, 0, 0.0824487, -30.365897, -35.279182)"/>
<path fill-rule="nonzero" fill="rgb(0%, 0%, 0%)" fill-opacity="1" d="M 2.050781 3.527344 L 5.875 3.527344 C 6.636719 3.527344 7.199219 3.5625 7.566406 3.625 C 7.941406 3.691406 8.277344 3.820312 8.566406 4.019531 C 8.863281 4.21875 9.105469 4.488281 9.304688 4.820312 C 9.5 5.15625 9.597656 5.527344 9.597656 5.9375 C 9.597656 6.386719 9.476562 6.796875 9.234375 7.171875 C 8.992188 7.546875 8.667969 7.828125 8.253906 8.015625 C 8.835938 8.183594 9.285156 8.472656 9.597656 8.886719 C 9.910156 9.292969 10.070312 9.773438 10.070312 10.324219 C 10.070312 10.765625 9.964844 11.1875 9.761719 11.597656 C 9.5625 12.007812 9.285156 12.339844 8.933594 12.585938 C 8.582031 12.832031 8.15625 12.980469 7.640625 13.035156 C 7.320312 13.070312 6.542969 13.089844 5.308594 13.101562 L 2.050781 13.101562 Z M 3.984375 5.121094 L 3.984375 7.335938 L 5.25 7.335938 C 6.003906 7.335938 6.472656 7.324219 6.65625 7.300781 C 6.984375 7.261719 7.242188 7.152344 7.429688 6.964844 C 7.621094 6.773438 7.71875 6.523438 7.71875 6.214844 C 7.71875 5.917969 7.636719 5.679688 7.46875 5.496094 C 7.3125 5.308594 7.066406 5.195312 6.746094 5.15625 C 6.550781 5.136719 6.003906 5.121094 5.097656 5.121094 Z M 3.984375 8.929688 L 3.984375 11.488281 L 5.777344 11.488281 C 6.46875 11.488281 6.910156 11.46875 7.097656 11.425781 C 7.386719 11.378906 7.617188 11.253906 7.796875 11.050781 C 7.980469 10.84375 8.070312 10.578125 8.070312 10.230469 C 8.070312 9.949219 8 9.703125 7.863281 9.503906 C 7.722656 9.304688 7.519531 9.15625 7.253906 9.066406 C 6.996094 8.972656 6.421875 8.929688 5.542969 8.929688 Z M 3.984375 8.929688 "/>
</svg>
