<?xml version="1.0" encoding="UTF-8"?>
<svg xmlns="http://www.w3.org/2000/svg" xmlns:xlink="http://www.w3.org/1999/xlink" width="8" height="24.666667" viewBox="0 0 8 24.666667">
<path fill-rule="nonzero" fill="rgb(0%, 0%, 0%)" fill-opacity="1" d="M 6.230469 1.34375 L 2.109375 1.34375 L 1.511719 5.695312 L 2.421875 5.695312 C 2.882812 5.140625 3.269531 4.949219 3.898438 4.949219 C 4.96875 4.949219 5.632812 5.683594 5.632812 6.867188 C 5.632812 8.015625 4.96875 8.714844 3.886719 8.714844 C 3.019531 8.714844 2.492188 8.273438 2.253906 7.371094 L 1.261719 7.371094 C 1.398438 8.027344 1.511719 8.339844 1.746094 8.632812 C 2.195312 9.242188 3.007812 9.59375 3.910156 9.59375 C 5.519531 9.59375 6.648438 8.421875 6.648438 6.730469 C 6.648438 5.152344 5.601562 4.070312 4.066406 4.070312 C 3.503906 4.070312 3.054688 4.21875 2.59375 4.554688 L 2.90625 2.324219 L 6.230469 2.324219 Z M 0.867188 1.121094 "/>
</svg>
