<?xml version="1.0" encoding="UTF-8"?>
<svg xmlns="http://www.w3.org/2000/svg" xmlns:xlink="http://www.w3.org/1999/xlink" width="8" height="24.666667" viewBox="0 0 8 24.666667">
<path fill-rule="nonzero" fill="rgb(0%, 36.862745%, 72.156863%)" fill-opacity="1" d="M 0.667969 0 L 7.332031 0 C 7.703125 0 8 0.296875 8 0.667969 L 8 24 C 8 24.367188 7.703125 24.667969 7.332031 24.667969 L 0.667969 24.667969 C 0.296875 24.667969 0 24.367188 0 24 L 0 0.667969 C 0 0.296875 0.296875 0 0.667969 0 Z M 0.667969 0 "/>
<path fill-rule="nonzero" fill="rgb(100%, 100%, 100%)" fill-opacity="1" d="M 3.785156 7.53125 L 3.785156 13.332031 L 4.777344 13.332031 L 4.777344 5.1875 L 4.125 5.1875 C 3.773438 6.4375 3.550781 6.605469 2.015625 6.808594 L 2.015625 7.53125 Z M 0.867188 5.121094 "/>
<path fill-rule="nonzero" fill="rgb(100%, 100%, 100%)" fill-opacity="1" d="M 2 20.832031 L 2 20 L 6 20 L 6 20.832031 L 7.332031 19.5 L 6 18.167969 L 6 19 L 2 19 L 2 18.167969 L 0.667969 19.5 Z M 2 20.832031 "/>
</svg>
