<?xml version="1.0" encoding="UTF-8"?>
<svg xmlns="http://www.w3.org/2000/svg" xmlns:xlink="http://www.w3.org/1999/xlink" width="8" height="24.666668" viewBox="0 0 8 24.666668">
<path fill-rule="nonzero" fill="rgb(0%, 0%, 0%)" fill-opacity="1" d="M 6.230469 5.34375 L 2.109375 5.34375 L 1.511719 9.695312 L 2.421875 9.695312 C 2.882812 9.140625 3.269531 8.949219 3.898438 8.949219 C 4.96875 8.949219 5.632812 9.683594 5.632812 10.867188 C 5.632812 12.015625 4.96875 12.714844 3.886719 12.714844 C 3.019531 12.714844 2.492188 12.273438 2.253906 11.371094 L 1.261719 11.371094 C 1.398438 12.027344 1.511719 12.339844 1.746094 12.632812 C 2.195312 13.242188 3.007812 13.59375 3.910156 13.59375 C 5.519531 13.59375 6.648438 12.421875 6.648438 10.730469 C 6.648438 9.152344 5.601562 8.070312 4.066406 8.070312 C 3.503906 8.070312 3.054688 8.21875 2.59375 8.554688 L 2.90625 6.324219 L 6.230469 6.324219 Z M 0.867188 5.121094 "/>
</svg>
