<?xml version="1.0" encoding="UTF-8"?>
<svg xmlns="http://www.w3.org/2000/svg" xmlns:xlink="http://www.w3.org/1999/xlink" width="8" height="24.666668" viewBox="0 0 8 24.666668">
<path fill-rule="nonzero" fill="rgb(0%, 0%, 0%)" fill-opacity="1" d="M 3.359375 9.582031 L 3.898438 9.582031 C 4.980469 9.582031 5.554688 10.089844 5.554688 11.070312 C 5.554688 12.09375 4.9375 12.714844 3.910156 12.714844 C 2.816406 12.714844 2.289062 12.160156 2.21875 10.96875 L 1.226562 10.96875 C 1.273438 11.621094 1.386719 12.050781 1.578125 12.410156 C 1.996094 13.199219 2.773438 13.59375 3.863281 13.59375 C 5.507812 13.59375 6.570312 12.601562 6.570312 11.058594 C 6.570312 10.019531 6.175781 9.457031 5.21875 9.121094 C 5.960938 8.816406 6.332031 8.253906 6.332031 7.429688 C 6.332031 6.03125 5.421875 5.1875 3.898438 5.1875 C 2.289062 5.1875 1.429688 6.089844 1.398438 7.8125 L 2.390625 7.8125 C 2.398438 7.316406 2.445312 7.035156 2.570312 6.789062 C 2.796875 6.324219 3.289062 6.054688 3.910156 6.054688 C 4.789062 6.054688 5.316406 6.585938 5.316406 7.464844 C 5.316406 8.039062 5.117188 8.386719 4.675781 8.578125 C 4.40625 8.691406 4.046875 8.738281 3.359375 8.746094 Z M 0.867188 5.121094 "/>
</svg>
