<?xml version="1.0" encoding="UTF-8"?>
<svg xmlns="http://www.w3.org/2000/svg" xmlns:xlink="http://www.w3.org/1999/xlink" width="8" height="24.666667" viewBox="0 0 8 24.666667">
<path fill-rule="nonzero" fill="rgb(0%, 0%, 0%)" fill-opacity="1" d="M 6.230469 11.34375 L 2.109375 11.34375 L 1.511719 15.695312 L 2.421875 15.695312 C 2.882812 15.140625 3.269531 14.949219 3.898438 14.949219 C 4.96875 14.949219 5.632812 15.683594 5.632812 16.867188 C 5.632812 18.015625 4.96875 18.714844 3.886719 18.714844 C 3.019531 18.714844 2.492188 18.273438 2.253906 17.371094 L 1.261719 17.371094 C 1.398438 18.027344 1.511719 18.339844 1.746094 18.632812 C 2.195312 19.242188 3.007812 19.59375 3.910156 19.59375 C 5.519531 19.59375 6.648438 18.421875 6.648438 16.730469 C 6.648438 15.152344 5.601562 14.070312 4.066406 14.070312 C 3.503906 14.070312 3.054688 14.21875 2.59375 14.554688 L 2.90625 12.324219 L 6.230469 12.324219 Z M 0.867188 11.121094 "/>
</svg>
