<?xml version="1.0" encoding="UTF-8"?>
<svg xmlns="http://www.w3.org/2000/svg" xmlns:xlink="http://www.w3.org/1999/xlink" width="8" height="24.666668" viewBox="0 0 8 24.666668">
<path fill-rule="nonzero" fill="rgb(100%, 100%, 100%)" fill-opacity="1" d="M 4.585938 11.089844 L 4.585938 10.5625 C 4.597656 10.054688 4.753906 9.808594 5.476562 9.164062 C 6.320312 8.398438 6.601562 7.902344 6.601562 7.148438 C 6.601562 5.832031 5.667969 4.984375 4.203125 4.984375 C 2.570312 4.984375 1.734375 5.875 1.734375 7.621094 L 2.691406 7.621094 C 2.691406 6.402344 3.132812 5.863281 4.144531 5.863281 C 5.015625 5.863281 5.589844 6.382812 5.589844 7.148438 C 5.589844 7.667969 5.339844 8.105469 4.742188 8.636719 C 3.785156 9.480469 3.570312 9.808594 3.570312 10.472656 L 3.570312 11.089844 Z M 4.585938 12.160156 L 3.570312 12.160156 L 3.570312 13.332031 L 4.585938 13.332031 Z M 0.867188 5.121094 "/>
</svg>
