<?xml version="1.0" encoding="UTF-8"?>
<svg xmlns="http://www.w3.org/2000/svg" xmlns:xlink="http://www.w3.org/1999/xlink" width="8" height="24.666667" viewBox="0 0 8 24.666667">
<path fill-rule="nonzero" fill="rgb(100%, 100%, 100%)" fill-opacity="1" d="M 3.359375 5.582031 L 3.898438 5.582031 C 4.980469 5.582031 5.554688 6.089844 5.554688 7.070312 C 5.554688 8.09375 4.9375 8.714844 3.910156 8.714844 C 2.816406 8.714844 2.289062 8.160156 2.21875 6.96875 L 1.226562 6.96875 C 1.273438 7.621094 1.386719 8.050781 1.578125 8.410156 C 1.996094 9.199219 2.773438 9.59375 3.863281 9.59375 C 5.507812 9.59375 6.570312 8.601562 6.570312 7.058594 C 6.570312 6.019531 6.175781 5.457031 5.21875 5.121094 C 5.960938 4.816406 6.332031 4.253906 6.332031 3.429688 C 6.332031 2.03125 5.421875 1.1875 3.898438 1.1875 C 2.289062 1.1875 1.429688 2.089844 1.398438 3.8125 L 2.390625 3.8125 C 2.398438 3.316406 2.445312 3.035156 2.570312 2.789062 C 2.796875 2.324219 3.289062 2.054688 3.910156 2.054688 C 4.789062 2.054688 5.316406 2.585938 5.316406 3.464844 C 5.316406 4.039062 5.117188 4.386719 4.675781 4.578125 C 4.40625 4.691406 4.046875 4.738281 3.359375 4.746094 Z M 0.867188 1.121094 "/>
</svg>
