<?xml version="1.0" encoding="UTF-8"?>
<svg xmlns="http://www.w3.org/2000/svg" xmlns:xlink="http://www.w3.org/1999/xlink" width="8" height="24.666667" viewBox="0 0 8 24.666667">
<path fill-rule="nonzero" fill="rgb(0%, 36.862745%, 72.156863%)" fill-opacity="1" d="M 0.667969 0 L 7.332031 0 C 7.703125 0 8 0.296875 8 0.667969 L 8 24 C 8 24.367188 7.703125 24.667969 7.332031 24.667969 L 0.667969 24.667969 C 0.296875 24.667969 0 24.367188 0 24 L 0 0.667969 C 0 0.296875 0.296875 0 0.667969 0 Z M 0.667969 0 "/>
<path fill-rule="nonzero" fill="rgb(100%, 100%, 100%)" fill-opacity="1" d="M 2.316406 9.851562 L 4.894531 9.851562 C 5.539062 9.851562 6.042969 9.660156 6.484375 9.265625 C 6.980469 8.816406 7.195312 8.285156 7.195312 7.53125 C 7.195312 5.988281 6.28125 5.121094 4.660156 5.121094 L 1.269531 5.121094 L 1.269531 13.332031 L 2.316406 13.332031 Z M 2.316406 8.929688 L 2.316406 6.042969 L 4.5 6.042969 C 5.503906 6.042969 6.101562 6.585938 6.101562 7.484375 C 6.101562 8.386719 5.503906 8.929688 4.5 8.929688 Z M 0.242188 5.121094 "/>
<path fill-rule="nonzero" fill="rgb(100%, 100%, 100%)" fill-opacity="1" d="M 2 20.832031 L 2 20 L 6 20 L 6 20.832031 L 7.332031 19.5 L 6 18.167969 L 6 19 L 2 19 L 2 18.167969 L 0.667969 19.5 Z M 2 20.832031 "/>
</svg>
