<?xml version="1.0" encoding="UTF-8"?>
<svg xmlns="http://www.w3.org/2000/svg" xmlns:xlink="http://www.w3.org/1999/xlink" width="8" height="24.666667" viewBox="0 0 8 24.666667">
<path fill-rule="nonzero" fill="rgb(0%, 0%, 0%)" fill-opacity="1" d="M 4.585938 7.089844 L 4.585938 6.5625 C 4.597656 6.054688 4.753906 5.808594 5.476562 5.164062 C 6.320312 4.398438 6.601562 3.902344 6.601562 3.148438 C 6.601562 1.832031 5.667969 0.984375 4.203125 0.984375 C 2.570312 0.984375 1.734375 1.875 1.734375 3.621094 L 2.691406 3.621094 C 2.691406 2.402344 3.132812 1.863281 4.144531 1.863281 C 5.015625 1.863281 5.589844 2.382812 5.589844 3.148438 C 5.589844 3.667969 5.339844 4.105469 4.742188 4.636719 C 3.785156 5.480469 3.570312 5.808594 3.570312 6.472656 L 3.570312 7.089844 Z M 4.585938 8.160156 L 3.570312 8.160156 L 3.570312 9.332031 L 4.585938 9.332031 Z M 0.867188 1.121094 "/>
</svg>
