<?xml version="1.0" encoding="UTF-8"?>
<svg xmlns="http://www.w3.org/2000/svg" xmlns:xlink="http://www.w3.org/1999/xlink" width="8" height="24.666668" viewBox="0 0 8 24.666668">
<path fill-rule="nonzero" fill="rgb(100%, 100%, 100%)" fill-opacity="1" d="M 6.570312 12.351562 L 2.367188 12.351562 C 2.46875 11.675781 2.828125 11.25 3.808594 10.652344 L 4.9375 10.019531 C 6.050781 9.402344 6.625 8.566406 6.625 7.566406 C 6.625 6.886719 6.355469 6.257812 5.882812 5.820312 C 5.410156 5.390625 4.820312 5.1875 4.066406 5.1875 C 3.054688 5.1875 2.300781 5.546875 1.859375 6.246094 C 1.578125 6.675781 1.453125 7.179688 1.429688 8.003906 L 2.421875 8.003906 C 2.457031 7.453125 2.523438 7.125 2.660156 6.855469 C 2.917969 6.359375 3.4375 6.054688 4.035156 6.054688 C 4.9375 6.054688 5.613281 6.707031 5.613281 7.585938 C 5.613281 8.242188 5.238281 8.804688 4.53125 9.210938 L 3.492188 9.816406 C 1.824219 10.777344 1.339844 11.542969 1.25 13.320312 L 6.570312 13.320312 Z M 0.867188 5.121094 "/>
</svg>
