<?xml version="1.0" encoding="UTF-8"?>
<svg xmlns="http://www.w3.org/2000/svg" xmlns:xlink="http://www.w3.org/1999/xlink" width="8" height="24.666667" viewBox="0 0 8 24.666667">
<path fill-rule="nonzero" fill="rgb(0%, 0%, 0%)" fill-opacity="1" d="M 3.359375 15.582031 L 3.898438 15.582031 C 4.980469 15.582031 5.554688 16.089844 5.554688 17.070312 C 5.554688 18.09375 4.9375 18.714844 3.910156 18.714844 C 2.816406 18.714844 2.289062 18.160156 2.21875 16.96875 L 1.226562 16.96875 C 1.273438 17.621094 1.386719 18.050781 1.578125 18.410156 C 1.996094 19.199219 2.773438 19.59375 3.863281 19.59375 C 5.507812 19.59375 6.570312 18.601562 6.570312 17.058594 C 6.570312 16.019531 6.175781 15.457031 5.21875 15.121094 C 5.960938 14.816406 6.332031 14.253906 6.332031 13.429688 C 6.332031 12.03125 5.421875 11.1875 3.898438 11.1875 C 2.289062 11.1875 1.429688 12.089844 1.398438 13.8125 L 2.390625 13.8125 C 2.398438 13.316406 2.445312 13.035156 2.570312 12.789062 C 2.796875 12.324219 3.289062 12.054688 3.910156 12.054688 C 4.789062 12.054688 5.316406 12.585938 5.316406 13.464844 C 5.316406 14.039062 5.117188 14.386719 4.675781 14.578125 C 4.40625 14.691406 4.046875 14.738281 3.359375 14.746094 Z M 0.867188 11.121094 "/>
</svg>
