<?xml version="1.0" encoding="UTF-8"?>
<svg xmlns="http://www.w3.org/2000/svg" xmlns:xlink="http://www.w3.org/1999/xlink" width="8" height="24.666667" viewBox="0 0 8 24.666667">
<path fill-rule="nonzero" fill="rgb(89.019608%, 90.588235%, 15.686275%)" fill-opacity="1" d="M 0.667969 0 L 7.332031 0 C 7.703125 0 8 0.296875 8 0.667969 L 8 24 C 8 24.367188 7.703125 24.667969 7.332031 24.667969 L 0.667969 24.667969 C 0.296875 24.667969 0 24.367188 0 24 L 0 0.667969 C 0 0.296875 0.296875 0 0.667969 0 Z M 0.667969 0 "/>
<path fill-rule="nonzero" fill="rgb(0%, 0%, 0%)" fill-opacity="1" d="M 6.570312 18.351562 L 2.367188 18.351562 C 2.46875 17.675781 2.828125 17.25 3.808594 16.652344 L 4.9375 16.019531 C 6.050781 15.402344 6.625 14.566406 6.625 13.566406 C 6.625 12.886719 6.355469 12.257812 5.882812 11.820312 C 5.410156 11.390625 4.820312 11.1875 4.066406 11.1875 C 3.054688 11.1875 2.300781 11.546875 1.859375 12.246094 C 1.578125 12.675781 1.453125 13.179688 1.429688 14.003906 L 2.421875 14.003906 C 2.457031 13.453125 2.523438 13.125 2.660156 12.855469 C 2.917969 12.359375 3.4375 12.054688 4.035156 12.054688 C 4.9375 12.054688 5.613281 12.707031 5.613281 13.585938 C 5.613281 14.242188 5.238281 14.804688 4.53125 15.210938 L 3.492188 15.816406 C 1.824219 16.777344 1.339844 17.542969 1.25 19.320312 L 6.570312 19.320312 Z M 0.867188 11.121094 "/>
<path fill-rule="nonzero" fill="rgb(0%, 0%, 0%)" fill-opacity="1" d="M 2 22.667969 L 2 21.832031 L 6 21.832031 L 6 22.667969 L 7.332031 21.332031 L 6 20 L 6 20.832031 L 2 20.832031 L 2 20 L 0.667969 21.332031 Z M 2 22.667969 "/>
<path fill-rule="nonzero" fill="rgb(0%, 0%, 0%)" fill-opacity="1" d="M 3.785156 3.53125 L 3.785156 9.332031 L 4.777344 9.332031 L 4.777344 1.1875 L 4.125 1.1875 C 3.773438 2.4375 3.550781 2.605469 2.015625 2.808594 L 2.015625 3.53125 Z M 0.867188 1.121094 "/>
</svg>
