<?xml version="1.0" encoding="UTF-8"?>
<svg xmlns="http://www.w3.org/2000/svg" xmlns:xlink="http://www.w3.org/1999/xlink" width="8" height="24.666667" viewBox="0 0 8 24.666667">
<path fill-rule="nonzero" fill="rgb(100%, 100%, 100%)" fill-opacity="1" d="M 6.570312 8.351562 L 2.367188 8.351562 C 2.46875 7.675781 2.828125 7.25 3.808594 6.652344 L 4.9375 6.019531 C 6.050781 5.402344 6.625 4.566406 6.625 3.566406 C 6.625 2.886719 6.355469 2.257812 5.882812 1.820312 C 5.410156 1.390625 4.820312 1.1875 4.066406 1.1875 C 3.054688 1.1875 2.300781 1.546875 1.859375 2.246094 C 1.578125 2.675781 1.453125 3.179688 1.429688 4.003906 L 2.421875 4.003906 C 2.457031 3.453125 2.523438 3.125 2.660156 2.855469 C 2.917969 2.359375 3.4375 2.054688 4.035156 2.054688 C 4.9375 2.054688 5.613281 2.707031 5.613281 3.585938 C 5.613281 4.242188 5.238281 4.804688 4.53125 5.210938 L 3.492188 5.816406 C 1.824219 6.777344 1.339844 7.542969 1.25 9.320312 L 6.570312 9.320312 Z M 0.867188 1.121094 "/>
</svg>
