<?xml version="1.0" encoding="UTF-8"?>
<svg xmlns="http://www.w3.org/2000/svg" xmlns:xlink="http://www.w3.org/1999/xlink" width="8" height="24.666667" viewBox="0 0 8 24.666667">
<path fill-rule="nonzero" fill="rgb(100%, 100%, 100%)" fill-opacity="1" d="M 4.585938 17.089844 L 4.585938 16.5625 C 4.597656 16.054688 4.753906 15.808594 5.476562 15.164062 C 6.320312 14.398438 6.601562 13.902344 6.601562 13.148438 C 6.601562 11.832031 5.667969 10.984375 4.203125 10.984375 C 2.570312 10.984375 1.734375 11.875 1.734375 13.621094 L 2.691406 13.621094 C 2.691406 12.402344 3.132812 11.863281 4.144531 11.863281 C 5.015625 11.863281 5.589844 12.382812 5.589844 13.148438 C 5.589844 13.667969 5.339844 14.105469 4.742188 14.636719 C 3.785156 15.480469 3.570312 15.808594 3.570312 16.472656 L 3.570312 17.089844 Z M 4.585938 18.160156 L 3.570312 18.160156 L 3.570312 19.332031 L 4.585938 19.332031 Z M 0.867188 11.121094 "/>
</svg>
