<?xml version="1.0" encoding="UTF-8"?>
<svg xmlns="http://www.w3.org/2000/svg" xmlns:xlink="http://www.w3.org/1999/xlink" width="10" height="30.245594" viewBox="0 0 10 30.245594">
<path fill-rule="nonzero" fill="rgb(5.882353%, 5.882353%, 5.882353%)" fill-opacity="1" d="M 0 4.945312 L 10 4.945312 L 10 16.574219 L 0 16.574219 Z M 0 4.945312 "/>
<path fill-rule="nonzero" fill="rgb(5.882353%, 5.882353%, 5.882353%)" fill-opacity="1" d="M 10 16.289062 C 10 19.023438 7.757812 21.234375 5.003906 21.234375 C 2.242188 21.234375 0 19.023438 0 16.289062 C 0 13.554688 2.242188 11.339844 5.003906 11.339844 C 7.757812 11.339844 10 13.554688 10 16.289062 Z M 10 16.289062 "/>
<path fill-rule="nonzero" fill="rgb(5.882353%, 5.882353%, 5.882353%)" fill-opacity="1" d="M 10 4.945312 C 10 7.679688 7.757812 9.898438 5.003906 9.898438 C 2.242188 9.898438 0 7.679688 0 4.945312 C 0 2.210938 2.242188 0 5.003906 0 C 7.757812 0 10 2.210938 10 4.945312 Z M 10 4.945312 "/>
<path fill-rule="nonzero" fill="rgb(0%, 69.019608%, 31.372549%)" fill-opacity="1" d="M 6.964844 4.804688 C 6.964844 5.902344 6.085938 6.789062 5.003906 6.789062 C 3.914062 6.789062 3.039062 5.902344 3.039062 4.804688 C 3.039062 3.707031 3.914062 2.820312 5.003906 2.820312 C 6.085938 2.820312 6.964844 3.707031 6.964844 4.804688 Z M 6.964844 4.804688 "/>
<path fill-rule="nonzero" fill="rgb(20.784314%, 20.784314%, 20.784314%)" fill-opacity="1" d="M 6.964844 10.546875 C 6.964844 11.644531 6.085938 12.527344 5.003906 12.527344 C 3.914062 12.527344 3.039062 11.644531 3.039062 10.546875 C 3.039062 9.449219 3.914062 8.558594 5.003906 8.558594 C 6.085938 8.558594 6.964844 9.449219 6.964844 10.546875 Z M 6.964844 10.546875 "/>
<path fill-rule="nonzero" fill="rgb(20.784314%, 20.784314%, 20.784314%)" fill-opacity="1" d="M 6.9375 16.289062 C 6.9375 17.382812 6.058594 18.277344 4.976562 18.277344 C 3.890625 18.277344 3.011719 17.382812 3.011719 16.289062 C 3.011719 15.191406 3.890625 14.308594 4.976562 14.308594 C 6.058594 14.308594 6.9375 15.191406 6.9375 16.289062 Z M 6.9375 16.289062 "/>
<path fill-rule="nonzero" fill="rgb(100%, 95.686275%, 5.882353%)" fill-opacity="1" stroke-width="0.292573" stroke-linecap="butt" stroke-linejoin="miter" stroke="rgb(0%, 0%, 0%)" stroke-opacity="1" stroke-miterlimit="4" d="M 9.440792 26.861541 C 9.440792 29.249053 7.506502 31.183343 5.118989 31.183343 C 2.731476 31.183343 0.789093 29.249053 0.789093 26.861541 C 0.789093 24.474028 2.731476 22.535691 5.118989 22.535691 C 7.506502 22.535691 9.440792 24.474028 9.440792 26.861541 Z M 9.440792 26.861541 " transform="matrix(0.965309, 0, 0, 0.965309, 0, 0)"/>
<path fill-rule="nonzero" fill="rgb(0%, 0%, 0%)" fill-opacity="1" stroke-width="0.17513" stroke-linecap="butt" stroke-linejoin="miter" stroke="rgb(0%, 0%, 0%)" stroke-opacity="1" stroke-miterlimit="4" d="M 7.425781 25.941406 C 7.425781 26.839844 7.179688 27.515625 6.691406 27.96875 C 6.207031 28.421875 5.527344 28.644531 4.65625 28.644531 L 3.179688 28.644531 L 3.179688 23.34375 L 4.8125 23.34375 C 5.347656 23.34375 5.808594 23.441406 6.199219 23.640625 C 6.59375 23.839844 6.894531 24.132812 7.105469 24.515625 C 7.320312 24.898438 7.425781 25.375 7.425781 25.941406 Z M 6.722656 25.964844 C 6.722656 25.257812 6.546875 24.738281 6.195312 24.414062 C 5.847656 24.082031 5.355469 23.914062 4.714844 23.914062 L 3.847656 23.914062 L 3.847656 28.074219 L 4.566406 28.074219 C 6.003906 28.074219 6.722656 27.371094 6.722656 25.964844 Z M 6.722656 25.964844 "/>
</svg>
