<?xml version="1.0" encoding="UTF-8"?>
<svg xmlns="http://www.w3.org/2000/svg" viewBox="0 0 19 6" width="28.5" height="9">
  <rect fill="#fff" stroke="#000" stroke-width=".2" width="18.8" height="5.8" ry="0.5" x=".1" y=".1"/>
  <path d="M12.16 1.331 11.957.529 11.446.529 11.446 2.662 11.824 2.662 11.824 2.031 11.807 1.073 12.057 1.959 12.261 1.959 12.54 1.033 12.523 2.031 12.523 2.662 12.901 2.662 12.901.529 12.39.529 12.16 1.331ZM13.595 2 13.191 2A.725.725 0 0013.205 2.146.548.548 0 0013.255 2.289Q13.318 2.412 13.428 2.502 13.544 2.595 13.7 2.642 13.856 2.69 14.016 2.69 14.178 2.69 14.316 2.651A.765.765 0 0014.459 2.596.628.628 0 0014.553 2.536.533.533 0 0014.709 2.352.504.504 0 0014.761 2.183.638.638 0 0014.766 2.103.601.601 0 0014.744 1.941.506.506 0 0014.691 1.815.745.745 0 0014.523 1.623.867.867 0 0014.49 1.597 1.116 1.116 0 0014.335 1.509 1.254 1.254 0 0014.307 1.496Q14.207 1.452 14.098 1.421A2.003 2.003 0 0114 1.392 1.496 1.496 0 0113.914 1.361Q13.832 1.329 13.775 1.29A.339.339 0 0113.728 1.252.253.253 0 0113.688 1.203.201.201 0 0113.658 1.097.243.243 0 0113.658 1.095.252.252 0 0113.675 1.001.242.242 0 0113.681.989.244.244 0 0113.745.905.278.278 0 0113.747.903.292.292 0 0113.807.867.382.382 0 0113.855.848.425.425 0 0113.928.832.583.583 0 0114.001.828.56.56 0 0114.075.833Q14.119.839 14.157.852A.354.354 0 0114.225.885.291.291 0 0114.269.919.29.29 0 0114.336 1.023.399.399 0 0114.358 1.115.479.479 0 0114.361 1.155L14.763 1.155A.645.645 0 0014.737.969.582.582 0 0014.707.891Q14.651.771 14.552.683A.693.693 0 0014.38.575.831.831 0 0014.314.548.865.865 0 0014.112.505 1.066 1.066 0 0014.008.5 1.095 1.095 0 0013.816.516.928.928 0 0013.709.542.8.8 0 0013.559.604.669.669 0 0013.471.661.56.56 0 0013.312.849Q13.255.959 13.255 1.093A.557.557 0 0013.278 1.253.507.507 0 0013.298 1.31.552.552 0 0013.401 1.466.647.647 0 0013.427 1.492Q13.506 1.568 13.628 1.634A1.299 1.299 0 0013.646 1.643 1.398 1.398 0 0013.8 1.71 1.884 1.884 0 0013.957 1.76Q14.071 1.791 14.148 1.826A.675.675 0 0114.206 1.857Q14.235 1.874 14.258 1.892A.369.369 0 0114.273 1.905.307.307 0 0114.311 1.947.231.231 0 0114.34 1.999.285.285 0 0114.36 2.098.326.326 0 0114.36 2.105.243.243 0 0114.349 2.18.222.222 0 0114.336 2.21Q14.313 2.258 14.269 2.292A.295.295 0 0114.212 2.326.392.392 0 0114.161 2.344.439.439 0 0114.089 2.359.604.604 0 0114.016 2.363Q13.923 2.363 13.846 2.343A.383.383 0 0113.769 2.313.314.314 0 0113.715 2.278.291.291 0 0113.633 2.174.341.341 0 0113.629 2.166Q13.6 2.102 13.596 2.014A.633.633 0 0113.595 2ZM10.063 1.865 10.375 1.865 10.777 2.662 11.218 2.662 11.218 2.643 10.759 1.763A.824.824 0 0010.89 1.689.742.742 0 0010.918 1.669Q10.989 1.615 11.04 1.542A.551.551 0 0011.106 1.412.642.642 0 0011.117 1.378Q11.144 1.287 11.144 1.172A.775.775 0 0011.132 1.032.585.585 0 0011.09.894Q11.035.774 10.933.693A.671.671 0 0010.777.603.838.838 0 0010.687.571 1.026 1.026 0 0010.515.537 1.331 1.331 0 0010.367.529L9.652.529 9.652 2.662 10.063 2.662 10.063 1.865ZM4.66 2.217 5.3 2.217 5.424 2.662 5.858 2.662 5.172.529 4.799.529 4.1 2.662 4.534 2.662 4.66 2.217ZM8.26 2.217 8.9 2.217 9.025 2.662 9.458 2.662 8.773.529 8.399.529 7.701 2.662 8.134 2.662 8.26 2.217ZM7.491 2.33 6.492 2.33 6.492.529 6.079.529 6.079 2.662 7.491 2.662 7.491 2.33ZM10.368 1.531 10.063 1.531 10.063.863 10.367.863A.602.602 0 0110.442.868.439.439 0 0110.517.884.357.357 0 0110.581.91.283.283 0 0110.629.942Q10.68.985 10.706 1.05A.36.36 0 0110.726 1.13.485.485 0 0110.731 1.2.432.432 0 0110.725 1.273.344.344 0 0110.712 1.328.283.283 0 0110.674 1.401.257.257 0 0110.654 1.426.275.275 0 0110.571 1.489.344.344 0 0110.536 1.504.413.413 0 0110.452 1.525.568.568 0 0110.368 1.531ZM5.203 1.867 4.761 1.867 4.985 1.082 5.203 1.867ZM8.804 1.867 8.361 1.867 8.585 1.082 8.804 1.867Z" />
  <path d="M13.7 4.228 14.576 4.228 14.576 3.902 13.7 3.902 13.7 3.365 14.72 3.365 14.72 3.029 13.287 3.029 13.287 5.162 14.724 5.162 14.724 4.83 13.7 4.83 13.7 4.228ZM17.301 4.228 18.177 4.228 18.177 3.902 17.301 3.902 17.301 3.365 18.32 3.365 18.32 3.029 16.888 3.029 16.888 5.162 18.325 5.162 18.325 4.83 17.301 4.83 17.301 4.228ZM12.464 5.162 12.871 5.162 12.871 3.029 12.464 3.029 12.464 3.904 11.86 3.904 11.86 3.029 11.452 3.029 11.452 5.162 11.86 5.162 11.86 4.238 12.464 4.238 12.464 5.162ZM1.004 4.5.6 4.5A.725.725 0 00.614 4.646.548.548 0 00.664 4.789Q.727 4.912.837 5.002.953 5.095 1.109 5.142 1.265 5.19 1.425 5.19 1.587 5.19 1.725 5.151A.765.765 0 001.868 5.096.628.628 0 001.962 5.036.533.533 0 002.118 4.852.504.504 0 002.17 4.683.638.638 0 002.175 4.603.601.601 0 002.154 4.441.506.506 0 002.1 4.315.745.745 0 001.932 4.123.867.867 0 001.899 4.097 1.116 1.116 0 001.744 4.009 1.254 1.254 0 001.716 3.996Q1.617 3.952 1.507 3.921A2.003 2.003 0 011.41 3.892 1.496 1.496 0 011.323 3.861Q1.242 3.829 1.184 3.79A.339.339 0 011.137 3.752.253.253 0 011.097 3.703.201.201 0 011.067 3.597.243.243 0 011.067 3.595.252.252 0 011.085 3.501.242.242 0 011.09 3.489.244.244 0 011.154 3.405.278.278 0 011.157 3.403.292.292 0 011.216 3.367.382.382 0 011.264 3.348.425.425 0 011.337 3.332.583.583 0 011.41 3.328.56.56 0 011.484 3.333Q1.529 3.339 1.566 3.352A.354.354 0 011.634 3.385.291.291 0 011.678 3.419.29.29 0 011.745 3.523.399.399 0 011.767 3.615.479.479 0 011.77 3.655L2.172 3.655A.645.645 0 002.146 3.469.582.582 0 002.116 3.391Q2.06 3.271 1.961 3.183A.693.693 0 001.79 3.075.831.831 0 001.723 3.048.865.865 0 001.521 3.005 1.066 1.066 0 001.417 3 1.095 1.095 0 001.225 3.016.928.928 0 001.119 3.042.8.8 0 00.968 3.104.669.669 0 00.88 3.161.56.56 0 00.722 3.349Q.664 3.459.664 3.593A.557.557 0 00.687 3.753.507.507 0 00.708 3.81.552.552 0 00.81 3.966.647.647 0 00.836 3.992Q.915 4.068 1.038 4.134A1.299 1.299 0 001.055 4.143 1.398 1.398 0 001.209 4.21 1.884 1.884 0 001.366 4.26Q1.48 4.291 1.557 4.326A.675.675 0 011.615 4.357Q1.644 4.374 1.668 4.392A.369.369 0 011.683 4.405.307.307 0 011.721 4.447.231.231 0 011.749 4.499.285.285 0 011.769 4.598.326.326 0 011.769 4.605.243.243 0 011.758 4.68.222.222 0 011.746 4.71Q1.722 4.758 1.678 4.792A.295.295 0 011.621 4.826.392.392 0 011.57 4.844.439.439 0 011.498 4.859.604.604 0 011.425 4.863Q1.332 4.863 1.256 4.843A.383.383 0 011.178 4.813.314.314 0 011.124 4.778.291.291 0 011.042 4.674.341.341 0 011.038 4.666Q1.009 4.602 1.005 4.514A.633.633 0 011.004 4.5ZM6.474 4.365 6.786 4.365 7.187 5.162 7.628 5.162 7.628 5.143 7.17 4.263A.824.824 0 007.301 4.189.742.742 0 007.329 4.169Q7.4 4.115 7.451 4.042A.551.551 0 007.517 3.912.642.642 0 007.528 3.878Q7.555 3.787 7.555 3.672A.775.775 0 007.543 3.532.585.585 0 007.5 3.394Q7.445 3.274 7.344 3.193A.671.671 0 007.188 3.103.838.838 0 007.098 3.071 1.026 1.026 0 006.926 3.037 1.331 1.331 0 006.777 3.029L6.062 3.029 6.062 5.162 6.474 5.162 6.474 4.365ZM15.475 4.365 15.788 4.365 16.189 5.162 16.63 5.162 16.63 5.143 16.171 4.263A.824.824 0 0016.302 4.189.742.742 0 0016.33 4.169Q16.401 4.115 16.453 4.042A.551.551 0 0016.518 3.912.642.642 0 0016.529 3.878Q16.557 3.787 16.557 3.672A.775.775 0 0016.544 3.532.585.585 0 0016.502 3.394Q16.447 3.274 16.346 3.193A.671.671 0 0016.189 3.103.838.838 0 0016.1 3.071 1.026 1.026 0 0015.927 3.037 1.331 1.331 0 0015.779 3.029L15.064 3.029 15.064 5.162 15.475 5.162 15.475 4.365ZM3.371 3.365 4.029 3.365 4.029 3.029 2.309 3.029 2.309 3.365 2.958 3.365 2.958 5.162 3.371 5.162 3.371 3.365ZM8.772 3.365 9.43 3.365 9.43 3.029 7.71 3.029 7.71 3.365 8.359 3.365 8.359 5.162 8.772 5.162 8.772 3.365ZM4.671 4.717 5.311 4.717 5.435 5.162 5.869 5.162 5.184 3.029 4.81 3.029 4.111 5.162 4.545 5.162 4.671 4.717ZM6.779 4.031 6.474 4.031 6.474 3.363 6.777 3.363A.602.602 0 016.853 3.368.439.439 0 016.928 3.384.357.357 0 016.992 3.41.283.283 0 017.039 3.442Q7.091 3.485 7.116 3.55A.36.36 0 017.137 3.63.485.485 0 017.142 3.7.432.432 0 017.136 3.773.344.344 0 017.122 3.828.283.283 0 017.085 3.901.257.257 0 017.064 3.926.275.275 0 016.982 3.989.344.344 0 016.946 4.004.413.413 0 016.863 4.025.568.568 0 016.779 4.031ZM15.78 4.031 15.475 4.031 15.475 3.363 15.779 3.363A.602.602 0 0115.854 3.368.439.439 0 0115.93 3.384.357.357 0 0115.993 3.41.283.283 0 0116.041 3.442Q16.092 3.485 16.118 3.55A.36.36 0 0116.139 3.63.485.485 0 0116.143 3.7.432.432 0 0116.138 3.773.344.344 0 0116.124 3.828.283.283 0 0116.086 3.901.257.257 0 0116.066 3.926.275.275 0 0115.983 3.989.344.344 0 0115.948 4.004.413.413 0 0115.864 4.025.568.568 0 0115.78 4.031ZM5.214 4.367 4.772 4.367 4.996 3.582 5.214 4.367Z" />
</svg>
