<svg xmlns="http://www.w3.org/2000/svg" viewBox="0 0 500 500" width="17" height="17">
  <rect x="10" y="10" width="480" height="480" fill="#ddd" stroke="red" stroke-width="15px" rx="60"/>
  <path d="M 148 109.4 L 180 109.4 L 186.2 131.65 L 207.9 131.65 L 173.6 25 L 154.95 25 L 120 131.65 L 141.7 131.65 L 148 109.4 Z M 289.55 115 L 239.6 115 L 239.6 25 L 218.95 25 L 218.95 131.65 L 289.55 131.65 L 289.55 115 Z M 379.55 115 L 329.6 115 L 329.6 25 L 308.95 25 L 308.95 131.65 L 379.55 131.65 L 379.55 115 Z M 175.15 91.85 L 153.05 91.85 L 164.25 52.6 L 175.15 91.85 Z" />
  <circle r="90" cx="250" cy="250" fill="red" stroke="#fff" stroke-width="3"/>
  <path d="M 100.2 440 L 80 440 A 36.25 36.25 90 0 0 80.7 447.3 A 27.4 27.4 90 0 0 83.2 454.45 Q 86.35 460.6 91.85 465.1 Q 97.65 469.75 105.45 472.1 Q 113.25 474.5 121.25 474.5 Q 129.35 474.5 136.25 472.55 A 38.25 38.25 90 0 0 143.4 469.8 A 31.4 31.4 90 0 0 148.1 466.8 A 26.65 26.65 90 0 0 155.9 457.6 A 25.2 25.2 90 0 0 158.5 449.15 A 31.9 31.9 90 0 0 158.75 445.15 A 30.05 30.05 90 0 0 157.7 437.05 A 25.3 25.3 90 0 0 155 430.75 A 37.25 37.25 90 0 0 146.6 421.15 A 43.35 43.35 90 0 0 144.95 419.85 A 55.8 55.8 90 0 0 137.2 415.45 A 62.7 62.7 90 0 0 135.8 414.8 Q 130.85 412.6 125.35 411.05 A 100.15 100.15 90 0 1 120.5 409.6 A 74.8 74.8 90 0 1 116.15 408.05 Q 112.1 406.45 109.2 404.5 A 16.95 16.95 90 0 1 106.85 402.6 A 12.65 12.65 90 0 1 104.85 400.15 A 10.05 10.05 90 0 1 103.35 394.85 A 12.15 12.15 90 0 1 103.35 394.75 A 12.6 12.6 90 0 1 104.25 390.05 A 12.1 12.1 90 0 1 104.5 389.45 A 12.2 12.2 90 0 1 107.7 385.25 A 13.9 13.9 90 0 1 107.85 385.15 A 14.6 14.6 90 0 1 110.8 383.35 A 19.1 19.1 90 0 1 113.2 382.4 A 21.25 21.25 90 0 1 116.85 381.6 A 29.15 29.15 90 0 1 120.5 381.4 A 28 28 90 0 1 124.2 381.65 Q 126.45 381.95 128.3 382.6 A 17.7 17.7 90 0 1 131.7 384.25 A 14.55 14.55 90 0 1 133.9 385.95 A 14.5 14.5 90 0 1 137.25 391.15 A 19.95 19.95 90 0 1 138.35 395.75 A 23.95 23.95 90 0 1 138.5 397.75 L 158.6 397.75 A 32.25 32.25 90 0 0 157.3 388.45 A 29.1 29.1 90 0 0 155.8 384.55 Q 153 378.55 148.05 374.15 A 34.65 34.65 90 0 0 139.5 368.75 A 41.55 41.55 90 0 0 136.15 367.4 A 43.25 43.25 90 0 0 126.05 365.25 A 53.3 53.3 90 0 0 120.85 365 A 54.75 54.75 90 0 0 111.25 365.8 A 46.4 46.4 90 0 0 105.95 367.1 A 40 40 90 0 0 98.4 370.2 A 33.45 33.45 90 0 0 94 373.05 A 28 28 90 0 0 86.1 382.45 Q 83.2 387.95 83.2 394.65 A 27.85 27.85 90 0 0 84.35 402.65 A 25.35 25.35 90 0 0 85.4 405.5 A 27.6 27.6 90 0 0 90.5 413.3 A 32.35 32.35 90 0 0 91.8 414.6 Q 95.75 418.4 101.9 421.7 A 64.95 64.95 90 0 0 102.75 422.15 A 69.9 69.9 90 0 0 110.45 425.5 A 94.2 94.2 90 0 0 118.3 428 Q 124 429.55 127.85 431.3 A 33.75 33.75 90 0 1 130.75 432.85 Q 132.2 433.7 133.4 434.6 A 18.45 18.45 90 0 1 134.15 435.25 A 15.35 15.35 90 0 1 136.05 437.35 A 11.55 11.55 90 0 1 137.45 439.95 A 14.25 14.25 90 0 1 138.45 444.9 A 16.3 16.3 90 0 1 138.45 445.25 A 12.15 12.15 90 0 1 137.9 449 A 11.1 11.1 90 0 1 137.3 450.5 Q 136.1 452.9 133.9 454.6 A 14.75 14.75 90 0 1 131.05 456.3 A 19.6 19.6 90 0 1 128.5 457.2 A 21.95 21.95 90 0 1 124.9 457.95 A 30.2 30.2 90 0 1 121.25 458.15 Q 116.6 458.15 112.8 457.15 A 19.15 19.15 90 0 1 108.9 455.65 A 15.7 15.7 90 0 1 106.2 453.9 A 14.55 14.55 90 0 1 102.1 448.7 A 17.05 17.05 90 0 1 101.9 448.3 Q 100.45 445.1 100.25 440.7 A 31.65 31.65 90 0 1 100.2 440 Z M 218.55 383.25 L 251.45 383.25 L 251.45 366.45 L 165.45 366.45 L 165.45 383.25 L 197.9 383.25 L 197.9 473.1 L 218.55 473.1 L 218.55 383.25 Z M 375 473.1 L 375 434 L 390.9 434 A 52.65 52.65 90 0 0 399.7 433.3 A 41.6 41.6 90 0 0 406.65 431.5 A 38 38 90 0 0 414.45 427.75 A 32.45 32.45 90 0 0 418.65 424.55 A 30.25 30.25 90 0 0 426.25 414.05 Q 428.95 408 428.95 400.8 A 38.3 38.3 90 0 0 428 392.25 A 32.3 32.3 90 0 0 426.25 386.85 A 31.2 31.2 90 0 0 418.65 376 A 34.45 34.45 90 0 0 410.05 370.4 A 41.65 41.65 90 0 0 406.65 369 A 42.45 42.45 90 0 0 397.2 366.8 A 54.1 54.1 90 0 0 390.9 366.45 L 354.45 366.45 L 354.45 473.1 L 375 473.1 Z M 337.5 427.6 L 337.5 412.1 A 69.25 69.25 90 0 0 336.8 402.1 A 60.2 60.2 90 0 0 336.15 398.4 Q 334.8 391.95 332.25 386.55 A 44.65 44.65 90 0 0 326.65 377.8 A 32.7 32.7 90 0 0 319.05 371.1 Q 314.75 368.15 309.35 366.6 A 39.65 39.65 90 0 0 300.5 365.1 A 46.2 46.2 90 0 0 297.8 365 A 42.3 42.3 90 0 0 290.55 365.6 A 35.8 35.8 90 0 0 286.55 366.55 A 33.75 33.75 90 0 0 278.75 369.9 A 30.9 30.9 90 0 0 277.15 370.95 Q 272.9 373.85 269.65 377.95 A 42.75 42.75 90 0 0 264.25 386.8 A 46.7 46.7 90 0 0 264.15 387.1 A 52.6 52.6 90 0 0 261.25 395.7 A 61 61 90 0 0 260.6 398.75 A 68.25 68.25 90 0 0 259.45 408.65 A 78.7 78.7 90 0 0 259.35 412.1 L 259.35 427.6 A 73.45 73.45 90 0 0 259.95 437.15 A 64.4 64.4 90 0 0 260.45 440.15 A 57.5 57.5 90 0 0 262.35 447.9 A 49.65 49.65 90 0 0 263.55 451.15 A 43.7 43.7 90 0 0 267.75 459 A 39.4 39.4 90 0 0 269.2 461 A 37.2 37.2 90 0 0 276.8 468.4 A 35.4 35.4 90 0 0 286.25 472.9 A 39.4 39.4 90 0 0 286.4 472.95 A 37 37 90 0 0 294.1 474.4 A 44.85 44.85 90 0 0 297.9 474.55 A 42.55 42.55 90 0 0 305.4 473.95 A 36.65 36.65 90 0 0 308.85 473.15 A 38.1 38.1 90 0 0 317.1 469.75 A 35.2 35.2 90 0 0 318.2 469.15 Q 322.85 466.2 326.55 461.85 A 45.15 45.15 90 0 0 332.7 452.15 A 53.1 53.1 90 0 0 335.7 443.35 A 61.2 61.2 90 0 0 336.25 440.7 A 64.45 64.45 90 0 0 337.45 430.4 A 73.85 73.85 90 0 0 337.5 427.6 Z M 316.65 411.95 L 316.65 427.6 A 70.7 70.7 90 0 1 316.35 434.2 A 63.55 63.55 90 0 1 316.25 435.25 A 51.65 51.65 90 0 1 315.65 439.15 A 41.4 41.4 90 0 1 315.05 442 A 33.2 33.2 90 0 1 313.65 446.15 A 26.95 26.95 90 0 1 312.3 449.05 A 18.65 18.65 90 0 1 309.7 452.65 A 16.25 16.25 90 0 1 308.1 454.2 Q 306.1 455.9 303.55 456.75 A 16.3 16.3 90 0 1 299.75 457.55 A 19.95 19.95 90 0 1 297.9 457.65 A 18.65 18.65 90 0 1 294.85 457.4 A 14.25 14.25 90 0 1 292.15 456.7 Q 289.6 455.75 287.65 454 A 15.35 15.35 90 0 1 285.5 451.45 A 21 21 90 0 1 283.95 448.85 A 28 28 90 0 1 282.1 443.9 A 33.3 33.3 90 0 1 281.55 441.75 A 41.25 41.25 90 0 1 280.8 437.7 A 50.2 50.2 90 0 1 280.55 435.1 A 90.25 90.25 90 0 1 280.25 428.85 A 101.25 101.25 90 0 1 280.25 427.6 L 280.25 411.95 A 92.3 92.3 90 0 1 280.45 406 A 80.7 80.7 90 0 1 280.55 404.1 A 54.85 54.85 90 0 1 281.05 400.1 A 43.9 43.9 90 0 1 281.65 397.25 A 31.15 31.15 90 0 1 282.8 393.25 A 23.8 23.8 90 0 1 284.3 390.05 Q 286.05 386.95 288.5 384.9 A 13.55 13.55 90 0 1 292.65 382.8 Q 294.95 382.05 297.8 382.05 A 19.4 19.4 90 0 1 300.95 382.3 A 15.45 15.45 90 0 1 303.3 382.85 A 15.5 15.5 90 0 1 307.7 385.15 A 17.1 17.1 90 0 1 310.8 388.4 A 21.05 21.05 90 0 1 312.05 390.25 A 27.5 27.5 90 0 1 314.1 394.7 A 33.55 33.55 90 0 1 314.95 397.3 A 39.7 39.7 90 0 1 315.85 401.45 A 48.25 48.25 90 0 1 316.25 404.15 A 69.45 69.45 90 0 1 316.6 409.85 A 80.4 80.4 90 0 1 316.65 411.95 Z M 390.9 417.3 L 375 417.3 L 375 383.15 L 390.9 383.15 A 23.4 23.4 90 0 1 394.55 383.45 Q 396.7 383.75 398.55 384.55 A 16 16 90 0 1 402.7 387.15 A 14.7 14.7 90 0 1 403.95 388.35 A 16 16 90 0 1 407.1 393.9 A 18.5 18.5 90 0 1 407.15 394 A 21.4 21.4 90 0 1 408.15 399.35 A 25.15 25.15 90 0 1 408.2 400.95 A 18.2 18.2 90 0 1 407.15 407.15 A 14.95 14.95 90 0 1 403.95 412.4 A 15.2 15.2 90 0 1 399.8 415.4 A 18.15 18.15 90 0 1 398.55 416 A 16.95 16.95 90 0 1 394.9 417 Q 393.05 417.3 390.9 417.3 Z" />
</svg>
