<svg xmlns="http://www.w3.org/2000/svg" width="22.5" height="15" viewBox="0 0 15 10">
  <rect stroke="#fff" stroke-width=".2" width="14.8" height="9.8" ry="1" x=".1" y=".1"/>
  <path fill="#fff" d="M5.3975 2.0775 6.13 7.41 7.06 7.41 7.5075 4.53 7.5475 4.26 7.5875 4.53 8.0525 7.41 8.9825 7.41 9.7225 2.0775 8.7775 2.0775 8.415 5.065 8.39 5.2875 8.355 5.07 7.91 2.0775 7.1725 2.0775 6.7525 5.0475 6.72 5.2675 6.6925 5.0575 6.3375 2.0775 5.3975 2.0775ZM13.985 5.74 12.955 5.74Q12.9425 5.945 12.8925 6.1A.9875.9875 90 0112.875 6.1525.87.87 90 0112.7975 6.31.6875.6875 90 0112.695 6.435.6825.6825 90 0112.445 6.5875.8.8 90 0112.42 6.595 1.0675 1.0675 90 0112.22 6.6375 1.3975 1.3975 90 0112.0575 6.6475Q11.9075 6.6475 11.785 6.6125A.68.68 90 0111.565 6.505.7075.7075 90 0111.425 6.37.8125.8125 90 0111.4 6.34.995.995 90 0111.3125 6.1925 1.205 1.205 90 0111.2775 6.1125 1.6125 1.6125 90 0111.215 5.9125Q11.1925 5.815 11.175 5.7075A2.675 2.675 90 0111.17 5.675Q11.135 5.425 11.135 5.105L11.135 4.38A4.415 4.415 90 0111.145 4.1025 3.595 3.595 90 0111.1575 3.9425 2.5075 2.5075 90 0111.19 3.725 1.985 1.985 90 0111.2275 3.57 1.59 1.59 90 0111.31 3.345 1.27 1.27 90 0111.395 3.1925Q11.4975 3.03 11.6475 2.94A.72.72 90 0111.8375 2.865.83.83 90 0111.84 2.865Q11.945 2.8375 12.065 2.8375 12.26 2.8375 12.405 2.8825A.805.805 90 0112.455 2.9.7325.7325 90 0112.65 3.005.6625.6625 90 0112.7275 3.0775.7575.7575 90 0112.845 3.255.9775.9775 90 0112.8925 3.3775Q12.945 3.545 12.96 3.765A2.435 2.435 90 0112.9625 3.795L13.9875 3.795A2.78 2.78 90 0013.915 3.3575 2.2225 2.2225 90 0013.8125 3.0425Q13.6725 2.71 13.4325 2.48A1.6125 1.6125 90 0012.955 2.1675 1.905 1.905 90 0012.8475 2.125 2.015 2.015 90 0012.4325 2.025 2.6925 2.6925 90 0012.065 2 2.075 2.075 90 0011.675 2.035 1.8025 1.8025 90 0011.51 2.075Q11.2525 2.15 11.0375 2.29 10.795 2.455 10.605 2.6925A2.01 2.01 90 0010.32 3.1775 2.275 2.275 90 0010.2975 3.235 2.5075 2.5075 90 0010.1725 3.6325 2.905 2.905 90 0010.1425 3.775 3.4425 3.4425 90 0010.095 4.2575 3.935 3.935 90 0010.0925 4.3875L10.0925 5.105A3.7375 3.7375 90 0010.12 5.5825 3.2475 3.2475 90 0010.1475 5.7575 2.995 2.995 90 0010.24 6.1225 2.505 2.505 90 0010.3125 6.3225Q10.4225 6.5775 10.58 6.79 10.74 7.0025 10.945 7.1525A1.7025 1.7025 90 0011.415 7.3875 1.925 1.925 90 0011.4475 7.4 1.96 1.96 90 0011.8675 7.4775 2.365 2.365 90 0012.0575 7.485 2.4725 2.4725 90 0012.505 7.4475 2.025 2.025 90 0012.82 7.3625 1.7975 1.7975 90 0013.2575 7.14 1.6175 1.6175 90 0013.4125 7.0125Q13.6625 6.7875 13.81 6.465A1.9075 1.9075 90 0013.9575 5.9825 2.355 2.355 90 0013.985 5.74ZM3.555 2.915 5.2 2.915 5.2 2.0775.9 2.0775.9 2.915 2.5225 2.915 2.5225 7.41 3.555 7.41 3.555 2.915Z" />
</svg>
