<svg xmlns="http://www.w3.org/2000/svg" width="22.5" height="15" viewBox="0 0 15 10">
  <rect stroke="#fff" stroke-width=".2" width="14.8" height="9.8" ry="1" x=".1" y=".1"/>
  <path fill="#fff" d="M9.129 6.35 7.715 6.35A2.5375 2.5375 90 007.764 6.861 1.918 1.918 90 007.9355 7.3615Q8.1595 7.792 8.5445 8.107 8.9505 8.4325 9.4965 8.597 10.0425 8.765 10.599 8.765 11.1695 8.765 11.6525 8.6285A2.6775 2.6775 90 0012.153 8.436 2.198 2.198 90 0012.482 8.226 1.8655 1.8655 90 0013.028 7.582 1.764 1.764 90 0013.2065 6.9905 2.233 2.233 90 0013.224 6.7105 2.1035 2.1035 90 0013.1505 6.1435 1.771 1.771 90 0012.965 5.7025 2.6075 2.6075 90 0012.377 5.0305 3.0345 3.0345 90 0012.2615 4.9395 3.906 3.906 90 0011.719 4.6315 4.389 4.389 90 0011.621 4.586Q11.271 4.432 10.886 4.3235A7.0105 7.0105 90 0110.5465 4.222 5.236 5.236 90 0110.2455 4.1135Q9.9585 4.0015 9.759 3.865A1.1865 1.1865 90 019.5945 3.732.8855.8855 90 019.4545 3.5605.7035.7035 90 019.3495 3.1895.8505.8505 90 019.3495 3.1825.882.882 90 019.409 2.8535.847.847 90 019.43 2.8115.854.854 90 019.654 2.5175.973.973 90 019.661 2.5105 1.022 1.022 90 019.8675 2.3845 1.337 1.337 90 0110.039 2.318 1.4875 1.4875 90 0110.2945 2.262 2.0405 2.0405 90 0110.55 2.248 1.96 1.96 90 0110.809 2.2655Q10.963 2.2865 11.096 2.332A1.239 1.239 90 0111.334 2.4475 1.0185 1.0185 90 0111.488 2.5665 1.015 1.015 90 0111.719 2.9305 1.3965 1.3965 90 0111.7995 3.2525 1.6765 1.6765 90 0111.81 3.3925L13.2135 3.3925A2.2575 2.2575 90 0013.1225 2.7415 2.037 2.037 90 0013.021 2.4685Q12.825 2.0485 12.475 1.7405A2.4255 2.4255 90 0011.8765 1.3625 2.9085 2.9085 90 0011.642 1.268 3.0275 3.0275 90 0010.9385 1.1175 3.731 3.731 90 0010.5745 1.1 3.8325 3.8325 90 009.9025 1.156 3.248 3.248 90 009.528 1.247 2.8 2.8 90 009.003 1.464 2.3415 2.3415 90 008.6915 1.6635 1.96 1.96 90 008.1385 2.3215Q7.939 2.7065 7.939 3.1755A1.9495 1.9495 90 008.016 3.7355 1.7745 1.7745 90 008.0895 3.935 1.932 1.932 90 008.45 4.481 2.2645 2.2645 90 008.5375 4.572Q8.8175 4.838 9.2445 5.069A4.5465 4.5465 90 009.304 5.1005 4.893 4.893 90 009.8465 5.335 6.594 6.594 90 0010.396 5.51Q10.795 5.6185 11.0645 5.741A2.3625 2.3625 90 0111.2675 5.8495Q11.369 5.909 11.4495 5.972A1.2915 1.2915 90 0111.502 6.0175 1.0745 1.0745 90 0111.635 6.1645.8085.8085 90 0111.7365 6.3465.9975.9975 90 0111.8065 6.693 1.141 1.141 90 0111.8065 6.7175.8505.8505 90 0111.768 6.98.777.777 90 0111.7225 7.085Q11.642 7.253 11.488 7.372A1.0325 1.0325 90 0111.285 7.491 1.372 1.372 90 0111.11 7.554 1.5365 1.5365 90 0110.858 7.6065 2.114 2.114 90 0110.599 7.6205Q10.277 7.6205 10.0075 7.5505A1.3405 1.3405 90 019.738 7.4455 1.099 1.099 90 019.549 7.323 1.0185 1.0185 90 019.262 6.959 1.1935 1.1935 90 019.248 6.931Q9.1465 6.707 9.129 6.399A2.2155 2.2155 90 019.129 6.35ZM3.06 7.1095 5.3 7.1095 5.734 8.667 7.253 8.667 4.852 1.2015 3.5465 1.2015 1.1 8.667 2.619 8.667 3.06 7.1095ZM4.9605 5.8845 3.4135 5.8845 4.1975 3.137 4.9605 5.8845Z" />
</svg>
