<svg xmlns="http://www.w3.org/2000/svg" width="22.5" height="15" viewBox="0 0 19 10">
  <rect fill="#fff" stroke="#000" stroke-width=".2" width="18.8" height="9.8" ry="1" x=".1" y=".1"/>
  <path d="M1.9325 5.0725 4.1225 5.0725 4.1225 4.26 1.9325 4.26 1.9325 2.915 4.4825 2.915 4.4825 2.0775.9 2.0775.9 7.41 4.4925 7.41 4.4925 6.5775 1.9325 6.5775 1.9325 5.0725ZM15.2 5.7525 14.19 5.7525A1.8125 1.8125 90 0014.225 6.1175 1.37 1.37 90 0014.35 6.475Q14.5075 6.7825 14.7825 7.01 15.0725 7.24 15.4625 7.36 15.8525 7.4775 16.2525 7.4775 16.6575 7.4775 17.0025 7.3825A1.9125 1.9125 90 0017.36 7.2425 1.57 1.57 90 0017.595 7.095 1.3325 1.3325 90 0017.985 6.635 1.26 1.26 90 0018.115 6.2125 1.595 1.595 90 0018.1275 6.01 1.5025 1.5025 90 0018.075 5.605 1.265 1.265 90 0017.94 5.2925 1.8625 1.8625 90 0017.52 4.81 2.1675 2.1675 90 0017.4375 4.7475 2.79 2.79 90 0017.05 4.525 3.135 3.135 90 0016.98 4.495Q16.7325 4.385 16.4575 4.3075A5.0075 5.0075 90 0116.2125 4.235 3.74 3.74 90 0115.9975 4.1575Q15.795 4.0775 15.65 3.9775A.8475.8475 90 0115.5325 3.8825.6325.6325 90 0115.4325 3.7625.5025.5025 90 0115.3575 3.495.6075.6075 90 0115.3575 3.49.63.63 90 0115.4025 3.255.605.605 90 0115.415 3.225.61.61 90 0115.575 3.0175.695.695 90 0115.5825 3.01.73.73 90 0115.73 2.92.955.955 90 0115.85 2.8725 1.0625 1.0625 90 0116.0325 2.835 1.4575 1.4575 90 0116.215 2.825 1.4 1.4 90 0116.4 2.835Q16.51 2.85 16.605 2.885A.885.885 90 0116.775 2.965.7275.7275 90 0116.885 3.05.725.725 90 0117.0525 3.31.9975.9975 90 0117.1075 3.5425 1.1975 1.1975 90 0117.115 3.64L18.12 3.64A1.6125 1.6125 90 0018.055 3.1775 1.455 1.455 90 0017.98 2.9825Q17.84 2.68 17.5925 2.4625A1.7325 1.7325 90 0017.165 2.19 2.0775 2.0775 90 0016.9975 2.125 2.1625 2.1625 90 0016.4925 2.015 2.665 2.665 90 0016.2325 2.0025 2.7375 2.7375 90 0015.7525 2.045 2.32 2.32 90 0015.485 2.1075 2 2 90 0015.11 2.2625 1.6725 1.6725 90 0014.89 2.4075 1.4 1.4 90 0014.495 2.875Q14.35 3.15 14.35 3.4875A1.3925 1.3925 90 0014.4075 3.885 1.2675 1.2675 90 0014.46 4.03 1.38 1.38 90 0014.715 4.4175 1.6175 1.6175 90 0014.78 4.4825Q14.9775 4.675 15.2825 4.8375A3.2475 3.2475 90 0015.3275 4.86 3.495 3.495 90 0015.7125 5.0275 4.71 4.71 90 0016.105 5.1525Q16.39 5.23 16.5825 5.32A1.6875 1.6875 90 0116.7275 5.395Q16.8 5.4375 16.8575 5.485A.9225.9225 90 0116.895 5.515.7675.7675 90 0116.99 5.6225.5775.5775 90 0117.0625 5.75.7125.7125 90 0117.1125 5.9975.815.815 90 0117.1125 6.0175.6075.6075 90 0117.085 6.2025.555.555 90 0117.0525 6.28Q16.995 6.3975 16.885 6.4825A.7375.7375 90 0116.7425 6.5675.98.98 90 0116.615 6.615 1.0975 1.0975 90 0116.435 6.65 1.51 1.51 90 0116.2525 6.6625Q16.02 6.6625 15.8275 6.61A.9575.9575 90 0115.635 6.5375.785.785 90 0115.5 6.45.7275.7275 90 0115.295 6.19.8525.8525 90 0115.285 6.1675Q15.2125 6.0075 15.2025 5.7875A1.5825 1.5825 90 0115.2 5.7525ZM13.545 5.74 12.515 5.74Q12.5025 5.945 12.455 6.1A.9875.9875 90 0112.435 6.1525.87.87 90 0112.3575 6.31.6875.6875 90 0112.255 6.435.6825.6825 90 0112.0075 6.5875.8.8 90 0111.9825 6.595 1.0675 1.0675 90 0111.7825 6.6375 1.3975 1.3975 90 0111.62 6.6475Q11.47 6.6475 11.345 6.6125A.68.68 90 0111.125 6.505.7075.7075 90 0110.985 6.37.8125.8125 90 0110.9625 6.34.995.995 90 0110.875 6.1925 1.205 1.205 90 0110.84 6.1125 1.6125 1.6125 90 0110.775 5.9125Q10.7525 5.815 10.735 5.7075A2.675 2.675 90 0110.73 5.675Q10.695 5.425 10.695 5.105L10.695 4.38A4.415 4.415 90 0110.705 4.1025 3.595 3.595 90 0110.7175 3.9425 2.5075 2.5075 90 0110.75 3.725 1.985 1.985 90 0110.7875 3.57 1.59 1.59 90 0110.87 3.345 1.27 1.27 90 0110.955 3.1925Q11.0575 3.03 11.21 2.94A.72.72 90 0111.3975 2.865.83.83 90 0111.4 2.865Q11.505 2.8375 11.6275 2.8375 11.82 2.8375 11.9675 2.8825A.805.805 90 0112.0175 2.9.7325.7325 90 0112.2125 3.005.6625.6625 90 0112.29 3.0775.7575.7575 90 0112.405 3.255.9775.9775 90 0112.4525 3.3775Q12.505 3.545 12.5225 3.765A2.435 2.435 90 0112.5225 3.795L13.55 3.795A2.78 2.78 90 0013.4775 3.3575 2.2225 2.2225 90 0013.3725 3.0425Q13.235 2.71 12.9925 2.48A1.6125 1.6125 90 0012.515 2.1675 1.905 1.905 90 0012.4075 2.125 2.015 2.015 90 0011.9925 2.025 2.6925 2.6925 90 0011.6275 2 2.075 2.075 90 0011.2375 2.035 1.8025 1.8025 90 0011.0725 2.075Q10.8125 2.15 10.5975 2.29 10.355 2.455 10.165 2.6925A2.01 2.01 90 009.88 3.1775 2.275 2.275 90 009.8575 3.235 2.5075 2.5075 90 009.7325 3.6325 2.905 2.905 90 009.7025 3.775 3.4425 3.4425 90 009.655 4.2575 3.935 3.935 90 009.6525 4.3875L9.6525 5.105A3.7375 3.7375 90 009.6825 5.5825 3.2475 3.2475 90 009.71 5.7575 2.995 2.995 90 009.8 6.1225 2.505 2.505 90 009.8725 6.3225Q9.9825 6.5775 10.1425 6.79 10.3 7.0025 10.505 7.1525A1.7025 1.7025 90 0010.975 7.3875 1.925 1.925 90 0011.01 7.4 1.96 1.96 90 0011.4275 7.4775 2.365 2.365 90 0011.62 7.485 2.4725 2.4725 90 0012.065 7.4475 2.025 2.025 90 0012.38 7.3625 1.7975 1.7975 90 0012.8175 7.14 1.6175 1.6175 90 0012.975 7.0125Q13.2225 6.7875 13.3725 6.465A1.9075 1.9075 90 0013.5175 5.9825 2.355 2.355 90 0013.545 5.74ZM7.6175 2.915 9.26 2.915 9.26 2.0775 4.9625 2.0775 4.9625 2.915 6.5825 2.915 6.5825 7.41 7.6175 7.41 7.6175 2.915Z" />
</svg>
