<svg xmlns="http://www.w3.org/2000/svg" viewBox="0 0 20 8" width="20" height="8">
  <rect fill="#07c" width="20" height="8" stroke="#eee" stroke-width="0.5px" />
  <path fill="#fff" d="M 15.4879 6.4772 L 16.4309 6.4772 L 16.4309 1.5713 L 15.481 1.5713 L 15.4787 4.72 L 14.124 1.5713 L 13.1695 1.5713 L 13.1695 6.4772 L 14.124 6.4772 L 14.124 3.3124 L 15.4879 6.4772 Z M 7.2171 6.4772 L 8.1532 6.4772 L 8.1532 1.5713 L 7.2171 1.5713 L 7.2171 3.5815 L 5.8279 3.5815 L 5.8279 1.5713 L 4.8895 1.5713 L 4.8895 6.4772 L 5.8279 6.4772 L 5.8279 4.3497 L 7.2171 4.3497 L 7.2171 6.4772 Z M 4.1811 4.9408 L 3.2358 4.9408 Q 3.2243 5.1294 3.1783 5.272 A 0.9085 0.9085 90 0 1 3.1599 5.3203 A 0.8004 0.8004 90 0 1 3.0886 5.4652 A 0.6325 0.6325 90 0 1 2.9966 5.5802 A 0.6279 0.6279 90 0 1 2.7666 5.7205 A 0.736 0.736 90 0 1 2.7436 5.7274 A 0.9821 0.9821 90 0 1 2.5596 5.7665 A 1.2857 1.2857 90 0 1 2.4101 5.7757 Q 2.2721 5.7757 2.1571 5.7435 A 0.6256 0.6256 90 0 1 1.9547 5.6446 A 0.6509 0.6509 90 0 1 1.8259 5.5204 A 0.7475 0.7475 90 0 1 1.8052 5.4928 A 0.9154 0.9154 90 0 1 1.7247 5.3571 A 1.1086 1.1086 90 0 1 1.6925 5.2835 A 1.4835 1.4835 90 0 1 1.635 5.0995 Q 1.612 5.0098 1.5959 4.9109 A 2.461 2.461 90 0 1 1.5913 4.881 Q 1.5591 4.651 1.5591 4.3566 L 1.5591 3.6896 A 4.0618 4.0618 90 0 1 1.5683 3.4343 A 3.3074 3.3074 90 0 1 1.5798 3.2871 A 2.3069 2.3069 90 0 1 1.6097 3.087 A 1.8262 1.8262 90 0 1 1.6442 2.9444 A 1.4628 1.4628 90 0 1 1.7201 2.7374 A 1.1684 1.1684 90 0 1 1.7983 2.5971 Q 1.8949 2.4476 2.0329 2.3648 A 0.6624 0.6624 90 0 1 2.2054 2.2958 A 0.7636 0.7636 90 0 1 2.2077 2.2958 Q 2.3043 2.2705 2.417 2.2705 Q 2.5941 2.2705 2.7298 2.3119 A 0.7406 0.7406 90 0 1 2.7758 2.328 A 0.6739 0.6739 90 0 1 2.9552 2.4246 A 0.6095 0.6095 90 0 1 3.0265 2.4913 A 0.6969 0.6969 90 0 1 3.1323 2.6546 A 0.8993 0.8993 90 0 1 3.176 2.7673 Q 3.2243 2.9214 3.2404 3.1238 A 2.2402 2.2402 90 0 1 3.2404 3.1514 L 4.1857 3.1514 A 2.5576 2.5576 90 0 0 4.119 2.7489 A 2.0447 2.0447 90 0 0 4.0224 2.4591 Q 3.8959 2.1532 3.6728 1.9416 A 1.4835 1.4835 90 0 0 3.2335 1.6541 A 1.7526 1.7526 90 0 0 3.1346 1.615 A 1.8538 1.8538 90 0 0 2.7528 1.523 A 2.4771 2.4771 90 0 0 2.417 1.5 A 1.909 1.909 90 0 0 2.0582 1.5322 A 1.6583 1.6583 90 0 0 1.9064 1.569 Q 1.6672 1.638 1.4694 1.7668 Q 1.2463 1.9186 1.0715 2.1371 A 1.8492 1.8492 90 0 0 0.8093 2.5833 A 2.093 2.093 90 0 0 0.7886 2.6362 A 2.3069 2.3069 90 0 0 0.6736 3.0019 A 2.6726 2.6726 90 0 0 0.6483 3.133 A 3.1671 3.1671 90 0 0 0.6023 3.5769 A 3.6202 3.6202 90 0 0 0.6 3.6965 L 0.6 4.3566 A 3.4385 3.4385 90 0 0 0.6276 4.7959 A 2.9877 2.9877 90 0 0 0.6529 4.9569 A 2.7554 2.7554 90 0 0 0.7357 5.2927 A 2.3046 2.3046 90 0 0 0.8024 5.4767 Q 0.9036 5.7113 1.0508 5.9068 Q 1.1957 6.1023 1.3843 6.2403 A 1.5663 1.5663 90 0 0 1.8167 6.4565 A 1.771 1.771 90 0 0 1.8489 6.468 A 1.8032 1.8032 90 0 0 2.233 6.5393 A 2.1758 2.1758 90 0 0 2.4101 6.5462 A 2.2747 2.2747 90 0 0 2.8195 6.5117 A 1.863 1.863 90 0 0 3.1093 6.4335 A 1.6537 1.6537 90 0 0 3.5118 6.2288 A 1.4881 1.4881 90 0 0 3.6567 6.1115 Q 3.8844 5.9045 4.0224 5.6078 A 1.7549 1.7549 90 0 0 4.1558 5.1639 A 2.1666 2.1666 90 0 0 4.1811 4.9408 Z M 9.9955 5.4514 L 11.4698 5.4514 L 11.755 6.4772 L 12.7532 6.4772 L 11.1754 1.5713 L 10.3175 1.5713 L 8.7098 6.4772 L 9.7057 6.4772 L 9.9955 5.4514 Z M 11.2467 4.6464 L 10.2301 4.6464 L 10.7453 2.8409 L 11.2467 4.6464 Z M 18.3192 5.9344 A 0.6325 0.6325 90 0 0 18.3629 6.1713 A 0.5865 0.5865 90 0 0 18.494 6.3691 A 0.5819 0.5819 90 0 0 18.793 6.5255 A 0.8533 0.8533 90 0 0 18.9678 6.5439 A 0.8188 0.8188 90 0 0 19.1748 6.5186 A 0.5842 0.5842 90 0 0 19.4416 6.3691 A 0.5819 0.5819 90 0 0 19.6187 5.9505 A 0.7682 0.7682 90 0 0 19.6187 5.9344 A 0.6555 0.6555 90 0 0 19.575 5.6929 A 0.598 0.598 90 0 0 19.4462 5.4928 A 0.5727 0.5727 90 0 0 19.1472 5.3318 A 0.8487 0.8487 90 0 0 18.9678 5.3134 A 0.8418 0.8418 90 0 0 18.7746 5.3341 A 0.5612 0.5612 90 0 0 18.4894 5.4951 Q 18.3192 5.6745 18.3192 5.9344 Z" />
</svg>
