<svg xmlns="http://www.w3.org/2000/svg" viewBox="0 0 500 500" width="20" height="20">
  <rect x="10" y="10" width="480" height="480" fill="#ddd" stroke="#f00" stroke-width="15px" rx="60"/>
  <circle r="150" cx="250" cy="190" fill="red" stroke="#fff" stroke-width="3"/>
  <path fill="#fff" d="M 267 66 L 308 68 L 227 187 L 326 170 L 259 279 L 272 278 L 232 317 L 228 265 L 238 275 L 268 205 L 179 224 L 267 66 Z" />
  <path d="M 247.6 401.045 L 238.51 365 L 215.515 365 L 215.515 460.985 L 232.525 460.985 L 232.525 432.545 L 231.715 389.435 L 243.01 429.35 L 252.145 429.35 L 264.745 387.68 L 263.98 432.545 L 263.98 460.985 L 280.945 460.985 L 280.945 365 L 257.95 365 L 247.6 401.045 Z M 194.365 365 L 138.835 365 L 138.835 379.985 L 157.105 379.985 L 157.105 446.09 L 138.835 446.09 L 138.835 460.985 L 194.365 460.985 L 194.365 446.09 L 175.645 446.09 L 175.645 379.985 L 194.365 379.985 L 194.365 365 Z M 356.365 365 L 300.88 365 L 300.88 379.985 L 319.15 379.985 L 319.15 446.09 L 300.88 446.09 L 300.88 460.985 L 356.365 460.985 L 356.365 446.09 L 337.645 446.09 L 337.645 379.985 L 356.365 379.985 L 356.365 365 Z M 418.735 380.075 L 448.345 380.075 L 448.345 365 L 370.945 365 L 370.945 380.075 L 400.15 380.075 L 400.15 460.985 L 418.735 460.985 L 418.735 380.075 Z M 118.54 446 L 73.585 446 L 73.585 365 L 55 365 L 55 460.985 L 118.54 460.985 L 118.54 446 Z" />
</svg>
