<svg xmlns="http://www.w3.org/2000/svg" width="22.5" height="15" viewBox="0 0 15 10">
  <rect stroke="#fff" stroke-width=".2" width="14.8" height="9.8" ry="1" x=".1" y=".1"/>
  <path fill="#fff" d="M4.7925 5.74 3.765 5.74Q3.7525 5.945 3.7025 6.1A.9875.9875 90 013.6825 6.1525.87.87 90 013.605 6.31.6875.6875 90 013.505 6.435.6825.6825 90 013.255 6.5875.8.8 90 013.23 6.595 1.0675 1.0675 90 013.03 6.6375 1.3975 1.3975 90 012.8675 6.6475Q2.7175 6.6475 2.5925 6.6125A.68.68 90 012.3725 6.505.7075.7075 90 012.2325 6.37.8125.8125 90 012.21 6.34.995.995 90 012.1225 6.1925 1.205 1.205 90 012.0875 6.1125 1.6125 1.6125 90 012.025 5.9125Q2 5.815 1.9825 5.7075A2.675 2.675 90 011.9775 5.675Q1.9425 5.425 1.9425 5.105L1.9425 4.38A4.415 4.415 90 011.9525 4.1025 3.595 3.595 90 011.965 3.9425 2.5075 2.5075 90 011.9975 3.725 1.985 1.985 90 012.035 3.57 1.59 1.59 90 012.1175 3.345 1.27 1.27 90 012.2025 3.1925Q2.3075 3.03 2.4575 2.94A.72.72 90 012.645 2.865.83.83 90 012.6475 2.865Q2.7525 2.8375 2.875 2.8375 3.0675 2.8375 3.215 2.8825A.805.805 90 013.265 2.9.7325.7325 90 013.46 3.005.6625.6625 90 013.5375 3.0775.7575.7575 90 013.6525 3.255.9775.9775 90 013.7 3.3775Q3.7525 3.545 3.77 3.765A2.435 2.435 90 013.77 3.795L4.7975 3.795A2.78 2.78 90 004.725 3.3575 2.2225 2.2225 90 004.62 3.0425Q4.4825 2.71 4.24 2.48A1.6125 1.6125 90 003.7625 2.1675 1.905 1.905 90 003.655 2.125 2.015 2.015 90 003.24 2.025 2.6925 2.6925 90 002.875 2 2.075 2.075 90 002.485 2.035 1.8025 1.8025 90 002.32 2.075Q2.06 2.15 1.845 2.29 1.6025 2.455 1.4125 2.6925A2.01 2.01 90 001.1275 3.1775 2.275 2.275 90 001.105 3.235 2.5075 2.5075 90 00.98 3.6325 2.905 2.905 90 00.9525 3.775 3.4425 3.4425 90 00.9025 4.2575 3.935 3.935 90 00.9 4.3875L.9 5.105A3.7375 3.7375 90 00.93 5.5825 3.2475 3.2475 90 00.9575 5.7575 2.995 2.995 90 001.0475 6.1225 2.505 2.505 90 001.12 6.3225Q1.23 6.5775 1.39 6.79 1.5475 7.0025 1.7525 7.1525A1.7025 1.7025 90 002.2225 7.3875 1.925 1.925 90 002.2575 7.4 1.96 1.96 90 002.675 7.4775 2.365 2.365 90 002.8675 7.485 2.4725 2.4725 90 003.3125 7.4475 2.025 2.025 90 003.6275 7.3625 1.7975 1.7975 90 004.065 7.14 1.6175 1.6175 90 004.2225 7.0125Q4.47 6.7875 4.62 6.465A1.9075 1.9075 90 004.765 5.9825 2.355 2.355 90 004.7925 5.74ZM13.795 5.74 12.765 5.74Q12.7525 5.945 12.7025 6.1A.9875.9875 90 0112.685 6.1525.87.87 90 0112.6075 6.31.6875.6875 90 0112.505 6.435.6825.6825 90 0112.255 6.5875.8.8 90 0112.23 6.595 1.0675 1.0675 90 0112.03 6.6375 1.3975 1.3975 90 0111.8675 6.6475Q11.7175 6.6475 11.595 6.6125A.68.68 90 0111.3725 6.505.7075.7075 90 0111.2325 6.37.8125.8125 90 0111.21 6.34.995.995 90 0111.1225 6.1925 1.205 1.205 90 0111.0875 6.1125 1.6125 1.6125 90 0111.025 5.9125Q11 5.815 10.985 5.7075A2.675 2.675 90 0110.98 5.675Q10.945 5.425 10.945 5.105L10.945 4.38A4.415 4.415 90 0110.9525 4.1025 3.595 3.595 90 0110.9675 3.9425 2.5075 2.5075 90 0111 3.725 1.985 1.985 90 0111.0375 3.57 1.59 1.59 90 0111.12 3.345 1.27 1.27 90 0111.2025 3.1925Q11.3075 3.03 11.4575 2.94A.72.72 90 0111.6475 2.865.83.83 90 0111.65 2.865Q11.755 2.8375 11.875 2.8375 12.0675 2.8375 12.215 2.8825A.805.805 90 0112.265 2.9.7325.7325 90 0112.46 3.005.6625.6625 90 0112.5375 3.0775.7575.7575 90 0112.655 3.255.9775.9775 90 0112.7 3.3775Q12.755 3.545 12.77 3.765A2.435 2.435 90 0112.7725 3.795L13.7975 3.795A2.78 2.78 90 0013.725 3.3575 2.2225 2.2225 90 0013.6225 3.0425Q13.4825 2.71 13.2425 2.48A1.6125 1.6125 90 0012.765 2.1675 1.905 1.905 90 0012.6575 2.125 2.015 2.015 90 0012.2425 2.025 2.6925 2.6925 90 0011.875 2 2.075 2.075 90 0011.485 2.035 1.8025 1.8025 90 0011.32 2.075Q11.0625 2.15 10.8475 2.29 10.605 2.455 10.415 2.6925A2.01 2.01 90 0010.13 3.1775 2.275 2.275 90 0010.1075 3.235 2.5075 2.5075 90 009.9825 3.6325 2.905 2.905 90 009.9525 3.775 3.4425 3.4425 90 009.9025 4.2575 3.935 3.935 90 009.9025 4.3875L9.9025 5.105A3.7375 3.7375 90 009.93 5.5825 3.2475 3.2475 90 009.9575 5.7575 2.995 2.995 90 0010.0475 6.1225 2.505 2.505 90 0010.12 6.3225Q10.23 6.5775 10.39 6.79 10.55 7.0025 10.755 7.1525A1.7025 1.7025 90 0011.2225 7.3875 1.925 1.925 90 0011.2575 7.4 1.96 1.96 90 0011.6775 7.4775 2.365 2.365 90 0011.8675 7.485 2.4725 2.4725 90 0012.315 7.4475 2.025 2.025 90 0012.63 7.3625 1.7975 1.7975 90 0013.0675 7.14 1.6175 1.6175 90 0013.2225 7.0125Q13.4725 6.7875 13.62 6.465A1.9075 1.9075 90 0013.7675 5.9825 2.355 2.355 90 0013.795 5.74ZM7.865 2.915 9.51 2.915 9.51 2.0775 5.21 2.0775 5.21 2.915 6.8325 2.915 6.8325 7.41 7.865 7.41 7.865 2.915Z" />
  <path stroke="#f00" stroke-width="1.5" d="M 0.4 9.4 L 14.6 0.6" />
</svg>
