<svg xmlns="http://www.w3.org/2000/svg" viewBox="0 0 500 500" width="17" height="17">
  <rect x="10" y="10" width="480" height="480" fill="#ddd" stroke="red" stroke-width="15px" rx="60"/>
  <circle r="90" cx="250" cy="250" fill="red" stroke="#fff" stroke-width="3"/>
  <path d="M 413.7 111.75 L 425 99.4 L 451.35 143.2 L 475.8 143.2 L 438.6 83.7 L 474.5 36.55 L 449.3 36.55 L 423.4 72.35 L 413.7 85.4 L 413.7 36.55 L 393.05 36.55 L 393.05 143.2 L 413.7 143.2 L 413.7 111.75 Z M 377.25 109.8 L 356.65 109.8 Q 356.4 113.9 355.4 117 A 19.75 19.75 90 0 1 355.05 118.05 A 17.4 17.4 90 0 1 353.5 121.2 A 13.75 13.75 90 0 1 351.45 123.7 A 13.65 13.65 90 0 1 346.45 126.75 A 16 16 90 0 1 345.95 126.9 A 21.35 21.35 90 0 1 341.95 127.75 A 27.95 27.95 90 0 1 338.7 127.95 Q 335.7 127.95 333.25 127.25 A 13.6 13.6 90 0 1 328.85 125.1 A 14.15 14.15 90 0 1 326 122.4 A 16.25 16.25 90 0 1 325.55 121.8 A 19.9 19.9 90 0 1 323.8 118.85 A 24.1 24.1 90 0 1 323.1 117.25 A 32.25 32.25 90 0 1 321.85 113.25 Q 321.35 111.3 321.05 109.15 A 53.5 53.5 90 0 1 320.95 108.5 Q 320.25 103.5 320.25 97.1 L 320.25 82.6 A 88.3 88.3 90 0 1 320.4 77.05 A 71.9 71.9 90 0 1 320.7 73.85 A 50.15 50.15 90 0 1 321.35 69.5 A 39.7 39.7 90 0 1 322.1 66.4 A 31.8 31.8 90 0 1 323.75 61.9 A 25.4 25.4 90 0 1 325.4 58.85 Q 327.5 55.6 330.5 53.8 A 14.4 14.4 90 0 1 334.3 52.3 A 16.6 16.6 90 0 1 334.35 52.3 Q 336.45 51.75 338.85 51.75 Q 342.75 51.75 345.65 52.65 A 16.1 16.1 90 0 1 346.65 53 A 14.65 14.65 90 0 1 350.55 55.1 A 13.25 13.25 90 0 1 352.1 56.55 A 15.15 15.15 90 0 1 354.45 60.1 A 19.55 19.55 90 0 1 355.4 62.55 Q 356.45 65.9 356.75 70.3 A 48.7 48.7 90 0 1 356.8 70.9 L 377.3 70.9 A 55.6 55.6 90 0 0 375.85 62.15 A 44.45 44.45 90 0 0 373.8 55.85 Q 371 49.2 366.2 44.6 A 32.25 32.25 90 0 0 356.65 38.35 A 38.1 38.1 90 0 0 354.5 37.5 A 40.3 40.3 90 0 0 346.2 35.5 A 53.85 53.85 90 0 0 338.85 35 A 41.5 41.5 90 0 0 331.05 35.7 A 36.05 36.05 90 0 0 327.75 36.5 Q 322.6 38 318.3 40.8 Q 313.45 44.1 309.65 48.85 A 40.2 40.2 90 0 0 303.95 58.55 A 45.5 45.5 90 0 0 303.5 59.7 A 50.15 50.15 90 0 0 301 67.65 A 58.1 58.1 90 0 0 300.4 70.5 A 68.85 68.85 90 0 0 299.4 80.15 A 78.7 78.7 90 0 0 299.4 82.75 L 299.4 97.1 A 74.75 74.75 90 0 0 299.95 106.65 A 64.95 64.95 90 0 0 300.5 110.15 A 59.9 59.9 90 0 0 302.3 117.45 A 50.1 50.1 90 0 0 303.8 121.45 Q 305.95 126.55 309.15 130.8 Q 312.35 135.05 316.45 138.05 A 34.05 34.05 90 0 0 325.8 142.75 A 38.5 38.5 90 0 0 326.5 143 A 39.2 39.2 90 0 0 334.9 144.55 A 47.3 47.3 90 0 0 338.7 144.7 A 49.45 49.45 90 0 0 347.65 143.95 A 40.5 40.5 90 0 0 353.95 142.25 A 35.95 35.95 90 0 0 362.7 137.8 A 32.35 32.35 90 0 0 365.8 135.25 Q 370.8 130.75 373.75 124.3 A 38.15 38.15 90 0 0 376.7 114.65 A 47.1 47.1 90 0 0 377.25 109.8 Z M 195.15 126.55 L 145.2 126.55 L 145.2 36.55 L 124.55 36.55 L 124.55 143.2 L 195.15 143.2 L 195.15 126.55 Z M 33 36.55 L 33 143.2 L 71.9 143.2 A 67.35 67.35 90 0 0 80.25 142.7 A 50.9 50.9 90 0 0 87.7 141.2 A 36.9 36.9 90 0 0 94.6 138.55 A 29.5 29.5 90 0 0 99.65 135.25 A 26.25 26.25 90 0 0 107.2 125.45 A 29.35 29.35 90 0 0 109.4 117.85 A 39 39 90 0 0 109.85 111.9 A 28.65 28.65 90 0 0 108.75 104.1 A 23.75 23.75 90 0 0 105.5 97.1 A 22.85 22.85 90 0 0 100.25 91.85 A 19 19 90 0 0 97.4 90.1 Q 95.9 89.4 94.15 88.8 A 39.45 39.45 90 0 0 91.9 88.1 L 91.9 88.05 Q 94.6 87 96.85 85.55 A 25.55 25.55 90 0 0 100.15 82.95 A 23.1 23.1 90 0 0 100.8 82.3 Q 104.05 79.1 105.7 74.8 Q 107.35 70.5 107.4 65.7 A 34.2 34.2 90 0 0 106.85 59.3 A 25.15 25.15 90 0 0 104.65 52.7 A 24.35 24.35 90 0 0 96.85 43.65 Q 91.8 40.05 84.65 38.3 A 59.4 59.4 90 0 0 76.15 36.85 A 76.85 76.85 90 0 0 68.8 36.55 L 33 36.55 Z M 287.6 97.7 L 287.6 82.15 A 69.25 69.25 90 0 0 286.9 72.15 A 60.2 60.2 90 0 0 286.25 68.45 Q 284.9 62.05 282.3 56.6 A 44.65 44.65 90 0 0 276.7 47.9 A 32.7 32.7 90 0 0 269.15 41.15 Q 264.8 38.2 259.45 36.65 A 39.65 39.65 90 0 0 250.55 35.15 A 46.2 46.2 90 0 0 247.9 35.05 A 42.3 42.3 90 0 0 240.65 35.65 A 35.8 35.8 90 0 0 236.6 36.6 A 33.75 33.75 90 0 0 228.85 40 A 30.9 30.9 90 0 0 227.25 41 Q 223 43.95 219.75 48.05 A 42.75 42.75 90 0 0 214.35 56.9 A 46.7 46.7 90 0 0 214.2 57.2 A 52.6 52.6 90 0 0 211.3 65.75 A 61 61 90 0 0 210.65 68.85 A 68.25 68.25 90 0 0 209.5 78.7 A 78.7 78.7 90 0 0 209.45 82.15 L 209.45 97.7 A 73.45 73.45 90 0 0 210.05 107.2 A 64.4 64.4 90 0 0 210.5 110.2 A 57.5 57.5 90 0 0 212.45 117.95 A 49.65 49.65 90 0 0 213.6 121.2 A 43.7 43.7 90 0 0 217.85 129.1 A 39.4 39.4 90 0 0 219.25 131.05 A 37.2 37.2 90 0 0 226.85 138.5 A 35.4 35.4 90 0 0 236.3 143 A 39.4 39.4 90 0 0 236.45 143.05 A 37 37 90 0 0 244.15 144.5 A 44.85 44.85 90 0 0 247.95 144.65 A 42.55 42.55 90 0 0 255.5 144 A 36.65 36.65 90 0 0 258.9 143.2 A 38.1 38.1 90 0 0 267.2 139.85 A 35.2 35.2 90 0 0 268.25 139.2 Q 272.95 136.3 276.6 131.9 A 45.15 45.15 90 0 0 282.75 122.25 A 53.1 53.1 90 0 0 285.75 113.45 A 61.2 61.2 90 0 0 286.35 110.75 A 64.45 64.45 90 0 0 287.55 100.45 A 73.85 73.85 90 0 0 287.6 97.7 Z M 266.7 82 L 266.7 97.7 A 70.7 70.7 90 0 1 266.4 104.3 A 63.55 63.55 90 0 1 266.3 105.3 A 51.65 51.65 90 0 1 265.75 109.25 A 41.4 41.4 90 0 1 265.1 112.05 A 33.2 33.2 90 0 1 263.75 116.25 A 26.95 26.95 90 0 1 262.35 119.1 A 18.65 18.65 90 0 1 259.8 122.75 A 16.25 16.25 90 0 1 258.15 124.3 Q 256.15 125.95 253.6 126.85 A 16.3 16.3 90 0 1 249.85 127.65 A 19.95 19.95 90 0 1 247.95 127.7 A 18.65 18.65 90 0 1 244.9 127.5 A 14.25 14.25 90 0 1 242.2 126.75 Q 239.7 125.8 237.7 124.05 A 15.35 15.35 90 0 1 235.55 121.55 A 21 21 90 0 1 234 118.9 A 28 28 90 0 1 232.15 113.95 A 33.3 33.3 90 0 1 231.65 111.85 A 41.25 41.25 90 0 1 230.9 107.8 A 50.2 50.2 90 0 1 230.6 105.15 A 90.25 90.25 90 0 1 230.3 98.9 A 101.25 101.25 90 0 1 230.3 97.7 L 230.3 82 A 92.3 92.3 90 0 1 230.5 76.1 A 80.7 80.7 90 0 1 230.65 74.2 A 54.85 54.85 90 0 1 231.15 70.15 A 43.9 43.9 90 0 1 231.7 67.3 A 31.15 31.15 90 0 1 232.9 63.35 A 23.8 23.8 90 0 1 234.4 60.1 Q 236.1 57.05 238.6 55 A 13.55 13.55 90 0 1 242.75 52.85 Q 245.05 52.15 247.9 52.15 A 19.4 19.4 90 0 1 251 52.4 A 15.45 15.45 90 0 1 253.35 52.95 A 15.5 15.5 90 0 1 257.8 55.2 A 17.1 17.1 90 0 1 260.9 58.45 A 21.05 21.05 90 0 1 262.1 60.3 A 27.5 27.5 90 0 1 264.2 64.75 A 33.55 33.55 90 0 1 265.05 67.35 A 39.7 39.7 90 0 1 265.95 71.5 A 48.25 48.25 90 0 1 266.3 74.2 A 69.45 69.45 90 0 1 266.7 79.95 A 80.4 80.4 90 0 1 266.7 82 Z M 53.65 126.55 L 53.65 96.15 L 72.85 96.15 A 30.1 30.1 90 0 1 76.35 96.4 Q 78.5 96.7 80.3 97.35 A 14.7 14.7 90 0 1 83.15 98.65 A 11.5 11.5 90 0 1 85.45 100.5 A 11.65 11.65 90 0 1 88.15 104.8 A 13.75 13.75 90 0 1 88.35 105.3 Q 89.25 108.15 89.25 111.75 A 16.9 16.9 90 0 1 88.85 115.4 A 14 14 90 0 1 88.05 118 Q 86.85 120.75 84.5 122.75 A 13.95 13.95 90 0 1 81.75 124.5 A 18.85 18.85 90 0 1 79.2 125.55 A 20.8 20.8 90 0 1 75.35 126.35 A 27.65 27.65 90 0 1 71.95 126.55 L 53.65 126.55 Z M 68.95 81.3 L 53.65 81.3 L 53.65 53.3 L 68.9 53.3 A 43.15 43.15 90 0 1 73 53.55 Q 75 53.8 76.75 54.2 A 24.35 24.35 90 0 1 77.55 54.4 A 15.35 15.35 90 0 1 80.5 55.55 A 11.2 11.2 90 0 1 83.45 57.7 A 9.75 9.75 90 0 1 85.65 60.85 A 11.75 11.75 90 0 1 86 61.75 A 14.4 14.4 90 0 1 86.6 64.35 Q 86.85 65.75 86.85 67.35 A 16.45 16.45 90 0 1 86.6 70.3 A 12.8 12.8 90 0 1 85.85 72.85 A 11.3 11.3 90 0 1 83 76.95 A 12.15 12.15 90 0 1 80 79.05 A 16.75 16.75 90 0 1 77.25 80.15 A 26.15 26.15 90 0 1 73.35 80.95 Q 71.55 81.2 69.55 81.3 A 42.8 42.8 90 0 1 68.95 81.3 Z" />
  <path d="M 171.65 461.65 L 192.15 461.65 L 192.15 355 L 171.5 355 L 171.45 423.5 L 142 355 L 121.25 355 L 121.25 461.65 L 142 461.65 L 142 392.85 L 171.65 461.65 Z M 53.65 414.9 L 97.45 414.9 L 97.45 398.65 L 53.65 398.65 L 53.65 371.75 L 104.65 371.75 L 104.65 355 L 33 355 L 33 461.65 L 104.85 461.65 L 104.85 445 L 53.65 445 L 53.65 414.9 Z M 322.45 421.8 L 338.05 421.8 L 358.1 461.65 L 380.15 461.65 L 380.15 460.7 L 357.25 416.65 A 41.2 41.2 90 0 0 363.8 413 A 37.1 37.1 90 0 0 365.2 412 Q 368.75 409.25 371.3 405.6 A 27.55 27.55 90 0 0 374.6 399.15 A 32.1 32.1 90 0 0 375.15 397.45 Q 376.5 392.85 376.5 387.15 A 38.75 38.75 90 0 0 375.9 380.15 A 29.25 29.25 90 0 0 373.75 373.25 Q 371 367.25 365.95 363.2 A 33.55 33.55 90 0 0 358.15 358.65 A 41.9 41.9 90 0 0 353.65 357.1 A 51.3 51.3 90 0 0 345.05 355.4 A 66.55 66.55 90 0 0 337.6 355 L 301.85 355 L 301.85 461.65 L 322.45 461.65 L 322.45 421.8 Z M 449.3 355 L 428.3 404.15 L 407.25 355 L 384.7 355 L 417.75 423.85 L 417.8 461.65 L 438.3 461.65 L 438.4 424.75 L 471.95 355 L 449.3 355 Z M 257.35 371.75 L 290.25 371.75 L 290.25 355 L 204.25 355 L 204.25 371.75 L 236.7 371.75 L 236.7 461.65 L 257.35 461.65 L 257.35 371.75 Z M 337.7 405.1 L 322.45 405.1 L 322.45 371.7 L 337.6 371.7 A 30.1 30.1 90 0 1 341.4 371.9 A 21.95 21.95 90 0 1 345.15 372.7 A 17.85 17.85 90 0 1 348.35 374.05 A 14.15 14.15 90 0 1 350.7 375.65 Q 353.3 377.8 354.55 381.05 A 18 18 90 0 1 355.6 385 A 24.25 24.25 90 0 1 355.85 388.55 A 21.6 21.6 90 0 1 355.55 392.2 A 17.2 17.2 90 0 1 354.85 394.9 A 14.15 14.15 90 0 1 353 398.55 A 12.85 12.85 90 0 1 351.95 399.8 A 13.75 13.75 90 0 1 347.85 402.95 A 17.2 17.2 90 0 1 346.05 403.75 A 20.65 20.65 90 0 1 341.9 404.8 A 28.4 28.4 90 0 1 337.7 405.1 Z" />
</svg>
