<svg xmlns="http://www.w3.org/2000/svg" width="15" height="15" viewBox="0 0 15 15">
  <rect fill="#eee" stroke="#333" stroke-width=".2" width="14.8" height="14.8" ry="1" x=".1" y=".1"/>
  <path d="M 5.3975 1.0775 L 6.13 6.41 L 7.06 6.41 L 7.5075 3.53 L 7.5475 3.26 L 7.5875 3.53 L 8.0525 6.41 L 8.9825 6.41 L 9.7225 1.0775 L 8.7775 1.0775 L 8.415 4.065 L 8.39 4.2875 L 8.355 4.07 L 7.91 1.0775 L 7.1725 1.0775 L 6.7525 4.0475 L 6.72 4.2675 L 6.6925 4.0575 L 6.3375 1.0775 L 5.3975 1.0775 Z M 13.985 4.74 L 12.955 4.74 Q 12.9425 4.945 12.8925 5.1 A 0.9875 0.9875 90 0 1 12.875 5.1525 A 0.87 0.87 90 0 1 12.7975 5.31 A 0.6875 0.6875 90 0 1 12.695 5.435 A 0.6825 0.6825 90 0 1 12.445 5.5875 A 0.8 0.8 90 0 1 12.42 5.595 A 1.0675 1.0675 90 0 1 12.22 5.6375 A 1.3975 1.3975 90 0 1 12.0575 5.6475 Q 11.9075 5.6475 11.785 5.6125 A 0.68 0.68 90 0 1 11.565 5.505 A 0.7075 0.7075 90 0 1 11.425 5.37 A 0.8125 0.8125 90 0 1 11.4 5.34 A 0.995 0.995 90 0 1 11.3125 5.1925 A 1.205 1.205 90 0 1 11.2775 5.1125 A 1.6125 1.6125 90 0 1 11.215 4.9125 Q 11.1925 4.815 11.175 4.7075 A 2.675 2.675 90 0 1 11.17 4.675 Q 11.135 4.425 11.135 4.105 L 11.135 3.38 A 4.415 4.415 90 0 1 11.145 3.1025 A 3.595 3.595 90 0 1 11.1575 2.9425 A 2.5075 2.5075 90 0 1 11.19 2.725 A 1.985 1.985 90 0 1 11.2275 2.57 A 1.59 1.59 90 0 1 11.31 2.345 A 1.27 1.27 90 0 1 11.395 2.1925 Q 11.4975 2.03 11.6475 1.94 A 0.72 0.72 90 0 1 11.8375 1.865 A 0.83 0.83 90 0 1 11.84 1.865 Q 11.945 1.8375 12.065 1.8375 Q 12.26 1.8375 12.405 1.8825 A 0.805 0.805 90 0 1 12.455 1.9 A 0.7325 0.7325 90 0 1 12.65 2.005 A 0.6625 0.6625 90 0 1 12.7275 2.0775 A 0.7575 0.7575 90 0 1 12.845 2.255 A 0.9775 0.9775 90 0 1 12.8925 2.3775 Q 12.945 2.545 12.96 2.765 A 2.435 2.435 90 0 1 12.9625 2.795 L 13.9875 2.795 A 2.78 2.78 90 0 0 13.915 2.3575 A 2.2225 2.2225 90 0 0 13.8125 2.0425 Q 13.6725 1.71 13.4325 1.48 A 1.6125 1.6125 90 0 0 12.955 1.1675 A 1.905 1.905 90 0 0 12.8475 1.125 A 2.015 2.015 90 0 0 12.4325 1.025 A 2.6925 2.6925 90 0 0 12.065 1 A 2.075 2.075 90 0 0 11.675 1.035 A 1.8025 1.8025 90 0 0 11.51 1.075 Q 11.2525 1.15 11.0375 1.29 Q 10.795 1.455 10.605 1.6925 A 2.01 2.01 90 0 0 10.32 2.1775 A 2.275 2.275 90 0 0 10.2975 2.235 A 2.5075 2.5075 90 0 0 10.1725 2.6325 A 2.905 2.905 90 0 0 10.1425 2.775 A 3.4425 3.4425 90 0 0 10.095 3.2575 A 3.935 3.935 90 0 0 10.0925 3.3875 L 10.0925 4.105 A 3.7375 3.7375 90 0 0 10.12 4.5825 A 3.2475 3.2475 90 0 0 10.1475 4.7575 A 2.995 2.995 90 0 0 10.24 5.1225 A 2.505 2.505 90 0 0 10.3125 5.3225 Q 10.4225 5.5775 10.58 5.79 Q 10.74 6.0025 10.945 6.1525 A 1.7025 1.7025 90 0 0 11.415 6.3875 A 1.925 1.925 90 0 0 11.4475 6.4 A 1.96 1.96 90 0 0 11.8675 6.4775 A 2.365 2.365 90 0 0 12.0575 6.485 A 2.4725 2.4725 90 0 0 12.505 6.4475 A 2.025 2.025 90 0 0 12.82 6.3625 A 1.7975 1.7975 90 0 0 13.2575 6.14 A 1.6175 1.6175 90 0 0 13.4125 6.0125 Q 13.6625 5.7875 13.81 5.465 A 1.9075 1.9075 90 0 0 13.9575 4.9825 A 2.355 2.355 90 0 0 13.985 4.74 Z M 3.555 1.915 L 5.2 1.915 L 5.2 1.0775 L 0.9 1.0775 L 0.9 1.915 L 2.5225 1.915 L 2.5225 6.41 L 3.555 6.41 L 3.555 1.915 Z" />
  <path d="M 9.522 11.102 L 9.118 9.5 L 8.094 9.5 L 8.094 13.766 L 8.85 13.766 L 8.85 12.502 L 8.816 10.586 L 9.316 12.36 L 9.724 12.36 L 10.284 10.508 L 10.248 12.502 L 10.248 13.766 L 11.004 13.766 L 11.004 9.5 L 9.982 9.5 L 9.522 11.102 Z M 5.326 12.508 L 5.778 12.014 L 6.832 13.766 L 7.81 13.766 L 6.322 11.386 L 7.758 9.5 L 6.75 9.5 L 5.712 10.932 L 5.326 11.454 L 5.326 9.5 L 4.5 9.5 L 4.5 13.766 L 5.326 13.766 L 5.326 12.508 Z" />
</svg>
