<svg width="16" height="16" version="1.1" viewBox="0 0 4.233 4.233" xmlns="http://www.w3.org/2000/svg">
 <g transform="translate(-37.57 -37.57)">
  <rect x="37.57" y="37.57" width="4.233" height="4.233" vector-effect="non-scaling-stroke" style="-inkscape-stroke:hairline"/>
  <rect x="37.71" y="37.71" width="3.951" height="3.951" fill="#fff" vector-effect="non-scaling-stroke" style="-inkscape-stroke:hairline"/>
  <path transform="matrix(.05333 0 0 .05333 37.57 37.57)" d="m60.85 31.75c0-10.23-8.292-18.52-18.52-18.52h-2.646c-2.357 0-4.704 0.315-6.978 0.9367l-3.126 0.8546c-5.836 1.596-9.846 6.947-9.738 13 0.1078 6.049 4.306 11.25 10.2 12.64l19.1 4.497c2.945 0.6933 5.044 3.296 5.098 6.321 0.05391 3.025-1.951 5.7-4.869 6.498l-3.126 0.8546c-1.705 0.4662-3.465 0.7025-5.233 0.7025h-2.646c-6.576-1e-6 -11.91-5.331-11.91-11.91h-6.615c0 10.23 8.292 18.52 18.52 18.52h2.646c2.357-1e-6 4.704-0.315 6.978-0.9367l3.126-0.8546c5.836-1.596 9.846-6.947 9.738-13-0.1078-6.049-4.306-11.25-10.2-12.64l-19.1-4.497c-2.945-0.6933-5.044-3.296-5.098-6.321s1.951-5.7 4.869-6.498l3.126-0.8546c1.705-0.4662 3.465-0.7025 5.233-0.7025h2.646c6.576 0 11.91 5.331 11.91 11.91z"/>
  <path transform="matrix(.05333 0 0 .05333 37.57 37.57)" d="m60.85 31.75c0-10.23-8.292-18.52-18.52-18.52h-2.646c-2.357 0-4.704 0.315-6.978 0.9367l-3.126 0.8546c-5.836 1.596-9.846 6.947-9.738 13 0.1078 6.049 4.306 11.25 10.2 12.64l19.1 4.497c2.945 0.6933 5.044 3.296 5.098 6.321 0.05391 3.025-1.951 5.7-4.869 6.498l-3.126 0.8546c-1.705 0.4662-3.465 0.7025-5.233 0.7025h-2.646c-6.576-1e-6 -11.91-5.331-11.91-11.91h-6.615c0 10.23 8.292 18.52 18.52 18.52h2.646c2.357-1e-6 4.704-0.315 6.978-0.9367l3.126-0.8546c5.836-1.596 9.846-6.947 9.738-13-0.1078-6.049-4.306-11.25-10.2-12.64l-19.1-4.497c-2.945-0.6933-5.044-3.296-5.098-6.321s1.951-5.7 4.869-6.498l3.126-0.8546c1.705-0.4662 3.465-0.7025 5.233-0.7025h2.646c6.576 0 11.91 5.331 11.91 11.91z" stroke="#000" stroke-linecap="round" stroke-linejoin="round" stroke-miterlimit="5" stroke-width=".2646" vector-effect="non-scaling-stroke" style="-inkscape-stroke:hairline"/>
 </g>
</svg>
