<svg width="16" height="16" version="1.1" viewBox="0 0 4.233 4.233" xmlns="http://www.w3.org/2000/svg">
 <g transform="translate(-159 -200.8)" stroke-miterlimit="5">
  <rect x="159" y="200.8" width="4.233" height="4.233" fill="#d40000" stroke-width=".5644"/>
  <rect x="159.4" y="201.2" width="3.387" height="3.387" fill="#fff" stroke-width=".5644"/>
  <path d="m161.4 202.7h-0.5941v-0.5703h0.5941c0.0665 0.076 0.1093 0.1758 0.1093 0.2852 0 0.1141-0.0428 0.2139-0.1093 0.2852zm0.2329 1.335c0.2091-0.1473 0.3517-0.3897 0.3517-0.6701 0-0.2044-0.0808-0.3945-0.2091-0.537 0.0713-0.1188 0.1141-0.2614 0.1141-0.4135 0-0.2756-0.1426-0.518-0.3517-0.6654h-1.112v2.286zm-0.827-0.9553h0.6891c0.0665 0.076 0.1093 0.1758 0.1093 0.2852 0 0.1141-0.0428 0.2139-0.1093 0.2852h-0.6891z" stroke-linecap="round" stroke-linejoin="round" stroke-width=".01878" style="white-space:pre" aria-label="B"/>
 </g>
</svg>
