<svg width="16" height="16" version="1.1" viewBox="0 0 4.233 4.233" xmlns="http://www.w3.org/2000/svg">
 <g transform="translate(-37.57 -37.57)" stroke-miterlimit="5">
  <rect x="37.57" y="37.57" width="4.233" height="4.233" stroke-linecap="round" stroke-linejoin="round" stroke-width=".01411" vector-effect="non-scaling-stroke" style="-inkscape-stroke:hairline"/>
  <rect x="37.64" y="37.64" width="4.092" height="4.092" fill="#fff" stroke-linecap="round" stroke-linejoin="round" stroke-width=".02743" vector-effect="non-scaling-stroke" style="-inkscape-stroke:hairline"/>
  <rect x="37.99" y="37.99" width="3.387" height="3.387" fill="#d40000" stroke-width=".4516"/>
  <path d="m39.66 39.43 0.5188-1.077v-0.1229h-0.8396v0.2399h0.5158l-0.5158 1.08v0.1199h0.8396v-0.2399z" fill="#fff" stroke-linecap="round" stroke-linejoin="round" stroke-width=".01185" aria-label="Z"/>
  <path d="m38.63 40.46c0.03732 0.02073 0.0622 0.06013 0.0622 0.1057 0 0.0705-0.05598 0.1244-0.1244 0.1244-0.1078 0-0.2094-0.01866-0.3048-0.05598l-0.05184 0.1576c0.1099 0.04147 0.2322 0.06428 0.3566 0.06428 0.1617 0 0.2903-0.1286 0.2903-0.2903 0-0.1057-0.05806-0.1991-0.1451-0.2509l-0.1949-0.114c-0.0311-0.01866-0.05391-0.05184-0.05391-0.09123 0-0.05598 0.04769-0.1037 0.1037-0.1037 0.07879 0 0.1534 0.01244 0.226 0.0311l0.05184-0.1576c-0.08708-0.02488-0.1804-0.0394-0.2778-0.0394-0.1472 0-0.2696 0.1223-0.2696 0.2696 0 0.1016 0.05391 0.1866 0.1348 0.2343zm0.5018-0.4541v0.1659h-0.1244v0.1659h0.1244v0.2488c0 0.1389 0.1099 0.2488 0.2488 0.2488l0.08501-0.1659h-0.08501c-0.04769 0-0.08294-0.03525-0.08294-0.08294v-0.2488h0.1244v-0.1659h-0.1244v-0.3318zm0.4582 0.4976c0 0.1949 0.1576 0.3525 0.3525 0.3525 0.1928 0 0.3525-0.1576 0.3525-0.3525 0-0.1928-0.1597-0.3525-0.3525-0.3525-0.1949 0-0.3525 0.1597-0.3525 0.3525zm0.1659 0c0-0.1016 0.08294-0.1866 0.1866-0.1866 0.1016 0 0.1866 0.08501 0.1866 0.1866 0 0.1037-0.08501 0.1866-0.1866 0.1866-0.1037 0-0.1866-0.08294-0.1866-0.1866zm0.9123 0c0-0.09331 0.07464-0.168 0.1659-0.168 0.09123 0 0.1659 0.07464 0.1659 0.168 0 0.09331-0.07465 0.168-0.1659 0.168-0.09123 0-0.1659-0.07464-0.1659-0.168zm-0.1659-0.3318v0.9953h0.1659v-0.3753c0.04769 0.02903 0.1037 0.04354 0.1659 0.04354 0.1825 0 0.3318-0.1493 0.3318-0.3318 0-0.1825-0.1493-0.3318-0.3318-0.3318-0.0622 0-0.1182 0.01659-0.1659 0.04562v-0.04562z" fill="#fff" stroke-linecap="round" stroke-linejoin="round" stroke-width=".01843" aria-label="Stop"/>
 </g>
</svg>
