<svg width="16" height="16" version="1.1" viewBox="0 0 4.233 4.233" xmlns="http://www.w3.org/2000/svg">
 <rect x="-9.918e-8" y="-9.918e-8" width="4.233" height="4.233" stroke-linecap="round" stroke-linejoin="round" stroke-miterlimit="5" stroke-width=".01411" vector-effect="non-scaling-stroke" style="-inkscape-stroke:hairline"/>
 <rect x=".141" y=".141" width="3.951" height="3.034" fill="#fff" stroke-linecap="round" stroke-linejoin="round" stroke-miterlimit="5" stroke-width=".01237" vector-effect="non-scaling-stroke" style="-inkscape-stroke:hairline"/>
 <rect x=".141" y="3.316" width="3.951" height=".7762" fill="#fff" stroke-linecap="round" stroke-linejoin="round" stroke-miterlimit="5" stroke-width=".01411" vector-effect="non-scaling-stroke" style="-inkscape-stroke:hairline"/>
 <path d="m0.8411 4.016-0.227-0.6351h0.139l0.1607 0.47 0.1555-0.47h0.136l-0.2274 0.6351zm0.4297 0v-0.6351h0.4708v0.1074h-0.3426v0.1408h0.3188v0.107h-0.3188v0.1728h0.3548v0.107zm0.7347 0v-0.5276h-0.1884v-0.1074h0.5046v0.1074h-0.188v0.5276zm0.3994 0v-0.6351h0.2699q0.1018 0 0.1477 0.0173 0.0464 0.0169 0.07411 0.0606 0.0277 0.0437 0.0277 0.1001 0 0.07151-0.042 0.1182-0.042 0.0463-0.1256 0.0585 0.0416 0.0243 0.0684 0.0533 0.0273 0.029 0.07321 0.1031l0.07751 0.1239h-0.1533l-0.09271-0.1382q-0.0494-0.07411-0.0676-0.09311-0.0182-0.0195-0.0385-0.0264-0.0204-7e-3 -0.0645-7e-3h-0.026v0.2651zm0.1282-0.3664h0.09491q0.09231 0 0.1152-8e-3 0.023-8e-3 0.036-0.0269 0.013-0.0191 0.013-0.0476 0-0.0321-0.0173-0.0515-0.0169-0.0199-0.0481-0.0251-0.0156-2e-3 -0.09361-2e-3h-0.1001zm1.085 0.3664h-0.1395l-0.0554-0.1442h-0.2538l-0.0524 0.1442h-0.136l0.2473-0.6351h0.1356zm-0.2361-0.2512-0.08751-0.2356-0.08581 0.2356z" stroke-linecap="round" stroke-linejoin="round" stroke-miterlimit="5" stroke-width=".01232" aria-label="VETRA"/>
 <path d="m0.8411 2.841v-0.2893l1.862-1.827h-1.862v-0.3528h2.459v0.2822l-1.869 1.834h1.869v0.3528z" stroke-linecap="round" stroke-linejoin="round" stroke-miterlimit="5" stroke-width=".05375" aria-label="Z"/>
</svg>
