<svg width="16" height="16" version="1.1" viewBox="0 0 4.233 4.233" xmlns="http://www.w3.org/2000/svg">
 <rect width="4.233" height="4.233" stroke-linecap="round" stroke-linejoin="round" stroke-miterlimit="5" stroke-width=".01411" vector-effect="non-scaling-stroke" style="-inkscape-stroke:hairline"/>
 <rect x=".141" y=".141" width="3.951" height="3.034" fill="#fff" stroke-linecap="round" stroke-linejoin="round" stroke-miterlimit="5" stroke-width=".01237" vector-effect="non-scaling-stroke" style="-inkscape-stroke:hairline"/>
 <rect x=".141" y="3.316" width="3.951" height=".7762" fill="#fff" stroke-linecap="round" stroke-linejoin="round" stroke-miterlimit="5" stroke-width=".01411" vector-effect="non-scaling-stroke" style="-inkscape-stroke:hairline"/>
 <path d="m0.8411 2.841v-0.2893l1.862-1.827h-1.862v-0.3528h2.459v0.2822l-1.869 1.834h1.869v0.3528z" stroke-linecap="round" stroke-linejoin="round" stroke-miterlimit="5" stroke-width=".05375" aria-label="Z"/>
 <path d="m0.7698 4.013v-0.525h-0.1875v-0.1069h0.5022v0.1069h-0.1871v0.525zm0.3974 0v-0.6319h0.2685q0.1013 0 0.147 0.01724 0.04612 0.01681 0.07371 0.06035t0.02759 0.09957q0 0.07112-0.04181 0.1177-0.04181 0.04612-0.125 0.05819 0.04138 0.02414 0.06811 0.05302 0.02716 0.02888 0.07285 0.1026l0.07716 0.1233h-0.1526l-0.09225-0.1375q-0.04914-0.07371-0.06724-0.09268-0.0181-0.0194-0.03836-0.0263-0.02026-0.00733-0.06423-0.00733h-0.02586v0.2638zm0.1276-0.3647h0.0944q0.09182 0 0.1147-0.00775 0.02285-0.00775 0.03578-0.02673 0.01293-0.01897 0.01293-0.04742 0-0.0319-0.01724-0.0513-0.01681-0.01983-0.04785-0.025-0.01552-0.00215-0.09311-0.00215h-0.09958zm1.079 0.3647h-0.1388l-0.05518-0.1435h-0.2526l-0.05216 0.1435h-0.1354l0.2461-0.6319h0.1349zm-0.2349-0.25-0.08707-0.2345-0.08535 0.2345zm0.7069 0.01767 0.1237 0.03923q-0.02845 0.1035-0.09483 0.1539-0.06595 0.05-0.1677 0.05-0.1259 0-0.2069-0.08578-0.08104-0.08621-0.08104-0.2354 0-0.1578 0.08147-0.2448 0.08147-0.0875 0.2142-0.0875 0.116 0 0.1884 0.06854 0.0431 0.04052 0.06466 0.1164l-0.1263 0.03018q-0.01121-0.04914-0.04699-0.07759-0.03535-0.02845-0.08621-0.02845-0.07026 0-0.1142 0.05043-0.04354 0.05044-0.04354 0.1634 0 0.1198 0.0431 0.1707 0.0431 0.05086 0.1121 0.05086 0.05086 0 0.0875-0.03233t0.05259-0.1017zm0.2349 0.2323v-0.6319h0.1276v0.2806l0.2578-0.2806h0.1716l-0.2379 0.2461 0.2509 0.3858h-0.1651l-0.1737-0.2966-0.1035 0.1056v0.191z" stroke-linecap="round" stroke-linejoin="round" stroke-miterlimit="5" stroke-width=".01226" aria-label="TRACK"/>
</svg>
