<?xml version="1.0" encoding="UTF-8"?>
<svg xmlns="http://www.w3.org/2000/svg" xmlns:xlink="http://www.w3.org/1999/xlink" width="16" height="16" viewBox="0 0 16 16">
<path fill="rgb(0%, 27%, 67%)" d="M 0,0 V 16 H 16 V 0 Z"/>
<path fill="rgb(100%, 100%, 100%)" d="M 3.5,9.9 L 5.7,9.7 C 5.8,10.4 6.1,11.0 6.5,11.3 C 6.9,11.7 7.4,11.8 8.1,11.8 C 8.8,11.8 9.4,11.7 9.7,11.4 C 10.1,11.1 10.3,10.7 10.3,10.3 C 10.3,10.1 10.2,9.8 10.0,9.6 C 9.9,9.5 9.6,9.3 9.2,9.2 C 9.0,9.1 8.4,8.9 7.4,8.7 C 6.2,8.4 5.4,8.0 4.9,7.6 C 4.2,7.0 3.9,6.2 3.9,5.4 C 3.9,4.8 4.1,4.3 4.4,3.8 C 4.7,3.3 5.2,2.9 5.8,2.7 C 6.4,2.4 7.1,2.3 7.9,2.3 C 9.3,2.3 10.4,2.6 11.1,3.2 11.8,3.8 12.1,4.6 12.2,5.6 L 9.9,5.7 C 9.9,5.2 9.6,4.8 9.3,4.5 C 9,4.3 8.5,4.1 7.9,4.1 C 7.3,4.1 6.8,4.3 6.4,4.5 C 6.2,4.7 6.0,4.9 6.0,5.2 C 6.0,5.5 6.2,5.7 6.4,5.9 C 6.7,6.1 7.3,6.4 8.4,6.6 C 9.5,6.9 10.3,7.2 10.8,7.4 C 11.4,7.7 11.8,8.1 12.1,8.5 C 12.3,9.0 12.5,9.6 12.5,10.3 C 12.5,10.9 12.3,11.5 12,12.1 C 11.6,12.6 11.1,13.0 10.5,13.3 C 9.8,13.6 9.0,13.7 8.1,13.7 C 6.7,13.7 5.6,13.4 4.9,12.8 C 4.1,12.1 3.7,11.2 3.5,9.9 Z"/>
</svg>