<?xml version="1.0" encoding="UTF-8"?>
<svg xmlns="http://www.w3.org/2000/svg" xmlns:xlink="http://www.w3.org/1999/xlink" width="10" height="20" viewBox="0 0 10 20">
<rect fill="rgb(50%, 50%, 50%)" x="-1" y="-1" width="12" height="22"/>
<circle fill="rgb(0%, 0%, 0%)" cx="5" cy="5" r="4.375"/>
<circle fill="rgb(0%, 0%, 0%)" cx="5" cy="15" r="4.375"/>
<path fill="rgb(100%, 100%, 100%)" d="M 5.0,11.1 C 4.4,11.1 4.0,11.3 3.6,11.7 3.2,12.2 3.0,12.6 3.0,13.4 H 4.2 C 4.2,12.9 4.3,12.8 4.5,12.6 4.6,12.4 4.8,12.4 5.0,12.4 5.2,12.4 5.4,12.4 5.5,12.6 5.7,12.7 5.8,12.9 5.8,13.1 5.8,13.3 5.7,13.5 5.6238665,13.6 L 4.7,15.0 C 4.4,15.3 4.4,15.7 4.4,16.0 V 16.7 H 5.6 V 16.1 C 5.6,15.9 5.6,15.7 5.7,15.6 L 6.7,14.3 C 6.9,13.9 7.0077556,13.6 7.0,13.2 7.0,12.5 6.8,12.0 6.4,11.7 6.0,11.3 5.5,11.1 5.0,11.1 Z M 4.4,17.6 V 18.8 H 5.6 V 17.6 Z"/>
</svg>