<svg xmlns="http://www.w3.org/2000/svg" width="15" height="24" viewBox="0 0 10 16">
  <rect fill="#fff" stroke="#00f" stroke-width=".2" width="9.6" height="15.6" ry="0.5" x=".2" y=".2"/>
  <path fill="#00f" d="M1.9927 2.2033l-.1962-.7065-.2016.7065h.3978Zm4.6485-.3015a.5112.5112 90 00.0756-.0054.3717.3717 90 00.0756-.0189.3096.3096 90 00.0315-.0144.2475.2475 90 00.0747-.0567.2313.2313 90 00.018-.0225.2547.2547 90 00.0342-.0657.3096.3096 90 00.0117-.0486.3888.3888 90 00.0054-.0657A.4365.4365 90 006.9634 1.54a.324.324 90 00-.018-.0711q-.0234-.0585-.0693-.0972A.2547.2547 90 006.8329 1.3429.3213.3213 90 006.7753 1.3186.3951.3951 90 006.7078 1.3042.5418.5418 90 006.6403 1.3006H6.3667v.6012h.2745ZM4.0519 2.62v.2997H2.7811V1h.3717V2.62h.8991ZM1.504 2.5192l-.1134.4005H1L1.6291 1h.3357l.6174 1.9197H2.1916L2.08 2.5192H1.504ZM8.4358 1.3015V2.9197H8.0641V1.3015H7.48V1H9.0271v.3015H8.4358Zm-2.0691.9009v.7173H5.9968V1h.6435a1.1979 1.1979 90 01.1332.0072.9234.9234 90 01.1548.0306.7542.7542 90 01.081.0279.6039.6039 90 01.1404.0819q.0918.0729.1413.1809a.5265.5265 90 01.0378.1242.6975.6975 90 01.0108.126q0 .1026-.0243.1854a.5778.5778 90 01-.0099.0306.4959.4959 90 01-.0594.1161q-.0459.0657-.1098.1152A.6678.6678 90 017.111 2.044a.7416.7416 90 01-.1179.0657l.4131.7929v.0171H7.0093l-.3618-.7173H6.3667ZM4.7692 2.0782V2.62h.9216v.2997H4.3975V1H5.6872v.3015h-.918v.4842h.7884v.2925H4.7692Z" />
  <path fill="#00f" d="M 4.3 14.4 L 7.8 14.4 L 7.8 10.45 C 7.8 9.75 7.1 9.05 6.05 9.05 C 5 9.05 4.3 9.75 4.3 10.45 Z M 5.7 5.2 M 2.2 8.7 L 5.7 8.7 L 5.7 4.85 C 5.7 4.15 5 3.45 3.95 3.45 C 2.9 3.45 2.2 4.15 2.2 4.85 Z" />
  <circle fill="#fff" cy="5.25" cx="4" r=".8" />
  <circle fill="#fff" cy="7.25" cx="4" r=".8" />
  <circle fill="#fff" cy="11" cx="6.1" r=".8" />
  <circle fill="#fff" cy="13" cx="6.1" r=".8" />
</svg>
