<svg xmlns="http://www.w3.org/2000/svg" width="20" height="12" viewBox="0 0 10 6">
  <rect width="10" height="6" fill="#f00" stroke="#fff" stroke-width="0.2px"/>
  <path fill="#fff" d="M 8.214 2.035 L 8.44 1.788 L 8.967 2.664 L 9.456 2.664 L 8.712 1.474 L 9.43 0.531 L 8.926 0.531 L 8.408 1.247 L 8.214 1.508 L 8.214 0.531 L 7.801 0.531 L 7.801 2.664 L 8.214 2.664 L 8.214 2.035 Z M 7.485 1.996 L 7.073 1.996 Q 7.068 2.078 7.048 2.14 A 0.395 0.395 0 0 1 7.041 2.161 A 0.348 0.348 0 0 1 7.01 2.224 A 0.275 0.275 0 0 1 6.969 2.274 A 0.273 0.273 0 0 1 6.869 2.335 A 0.32 0.32 0 0 1 6.859 2.338 A 0.427 0.427 0 0 1 6.779 2.355 A 0.559 0.559 0 0 1 6.714 2.359 Q 6.654 2.359 6.605 2.345 A 0.272 0.272 0 0 1 6.517 2.302 A 0.283 0.283 0 0 1 6.46 2.248 A 0.325 0.325 0 0 1 6.451 2.236 A 0.398 0.398 0 0 1 6.416 2.177 A 0.482 0.482 0 0 1 6.402 2.145 A 0.645 0.645 0 0 1 6.377 2.065 Q 6.367 2.026 6.361 1.983 A 1.07 1.07 0 0 1 6.359 1.97 Q 6.345 1.87 6.345 1.742 L 6.345 1.452 A 1.766 1.766 0 0 1 6.348 1.341 A 1.438 1.438 0 0 1 6.354 1.277 A 1.003 1.003 0 0 1 6.367 1.19 A 0.794 0.794 0 0 1 6.382 1.128 A 0.636 0.636 0 0 1 6.415 1.038 A 0.508 0.508 0 0 1 6.448 0.977 Q 6.49 0.912 6.55 0.876 A 0.288 0.288 0 0 1 6.626 0.846 A 0.332 0.332 0 0 1 6.627 0.846 Q 6.669 0.835 6.717 0.835 Q 6.795 0.835 6.853 0.853 A 0.322 0.322 0 0 1 6.873 0.86 A 0.293 0.293 0 0 1 6.951 0.902 A 0.265 0.265 0 0 1 6.982 0.931 A 0.303 0.303 0 0 1 7.029 1.002 A 0.391 0.391 0 0 1 7.048 1.051 Q 7.069 1.118 7.075 1.206 A 0.974 0.974 0 0 1 7.076 1.218 L 7.486 1.218 A 1.112 1.112 0 0 0 7.457 1.043 A 0.889 0.889 0 0 0 7.416 0.917 Q 7.36 0.784 7.264 0.692 A 0.645 0.645 0 0 0 7.073 0.567 A 0.762 0.762 0 0 0 7.03 0.55 A 0.806 0.806 0 0 0 6.864 0.51 A 1.077 1.077 0 0 0 6.717 0.5 A 0.83 0.83 0 0 0 6.561 0.514 A 0.721 0.721 0 0 0 6.495 0.53 Q 6.392 0.56 6.306 0.616 Q 6.209 0.682 6.133 0.777 A 0.804 0.804 0 0 0 6.019 0.971 A 0.91 0.91 0 0 0 6.01 0.994 A 1.003 1.003 0 0 0 5.96 1.153 A 1.162 1.162 0 0 0 5.948 1.21 A 1.377 1.377 0 0 0 5.928 1.403 A 1.574 1.574 0 0 0 5.928 1.455 L 5.928 1.742 A 1.495 1.495 0 0 0 5.939 1.933 A 1.299 1.299 0 0 0 5.95 2.003 A 1.198 1.198 0 0 0 5.986 2.149 A 1.002 1.002 0 0 0 6.016 2.229 Q 6.059 2.331 6.123 2.416 Q 6.187 2.501 6.269 2.561 A 0.681 0.681 0 0 0 6.456 2.655 A 0.77 0.77 0 0 0 6.47 2.66 A 0.784 0.784 0 0 0 6.638 2.691 A 0.946 0.946 0 0 0 6.714 2.694 A 0.989 0.989 0 0 0 6.893 2.679 A 0.81 0.81 0 0 0 7.019 2.645 A 0.719 0.719 0 0 0 7.194 2.556 A 0.647 0.647 0 0 0 7.256 2.505 Q 7.356 2.415 7.415 2.286 A 0.763 0.763 0 0 0 7.474 2.093 A 0.942 0.942 0 0 0 7.485 1.996 Z M 3.843 2.331 L 2.844 2.331 L 2.844 0.531 L 2.431 0.531 L 2.431 2.664 L 3.843 2.664 L 3.843 2.331 Z M 0.6 0.531 L 0.6 2.664 L 1.378 2.664 A 1.347 1.347 0 0 0 1.545 2.654 A 1.018 1.018 0 0 0 1.694 2.624 A 0.738 0.738 0 0 0 1.832 2.571 A 0.59 0.59 0 0 0 1.933 2.505 A 0.525 0.525 0 0 0 2.084 2.309 A 0.587 0.587 0 0 0 2.128 2.157 A 0.78 0.78 0 0 0 2.137 2.038 A 0.573 0.573 0 0 0 2.115 1.882 A 0.475 0.475 0 0 0 2.05 1.742 A 0.457 0.457 0 0 0 1.945 1.637 A 0.38 0.38 0 0 0 1.888 1.602 Q 1.858 1.588 1.823 1.576 A 0.789 0.789 0 0 0 1.778 1.562 L 1.778 1.561 Q 1.832 1.54 1.877 1.511 A 0.511 0.511 0 0 0 1.943 1.459 A 0.462 0.462 0 0 0 1.956 1.446 Q 2.021 1.382 2.054 1.296 Q 2.087 1.21 2.088 1.114 A 0.684 0.684 0 0 0 2.077 0.986 A 0.503 0.503 0 0 0 2.033 0.854 A 0.487 0.487 0 0 0 1.877 0.673 Q 1.776 0.601 1.633 0.566 A 1.188 1.188 0 0 0 1.463 0.537 A 1.537 1.537 0 0 0 1.316 0.531 L 0.6 0.531 Z M 5.692 1.754 L 5.692 1.443 A 1.385 1.385 0 0 0 5.678 1.243 A 1.204 1.204 0 0 0 5.665 1.169 Q 5.638 1.041 5.586 0.932 A 0.893 0.893 0 0 0 5.474 0.758 A 0.654 0.654 0 0 0 5.323 0.623 Q 5.236 0.564 5.129 0.533 A 0.793 0.793 0 0 0 4.951 0.503 A 0.924 0.924 0 0 0 4.898 0.501 A 0.846 0.846 0 0 0 4.753 0.513 A 0.716 0.716 0 0 0 4.672 0.532 A 0.675 0.675 0 0 0 4.517 0.6 A 0.618 0.618 0 0 0 4.485 0.62 Q 4.4 0.679 4.335 0.761 A 0.855 0.855 0 0 0 4.227 0.938 A 0.934 0.934 0 0 0 4.224 0.944 A 1.052 1.052 0 0 0 4.166 1.115 A 1.22 1.22 0 0 0 4.153 1.177 A 1.365 1.365 0 0 0 4.13 1.374 A 1.574 1.574 0 0 0 4.129 1.443 L 4.129 1.754 A 1.469 1.469 0 0 0 4.141 1.944 A 1.288 1.288 0 0 0 4.15 2.004 A 1.15 1.15 0 0 0 4.189 2.159 A 0.993 0.993 0 0 0 4.212 2.224 A 0.874 0.874 0 0 0 4.297 2.382 A 0.788 0.788 0 0 0 4.325 2.421 A 0.744 0.744 0 0 0 4.477 2.57 A 0.708 0.708 0 0 0 4.666 2.66 A 0.788 0.788 0 0 0 4.669 2.661 A 0.74 0.74 0 0 0 4.823 2.69 A 0.897 0.897 0 0 0 4.899 2.693 A 0.851 0.851 0 0 0 5.05 2.68 A 0.733 0.733 0 0 0 5.118 2.664 A 0.762 0.762 0 0 0 5.284 2.597 A 0.704 0.704 0 0 0 5.305 2.584 Q 5.399 2.526 5.472 2.438 A 0.903 0.903 0 0 0 5.595 2.245 A 1.062 1.062 0 0 0 5.655 2.069 A 1.224 1.224 0 0 0 5.667 2.015 A 1.289 1.289 0 0 0 5.691 1.809 A 1.477 1.477 0 0 0 5.692 1.754 Z M 5.274 1.44 L 5.274 1.754 A 1.414 1.414 0 0 1 5.268 1.886 A 1.271 1.271 0 0 1 5.266 1.906 A 1.033 1.033 0 0 1 5.255 1.985 A 0.828 0.828 0 0 1 5.242 2.041 A 0.664 0.664 0 0 1 5.215 2.125 A 0.539 0.539 0 0 1 5.187 2.182 A 0.373 0.373 0 0 1 5.136 2.255 A 0.325 0.325 0 0 1 5.103 2.286 Q 5.063 2.319 5.012 2.337 A 0.326 0.326 0 0 1 4.937 2.353 A 0.399 0.399 0 0 1 4.899 2.354 A 0.373 0.373 0 0 1 4.838 2.35 A 0.285 0.285 0 0 1 4.784 2.335 Q 4.734 2.316 4.694 2.281 A 0.307 0.307 0 0 1 4.651 2.231 A 0.42 0.42 0 0 1 4.62 2.178 A 0.56 0.56 0 0 1 4.583 2.079 A 0.666 0.666 0 0 1 4.573 2.037 A 0.825 0.825 0 0 1 4.558 1.956 A 1.004 1.004 0 0 1 4.552 1.903 A 1.805 1.805 0 0 1 4.546 1.778 A 2.025 2.025 0 0 1 4.546 1.754 L 4.546 1.44 A 1.846 1.846 0 0 1 4.55 1.322 A 1.614 1.614 0 0 1 4.553 1.284 A 1.097 1.097 0 0 1 4.563 1.203 A 0.878 0.878 0 0 1 4.574 1.146 A 0.623 0.623 0 0 1 4.598 1.067 A 0.476 0.476 0 0 1 4.628 1.002 Q 4.662 0.941 4.712 0.9 A 0.271 0.271 0 0 1 4.795 0.857 Q 4.841 0.843 4.898 0.843 A 0.388 0.388 0 0 1 4.96 0.848 A 0.309 0.309 0 0 1 5.007 0.859 A 0.31 0.31 0 0 1 5.096 0.904 A 0.342 0.342 0 0 1 5.158 0.969 A 0.421 0.421 0 0 1 5.182 1.006 A 0.55 0.55 0 0 1 5.224 1.095 A 0.671 0.671 0 0 1 5.241 1.147 A 0.794 0.794 0 0 1 5.259 1.23 A 0.965 0.965 0 0 1 5.266 1.284 A 1.389 1.389 0 0 1 5.274 1.399 A 1.608 1.608 0 0 1 5.274 1.44 Z M 1.013 2.331 L 1.013 1.723 L 1.397 1.723 A 0.602 0.602 0 0 1 1.467 1.728 Q 1.51 1.734 1.546 1.747 A 0.294 0.294 0 0 1 1.603 1.773 A 0.23 0.23 0 0 1 1.649 1.81 A 0.233 0.233 0 0 1 1.703 1.896 A 0.275 0.275 0 0 1 1.707 1.906 Q 1.725 1.963 1.725 2.035 A 0.338 0.338 0 0 1 1.717 2.108 A 0.28 0.28 0 0 1 1.701 2.16 Q 1.677 2.215 1.63 2.255 A 0.279 0.279 0 0 1 1.575 2.29 A 0.377 0.377 0 0 1 1.524 2.311 A 0.416 0.416 0 0 1 1.447 2.327 A 0.553 0.553 0 0 1 1.379 2.331 L 1.013 2.331 Z M 1.319 1.426 L 1.013 1.426 L 1.013 0.866 L 1.318 0.866 A 0.863 0.863 0 0 1 1.4 0.871 Q 1.44 0.876 1.475 0.884 A 0.487 0.487 0 0 1 1.491 0.888 A 0.307 0.307 0 0 1 1.55 0.911 A 0.224 0.224 0 0 1 1.609 0.954 A 0.195 0.195 0 0 1 1.653 1.017 A 0.235 0.235 0 0 1 1.66 1.035 A 0.288 0.288 0 0 1 1.672 1.087 Q 1.677 1.115 1.677 1.147 A 0.329 0.329 0 0 1 1.672 1.206 A 0.256 0.256 0 0 1 1.657 1.257 A 0.226 0.226 0 0 1 1.6 1.339 A 0.243 0.243 0 0 1 1.54 1.381 A 0.335 0.335 0 0 1 1.485 1.403 A 0.523 0.523 0 0 1 1.407 1.419 Q 1.371 1.424 1.331 1.426 A 0.856 0.856 0 0 1 1.319 1.426 Z" />
  <path fill="#fff" d="M 7.826 5.462 L 8.236 5.462 L 8.236 3.329 L 7.823 3.329 L 7.822 4.699 L 7.233 3.329 L 6.818 3.329 L 6.818 5.462 L 7.233 5.462 L 7.233 4.087 L 7.826 5.462 Z M 6.354 3.329 L 5.121 3.329 L 5.121 3.662 L 5.526 3.662 L 5.526 5.131 L 5.121 5.131 L 5.121 5.462 L 6.354 5.462 L 6.354 5.131 L 5.938 5.131 L 5.938 3.662 L 6.354 3.662 L 6.354 3.329 Z M 2.847 3.329 L 2.436 3.329 L 2.436 4.807 A 0.435 0.435 0 0 1 2.423 4.914 A 0.392 0.392 0 0 1 2.413 4.947 A 0.357 0.357 0 0 1 2.377 5.022 A 0.308 0.308 0 0 1 2.349 5.059 Q 2.308 5.106 2.25 5.133 A 0.297 0.297 0 0 1 2.142 5.16 A 0.351 0.351 0 0 1 2.121 5.16 A 0.55 0.55 0 0 1 2.054 5.157 Q 2.021 5.153 1.993 5.144 A 0.296 0.296 0 0 1 1.971 5.137 A 0.235 0.235 0 0 1 1.901 5.095 A 0.218 0.218 0 0 1 1.872 5.065 A 0.246 0.246 0 0 1 1.842 5.013 A 0.327 0.327 0 0 1 1.828 4.968 A 0.44 0.44 0 0 1 1.817 4.911 Q 1.814 4.882 1.813 4.85 A 0.764 0.764 0 0 1 1.813 4.835 L 1.4 4.835 A 0.897 0.897 0 0 0 1.412 4.976 Q 1.425 5.056 1.454 5.123 A 0.733 0.733 0 0 0 1.454 5.124 A 0.559 0.559 0 0 0 1.551 5.277 A 0.515 0.515 0 0 0 1.602 5.327 A 0.593 0.593 0 0 0 1.772 5.43 A 0.715 0.715 0 0 0 1.828 5.45 Q 1.96 5.491 2.121 5.491 A 0.824 0.824 0 0 0 2.342 5.462 A 0.753 0.753 0 0 0 2.406 5.442 Q 2.538 5.392 2.636 5.301 Q 2.734 5.21 2.791 5.085 A 0.66 0.66 0 0 0 2.845 4.873 A 0.796 0.796 0 0 0 2.849 4.807 L 2.847 3.329 Z M 4.718 4.552 L 4.718 4.242 A 1.385 1.385 0 0 0 4.704 4.042 A 1.204 1.204 0 0 0 4.691 3.968 Q 4.664 3.839 4.612 3.731 A 0.893 0.893 0 0 0 4.5 3.556 A 0.654 0.654 0 0 0 4.349 3.422 Q 4.262 3.363 4.155 3.331 A 0.793 0.793 0 0 0 3.977 3.302 A 0.924 0.924 0 0 0 3.924 3.3 A 0.846 0.846 0 0 0 3.779 3.312 A 0.716 0.716 0 0 0 3.698 3.331 A 0.675 0.675 0 0 0 3.543 3.398 A 0.618 0.618 0 0 0 3.511 3.419 Q 3.426 3.477 3.361 3.559 A 0.855 0.855 0 0 0 3.253 3.736 A 0.934 0.934 0 0 0 3.25 3.742 A 1.052 1.052 0 0 0 3.193 3.914 A 1.22 1.22 0 0 0 3.179 3.975 A 1.365 1.365 0 0 0 3.156 4.173 A 1.574 1.574 0 0 0 3.155 4.242 L 3.155 4.552 A 1.469 1.469 0 0 0 3.167 4.743 A 1.288 1.288 0 0 0 3.176 4.803 A 1.15 1.15 0 0 0 3.215 4.958 A 0.993 0.993 0 0 0 3.238 5.023 A 0.874 0.874 0 0 0 3.323 5.18 A 0.788 0.788 0 0 0 3.351 5.22 A 0.744 0.744 0 0 0 3.504 5.368 A 0.708 0.708 0 0 0 3.692 5.458 A 0.788 0.788 0 0 0 3.695 5.459 A 0.74 0.74 0 0 0 3.849 5.488 A 0.897 0.897 0 0 0 3.925 5.491 A 0.851 0.851 0 0 0 4.076 5.479 A 0.733 0.733 0 0 0 4.144 5.463 A 0.762 0.762 0 0 0 4.31 5.395 A 0.704 0.704 0 0 0 4.331 5.383 Q 4.425 5.324 4.498 5.237 A 0.903 0.903 0 0 0 4.621 5.043 A 1.062 1.062 0 0 0 4.681 4.867 A 1.224 1.224 0 0 0 4.693 4.814 A 1.289 1.289 0 0 0 4.717 4.608 A 1.477 1.477 0 0 0 4.718 4.552 Z M 4.3 4.239 L 4.3 4.552 A 1.414 1.414 0 0 1 4.294 4.684 A 1.271 1.271 0 0 1 4.292 4.705 A 1.033 1.033 0 0 1 4.281 4.783 A 0.828 0.828 0 0 1 4.268 4.84 A 0.664 0.664 0 0 1 4.241 4.923 A 0.539 0.539 0 0 1 4.213 4.981 A 0.373 0.373 0 0 1 4.162 5.053 A 0.325 0.325 0 0 1 4.129 5.084 Q 4.089 5.118 4.038 5.135 A 0.326 0.326 0 0 1 3.963 5.151 A 0.399 0.399 0 0 1 3.925 5.153 A 0.373 0.373 0 0 1 3.864 5.148 A 0.285 0.285 0 0 1 3.81 5.134 Q 3.76 5.115 3.72 5.08 A 0.307 0.307 0 0 1 3.677 5.029 A 0.42 0.42 0 0 1 3.646 4.977 A 0.56 0.56 0 0 1 3.609 4.878 A 0.666 0.666 0 0 1 3.599 4.835 A 0.825 0.825 0 0 1 3.584 4.754 A 1.004 1.004 0 0 1 3.578 4.702 A 1.805 1.805 0 0 1 3.573 4.577 A 2.025 2.025 0 0 1 3.572 4.552 L 3.572 4.239 A 1.846 1.846 0 0 1 3.576 4.12 A 1.614 1.614 0 0 1 3.579 4.082 A 1.097 1.097 0 0 1 3.589 4.002 A 0.878 0.878 0 0 1 3.6 3.945 A 0.623 0.623 0 0 1 3.624 3.865 A 0.476 0.476 0 0 1 3.654 3.801 Q 3.688 3.739 3.738 3.698 A 0.271 0.271 0 0 1 3.821 3.656 Q 3.867 3.641 3.924 3.641 A 0.388 0.388 0 0 1 3.986 3.646 A 0.309 0.309 0 0 1 4.033 3.657 A 0.31 0.31 0 0 1 4.122 3.703 A 0.342 0.342 0 0 1 4.184 3.768 A 0.421 0.421 0 0 1 4.208 3.805 A 0.55 0.55 0 0 1 4.25 3.894 A 0.671 0.671 0 0 1 4.267 3.946 A 0.794 0.794 0 0 1 4.285 4.029 A 0.965 0.965 0 0 1 4.292 4.083 A 1.389 1.389 0 0 1 4.3 4.197 A 1.608 1.608 0 0 1 4.3 4.239 Z" />
</svg>
