<svg xmlns="http://www.w3.org/2000/svg" width="20" height="12"  viewBox="0 0 10 6">
  <rect width="10" height="6" fill="#f00" stroke="#fff" stroke-width="0.2px"/>
  <path fill="#fff" d="M 8.878 2.664 L 9.285 2.664 L 9.285 0.531 L 8.878 0.531 L 8.878 1.405 L 8.274 1.405 L 8.274 0.531 L 7.866 0.531 L 7.866 2.664 L 8.274 2.664 L 8.274 1.739 L 8.878 1.739 L 8.878 2.664 Z M 2.157 1.996 L 1.746 1.996 Q 1.741 2.078 1.721 2.14 A 0.395 0.395 0 0 1 1.713 2.161 A 0.348 0.348 0 0 1 1.682 2.224 A 0.275 0.275 0 0 1 1.642 2.274 A 0.273 0.273 0 0 1 1.542 2.335 A 0.32 0.32 0 0 1 1.532 2.338 A 0.427 0.427 0 0 1 1.452 2.355 A 0.559 0.559 0 0 1 1.387 2.359 Q 1.327 2.359 1.277 2.345 A 0.272 0.272 0 0 1 1.189 2.302 A 0.283 0.283 0 0 1 1.133 2.248 A 0.325 0.325 0 0 1 1.124 2.236 A 0.398 0.398 0 0 1 1.089 2.177 A 0.482 0.482 0 0 1 1.075 2.145 A 0.645 0.645 0 0 1 1.05 2.065 Q 1.04 2.026 1.033 1.983 A 1.07 1.07 0 0 1 1.031 1.97 Q 1.017 1.87 1.017 1.742 L 1.017 1.452 A 1.766 1.766 0 0 1 1.021 1.341 A 1.438 1.438 0 0 1 1.026 1.277 A 1.003 1.003 0 0 1 1.039 1.19 A 0.794 0.794 0 0 1 1.054 1.128 A 0.636 0.636 0 0 1 1.087 1.038 A 0.508 0.508 0 0 1 1.121 0.977 Q 1.163 0.912 1.223 0.876 A 0.288 0.288 0 0 1 1.298 0.846 A 0.332 0.332 0 0 1 1.299 0.846 Q 1.341 0.835 1.39 0.835 Q 1.467 0.835 1.526 0.853 A 0.322 0.322 0 0 1 1.546 0.86 A 0.293 0.293 0 0 1 1.624 0.902 A 0.265 0.265 0 0 1 1.655 0.931 A 0.303 0.303 0 0 1 1.701 1.002 A 0.391 0.391 0 0 1 1.72 1.051 Q 1.741 1.118 1.748 1.206 A 0.974 0.974 0 0 1 1.748 1.218 L 2.159 1.218 A 1.112 1.112 0 0 0 2.13 1.043 A 0.889 0.889 0 0 0 2.088 0.917 Q 2.033 0.784 1.936 0.692 A 0.645 0.645 0 0 0 1.745 0.567 A 0.762 0.762 0 0 0 1.702 0.55 A 0.806 0.806 0 0 0 1.536 0.51 A 1.077 1.077 0 0 0 1.39 0.5 A 0.83 0.83 0 0 0 1.234 0.514 A 0.721 0.721 0 0 0 1.168 0.53 Q 1.064 0.56 0.978 0.616 Q 0.881 0.682 0.805 0.777 A 0.804 0.804 0 0 0 0.691 0.971 A 0.91 0.91 0 0 0 0.682 0.994 A 1.003 1.003 0 0 0 0.632 1.153 A 1.162 1.162 0 0 0 0.621 1.21 A 1.377 1.377 0 0 0 0.601 1.403 A 1.574 1.574 0 0 0 0.6 1.455 L 0.6 1.742 A 1.495 1.495 0 0 0 0.612 1.933 A 1.299 1.299 0 0 0 0.623 2.003 A 1.198 1.198 0 0 0 0.659 2.149 A 1.002 1.002 0 0 0 0.688 2.229 Q 0.732 2.331 0.796 2.416 Q 0.859 2.501 0.941 2.561 A 0.681 0.681 0 0 0 1.129 2.655 A 0.77 0.77 0 0 0 1.143 2.66 A 0.784 0.784 0 0 0 1.31 2.691 A 0.946 0.946 0 0 0 1.387 2.694 A 0.989 0.989 0 0 0 1.565 2.679 A 0.81 0.81 0 0 0 1.691 2.645 A 0.719 0.719 0 0 0 1.866 2.556 A 0.647 0.647 0 0 0 1.929 2.505 Q 2.028 2.415 2.088 2.286 A 0.763 0.763 0 0 0 2.146 2.093 A 0.942 0.942 0 0 0 2.157 1.996 Z M 7.558 1.996 L 7.146 1.996 Q 7.141 2.078 7.122 2.14 A 0.395 0.395 0 0 1 7.114 2.161 A 0.348 0.348 0 0 1 7.083 2.224 A 0.275 0.275 0 0 1 7.042 2.274 A 0.273 0.273 0 0 1 6.942 2.335 A 0.32 0.32 0 0 1 6.933 2.338 A 0.427 0.427 0 0 1 6.853 2.355 A 0.559 0.559 0 0 1 6.788 2.359 Q 6.727 2.359 6.678 2.345 A 0.272 0.272 0 0 1 6.59 2.302 A 0.283 0.283 0 0 1 6.534 2.248 A 0.325 0.325 0 0 1 6.525 2.236 A 0.398 0.398 0 0 1 6.489 2.177 A 0.482 0.482 0 0 1 6.475 2.145 A 0.645 0.645 0 0 1 6.45 2.065 Q 6.441 2.026 6.434 1.983 A 1.07 1.07 0 0 1 6.432 1.97 Q 6.418 1.87 6.418 1.742 L 6.418 1.452 A 1.766 1.766 0 0 1 6.422 1.341 A 1.438 1.438 0 0 1 6.427 1.277 A 1.003 1.003 0 0 1 6.44 1.19 A 0.794 0.794 0 0 1 6.455 1.128 A 0.636 0.636 0 0 1 6.488 1.038 A 0.508 0.508 0 0 1 6.522 0.977 Q 6.563 0.912 6.623 0.876 A 0.288 0.288 0 0 1 6.699 0.846 A 0.332 0.332 0 0 1 6.7 0.846 Q 6.742 0.835 6.79 0.835 Q 6.868 0.835 6.927 0.853 A 0.322 0.322 0 0 1 6.946 0.86 A 0.293 0.293 0 0 1 7.024 0.902 A 0.265 0.265 0 0 1 7.056 0.931 A 0.303 0.303 0 0 1 7.102 1.002 A 0.391 0.391 0 0 1 7.121 1.051 Q 7.142 1.118 7.148 1.206 A 0.974 0.974 0 0 1 7.149 1.218 L 7.559 1.218 A 1.112 1.112 0 0 0 7.531 1.043 A 0.889 0.889 0 0 0 7.489 0.917 Q 7.433 0.784 7.337 0.692 A 0.645 0.645 0 0 0 7.146 0.567 A 0.762 0.762 0 0 0 7.103 0.55 A 0.806 0.806 0 0 0 6.937 0.51 A 1.077 1.077 0 0 0 6.79 0.5 A 0.83 0.83 0 0 0 6.635 0.514 A 0.721 0.721 0 0 0 6.569 0.53 Q 6.465 0.56 6.379 0.616 Q 6.282 0.682 6.206 0.777 A 0.804 0.804 0 0 0 6.092 0.971 A 0.91 0.91 0 0 0 6.083 0.994 A 1.003 1.003 0 0 0 6.033 1.153 A 1.162 1.162 0 0 0 6.021 1.21 A 1.377 1.377 0 0 0 6.002 1.403 A 1.574 1.574 0 0 0 6.001 1.455 L 6.001 1.742 A 1.495 1.495 0 0 0 6.013 1.933 A 1.299 1.299 0 0 0 6.024 2.003 A 1.198 1.198 0 0 0 6.06 2.149 A 1.002 1.002 0 0 0 6.089 2.229 Q 6.133 2.331 6.196 2.416 Q 6.26 2.501 6.342 2.561 A 0.681 0.681 0 0 0 6.53 2.655 A 0.77 0.77 0 0 0 6.544 2.66 A 0.784 0.784 0 0 0 6.711 2.691 A 0.946 0.946 0 0 0 6.788 2.694 A 0.989 0.989 0 0 0 6.966 2.679 A 0.81 0.81 0 0 0 7.092 2.645 A 0.719 0.719 0 0 0 7.267 2.556 A 0.647 0.647 0 0 0 7.329 2.505 Q 7.429 2.415 7.488 2.286 A 0.763 0.763 0 0 0 7.547 2.093 A 0.942 0.942 0 0 0 7.558 1.996 Z M 5.186 0.866 L 5.844 0.866 L 5.844 0.531 L 4.124 0.531 L 4.124 0.866 L 4.773 0.866 L 4.773 2.664 L 5.186 2.664 L 5.186 0.866 Z M 2.885 2.218 L 3.525 2.218 L 3.65 2.664 L 4.083 2.664 L 3.398 0.531 L 3.024 0.531 L 2.326 2.664 L 2.759 2.664 L 2.885 2.218 Z M 3.429 1.868 L 2.986 1.868 L 3.21 1.083 L 3.429 1.868 Z" />
  <path fill="#fff" d="M 6.971 5.362 L 7.381 5.362 L 7.381 3.229 L 6.968 3.229 L 6.966 4.599 L 6.377 3.229 L 5.963 3.229 L 5.963 5.362 L 6.377 5.362 L 6.377 3.987 L 6.971 5.362 Z M 5.498 3.229 L 4.265 3.229 L 4.265 3.562 L 4.671 3.562 L 4.671 5.031 L 4.265 5.031 L 4.265 5.362 L 5.498 5.362 L 5.498 5.031 L 5.082 5.031 L 5.082 3.562 L 5.498 3.562 L 5.498 3.229 Z M 8.684 3.565 L 9.342 3.565 L 9.342 3.229 L 7.622 3.229 L 7.622 3.565 L 8.271 3.565 L 8.271 5.362 L 8.684 5.362 L 8.684 3.565 Z M 1.012 5.362 L 1.012 4.58 L 1.329 4.58 A 1.053 1.053 0 0 0 1.505 4.566 A 0.832 0.832 0 0 0 1.644 4.53 A 0.76 0.76 0 0 0 1.801 4.455 A 0.649 0.649 0 0 0 1.885 4.391 A 0.605 0.605 0 0 0 2.036 4.181 Q 2.09 4.06 2.09 3.916 A 0.766 0.766 0 0 0 2.071 3.745 A 0.646 0.646 0 0 0 2.036 3.637 A 0.624 0.624 0 0 0 1.885 3.42 A 0.689 0.689 0 0 0 1.712 3.308 A 0.833 0.833 0 0 0 1.644 3.28 A 0.849 0.849 0 0 0 1.455 3.236 A 1.082 1.082 0 0 0 1.329 3.229 L 0.6 3.229 L 0.6 5.362 L 1.012 5.362 Z M 3.862 4.452 L 3.862 4.142 A 1.385 1.385 0 0 0 3.848 3.942 A 1.204 1.204 0 0 0 3.835 3.868 Q 3.808 3.739 3.757 3.631 A 0.893 0.893 0 0 0 3.645 3.456 A 0.654 0.654 0 0 0 3.493 3.322 Q 3.407 3.263 3.299 3.231 A 0.793 0.793 0 0 0 3.121 3.202 A 0.924 0.924 0 0 0 3.068 3.2 A 0.846 0.846 0 0 0 2.923 3.212 A 0.716 0.716 0 0 0 2.843 3.231 A 0.675 0.675 0 0 0 2.687 3.298 A 0.618 0.618 0 0 0 2.655 3.319 Q 2.57 3.377 2.505 3.459 A 0.855 0.855 0 0 0 2.397 3.636 A 0.934 0.934 0 0 0 2.394 3.642 A 1.052 1.052 0 0 0 2.337 3.814 A 1.22 1.22 0 0 0 2.323 3.875 A 1.365 1.365 0 0 0 2.301 4.073 A 1.574 1.574 0 0 0 2.299 4.142 L 2.299 4.452 A 1.469 1.469 0 0 0 2.311 4.643 A 1.288 1.288 0 0 0 2.32 4.703 A 1.15 1.15 0 0 0 2.359 4.858 A 0.993 0.993 0 0 0 2.383 4.923 A 0.874 0.874 0 0 0 2.467 5.08 A 0.788 0.788 0 0 0 2.496 5.12 A 0.744 0.744 0 0 0 2.648 5.268 A 0.708 0.708 0 0 0 2.836 5.358 A 0.788 0.788 0 0 0 2.84 5.359 A 0.74 0.74 0 0 0 2.994 5.388 A 0.897 0.897 0 0 0 3.07 5.391 A 0.851 0.851 0 0 0 3.22 5.379 A 0.733 0.733 0 0 0 3.289 5.363 A 0.762 0.762 0 0 0 3.454 5.295 A 0.704 0.704 0 0 0 3.475 5.283 Q 3.569 5.224 3.642 5.137 A 0.903 0.903 0 0 0 3.766 4.943 A 1.062 1.062 0 0 0 3.825 4.767 A 1.224 1.224 0 0 0 3.837 4.714 A 1.289 1.289 0 0 0 3.861 4.508 A 1.477 1.477 0 0 0 3.862 4.452 Z M 3.445 4.139 L 3.445 4.452 A 1.414 1.414 0 0 1 3.439 4.584 A 1.271 1.271 0 0 1 3.437 4.605 A 1.033 1.033 0 0 1 3.425 4.683 A 0.828 0.828 0 0 1 3.413 4.74 A 0.664 0.664 0 0 1 3.385 4.823 A 0.539 0.539 0 0 1 3.358 4.881 A 0.373 0.373 0 0 1 3.306 4.953 A 0.325 0.325 0 0 1 3.273 4.984 Q 3.234 5.018 3.183 5.035 A 0.326 0.326 0 0 1 3.107 5.051 A 0.399 0.399 0 0 1 3.07 5.053 A 0.373 0.373 0 0 1 3.009 5.048 A 0.285 0.285 0 0 1 2.955 5.034 Q 2.904 5.015 2.865 4.98 A 0.307 0.307 0 0 1 2.821 4.929 A 0.42 0.42 0 0 1 2.791 4.877 A 0.56 0.56 0 0 1 2.753 4.778 A 0.666 0.666 0 0 1 2.743 4.735 A 0.825 0.825 0 0 1 2.728 4.654 A 1.004 1.004 0 0 1 2.723 4.602 A 1.805 1.805 0 0 1 2.717 4.477 A 2.025 2.025 0 0 1 2.717 4.452 L 2.717 4.139 A 1.846 1.846 0 0 1 2.72 4.02 A 1.614 1.614 0 0 1 2.723 3.982 A 1.097 1.097 0 0 1 2.733 3.902 A 0.878 0.878 0 0 1 2.745 3.845 A 0.623 0.623 0 0 1 2.768 3.765 A 0.476 0.476 0 0 1 2.798 3.701 Q 2.832 3.639 2.882 3.598 A 0.271 0.271 0 0 1 2.965 3.556 Q 3.011 3.541 3.068 3.541 A 0.388 0.388 0 0 1 3.131 3.546 A 0.309 0.309 0 0 1 3.177 3.557 A 0.31 0.31 0 0 1 3.266 3.603 A 0.342 0.342 0 0 1 3.328 3.668 A 0.421 0.421 0 0 1 3.352 3.705 A 0.55 0.55 0 0 1 3.394 3.794 A 0.671 0.671 0 0 1 3.411 3.846 A 0.794 0.794 0 0 1 3.429 3.929 A 0.965 0.965 0 0 1 3.437 3.983 A 1.389 1.389 0 0 1 3.444 4.097 A 1.608 1.608 0 0 1 3.445 4.139 Z M 1.329 4.246 L 1.012 4.246 L 1.012 3.563 L 1.329 3.563 A 0.468 0.468 0 0 1 1.402 3.569 Q 1.446 3.575 1.482 3.591 A 0.32 0.32 0 0 1 1.565 3.643 A 0.294 0.294 0 0 1 1.59 3.667 A 0.32 0.32 0 0 1 1.653 3.778 A 0.37 0.37 0 0 1 1.654 3.78 A 0.428 0.428 0 0 1 1.674 3.887 A 0.503 0.503 0 0 1 1.675 3.919 A 0.364 0.364 0 0 1 1.654 4.043 A 0.299 0.299 0 0 1 1.59 4.148 A 0.304 0.304 0 0 1 1.507 4.208 A 0.363 0.363 0 0 1 1.482 4.22 A 0.339 0.339 0 0 1 1.409 4.24 Q 1.372 4.246 1.329 4.246 Z" />
</svg>
