<svg xmlns="http://www.w3.org/2000/svg" width="20" height="10" viewBox="0 0 10 5">
  <rect width="10" height="5" fill="#f00" stroke="#fff" stroke-width="0.2px"/>
  <path fill="#fff" d="M 2.5091 2.5183 L 3.2537 2.5183 L 3.2537 2.242 L 2.5091 2.242 L 2.5091 1.7848 L 3.3753 1.7848 L 3.3753 1.5 L 2.158 1.5 L 2.158 3.3131 L 3.3795 3.3131 L 3.3795 3.03 L 2.5091 3.03 L 2.5091 2.5183 Z M 4.0178 2.6356 L 4.2831 2.6356 L 4.6239 3.3131 L 4.9987 3.3131 L 4.9987 3.2969 L 4.6094 2.548 A 0.7004 0.7004 90 0 0 4.7208 2.486 A 0.6307 0.6307 90 0 0 4.7446 2.469 Q 4.8049 2.4223 4.8483 2.3602 A 0.4683 0.4683 90 0 0 4.9044 2.2506 A 0.5457 0.5457 90 0 0 4.9137 2.2216 Q 4.9367 2.1435 4.9367 2.0465 A 0.6587 0.6587 90 0 0 4.9265 1.9276 A 0.4972 0.4972 90 0 0 4.8899 1.8102 Q 4.8432 1.7083 4.7573 1.6394 A 0.5704 0.5704 90 0 0 4.6247 1.562 A 0.7123 0.7123 90 0 0 4.5482 1.5357 A 0.8721 0.8721 90 0 0 4.4021 1.5068 A 1.1313 1.1313 90 0 0 4.2754 1.5 L 3.6677 1.5 L 3.6677 3.3131 L 4.0178 3.3131 L 4.0178 2.6356 Z M 7.8539 1.5 L 6.8058 1.5 L 6.8058 1.7831 L 7.1509 1.7831 L 7.1509 3.0317 L 6.8058 3.0317 L 6.8058 3.3131 L 7.8539 3.3131 L 7.8539 3.0317 L 7.5003 3.0317 L 7.5003 1.7831 L 7.8539 1.7831 L 7.8539 1.5 Z M 5.5453 2.9348 L 6.0893 2.9348 L 6.1955 3.3131 L 6.5644 3.3131 L 5.9813 1.5 L 5.6643 1.5 L 5.0701 3.3131 L 5.4382 3.3131 L 5.5453 2.9348 Z M 9.4825 3.03 L 8.6334 3.03 L 8.6334 1.5 L 8.2823 1.5 L 8.2823 3.3131 L 9.4825 3.3131 L 9.4825 3.03 Z M 0.6 1.5 L 0.6 3.3131 L 1.087 3.3131 A 0.8695 0.8695 90 0 0 1.2528 3.2978 A 0.7675 0.7675 90 0 0 1.314 3.2833 A 0.7327 0.7327 90 0 0 1.5018 3.2017 A 0.6919 0.6919 90 0 0 1.5086 3.1974 Q 1.5852 3.1498 1.6481 3.0793 A 0.867 0.867 90 0 0 1.7594 2.9255 A 0.8551 0.8551 90 0 0 1.8249 2.7622 A 0.9843 0.9843 90 0 0 1.8367 2.7206 Q 1.8639 2.6084 1.8639 2.4826 L 1.8639 2.333 A 1.043 1.043 90 0 0 1.8487 2.1528 A 0.9163 0.9163 90 0 0 1.8342 2.0865 A 0.8959 0.8959 90 0 0 1.7772 1.9242 A 0.7965 0.7965 90 0 0 1.7517 1.8748 A 0.8372 0.8372 90 0 0 1.6438 1.7295 A 0.612 0.612 90 0 0 1.5035 1.6173 A 0.7454 0.7454 90 0 0 1.3318 1.5382 A 0.8474 0.8474 90 0 0 1.3047 1.5306 Q 1.195 1.5 1.0692 1.5 L 0.6 1.5 Z M 0.9527 3.0317 L 0.9527 1.7839 L 1.0692 1.7839 A 0.4947 0.4947 90 0 1 1.144 1.789 A 0.4105 0.4105 90 0 1 1.1873 1.7983 A 0.4063 0.4063 90 0 1 1.2664 1.8281 A 0.3663 0.3663 90 0 1 1.286 1.8383 A 0.3834 0.3834 90 0 1 1.3888 1.9284 A 0.4683 0.4683 90 0 1 1.4568 2.044 A 0.527 0.527 90 0 1 1.4602 2.0525 A 0.6273 0.6273 90 0 1 1.4848 2.1349 A 0.765 0.765 90 0 1 1.4942 2.1817 A 0.8653 0.8653 90 0 1 1.5061 2.2922 A 1.0013 1.0013 90 0 1 1.5061 2.3304 L 1.5061 2.4826 A 1.037 1.037 90 0 1 1.5027 2.577 A 0.8415 0.8415 90 0 1 1.4942 2.6373 A 0.7361 0.7361 90 0 1 1.478 2.7138 A 0.5907 0.5907 90 0 1 1.4602 2.7673 A 0.5729 0.5729 90 0 1 1.4262 2.8379 A 0.465 0.465 90 0 1 1.3948 2.8855 A 0.3834 0.3834 90 0 1 1.3386 2.945 A 0.3349 0.3349 90 0 1 1.3097 2.968 Q 1.2639 2.9994 1.2077 3.0156 A 0.4157 0.4157 90 0 1 1.1193 3.03 A 0.4921 0.4921 90 0 1 1.087 3.0317 L 0.9527 3.0317 Z M 4.2771 2.3517 L 4.0178 2.3517 L 4.0178 1.7839 L 4.2754 1.7839 A 0.5117 0.5117 90 0 1 4.34 1.7873 A 0.3731 0.3731 90 0 1 4.4037 1.8009 A 0.3034 0.3034 90 0 1 4.4573 1.8238 A 0.2405 0.2405 90 0 1 4.4981 1.851 Q 4.5423 1.8876 4.5636 1.9428 A 0.306 0.306 90 0 1 4.5814 2.01 A 0.4123 0.4123 90 0 1 4.5857 2.0703 A 0.3672 0.3672 90 0 1 4.5805 2.1324 A 0.2924 0.2924 90 0 1 4.5686 2.1783 A 0.2405 0.2405 90 0 1 4.5372 2.2403 A 0.2184 0.2184 90 0 1 4.5193 2.2616 A 0.2338 0.2338 90 0 1 4.4497 2.3152 A 0.2924 0.2924 90 0 1 4.4191 2.3287 A 0.351 0.351 90 0 1 4.3485 2.3466 A 0.4828 0.4828 90 0 1 4.2771 2.3517 Z M 6.0077 2.6364 L 5.6311 2.6364 L 5.8224 1.9692 L 6.0077 2.6364 Z" />
</svg>
