<svg xmlns="http://www.w3.org/2000/svg" width="20" height="13" viewBox="0 0 10 6.5">
  <rect width="10" height="6.5" fill="#f00" stroke="#fff" stroke-width="0.2px"/>
  <path fill="#fff" d="M 0.7685 1.2989 L 1.3378 1.2989 L 1.3378 1.0876 L 0.7685 1.0876 L 0.7685 0.7379 L 1.4315 0.7379 L 1.4315 0.5202 L 0.5 0.5202 L 0.5 1.9066 L 1.4341 1.9066 L 1.4341 1.6902 L 0.7685 1.6902 L 0.7685 1.2989 Z M 3.1091 1.2989 L 3.6785 1.2989 L 3.6785 1.0876 L 3.1091 1.0876 L 3.1091 0.7379 L 3.7715 0.7379 L 3.7715 0.5202 L 2.8407 0.5202 L 2.8407 1.9066 L 3.7747 1.9066 L 3.7747 1.6902 L 3.1091 1.6902 L 3.1091 1.2989 Z M 4.9577 1.4724 L 4.6905 1.4724 Q 4.6873 1.5257 4.6743 1.566 A 0.2568 0.2568 90 0 1 4.6698 1.5796 A 0.2262 0.2262 90 0 1 4.649 1.6206 A 0.1788 0.1788 90 0 1 4.623 1.6531 A 0.1775 0.1775 90 0 1 4.5579 1.6927 A 0.208 0.208 90 0 1 4.5514 1.6947 A 0.2775 0.2775 90 0 1 4.4994 1.7058 A 0.3634 0.3634 90 0 1 4.4572 1.7084 Q 4.4182 1.7084 4.3864 1.6992 A 0.1768 0.1768 90 0 1 4.3285 1.6713 A 0.1839 0.1839 90 0 1 4.2921 1.6362 A 0.2113 0.2113 90 0 1 4.2863 1.6284 A 0.2587 0.2587 90 0 1 4.2635 1.59 A 0.3133 0.3133 90 0 1 4.2544 1.5693 A 0.4193 0.4193 90 0 1 4.2382 1.5172 Q 4.2317 1.4919 4.2271 1.464 A 0.6955 0.6955 90 0 1 4.2264 1.4555 Q 4.2173 1.3905 4.2173 1.3073 L 4.2173 1.1188 A 1.1479 1.1479 90 0 1 4.2193 1.0467 A 0.9347 0.9347 90 0 1 4.2232 1.005 A 0.652 0.652 90 0 1 4.2317 0.9485 A 0.5161 0.5161 90 0 1 4.2408 0.9082 A 0.4134 0.4134 90 0 1 4.2622 0.8497 A 0.3302 0.3302 90 0 1 4.2843 0.81 Q 4.3116 0.7678 4.3506 0.7444 A 0.1872 0.1872 90 0 1 4.3994 0.7249 A 0.2158 0.2158 90 0 1 4.4007 0.7249 Q 4.4273 0.7177 4.4592 0.7177 Q 4.5092 0.7177 4.5476 0.7294 A 0.2093 0.2093 90 0 1 4.5606 0.734 A 0.1905 0.1905 90 0 1 4.6113 0.7613 A 0.1723 0.1723 90 0 1 4.6314 0.7802 A 0.1969 0.1969 90 0 1 4.6613 0.8263 A 0.2541 0.2541 90 0 1 4.6737 0.8581 Q 4.6873 0.9017 4.6918 0.9589 A 0.6331 0.6331 90 0 1 4.6925 0.9667 L 4.959 0.9667 A 0.7228 0.7228 90 0 0 4.9402 0.853 A 0.5778 0.5778 90 0 0 4.9135 0.7711 Q 4.8771 0.6846 4.814 0.6248 A 0.4193 0.4193 90 0 0 4.6899 0.5435 A 0.4953 0.4953 90 0 0 4.6626 0.5325 A 0.5239 0.5239 90 0 0 4.5541 0.5065 A 0.7001 0.7001 90 0 0 4.4592 0.5 A 0.5395 0.5395 90 0 0 4.3577 0.5091 A 0.4687 0.4687 90 0 0 4.3148 0.5195 Q 4.2479 0.539 4.1913 0.5754 Q 4.1289 0.6183 4.0789 0.6801 A 0.5226 0.5226 90 0 0 4.0048 0.8061 A 0.5915 0.5915 90 0 0 3.999 0.8211 A 0.652 0.652 90 0 0 3.9665 0.9244 A 0.7553 0.7553 90 0 0 3.9593 0.9615 A 0.895 0.895 90 0 0 3.9463 1.087 A 1.0231 1.0231 90 0 0 3.9457 1.1208 L 3.9457 1.3073 A 0.9718 0.9718 90 0 0 3.9535 1.4315 A 0.8444 0.8444 90 0 0 3.9606 1.4769 A 0.7787 0.7787 90 0 0 3.984 1.5718 A 0.6513 0.6513 90 0 0 4.0029 1.6239 Q 4.0314 1.6902 4.0731 1.7454 Q 4.1147 1.8007 4.1679 1.8397 A 0.4427 0.4427 90 0 0 4.2895 1.9007 A 0.5005 0.5005 90 0 0 4.2986 1.904 A 0.5096 0.5096 90 0 0 4.4071 1.9242 A 0.6149 0.6149 90 0 0 4.4572 1.9261 A 0.6428 0.6428 90 0 0 4.5729 1.9163 A 0.5265 0.5265 90 0 0 4.6555 1.8942 A 0.4673 0.4673 90 0 0 4.7686 1.8364 A 0.4206 0.4206 90 0 0 4.8095 1.8033 Q 4.8739 1.7448 4.9128 1.6609 A 0.496 0.496 90 0 0 4.9506 1.5354 A 0.6123 0.6123 90 0 0 4.9577 1.4724 Z M 9.639 1.4724 L 9.3712 1.4724 Q 9.368 1.5257 9.355 1.566 A 0.2568 0.2568 90 0 1 9.3504 1.5796 A 0.2262 0.2262 90 0 1 9.3303 1.6206 A 0.1788 0.1788 90 0 1 9.3036 1.6531 A 0.1775 0.1775 90 0 1 9.2386 1.6927 A 0.208 0.208 90 0 1 9.2321 1.6947 A 0.2775 0.2775 90 0 1 9.1801 1.7058 A 0.3634 0.3634 90 0 1 9.1379 1.7084 Q 9.0989 1.7084 9.067 1.6992 A 0.1768 0.1768 90 0 1 9.0091 1.6713 A 0.1839 0.1839 90 0 1 8.9727 1.6362 A 0.2113 0.2113 90 0 1 8.9669 1.6284 A 0.2587 0.2587 90 0 1 8.9442 1.59 A 0.3133 0.3133 90 0 1 8.9351 1.5693 A 0.4193 0.4193 90 0 1 8.9188 1.5172 Q 8.9123 1.4919 8.9084 1.464 A 0.6955 0.6955 90 0 1 8.9071 1.4555 Q 8.898 1.3905 8.898 1.3073 L 8.898 1.1188 A 1.1479 1.1479 90 0 1 8.9 1.0467 A 0.9347 0.9347 90 0 1 8.9039 1.005 A 0.652 0.652 90 0 1 8.9123 0.9485 A 0.5161 0.5161 90 0 1 8.9221 0.9082 A 0.4134 0.4134 90 0 1 8.9435 0.8497 A 0.3302 0.3302 90 0 1 8.9649 0.81 Q 8.9923 0.7678 9.0313 0.7444 A 0.1872 0.1872 90 0 1 9.0807 0.7249 A 0.2158 0.2158 90 0 1 9.0813 0.7249 Q 9.1086 0.7177 9.1398 0.7177 Q 9.1898 0.7177 9.2282 0.7294 A 0.2093 0.2093 90 0 1 9.2412 0.734 A 0.1905 0.1905 90 0 1 9.2919 0.7613 A 0.1723 0.1723 90 0 1 9.3121 0.7802 A 0.1969 0.1969 90 0 1 9.342 0.8263 A 0.2541 0.2541 90 0 1 9.3543 0.8581 Q 9.3686 0.9017 9.3725 0.9589 A 0.6331 0.6331 90 0 1 9.3732 0.9667 L 9.6396 0.9667 A 0.7228 0.7228 90 0 0 9.6208 0.853 A 0.5778 0.5778 90 0 0 9.5942 0.7711 Q 9.5578 0.6846 9.4947 0.6248 A 0.4193 0.4193 90 0 0 9.3712 0.5435 A 0.4953 0.4953 90 0 0 9.3433 0.5325 A 0.5239 0.5239 90 0 0 9.2347 0.5065 A 0.7001 0.7001 90 0 0 9.1398 0.5 A 0.5395 0.5395 90 0 0 9.0384 0.5091 A 0.4687 0.4687 90 0 0 8.9955 0.5195 Q 8.9286 0.539 8.872 0.5754 Q 8.8096 0.6183 8.7602 0.6801 A 0.5226 0.5226 90 0 0 8.6861 0.8061 A 0.5915 0.5915 90 0 0 8.6796 0.8211 A 0.652 0.652 90 0 0 8.6471 0.9244 A 0.7553 0.7553 90 0 0 8.64 0.9615 A 0.895 0.895 90 0 0 8.627 1.087 A 1.0231 1.0231 90 0 0 8.6263 1.1208 L 8.6263 1.3073 A 0.9718 0.9718 90 0 0 8.6341 1.4315 A 0.8444 0.8444 90 0 0 8.6413 1.4769 A 0.7787 0.7787 90 0 0 8.6646 1.5718 A 0.6513 0.6513 90 0 0 8.6835 1.6239 Q 8.7121 1.6902 8.7537 1.7454 Q 8.7953 1.8007 8.8486 1.8397 A 0.4427 0.4427 90 0 0 8.9702 1.9007 A 0.5005 0.5005 90 0 0 8.9793 1.904 A 0.5096 0.5096 90 0 0 9.0884 1.9242 A 0.6149 0.6149 90 0 0 9.1379 1.9261 A 0.6428 0.6428 90 0 0 9.2542 1.9163 A 0.5265 0.5265 90 0 0 9.3361 1.8942 A 0.4673 0.4673 90 0 0 9.4498 1.8364 A 0.4206 0.4206 90 0 0 9.4901 1.8033 Q 9.5551 1.7448 9.5935 1.6609 A 0.496 0.496 90 0 0 9.6312 1.5354 A 0.6123 0.6123 90 0 0 9.639 1.4724 Z M 6.6035 1.3885 L 6.8063 1.3885 L 7.067 1.9066 L 7.3536 1.9066 L 7.3536 1.8942 L 7.0553 1.3216 A 0.5356 0.5356 90 0 0 7.1411 1.2742 A 0.4823 0.4823 90 0 0 7.1586 1.2605 Q 7.2047 1.2254 7.2386 1.178 A 0.3581 0.3581 90 0 0 7.2815 1.0935 A 0.4173 0.4173 90 0 0 7.2886 1.072 Q 7.3062 1.0122 7.3062 0.9381 A 0.5038 0.5038 90 0 0 7.2984 0.8471 A 0.3803 0.3803 90 0 0 7.2704 0.7574 Q 7.2347 0.6787 7.169 0.6268 A 0.4361 0.4361 90 0 0 7.067 0.5676 A 0.5447 0.5447 90 0 0 7.0091 0.5474 A 0.6669 0.6669 90 0 0 6.8973 0.5253 A 0.8651 0.8651 90 0 0 6.8004 0.5202 L 6.3357 0.5202 L 6.3357 1.9066 L 6.6035 1.9066 L 6.6035 1.3885 Z M 8.3669 0.5202 L 7.5648 0.5202 L 7.5648 0.7359 L 7.8288 0.7359 L 7.8288 1.6915 L 7.5648 1.6915 L 7.5648 1.9066 L 8.3669 1.9066 L 8.3669 1.6915 L 8.0966 1.6915 L 8.0966 0.7359 L 8.3669 0.7359 L 8.3669 0.5202 Z M 5.7565 0.7379 L 6.1842 0.7379 L 6.1842 0.5202 L 5.0663 0.5202 L 5.0663 0.7379 L 5.4881 0.7379 L 5.4881 1.9066 L 5.7565 1.9066 L 5.7565 0.7379 Z M 2.5911 1.6902 L 1.9417 1.6902 L 1.9417 0.5202 L 1.6732 0.5202 L 1.6732 1.9066 L 2.5911 1.9066 L 2.5911 1.6902 Z M 6.8011 1.1715 L 6.6035 1.1715 L 6.6035 0.7372 L 6.8004 0.7372 A 0.3913 0.3913 90 0 1 6.8492 0.7399 A 0.2853 0.2853 90 0 1 6.8986 0.7503 A 0.2321 0.2321 90 0 1 6.9396 0.7678 A 0.1839 0.1839 90 0 1 6.9708 0.7886 Q 7.0039 0.8159 7.0208 0.8581 A 0.234 0.234 90 0 1 7.0345 0.9102 A 0.3152 0.3152 90 0 1 7.0377 0.9563 A 0.2808 0.2808 90 0 1 7.0338 1.0038 A 0.2236 0.2236 90 0 1 7.0247 1.0389 A 0.1839 0.1839 90 0 1 7 1.0863 A 0.1671 0.1671 90 0 1 6.987 1.1025 A 0.1788 0.1788 90 0 1 6.9337 1.1435 A 0.2236 0.2236 90 0 1 6.9103 1.1539 A 0.2684 0.2684 90 0 1 6.8563 1.1675 A 0.3692 0.3692 90 0 1 6.8011 1.1715 Z" />
  <path fill="#fff" d="M 7.4275 3.8864 L 7.694 3.8864 L 7.694 2.5 L 7.4256 2.5 L 7.4243 3.3905 L 7.0414 2.5 L 6.7723 2.5 L 6.7723 3.8864 L 7.0414 3.8864 L 7.0414 2.992 L 7.4275 3.8864 Z M 3.5366 3.3684 L 3.7394 3.3684 L 4.0007 3.8864 L 4.2873 3.8864 L 4.2873 3.8741 L 3.989 3.3014 A 0.5356 0.5356 90 0 0 4.0741 3.254 A 0.4823 0.4823 90 0 0 4.0923 3.241 Q 4.1385 3.2052 4.1716 3.1578 A 0.3581 0.3581 90 0 0 4.2146 3.0739 A 0.4173 0.4173 90 0 0 4.2217 3.0518 Q 4.2393 2.992 4.2393 2.918 A 0.5038 0.5038 90 0 0 4.2315 2.827 A 0.3803 0.3803 90 0 0 4.2035 2.7372 Q 4.1677 2.6593 4.1021 2.6066 A 0.4361 0.4361 90 0 0 4.0007 2.5474 A 0.5447 0.5447 90 0 0 3.9422 2.5273 A 0.6669 0.6669 90 0 0 3.8304 2.5052 A 0.8651 0.8651 90 0 0 3.7336 2.5 L 3.2694 2.5 L 3.2694 3.8864 L 3.5366 3.8864 L 3.5366 3.3684 Z M 6.47 2.5 L 5.6686 2.5 L 5.6686 2.7165 L 5.9325 2.7165 L 5.9325 3.6713 L 5.6686 3.6713 L 5.6686 3.8864 L 6.47 3.8864 L 6.47 3.6713 L 6.1997 3.6713 L 6.1997 2.7165 L 6.47 2.7165 L 6.47 2.5 Z M 2.6903 2.7178 L 3.118 2.7178 L 3.118 2.5 L 2 2.5 L 2 2.7178 L 2.4219 2.7178 L 2.4219 3.8864 L 2.6903 3.8864 L 2.6903 2.7178 Z M 4.7053 3.5972 L 5.1213 3.5972 L 5.2019 3.8864 L 5.484 3.8864 L 5.0381 2.5 L 4.7957 2.5 L 4.3413 3.8864 L 4.6234 3.8864 L 4.7053 3.5972 Z M 3.7348 3.1513 L 3.5366 3.1513 L 3.5366 2.7171 L 3.7336 2.7171 A 0.3913 0.3913 90 0 1 3.783 2.7197 A 0.2853 0.2853 90 0 1 3.8317 2.7301 A 0.2321 0.2321 90 0 1 3.8733 2.7477 A 0.1839 0.1839 90 0 1 3.9045 2.7685 Q 3.9376 2.7964 3.9546 2.8386 A 0.234 0.234 90 0 1 3.9676 2.89 A 0.3152 0.3152 90 0 1 3.9708 2.9362 A 0.2808 0.2808 90 0 1 3.9669 2.9836 A 0.2236 0.2236 90 0 1 3.9578 3.0187 A 0.1839 0.1839 90 0 1 3.9337 3.0661 A 0.1671 0.1671 90 0 1 3.9207 3.0824 A 0.1788 0.1788 90 0 1 3.8668 3.1233 A 0.2236 0.2236 90 0 1 3.8441 3.1338 A 0.2684 0.2684 90 0 1 3.7895 3.1474 A 0.3692 0.3692 90 0 1 3.7348 3.1513 Z M 5.0583 3.3691 L 4.771 3.3691 L 4.9165 2.8588 L 5.0583 3.3691 Z" />
  <path fill="#fff" d="M 3.0626 5.475 L 2.8 5.475 A 0.4713 0.4713 90 0 0 2.8091 5.5699 A 0.3562 0.3562 90 0 0 2.8416 5.6628 Q 2.8825 5.7428 2.954 5.8013 Q 3.0294 5.8618 3.1308 5.8923 Q 3.2322 5.9235 3.3362 5.9235 Q 3.4415 5.9235 3.5313 5.8982 A 0.4973 0.4973 90 0 0 3.6242 5.8624 A 0.4082 0.4082 90 0 0 3.6853 5.8234 A 0.3465 0.3465 90 0 0 3.7867 5.7038 A 0.3276 0.3276 90 0 0 3.8205 5.5939 A 0.4147 0.4147 90 0 0 3.8237 5.5419 A 0.3906 0.3906 90 0 0 3.8101 5.4367 A 0.3289 0.3289 90 0 0 3.775 5.3548 A 0.4843 0.4843 90 0 0 3.6658 5.2299 A 0.5635 0.5635 90 0 0 3.6443 5.213 A 0.7254 0.7254 90 0 0 3.5436 5.1559 A 0.8151 0.8151 90 0 0 3.5254 5.1474 Q 3.461 5.1188 3.3895 5.0987 A 1.3019 1.3019 90 0 1 3.3265 5.0798 A 0.9724 0.9724 90 0 1 3.2699 5.0596 Q 3.2173 5.0389 3.1796 5.0135 A 0.2204 0.2204 90 0 1 3.149 4.9888 A 0.1645 0.1645 90 0 1 3.123 4.9569 A 0.1307 0.1307 90 0 1 3.1035 4.888 A 0.158 0.158 90 0 1 3.1035 4.8868 A 0.1638 0.1638 90 0 1 3.1152 4.8256 A 0.1573 0.1573 90 0 1 3.1185 4.8178 A 0.1586 0.1586 90 0 1 3.1601 4.7633 A 0.1807 0.1807 90 0 1 3.162 4.7619 A 0.1898 0.1898 90 0 1 3.2004 4.7386 A 0.2483 0.2483 90 0 1 3.2316 4.7262 A 0.2762 0.2762 90 0 1 3.279 4.7158 A 0.3789 0.3789 90 0 1 3.3265 4.7132 A 0.364 0.364 90 0 1 3.3746 4.7165 Q 3.4038 4.7203 3.4279 4.7288 A 0.2301 0.2301 90 0 1 3.4721 4.7503 A 0.1891 0.1891 90 0 1 3.5007 4.7724 A 0.1885 0.1885 90 0 1 3.5442 4.8399 A 0.2593 0.2593 90 0 1 3.5585 4.8998 A 0.3114 0.3114 90 0 1 3.5605 4.9257 L 3.8218 4.9257 A 0.4193 0.4193 90 0 0 3.8049 4.8049 A 0.3783 0.3783 90 0 0 3.7854 4.7542 Q 3.749 4.6761 3.6846 4.6189 A 0.4505 0.4505 90 0 0 3.5735 4.5488 A 0.5402 0.5402 90 0 0 3.5299 4.5312 A 0.5623 0.5623 90 0 0 3.3986 4.5033 A 0.6929 0.6929 90 0 0 3.331 4.5 A 0.7117 0.7117 90 0 0 3.2062 4.5104 A 0.6032 0.6032 90 0 0 3.1373 4.5273 A 0.52 0.52 90 0 0 3.0392 4.5676 A 0.4349 0.4349 90 0 0 2.982 4.6047 A 0.364 0.364 90 0 0 2.8793 4.7268 Q 2.8416 4.7984 2.8416 4.8854 A 0.3621 0.3621 90 0 0 2.8565 4.9894 A 0.3296 0.3296 90 0 0 2.8702 5.0265 A 0.3588 0.3588 90 0 0 2.9365 5.1279 A 0.4206 0.4206 90 0 0 2.9534 5.1448 Q 3.0048 5.1942 3.0847 5.2371 A 0.8444 0.8444 90 0 0 3.0957 5.243 A 0.9087 0.9087 90 0 0 3.1958 5.2865 A 1.2246 1.2246 90 0 0 3.2979 5.319 Q 3.372 5.3392 3.422 5.3619 A 0.4388 0.4388 90 0 1 3.4597 5.382 Q 3.4786 5.3931 3.4942 5.4048 A 0.2399 0.2399 90 0 1 3.5039 5.4132 A 0.1996 0.1996 90 0 1 3.5286 5.4405 A 0.1502 0.1502 90 0 1 3.5469 5.4744 A 0.1852 0.1852 90 0 1 3.5598 5.5387 A 0.2119 0.2119 90 0 1 3.5598 5.5433 A 0.158 0.158 90 0 1 3.5527 5.592 A 0.1443 0.1443 90 0 1 3.5449 5.6115 Q 3.5293 5.6427 3.5007 5.6648 A 0.1918 0.1918 90 0 1 3.4636 5.6869 A 0.2548 0.2548 90 0 1 3.4305 5.6986 A 0.2853 0.2853 90 0 1 3.3837 5.7084 A 0.3926 0.3926 90 0 1 3.3362 5.711 Q 3.2758 5.711 3.2264 5.698 A 0.2489 0.2489 90 0 1 3.1757 5.6784 A 0.2041 0.2041 90 0 1 3.1406 5.6557 A 0.1891 0.1891 90 0 1 3.0873 5.5881 A 0.2217 0.2217 90 0 1 3.0847 5.5829 Q 3.0658 5.5413 3.0633 5.4841 A 0.4114 0.4114 90 0 1 3.0626 5.475 Z M 4.6011 4.7373 L 5.0289 4.7373 L 5.0289 4.5188 L 3.9108 4.5188 L 3.9108 4.7373 L 4.3327 4.7373 L 4.3327 5.9053 L 4.6011 5.9053 L 4.6011 4.7373 Z M 6.635 5.9053 L 6.635 5.397 L 6.8417 5.397 A 0.6844 0.6844 90 0 0 6.9561 5.3879 A 0.5408 0.5408 90 0 0 7.0465 5.3645 A 0.494 0.494 90 0 0 7.1479 5.3157 A 0.4219 0.4219 90 0 0 7.2024 5.2742 A 0.3933 0.3933 90 0 0 7.3012 5.1376 Q 7.3364 5.059 7.3364 4.9654 A 0.4979 0.4979 90 0 0 7.324 4.8543 A 0.4199 0.4199 90 0 0 7.3012 4.784 A 0.4056 0.4056 90 0 0 7.2024 4.643 A 0.4479 0.4479 90 0 0 7.0907 4.5702 A 0.5414 0.5414 90 0 0 7.0465 4.552 A 0.5518 0.5518 90 0 0 6.9236 4.5234 A 0.7033 0.7033 90 0 0 6.8417 4.5188 L 6.3678 4.5188 L 6.3678 5.9053 L 6.635 5.9053 Z M 6.1475 5.3138 L 6.1475 5.1123 A 0.9002 0.9002 90 0 0 6.1384 4.9823 A 0.7826 0.7826 90 0 0 6.13 4.9342 Q 6.1124 4.8503 6.0793 4.7801 A 0.5804 0.5804 90 0 0 6.0064 4.6664 A 0.4251 0.4251 90 0 0 5.9077 4.5793 Q 5.8518 4.5409 5.7815 4.5208 A 0.5155 0.5155 90 0 0 5.6665 4.5013 A 0.6006 0.6006 90 0 0 5.6314 4.5 A 0.5499 0.5499 90 0 0 5.5372 4.5078 A 0.4654 0.4654 90 0 0 5.4851 4.5202 A 0.4388 0.4388 90 0 0 5.3838 4.5637 A 0.4017 0.4017 90 0 0 5.3629 4.5774 Q 5.3077 4.6151 5.2654 4.6684 A 0.5558 0.5558 90 0 0 5.1952 4.7834 A 0.6071 0.6071 90 0 0 5.1939 4.7873 A 0.6838 0.6838 90 0 0 5.1563 4.8991 A 0.793 0.793 90 0 0 5.1478 4.9387 A 0.8872 0.8872 90 0 0 5.1328 5.0675 A 1.0231 1.0231 90 0 0 5.1315 5.1123 L 5.1315 5.3138 A 0.9549 0.9549 90 0 0 5.1394 5.4379 A 0.8372 0.8372 90 0 0 5.1458 5.477 A 0.7475 0.7475 90 0 0 5.1706 5.5777 A 0.6454 0.6454 90 0 0 5.1861 5.62 A 0.5681 0.5681 90 0 0 5.2408 5.722 A 0.5122 0.5122 90 0 0 5.2596 5.748 A 0.4836 0.4836 90 0 0 5.3584 5.8442 A 0.4602 0.4602 90 0 0 5.4812 5.9027 A 0.5122 0.5122 90 0 0 5.4832 5.9033 A 0.481 0.481 90 0 0 5.5833 5.9222 A 0.5831 0.5831 90 0 0 5.6327 5.9242 A 0.5531 0.5531 90 0 0 5.7302 5.9163 A 0.4765 0.4765 90 0 0 5.7751 5.9059 A 0.4953 0.4953 90 0 0 5.8823 5.8618 A 0.4576 0.4576 90 0 0 5.8966 5.854 Q 5.9571 5.8156 6.0052 5.7591 A 0.587 0.587 90 0 0 6.0851 5.633 A 0.6903 0.6903 90 0 0 6.1241 5.5186 A 0.7956 0.7956 90 0 0 6.1312 5.4841 A 0.8378 0.8378 90 0 0 6.1469 5.3502 A 0.96 0.96 90 0 0 6.1475 5.3138 Z M 5.8765 5.1104 L 5.8765 5.3138 A 0.9191 0.9191 90 0 1 5.8726 5.3996 A 0.8262 0.8262 90 0 1 5.8712 5.4132 A 0.6714 0.6714 90 0 1 5.8635 5.464 A 0.5382 0.5382 90 0 1 5.8556 5.501 A 0.4316 0.4316 90 0 1 5.8375 5.5549 A 0.3503 0.3503 90 0 1 5.8199 5.5926 A 0.2424 0.2424 90 0 1 5.7861 5.6395 A 0.2113 0.2113 90 0 1 5.7653 5.6596 Q 5.7393 5.6817 5.7062 5.6928 A 0.2119 0.2119 90 0 1 5.6567 5.7031 A 0.2593 0.2593 90 0 1 5.6327 5.7044 A 0.2424 0.2424 90 0 1 5.593 5.7012 A 0.1852 0.1852 90 0 1 5.5579 5.6921 Q 5.5248 5.6798 5.4994 5.657 A 0.1996 0.1996 90 0 1 5.4715 5.6239 A 0.273 0.273 90 0 1 5.4513 5.59 A 0.364 0.364 90 0 1 5.4273 5.5257 A 0.4329 0.4329 90 0 1 5.4201 5.4977 A 0.5363 0.5363 90 0 1 5.4104 5.4451 A 0.6526 0.6526 90 0 1 5.4071 5.4113 A 1.1732 1.1732 90 0 1 5.4032 5.33 A 1.3162 1.3162 90 0 1 5.4032 5.3138 L 5.4032 5.1104 A 1.1999 1.1999 90 0 1 5.4059 5.033 A 1.0491 1.0491 90 0 1 5.4071 5.0083 A 0.713 0.713 90 0 1 5.4137 4.9563 A 0.5707 0.5707 90 0 1 5.4215 4.9192 A 0.4049 0.4049 90 0 1 5.4364 4.8673 A 0.3094 0.3094 90 0 1 5.4559 4.8256 Q 5.4787 4.7854 5.5105 4.7587 A 0.1762 0.1762 90 0 1 5.5644 4.7314 Q 5.5944 4.7217 5.6314 4.7217 A 0.2522 0.2522 90 0 1 5.6723 4.7249 A 0.2009 0.2009 90 0 1 5.7029 4.7321 A 0.2015 0.2015 90 0 1 5.7601 4.7619 A 0.2223 0.2223 90 0 1 5.8004 4.8042 A 0.2737 0.2737 90 0 1 5.8167 4.8282 A 0.3575 0.3575 90 0 1 5.8433 4.8861 A 0.4361 0.4361 90 0 1 5.8544 4.9199 A 0.5161 0.5161 90 0 1 5.866 4.9738 A 0.6272 0.6272 90 0 1 5.8712 5.009 A 0.9028 0.9028 90 0 1 5.8758 5.0831 A 1.0452 1.0452 90 0 1 5.8765 5.1104 Z M 6.8417 5.1799 L 6.635 5.1799 L 6.635 4.7359 L 6.8417 4.7359 A 0.3042 0.3042 90 0 1 6.8891 4.7398 Q 6.9171 4.7438 6.9412 4.7542 A 0.208 0.208 90 0 1 6.9951 4.788 A 0.1911 0.1911 90 0 1 7.0114 4.8036 A 0.208 0.208 90 0 1 7.0523 4.8757 A 0.2405 0.2405 90 0 1 7.053 4.877 A 0.2782 0.2782 90 0 1 7.0659 4.9466 A 0.327 0.327 90 0 1 7.0666 4.9673 A 0.2366 0.2366 90 0 1 7.053 5.048 A 0.1944 0.1944 90 0 1 7.0114 5.1162 A 0.1976 0.1976 90 0 1 6.9574 5.1552 A 0.236 0.236 90 0 1 6.9412 5.163 A 0.2204 0.2204 90 0 1 6.8937 5.176 Q 6.8697 5.1799 6.8417 5.1799 Z" />
</svg>
