<svg xmlns="http://www.w3.org/2000/svg" width="22.5" height="15" viewBox="0 0 15 10">
  <rect fill="#fff" stroke="#000" stroke-width=".2" width="14.8" height="9.8" ry="1" x=".1" y=".1"/>
  <path fill="#000" d="M9.8574 2.0754l.7618 5.5458h.9672l.4654-2.9926.0416-.2834.0416.2834.4836 2.9926h.9672l.7696-5.5458h-.9828l-.377 3.1096-.026.2314-.0338-.2288-.4654-3.1122H11.706l-.4394 3.0888-.0338.2288-.026-.2158-.3692-3.1018H9.8574ZM3.2612 2.949H4.972V2.0754H.5V2.949H2.1874V7.6212H3.2612V2.949ZM9.4466 5.2552v-.806a3.601 3.601 90 00-.0364-.52 3.1304 3.1304 90 00-.0338-.1924q-.0702-.3354-.2054-.6162a2.3218 2.3218 90 00-.2912-.455 1.7004 1.7004 90 00-.3926-.3484q-.2262-.1534-.5044-.2366A2.0618 2.0618 90 007.52 2.0052 2.4024 2.4024 90 007.3822 2a2.1996 2.1996 90 00-.377.0312 1.8616 1.8616 90 00-.2106.0494 1.755 1.755 90 00-.403.1742 1.6068 1.6068 90 00-.0832.0546q-.221.1508-.39.364a2.223 2.223 90 00-.2808.4602 2.4284 2.4284 90 00-.0078.0156 2.7352 2.7352 90 00-.1482.4472 3.172 3.172 90 00-.0364.1586 3.549 3.549 90 00-.0598.5148 4.0924 4.0924 90 00-.0026.1794v.806a3.8194 3.8194 90 00.0312.4966 3.3488 3.3488 90 00.0234.156 2.99 2.99 90 00.1014.403 2.5818 2.5818 90 00.0598.169 2.2724 2.2724 90 00.221.4082 2.0488 2.0488 90 00.0728.104 1.9344 1.9344 90 00.3978.3848 1.8408 1.8408 90 00.4888.234 2.0488 2.0488 90 00.0078.0026 1.924 1.924 90 00.4004.0754 2.3322 2.3322 90 00.1976.0078 2.2126 2.2126 90 00.3926-.0312 1.9058 1.9058 90 00.1768-.0416 1.9812 1.9812 90 00.4316-.1768 1.8304 1.8304 90 00.0546-.0312q.2444-.1534.4342-.3796a2.3478 2.3478 90 00.3198-.5044 2.7612 2.7612 90 00.156-.4576 3.1824 3.1824 90 00.0312-.1378 3.3514 3.3514 90 00.0624-.5356 3.8402 3.8402 90 00.0026-.1456ZM8.3598 4.4414v.8138a3.6764 3.6764 90 01-.0156.3432A3.3046 3.3046 90 018.339 5.653a2.6858 2.6858 90 01-.0286.2028 2.1528 2.1528 90 01-.0338.1482 1.7264 1.7264 90 01-.0702.2158 1.4014 1.4014 90 01-.0728.1508.9698.9698 90 01-.1326.1872.845.845 90 01-.0858.0806q-.1014.0884-.2366.1326a.8476.8476 90 01-.195.0416 1.0374 1.0374 90 01-.0988.0052.9698.9698 90 01-.1586-.013.741.741 90 01-.1404-.0364q-.13-.0494-.234-.1404A.7982.7982 90 016.74 6.4954a1.092 1.092 90 01-.0806-.1352 1.456 1.456 90 01-.0962-.2574 1.7316 1.7316 90 01-.026-.1118 2.145 2.145 90 01-.039-.2106 2.6104 2.6104 90 01-.0156-.1352 4.693 4.693 90 01-.013-.325 5.265 5.265 90 01-.0026-.065V4.4414a4.7996 4.7996 90 01.0104-.3094 4.1964 4.1964 90 01.0078-.0988 2.8522 2.8522 90 01.026-.208 2.2828 2.2828 90 01.0286-.1482 1.6198 1.6198 90 01.0624-.208 1.2376 1.2376 90 01.078-.1664q.0884-.1612.2184-.2678a.7046.7046 90 01.2158-.1092q.1196-.039.2678-.039a1.0088 1.0088 90 01.1612.013.8034.8034 90 01.1222.0286.806.806 90 01.2314.1196.8892.8892 90 01.1612.169 1.0946 1.0946 90 01.0624.0962 1.43 1.43 90 01.1092.2314 1.7446 1.7446 90 01.0442.1352 2.0644 2.0644 90 01.0468.2158 2.509 2.509 90 01.0182.1404 3.6114 3.6114 90 01.0208.2964 4.1808 4.1808 90 010 .1092Z" />
  <path d="M 0.4 9.4 L 14.6 0.6" stroke="#f00" stroke-width="1.5" />
</svg>
