<svg xmlns="http://www.w3.org/2000/svg" width="18.3" height="10" viewBox="0 0 11 6">
  <rect width="11" height="6" fill="#fff" stroke="#000" stroke-width="0.2px" />
  <path d="M4.858 2.662 5.268 2.662 5.268.529 4.855.529 4.854 1.899 4.265.529 3.85.529 3.85 2.662 4.265 2.662 4.265 1.287 4.858 2.662ZM9.7 1.728 10.575 1.728 10.575 1.402 9.7 1.402 9.7.865 10.719.865 10.719.529 9.286.529 9.286 2.662 10.723 2.662 10.723 2.33 9.7 2.33 9.7 1.728ZM7.129 2.413 7.127 1.572 6.364 1.572 6.364 1.88 6.717 1.88 6.716 2.267A.117.117 0 016.7 2.282Q6.692 2.288 6.681 2.295A.247.247 0 016.668 2.302.384.384 0 016.632 2.319.509.509 0 016.596 2.333.559.559 0 016.531 2.349.647.647 0 016.508 2.353Q6.461 2.36 6.412 2.36A.468.468 0 016.338 2.353.361.361 0 016.271 2.335.313.313 0 016.162 2.264.361.361 0 016.119 2.211.408.408 0 016.111 2.2.502.502 0 016.078 2.137.568.568 0 016.071 2.122Q6.043 2.049 6.028 1.955A1.084 1.084 0 016.028 1.953 1.173 1.173 0 016.016 1.843 1.542 1.542 0 016.013 1.742L6.013 1.449A1.364 1.364 0 016.016 1.344 1.098 1.098 0 016.023 1.278.971.971 0 016.039 1.195.756.756 0 016.055 1.134Q6.081 1.051 6.122.989A.448.448 0 016.167.931.352.352 0 016.212.89.298.298 0 016.294.847.285.285 0 016.385.833Q6.458.833 6.514.849A.312.312 0 016.533.855Q6.596.878 6.637.923A.278.278 0 016.678.985.352.352 0 016.694 1.024Q6.715 1.084 6.726 1.161A.832.832 0 016.726 1.162L7.127 1.162A1.068 1.068 0 007.098.999.857.857 0 007.059.885.611.611 0 006.933.694.586.586 0 006.915.676.593.593 0 006.761.574.73.73 0 006.689.545.817.817 0 006.544.512Q6.465.5 6.374.5A.765.765 0 006.175.526.712.712 0 006.152.532Q6.046.564 5.957.627A.79.79 0 005.817.759.89.89 0 005.718.906 1.003 1.003 0 005.705.931Q5.654 1.038 5.626 1.169A1.277 1.277 0 005.601 1.35 1.553 1.553 0 005.598 1.452L5.598 1.742A1.57 1.57 0 005.608 1.924 1.278 1.278 0 005.627 2.038 1.052 1.052 0 005.67 2.19.863.863 0 005.711 2.283.75.75 0 005.816 2.443.7.7 0 005.829 2.457Q5.898 2.533 5.983 2.586A.731.731 0 006.16 2.661.818.818 0 006.173 2.664Q6.276 2.691 6.393 2.691A1.295 1.295 0 006.555 2.682 1.087 1.087 0 006.645 2.667 1.244 1.244 0 006.77 2.633 1.001 1.001 0 006.858 2.601Q6.951 2.561 7.02 2.511A.765.765 0 007.068 2.474Q7.092 2.454 7.11 2.434A.397.397 0 007.129 2.413ZM.604 2 .2 2A.725.725 0 00.214 2.146.548.548 0 00.264 2.289Q.327 2.412.437 2.502.553 2.595.709 2.642.865 2.69 1.025 2.69 1.187 2.69 1.325 2.651A.765.765 0 001.468 2.596.628.628 0 001.562 2.536.533.533 0 001.718 2.352.504.504 0 001.77 2.183.638.638 0 001.775 2.103.601.601 0 001.754 1.941.506.506 0 001.7 1.815.745.745 0 001.532 1.623.867.867 0 001.499 1.597 1.116 1.116 0 001.344 1.509 1.254 1.254 0 001.316 1.496Q1.217 1.452 1.107 1.421A2.003 2.003 0 011.01 1.392 1.496 1.496 0 01.923 1.361Q.842 1.329.784 1.29A.339.339 0 01.737 1.252.253.253 0 01.697 1.203.201.201 0 01.667 1.097.243.243 0 01.667 1.095.252.252 0 01.685 1.001.242.242 0 01.69.989.244.244 0 01.754.905.278.278 0 01.757.903.292.292 0 01.816.867.382.382 0 01.864.848.425.425 0 01.937.832.583.583 0 011.01.828.56.56 0 011.084.833Q1.129.839 1.166.852A.354.354 0 011.234.885.291.291 0 011.278.919.29.29 0 011.345 1.023.399.399 0 011.367 1.115.479.479 0 011.37 1.155L1.772 1.155A.645.645 0 001.746.969.582.582 0 001.716.891Q1.66.771 1.561.683A.693.693 0 001.39.575.831.831 0 001.323.548.865.865 0 001.121.505 1.066 1.066 0 001.017.5 1.095 1.095 0 00.825.516.928.928 0 00.719.542.8.8 0 00.568.604.669.669 0 00.48.661.56.56 0 00.322.849Q.264.959.264 1.093A.557.557 0 00.287 1.253.507.507 0 00.308 1.31.552.552 0 00.41 1.466.647.647 0 00.436 1.492Q.515 1.568.638 1.634A1.299 1.299 0 00.655 1.643 1.398 1.398 0 00.809 1.71 1.884 1.884 0 00.966 1.76Q1.08 1.791 1.157 1.826A.675.675 0 011.215 1.857Q1.244 1.874 1.268 1.892A.369.369 0 011.283 1.905.307.307 0 011.321 1.947.231.231 0 011.349 1.999.285.285 0 011.369 2.098.326.326 0 011.369 2.105.243.243 0 011.358 2.18.222.222 0 011.346 2.21Q1.322 2.258 1.278 2.292A.295.295 0 011.221 2.326.392.392 0 011.17 2.344.439.439 0 011.098 2.359.604.604 0 011.025 2.363Q.932 2.363.856 2.343A.383.383 0 01.778 2.313.314.314 0 01.724 2.278.291.291 0 01.642 2.174.341.341 0 01.638 2.166Q.609 2.102.605 2.014A.633.633 0 01.604 2ZM3.386.529 2.153.529 2.153.862 2.558.862 2.558 2.331 2.153 2.331 2.153 2.662 3.386 2.662 3.386 2.331 2.97 2.331 2.97.862 3.386.862 3.386.529ZM8.903 2.33 7.904 2.33 7.904.529 7.491.529 7.491 2.662 8.903 2.662 8.903 2.33Z" />
  <path d="M6.139 5.213 6.138 4.372 5.374 4.372 5.374 4.68 5.727 4.68 5.726 5.067A.117.117 0 015.71 5.082Q5.702 5.088 5.692 5.095A.247.247 0 015.678 5.102.384.384 0 015.642 5.119.509.509 0 015.606 5.133.559.559 0 015.541 5.149.647.647 0 015.518 5.153Q5.471 5.16 5.423 5.16A.468.468 0 015.348 5.153.361.361 0 015.281 5.135.313.313 0 015.172 5.064.361.361 0 015.129 5.011.408.408 0 015.122 5 .502.502 0 015.088 4.937.568.568 0 015.081 4.922Q5.054 4.849 5.038 4.755A1.084 1.084 0 015.038 4.753 1.173 1.173 0 015.026 4.643 1.542 1.542 0 015.023 4.542L5.023 4.249A1.364 1.364 0 015.027 4.144 1.098 1.098 0 015.034 4.078.971.971 0 015.049 3.995.756.756 0 015.065 3.934Q5.092 3.851 5.132 3.789A.448.448 0 015.177 3.731.352.352 0 015.222 3.69.298.298 0 015.304 3.647.285.285 0 015.395 3.633Q5.469 3.633 5.525 3.649A.312.312 0 015.544 3.655Q5.606 3.678 5.647 3.723A.278.278 0 015.688 3.785.352.352 0 015.705 3.824Q5.726 3.884 5.736 3.961A.832.832 0 015.736 3.962L6.138 3.962A1.068 1.068 0 006.108 3.799.857.857 0 006.069 3.685.611.611 0 005.944 3.494.586.586 0 005.925 3.476.593.593 0 005.771 3.374.73.73 0 005.699 3.345.817.817 0 005.555 3.312Q5.475 3.3 5.385 3.3A.765.765 0 005.185 3.326.712.712 0 005.162 3.332Q5.057 3.364 4.967 3.427A.79.79 0 004.827 3.559.89.89 0 004.728 3.706 1.003 1.003 0 004.715 3.731Q4.664 3.838 4.636 3.969A1.277 1.277 0 004.612 4.15 1.553 1.553 0 004.608 4.252L4.608 4.542A1.57 1.57 0 004.618 4.724 1.278 1.278 0 004.637 4.838 1.052 1.052 0 004.68 4.99.863.863 0 004.721 5.083.75.75 0 004.826 5.243.7.7 0 004.839 5.257Q4.909 5.333 4.994 5.386A.731.731 0 005.17 5.461.818.818 0 005.183 5.464Q5.287 5.491 5.404 5.491A1.295 1.295 0 005.565 5.482 1.087 1.087 0 005.656 5.467 1.244 1.244 0 005.781 5.433 1.001 1.001 0 005.868 5.401Q5.962 5.361 6.031 5.311A.765.765 0 006.078 5.274Q6.102 5.254 6.121 5.234A.397.397 0 006.139 5.213ZM7.474 5.462 7.881 5.462 7.881 3.329 7.474 3.329 7.474 4.204 6.87 4.204 6.87 3.329 6.461 3.329 6.461 5.462 6.87 5.462 6.87 4.538 7.474 4.538 7.474 5.462ZM4.197 3.329 2.963 3.329 2.963 3.662 3.369 3.662 3.369 5.131 2.963 5.131 2.963 5.462 4.197 5.462 4.197 5.131 3.781 5.131 3.781 3.662 4.197 3.662 4.197 3.329ZM9.183 3.665 9.841 3.665 9.841 3.329 8.121 3.329 8.121 3.665 8.77 3.665 8.77 5.462 9.183 5.462 9.183 3.665ZM2.512 5.13 1.513 5.13 1.513 3.329 1.1 3.329 1.1 5.462 2.512 5.462 2.512 5.13Z" />
  <path d="M 0.4 5.4 L 10.6 0.6" stroke="#f00" stroke-width="1" />
</svg>
