<svg xmlns="http://www.w3.org/2000/svg" width="22.5" height="15" viewBox="0 0 15 10">
  <rect fill="#000" stroke="#fff" stroke-width=".2" width="14.8" height="9.8" ry="1" x=".1" y=".1"/>
  <path fill="#fff" d="M 8.1247 3.1645 L 9.9013 3.1645 L 9.9013 2.26 L 5.2573 2.26 L 5.2573 3.1645 L 7.0096 3.1645 L 7.0096 8.0191 L 8.1247 8.0191 L 8.1247 3.1645 Z M 1.912 6.8176 L 3.64 6.8176 L 3.9748 8.0191 L 5.1466 8.0191 L 3.2944 2.26 L 2.2873 2.26 L 0.4 8.0191 L 1.5718 8.0191 L 1.912 6.8176 Z M 11.7103 8.0191 L 11.7103 5.9077 L 12.5689 5.9077 A 2.8431 2.8431 90 0 0 13.0441 5.8699 A 2.2464 2.2464 90 0 0 13.4194 5.7727 A 2.052 2.052 90 0 0 13.8406 5.5675 A 1.7523 1.7523 90 0 0 14.0701 5.3974 A 1.6335 1.6335 90 0 0 14.4778 4.8304 Q 14.6236 4.5037 14.6236 4.1149 A 2.0682 2.0682 90 0 0 14.5723 3.6505 A 1.7442 1.7442 90 0 0 14.4778 3.3589 A 1.6848 1.6848 90 0 0 14.0701 2.773 A 1.8603 1.8603 90 0 0 13.603 2.4706 A 2.2491 2.2491 90 0 0 13.4194 2.3977 A 2.2923 2.2923 90 0 0 12.9091 2.2789 A 2.9214 2.9214 90 0 0 12.5689 2.26 L 10.6006 2.26 L 10.6006 8.0191 L 11.7103 8.0191 Z M 12.5689 5.0059 L 11.7103 5.0059 L 11.7103 3.1618 L 12.5689 3.1618 A 1.2636 1.2636 90 0 1 12.766 3.1753 Q 12.8821 3.1942 12.982 3.2374 A 0.864 0.864 90 0 1 13.2061 3.3778 A 0.7938 0.7938 90 0 1 13.2736 3.4426 A 0.864 0.864 90 0 1 13.4437 3.7423 A 0.999 0.999 90 0 1 13.4464 3.7477 A 1.1556 1.1556 90 0 1 13.5004 4.0366 A 1.3581 1.3581 90 0 1 13.5031 4.123 A 0.9828 0.9828 90 0 1 13.4464 4.4578 A 0.8073 0.8073 90 0 1 13.2736 4.7386 A 0.8208 0.8208 90 0 1 13.0495 4.9033 A 0.9801 0.9801 90 0 1 12.982 4.933 A 0.9153 0.9153 90 0 1 12.7849 4.987 Q 12.685 5.0059 12.5689 5.0059 Z M 3.3781 5.8699 L 2.1847 5.8699 L 2.7895 3.7504 L 3.3781 5.8699 Z" />
  <path d="M 0.4 9.4 L 14.6 0.6" stroke="#f00" stroke-width="1.5" />
</svg>
