<svg xmlns="http://www.w3.org/2000/svg" width="15" height="15" viewBox="0 0 10 10">
  <path fill="red" stroke="#000" stroke-width=".2" d="M0 0h10v5H0z"/>
  <path stroke="#000" stroke-width=".2" d="M0 5h10v5H0z"/>
  <path fill="#fff" d="M7.4745 3.603h.237A.8685.8685 90 007.77 3.6a.7335.7335 90 00.1545-.0255q.099-.0285.18-.084A.591.591 90 008.157 3.45.6765.6765 90 008.256 3.345.8205.8205 90 008.31 3.261a1.011 1.011 90 00.0615-.1245 1.0425 1.0425 90 00.03-.0945 1.299 1.299 90 00.03-.135 1.485 1.485 90 00.0135-.1065 1.83 1.83 90 00.0075-.1665V2.3655A1.767 1.767 90 008.451 2.298a1.527 1.527 90 00-.0195-.195A1.35 1.35 90 008.415 2.0205 1.107 1.107 90 008.3715 1.875.93.93 90 008.364 1.86.8265.8265 90 008.244 1.656.6765.6765 90 008.0625 1.497.6465.6465 90 008.028 1.479.717.717 90 007.8885 1.4265.7245.7245 90 007.8135 1.41a.873.873 90 00-.132-.009h-.207V3.603ZM6.852.9h.8295q.222 0 .414.054a1.4955 1.4955 90 01.048.0135 1.3155 1.3155 90 01.3045.1395 1.08 1.08 90 01.2475.198 1.4775 1.4775 90 01.189.2565 1.4055 1.4055 90 01.045.087 1.581 1.581 90 01.102.2865 1.617 1.617 90 01.024.117 1.8405 1.8405 90 01.027.318v.264q0 .222-.048.42a1.737 1.737 90 01-.0195.0735 1.509 1.509 90 01-.117.288 1.53 1.53 90 01-.195.2715q-.1125.1245-.246.2085a1.221 1.221 90 01-.012.0075 1.293 1.293 90 01-.333.144 1.3545 1.3545 90 01-.1065.0255 1.5345 1.5345 90 01-.294.027H6.852V.9ZM2.1195 2.697V3.6h1.536v.4995H1.5V.9H3.6495v.5025h-1.53v.807h1.314v.4875H2.1195Zm3.54 1.4025L4.77 2.0355v2.064H4.1475V.9H4.77l.8835 2.055L5.655.9h.6195V4.0995h-.615Z" />
</svg>
