<svg xmlns="http://www.w3.org/2000/svg" width="20" height="10" viewBox="0 0 10 5">
  <rect width="10" height="5" fill="#f00" stroke="#fff" stroke-width="0.2px"/>
  <path fill="#fff" d="M1.1133 2.6086c.0312-.0137.1074-.0234.168-.0254H1.3926v.3281c0 .3203 0 .3281.043.375.0254.0254.0645.0508.0898.0566.0664.0156.1309-.0039.1816-.0566.043-.0469.043-.0547.043-.375V2.5832h.3926v.2949c0 .334.0156.4004.1074.4473.0742.0371.1582.0215.2168-.0371.041-.0469.043-.0566.0469-.375l.0059-.3301h.3887l.0059.3301c.0039.3184.0059.3281.0488.375.0566.0586.1426.0742.2148.0371.0918-.0469.1074-.1133.1074-.4473V2.5832h.3926v.3281c0 .3203 0 .3281.0449.375.0762.084.1914.084.2695 0 .043-.0469.043-.0547.043-.375V2.5832h.3926v.2949c0 .334.0176.4004.1074.4473.0742.0371.1602.0215.2168-.0371.041-.0469.043-.0566.0469-.375l.0059-.3301h.3906l.0059.3301c.0039.3184.0059.3281.0469.375.0566.0586.1426.0742.2168.0371.0898-.0469.1074-.1133.1074-.4473V2.5832h.3926v.3281c0 .3203 0 .3281.043.375.0781.084.1934.084.2695 0 .0449-.0469.0449-.0547.0449-.375V2.5832h.3926v.2949c0 .334.0156.4004.1074.4473.0723.0371.1582.0215.2148-.0371.043-.0469.0449-.0566.0488-.375l.0059-.3301h.3887l.0059.3301c.0039.3184.0059.3281.0469.375.0586.0586.1426.0742.2168.0371.0918-.0469.1074-.1133.1074-.4473V2.5832H8.25v.3281c0 .3203 0 .3281.043.375.0781.084.1934.084.2715 0 .043-.0469.043-.0547.043-.375V2.5832h.1074c.0586 0 .1348.0117.168.0254.1211.0508.1172.0156.1172.9395 0 .9219.0039.8887-.1172.9375-.0898.0391-7.6758.0391-7.7656 0C.9961 4.4367 1 4.4699 1 3.548c0-.9199-.0039-.8867.1133-.9395M1.8848.3156c.0488-.0215.0742-.0215.1406.0078.0801.0332.1172.0918.1172.1836 0 .0781-.0059.0859-.2363.3184L1.6719 1.0656H8.3281L8.0938.8254C7.8613.591 7.8574.5852 7.8574.507c0-.0527.0117-.0937.0352-.127.0488-.0586.1523-.0918.2168-.0664.0547.0195.8047.752.8574.8359.043.0684.043.1562 0 .2246-.0469.0742-.8164.8203-.8652.8398-.0566.0215-.166-.0156-.209-.0703-.0234-.0332-.0352-.0742-.0352-.127 0-.0801.0039-.0859.2363-.3203l.2363-.2383H1.6719l.2344.2402c.2324.2344.2363.2402.2363.3184 0 .0527-.0117.0938-.0352.127-.043.0527-.1387.0879-.2012.0723-.0254-.0059-.2324-.1992-.4766-.4414L1 1.341V1.1828L1.4238.7551C1.6563.5227 1.8652.3234 1.8848.3156"/>
</svg>
