<svg xmlns="http://www.w3.org/2000/svg" width="20" height="10.4" viewBox="0 0 10 5.2">
  <rect width="10" height="5.2" fill="#000" />
  <path fill="#fff" d="M 5.8782 2.1215 L 6.1857 2.1215 L 6.1857 0.5218 L 5.876 0.5218 L 5.8745 1.5493 L 5.4327 0.5218 L 5.1223 0.5218 L 5.1223 2.1215 L 5.4327 2.1215 L 5.4327 1.0903 L 5.8782 2.1215 Z M 8.0885 1.625 L 7.7855 1.625 A 0.5437 0.5437 90 0 0 7.796 1.7345 A 0.411 0.411 90 0 0 7.8328 1.8417 Q 7.8808 1.934 7.9632 2.0015 Q 8.0502 2.0713 8.1672 2.1065 Q 8.2843 2.1425 8.4035 2.1425 Q 8.5257 2.1425 8.6292 2.1132 A 0.5737 0.5737 90 0 0 8.7357 2.072 A 0.471 0.471 90 0 0 8.807 2.027 A 0.3998 0.3998 90 0 0 8.924 1.889 A 0.378 0.378 90 0 0 8.9623 1.7623 A 0.4785 0.4785 90 0 0 8.966 1.7023 A 0.4507 0.4507 90 0 0 8.9503 1.5808 A 0.3795 0.3795 90 0 0 8.9105 1.4862 A 0.5587 0.5587 90 0 0 8.7837 1.3422 A 0.6502 0.6502 90 0 0 8.7597 1.3227 A 0.837 0.837 90 0 0 8.6427 1.2567 A 0.9405 0.9405 90 0 0 8.6225 1.247 Q 8.5475 1.214 8.465 1.1907 A 1.5023 1.5023 90 0 1 8.3923 1.169 A 1.122 1.122 90 0 1 8.327 1.1458 Q 8.2662 1.1218 8.2235 1.0925 A 0.2543 0.2543 90 0 1 8.1875 1.064 A 0.1898 0.1898 90 0 1 8.1582 1.0272 A 0.1507 0.1507 90 0 1 8.1358 0.9477 A 0.1822 0.1822 90 0 1 8.1358 0.9462 A 0.189 0.189 90 0 1 8.1485 0.8758 A 0.1815 0.1815 90 0 1 8.153 0.8668 A 0.183 0.183 90 0 1 8.2003 0.8038 A 0.2085 0.2085 90 0 1 8.2025 0.8023 A 0.219 0.219 90 0 1 8.2467 0.7752 A 0.2865 0.2865 90 0 1 8.2835 0.761 A 0.3187 0.3187 90 0 1 8.3382 0.749 A 0.4373 0.4373 90 0 1 8.393 0.746 A 0.42 0.42 90 0 1 8.4478 0.7498 Q 8.4815 0.7543 8.51 0.764 A 0.2655 0.2655 90 0 1 8.5602 0.7888 A 0.2182 0.2182 90 0 1 8.594 0.8142 A 0.2175 0.2175 90 0 1 8.6435 0.8922 A 0.2993 0.2993 90 0 1 8.6607 0.9612 A 0.3593 0.3593 90 0 1 8.663 0.9913 L 8.9637 0.9913 A 0.4838 0.4838 90 0 0 8.9442 0.8518 A 0.4365 0.4365 90 0 0 8.9225 0.7933 Q 8.8805 0.7033 8.8055 0.6372 A 0.5197 0.5197 90 0 0 8.6772 0.5562 A 0.6232 0.6232 90 0 0 8.627 0.536 A 0.6488 0.6488 90 0 0 8.4763 0.5037 A 0.7995 0.7995 90 0 0 8.3982 0.5 A 0.8212 0.8212 90 0 0 8.2542 0.512 A 0.696 0.696 90 0 0 8.174 0.5315 A 0.6 0.6 90 0 0 8.0615 0.578 A 0.5018 0.5018 90 0 0 7.9948 0.6207 A 0.42 0.42 90 0 0 7.8763 0.7617 Q 7.8335 0.8443 7.8335 0.9447 A 0.4178 0.4178 90 0 0 7.85 1.0647 A 0.3803 0.3803 90 0 0 7.8658 1.1075 A 0.414 0.414 90 0 0 7.943 1.2245 A 0.4853 0.4853 90 0 0 7.9617 1.244 Q 8.0217 1.301 8.1133 1.3505 A 0.9742 0.9742 90 0 0 8.126 1.3573 A 1.0485 1.0485 90 0 0 8.2422 1.4075 A 1.413 1.413 90 0 0 8.36 1.445 Q 8.4455 1.4682 8.5032 1.4945 A 0.5063 0.5063 90 0 1 8.5467 1.5177 Q 8.5685 1.5305 8.5857 1.544 A 0.2767 0.2767 90 0 1 8.597 1.5537 A 0.2303 0.2303 90 0 1 8.6255 1.5853 A 0.1732 0.1732 90 0 1 8.6473 1.6242 A 0.2137 0.2137 90 0 1 8.6615 1.6985 A 0.2445 0.2445 90 0 1 8.6623 1.7037 A 0.1822 0.1822 90 0 1 8.6533 1.76 A 0.1665 0.1665 90 0 1 8.6442 1.7825 Q 8.627 1.8185 8.594 1.844 A 0.2213 0.2213 90 0 1 8.5505 1.8695 A 0.294 0.294 90 0 1 8.513 1.883 A 0.3292 0.3292 90 0 1 8.459 1.8942 A 0.453 0.453 90 0 1 8.4035 1.8973 Q 8.3345 1.8973 8.2768 1.8822 A 0.2873 0.2873 90 0 1 8.219 1.8598 A 0.2355 0.2355 90 0 1 8.1785 1.8335 A 0.2182 0.2182 90 0 1 8.117 1.7555 A 0.2558 0.2558 90 0 1 8.114 1.7495 Q 8.0923 1.7015 8.0885 1.6355 A 0.4748 0.4748 90 0 1 8.0885 1.625 Z M 4.7735 0.5218 L 3.8488 0.5218 L 3.8488 0.7715 L 4.1532 0.7715 L 4.1532 1.8733 L 3.8488 1.8733 L 3.8488 2.1215 L 4.7735 2.1215 L 4.7735 1.8733 L 4.4615 1.8733 L 4.4615 0.7715 L 4.7735 0.7715 L 4.7735 0.5218 Z M 7.163 0.7737 L 7.6565 0.7737 L 7.6565 0.5218 L 6.3665 0.5218 L 6.3665 0.7737 L 6.8533 0.7737 L 6.8533 2.1215 L 7.163 2.1215 L 7.163 0.7737 Z M 1.409 2.1215 L 1.409 1.535 L 1.6467 1.535 A 0.7897 0.7897 90 0 0 1.7787 1.5245 A 0.624 0.624 90 0 0 1.883 1.4975 A 0.57 0.57 90 0 0 2.0008 1.4412 A 0.4868 0.4868 90 0 0 2.0637 1.3933 A 0.4537 0.4537 90 0 0 2.177 1.2358 Q 2.2175 1.145 2.2175 1.037 A 0.5745 0.5745 90 0 0 2.2033 0.9088 A 0.4845 0.4845 90 0 0 2.177 0.8277 A 0.468 0.468 90 0 0 2.0637 0.665 A 0.5167 0.5167 90 0 0 1.934 0.581 A 0.6247 0.6247 90 0 0 1.883 0.56 A 0.6367 0.6367 90 0 0 1.7412 0.527 A 0.8115 0.8115 90 0 0 1.6467 0.5218 L 1.1 0.5218 L 1.1 2.1215 L 1.409 2.1215 Z M 3.5465 1.439 L 3.5465 1.2065 A 1.0387 1.0387 90 0 0 3.536 1.0565 A 0.903 0.903 90 0 0 3.5263 1.001 Q 3.506 0.9042 3.4678 0.8232 A 0.6697 0.6697 90 0 0 3.3837 0.692 A 0.4905 0.4905 90 0 0 3.2697 0.5915 Q 3.2052 0.5473 3.1242 0.524 A 0.5948 0.5948 90 0 0 2.9907 0.5015 A 0.693 0.693 90 0 0 2.951 0.5 A 0.6345 0.6345 90 0 0 2.8422 0.509 A 0.537 0.537 90 0 0 2.7822 0.5232 A 0.5063 0.5063 90 0 0 2.6653 0.5735 A 0.4635 0.4635 90 0 0 2.6413 0.5892 Q 2.5775 0.6327 2.5287 0.6943 A 0.6412 0.6412 90 0 0 2.4478 0.827 A 0.7005 0.7005 90 0 0 2.4455 0.8315 A 0.789 0.789 90 0 0 2.4028 0.9605 A 0.915 0.915 90 0 0 2.3923 1.0063 A 1.0237 1.0237 90 0 0 2.3757 1.1547 A 1.1805 1.1805 90 0 0 2.3743 1.2065 L 2.3743 1.439 A 1.1018 1.1018 90 0 0 2.3833 1.5823 A 0.966 0.966 90 0 0 2.39 1.6272 A 0.8625 0.8625 90 0 0 2.4192 1.7435 A 0.7448 0.7448 90 0 0 2.4373 1.7923 A 0.6555 0.6555 90 0 0 2.5002 1.91 A 0.591 0.591 90 0 0 2.522 1.94 A 0.558 0.558 90 0 0 2.636 2.051 A 0.531 0.531 90 0 0 2.777 2.1185 A 0.591 0.591 90 0 0 2.78 2.1192 A 0.555 0.555 90 0 0 2.8955 2.141 A 0.6728 0.6728 90 0 0 2.9525 2.1432 A 0.6382 0.6382 90 0 0 3.065 2.1342 A 0.5497 0.5497 90 0 0 3.1168 2.1222 A 0.5715 0.5715 90 0 0 3.2405 2.0713 A 0.528 0.528 90 0 0 3.2563 2.0623 Q 3.3268 2.018 3.3815 1.9527 A 0.6773 0.6773 90 0 0 3.4745 1.8073 A 0.7965 0.7965 90 0 0 3.5188 1.6752 A 0.918 0.918 90 0 0 3.5278 1.6355 A 0.9667 0.9667 90 0 0 3.5458 1.481 A 1.1078 1.1078 90 0 0 3.5465 1.439 Z M 3.2338 1.2042 L 3.2338 1.439 A 1.0605 1.0605 90 0 1 3.2292 1.538 A 0.9532 0.9532 90 0 1 3.2278 1.5537 A 0.7747 0.7747 90 0 1 3.2188 1.6122 A 0.621 0.621 90 0 1 3.2098 1.655 A 0.498 0.498 90 0 1 3.1888 1.7172 A 0.4043 0.4043 90 0 1 3.1685 1.7608 A 0.2797 0.2797 90 0 1 3.1295 1.8147 A 0.2438 0.2438 90 0 1 3.1048 1.838 Q 3.0755 1.8635 3.0373 1.8762 A 0.2445 0.2445 90 0 1 2.9803 1.8882 A 0.2993 0.2993 90 0 1 2.9525 1.8898 A 0.2797 0.2797 90 0 1 2.9067 1.886 A 0.2137 0.2137 90 0 1 2.8662 1.8755 Q 2.828 1.8613 2.7987 1.835 A 0.2303 0.2303 90 0 1 2.7658 1.7968 A 0.315 0.315 90 0 1 2.7432 1.7578 A 0.42 0.42 90 0 1 2.7147 1.6835 A 0.4995 0.4995 90 0 1 2.7072 1.6512 A 0.6188 0.6188 90 0 1 2.696 1.5905 A 0.753 0.753 90 0 1 2.6923 1.5515 A 1.3537 1.3537 90 0 1 2.6877 1.4577 A 1.5187 1.5187 90 0 1 2.6877 1.439 L 2.6877 1.2042 A 1.3845 1.3845 90 0 1 2.69 1.115 A 1.2105 1.2105 90 0 1 2.6923 1.0865 A 0.8227 0.8227 90 0 1 2.6998 1.0265 A 0.6585 0.6585 90 0 1 2.7088 0.9838 A 0.4672 0.4672 90 0 1 2.726 0.9237 A 0.357 0.357 90 0 1 2.7485 0.8758 Q 2.774 0.8292 2.8115 0.7985 A 0.2033 0.2033 90 0 1 2.8738 0.767 Q 2.9083 0.7558 2.951 0.7558 A 0.291 0.291 90 0 1 2.9982 0.7595 A 0.2317 0.2317 90 0 1 3.0327 0.7677 A 0.2325 0.2325 90 0 1 3.0995 0.8023 A 0.2565 0.2565 90 0 1 3.146 0.851 A 0.3158 0.3158 90 0 1 3.164 0.8788 A 0.4125 0.4125 90 0 1 3.1955 0.9455 A 0.5032 0.5032 90 0 1 3.2082 0.9845 A 0.5955 0.5955 90 0 1 3.2218 1.0467 A 0.7238 0.7238 90 0 1 3.2278 1.0873 A 1.0418 1.0418 90 0 1 3.233 1.1727 A 1.206 1.206 90 0 1 3.2338 1.2042 Z M 1.6467 1.2845 L 1.409 1.2845 L 1.409 0.7722 L 1.6467 0.7722 A 0.351 0.351 90 0 1 1.7015 0.7767 Q 1.7345 0.7813 1.7615 0.7933 A 0.24 0.24 90 0 1 1.8238 0.8322 A 0.2205 0.2205 90 0 1 1.8425 0.8503 A 0.24 0.24 90 0 1 1.8897 0.9335 A 0.2775 0.2775 90 0 1 1.8905 0.935 A 0.321 0.321 90 0 1 1.9055 1.0152 A 0.3772 0.3772 90 0 1 1.9062 1.0393 A 0.273 0.273 90 0 1 1.8905 1.1322 A 0.2242 0.2242 90 0 1 1.8425 1.211 A 0.228 0.228 90 0 1 1.7803 1.256 A 0.2722 0.2722 90 0 1 1.7615 1.265 A 0.2543 0.2543 90 0 1 1.7068 1.28 Q 1.679 1.2845 1.6467 1.2845 Z" />
  <path fill="#fff" d="M 3.4848 3.9218 L 4.1418 3.9218 L 4.1418 3.678 L 3.4848 3.678 L 3.4848 3.2745 L 4.2498 3.2745 L 4.2498 3.0232 L 3.175 3.0232 L 3.175 4.623 L 4.2527 4.623 L 4.2527 4.3733 L 3.4848 4.3733 L 3.4848 3.9218 Z M 7.5355 3.9218 L 8.1925 3.9218 L 8.1925 3.678 L 7.5355 3.678 L 7.5355 3.2745 L 8.3005 3.2745 L 8.3005 3.0232 L 7.2258 3.0232 L 7.2258 4.623 L 8.3035 4.623 L 8.3035 4.3733 L 7.5355 4.3733 L 7.5355 3.9218 Z M 1.5677 4.122 L 1.2595 4.122 Q 1.2557 4.1835 1.2408 4.23 A 0.2963 0.2963 90 0 1 1.2348 4.2458 A 0.261 0.261 90 0 1 1.2115 4.293 A 0.2063 0.2063 90 0 1 1.1815 4.3305 A 0.2047 0.2047 90 0 1 1.1065 4.3762 A 0.24 0.24 90 0 1 1.099 4.3785 A 0.3202 0.3202 90 0 1 1.039 4.3912 A 0.4193 0.4193 90 0 1 0.9903 4.3942 Q 0.9453 4.3942 0.9078 4.3838 A 0.204 0.204 90 0 1 0.8417 4.3515 A 0.2122 0.2122 90 0 1 0.7998 4.311 A 0.2438 0.2438 90 0 1 0.793 4.302 A 0.2985 0.2985 90 0 1 0.7668 4.2577 A 0.3615 0.3615 90 0 1 0.7562 4.2338 A 0.4838 0.4838 90 0 1 0.7375 4.1738 Q 0.73 4.1445 0.7248 4.1122 A 0.8025 0.8025 90 0 1 0.7232 4.1025 Q 0.7127 4.0275 0.7127 3.9315 L 0.7127 3.714 A 1.3245 1.3245 90 0 1 0.7157 3.6307 A 1.0785 1.0785 90 0 1 0.7195 3.5827 A 0.7523 0.7523 90 0 1 0.7292 3.5175 A 0.5955 0.5955 90 0 1 0.7405 3.471 A 0.477 0.477 90 0 1 0.7652 3.4035 A 0.381 0.381 90 0 1 0.7908 3.3578 Q 0.8222 3.309 0.8673 3.282 A 0.216 0.216 90 0 1 0.9235 3.2595 A 0.249 0.249 90 0 1 0.9243 3.2595 Q 0.9557 3.2513 0.9925 3.2513 Q 1.0503 3.2513 1.0945 3.2647 A 0.2415 0.2415 90 0 1 1.1095 3.27 A 0.2198 0.2198 90 0 1 1.168 3.3015 A 0.1988 0.1988 90 0 1 1.1913 3.3232 A 0.2272 0.2272 90 0 1 1.2258 3.3765 A 0.2933 0.2933 90 0 1 1.24 3.4133 Q 1.2557 3.4635 1.261 3.5295 A 0.7305 0.7305 90 0 1 1.261 3.5385 L 1.5692 3.5385 A 0.834 0.834 90 0 0 1.5475 3.4072 A 0.6668 0.6668 90 0 0 1.516 3.3127 Q 1.4748 3.213 1.402 3.144 A 0.4838 0.4838 90 0 0 1.2588 3.0503 A 0.5715 0.5715 90 0 0 1.2265 3.0375 A 0.6045 0.6045 90 0 0 1.102 3.0075 A 0.8078 0.8078 90 0 0 0.9925 3 A 0.6225 0.6225 90 0 0 0.8755 3.0105 A 0.5407 0.5407 90 0 0 0.826 3.0225 Q 0.748 3.045 0.6835 3.087 Q 0.6108 3.1365 0.5537 3.2077 A 0.603 0.603 90 0 0 0.4683 3.3533 A 0.6825 0.6825 90 0 0 0.4615 3.3705 A 0.7523 0.7523 90 0 0 0.424 3.4897 A 0.8715 0.8715 90 0 0 0.4158 3.5325 A 1.0327 1.0327 90 0 0 0.4007 3.6772 A 1.1805 1.1805 90 0 0 0.4 3.7163 L 0.4 3.9315 A 1.1213 1.1213 90 0 0 0.409 4.0747 A 0.9742 0.9742 90 0 0 0.4173 4.1273 A 0.8985 0.8985 90 0 0 0.4443 4.2367 A 0.7515 0.7515 90 0 0 0.466 4.2968 Q 0.499 4.3733 0.547 4.437 Q 0.5943 4.5008 0.6558 4.5457 A 0.5108 0.5108 90 0 0 0.7968 4.6162 A 0.5775 0.5775 90 0 0 0.8073 4.62 A 0.588 0.588 90 0 0 0.9325 4.6433 A 0.7095 0.7095 90 0 0 0.9903 4.6455 A 0.7418 0.7418 90 0 0 1.1238 4.6342 A 0.6075 0.6075 90 0 0 1.2182 4.6088 A 0.5393 0.5393 90 0 0 1.3495 4.542 A 0.4853 0.4853 90 0 0 1.3967 4.5038 Q 1.471 4.4363 1.516 4.3395 A 0.5723 0.5723 90 0 0 1.5595 4.1947 A 0.7065 0.7065 90 0 0 1.5677 4.122 Z M 6.1668 4.0252 L 6.4008 4.0252 L 6.7015 4.623 L 7.0323 4.623 L 7.0323 4.6088 L 6.6888 3.948 A 0.618 0.618 90 0 0 6.787 3.8933 A 0.5565 0.5565 90 0 0 6.808 3.8775 Q 6.8613 3.837 6.8995 3.7822 A 0.4133 0.4133 90 0 0 6.949 3.6848 A 0.4815 0.4815 90 0 0 6.9573 3.66 Q 6.9775 3.591 6.9775 3.5055 A 0.5813 0.5813 90 0 0 6.9685 3.4005 A 0.4387 0.4387 90 0 0 6.9363 3.297 Q 6.895 3.2062 6.8193 3.1463 A 0.5032 0.5032 90 0 0 6.7023 3.078 A 0.6285 0.6285 90 0 0 6.6348 3.0547 A 0.7695 0.7695 90 0 0 6.5058 3.0293 A 0.9983 0.9983 90 0 0 6.394 3.0232 L 5.8578 3.0232 L 5.8578 4.623 L 6.1668 4.623 L 6.1668 4.0252 Z M 4.8145 4.2885 L 5.2945 4.2885 L 5.3875 4.623 L 5.713 4.623 L 5.1985 3.0232 L 4.9188 3.0232 L 4.3945 4.623 L 4.72 4.623 L 4.8145 4.2885 Z M 2.887 4.3733 L 2.1378 4.3733 L 2.1378 3.0232 L 1.828 3.0232 L 1.828 4.623 L 2.887 4.623 L 2.887 4.3733 Z M 8.5518 3.0232 L 8.5518 4.623 L 8.9815 4.623 A 0.7672 0.7672 90 0 0 9.1278 4.6088 A 0.6773 0.6773 90 0 0 9.1817 4.596 A 0.6465 0.6465 90 0 0 9.3475 4.524 A 0.6105 0.6105 90 0 0 9.3535 4.5202 Q 9.421 4.479 9.4772 4.4168 A 0.765 0.765 90 0 0 9.5747 4.281 A 0.7545 0.7545 90 0 0 9.6325 4.137 A 0.8685 0.8685 90 0 0 9.643 4.0995 Q 9.667 4.0005 9.667 3.8902 L 9.667 3.7582 A 0.9203 0.9203 90 0 0 9.6535 3.5993 A 0.8085 0.8085 90 0 0 9.6415 3.5408 A 0.7905 0.7905 90 0 0 9.5905 3.3975 A 0.7027 0.7027 90 0 0 9.568 3.354 A 0.7388 0.7388 90 0 0 9.4727 3.2258 A 0.54 0.54 90 0 0 9.3498 3.126 A 0.6578 0.6578 90 0 0 9.1975 3.057 A 0.7478 0.7478 90 0 0 9.1735 3.0503 Q 9.0768 3.0232 8.9657 3.0232 L 8.5518 3.0232 Z M 8.863 4.3747 L 8.863 3.2738 L 8.9657 3.2738 A 0.4365 0.4365 90 0 1 9.0318 3.2782 A 0.3622 0.3622 90 0 1 9.07 3.2865 A 0.3585 0.3585 90 0 1 9.1398 3.312 A 0.3232 0.3232 90 0 1 9.157 3.3217 A 0.3382 0.3382 90 0 1 9.2478 3.4013 A 0.4133 0.4133 90 0 1 9.3078 3.5032 A 0.465 0.465 90 0 1 9.3108 3.5107 A 0.5535 0.5535 90 0 1 9.3332 3.5835 A 0.675 0.675 90 0 1 9.3415 3.6247 A 0.7635 0.7635 90 0 1 9.3513 3.7215 A 0.8835 0.8835 90 0 1 9.352 3.756 L 9.352 3.8902 A 0.915 0.915 90 0 1 9.3483 3.9735 A 0.7425 0.7425 90 0 1 9.3415 4.0267 A 0.6495 0.6495 90 0 1 9.3265 4.0943 A 0.5213 0.5213 90 0 1 9.3108 4.1415 A 0.5055 0.5055 90 0 1 9.2807 4.2037 A 0.4103 0.4103 90 0 1 9.253 4.245 A 0.3382 0.3382 90 0 1 9.2043 4.2983 A 0.2955 0.2955 90 0 1 9.178 4.3185 Q 9.1375 4.3455 9.088 4.3598 A 0.3668 0.3668 90 0 1 9.01 4.3733 A 0.4342 0.4342 90 0 1 8.9815 4.3747 L 8.863 4.3747 Z M 6.3955 3.7748 L 6.1668 3.7748 L 6.1668 3.2738 L 6.394 3.2738 A 0.4515 0.4515 90 0 1 6.451 3.2767 A 0.3292 0.3292 90 0 1 6.5073 3.2887 A 0.2677 0.2677 90 0 1 6.5545 3.309 A 0.2122 0.2122 90 0 1 6.5905 3.333 Q 6.6295 3.3645 6.6482 3.4133 A 0.27 0.27 90 0 1 6.664 3.4733 A 0.3638 0.3638 90 0 1 6.6677 3.5265 A 0.324 0.324 90 0 1 6.6633 3.5812 A 0.258 0.258 90 0 1 6.6528 3.6218 A 0.2122 0.2122 90 0 1 6.625 3.6765 A 0.1928 0.1928 90 0 1 6.6093 3.6953 A 0.2063 0.2063 90 0 1 6.5477 3.7425 A 0.258 0.258 90 0 1 6.5207 3.7545 A 0.3098 0.3098 90 0 1 6.4585 3.7702 A 0.426 0.426 90 0 1 6.3955 3.7748 Z M 5.2218 4.026 L 4.8902 4.026 L 5.0583 3.4373 L 5.2218 4.026 Z" />
</svg>
