<svg xmlns="http://www.w3.org/2000/svg" width="20" height="10" viewBox="0 0 10 5">
  <rect width="10" height="5" fill="#f00" stroke="#fff" stroke-width="0.2px" />
  <path fill="#fff" d="M5.7252.8446v1.204H5.4485V.8445H5.0137V.6194H6.1661V.8446H5.7252ZM7.2093.6194V.8425H6.9306v.9842h.2787v.2218H6.3832V1.8268h.272V.8425h-.272V.6194h.8261Zm-3.553.9474a.7564.7564 90 01-.006.0998.5628.5628 90 01-.0268.1132q-.0328.0931-.0945.1568-.063.065-.1528.0985a.5119.5119 90 01-.0965.0248.6754.6754 90 01-.1079.008.6311.6311 90 01-.075-.004.4978.4978 90 01-.1199-.0288.4074.4074 90 01-.1487-.0971q-.0616-.0643-.0958-.1581A.5467.5467 90 012.7069 1.6794a.7236.7236 90 01-.008-.1126L2.6995.6194h.276l.0007.9474a.7973.7973 90 00.0007.0114q.0007.0315.004.0596a.459.459 90 00.0101.0543q.006.0261.0154.0482a.207.207 90 00.0241.0415.1561.1561 90 00.0596.0482.1715.1715 90 00.0395.0127.2238.2238 90 00.0422.0034.258.258 90 00.0362-.002.1976.1976 90 00.0523-.0147q.0389-.0174.0643-.0516a.209.209 90 00.0261-.0435.2861.2861 90 00.0154-.0449q.0074-.0302.0114-.065a.6392.6392 90 00.0033-.0576L3.3816.6194h.274l.0007.9474ZM.5207 1.605a.4241.4241 90 00.0007.0094q.0027.059.0221.1018a.2285.2285 90 00.0027.0054.195.195 90 00.0549.0697.2104.2104 90 00.0362.0234.2566.2566 90 00.0523.0201q.0509.0134.1132.0134a.4047.4047 90 00.0489-.0027.2941.2941 90 00.0482-.01.2626.2626 90 00.0342-.0121.1976.1976 90 00.0382-.0228q.0295-.0228.0456-.0549a.1487.1487 90 00.008-.0201.1628.1628 90 00.0074-.0502.2184.2184 90 000-.0047.191.191 90 00-.0134-.0663.1548.1548 90 00-.0188-.0348A.2057.2057 90 00.9756 1.5413a.2472.2472 90 00-.01-.0087Q.9495 1.5206.93 1.5092A.4523.4523 90 00.8912 1.4884Q.8396 1.465.7632 1.4442A1.2623 1.2623 90 01.658 1.4107.9367.9367 90 01.5549 1.3658.8703.8703 90 01.5435 1.3598Q.4611 1.3156.4081 1.2646A.4335.4335 90 01.3907 1.2472.3698.3698 90 01.3224 1.1427.3397.3397 90 01.3083 1.1045.3732.3732 90 01.2929.9973q0-.0898.0389-.1635A.3752.3752 90 01.4376.7079.4482.4482 90 01.4966.6697.536.536 90 01.5977.6281.6218.6218 90 01.6687.6107.7337.7337 90 01.7974.6.7142.7142 90 01.8671.6033.5796.5796 90 011.0024.6322.5568.5568 90 011.0473.6502.4643.4643 90 011.1619.7226q.0663.059.1038.1394A.3899.3899 90 011.2858.9142a.4322.4322 90 01.0174.1246H1.0339A.3209.3209 90 001.0319 1.012.2673.2673 90 001.0171.9504.1943.1943 90 00.9723.8807.195.195 90 00.9428.8579.2372.2372 90 00.8972.8358Q.8724.8271.8423.8231A.3752.3752 90 00.7927.8198.3906.3906 90 00.7438.8224.2848.2848 90 00.6949.8332.2559.2559 90 00.6627.8459.1956.1956 90 00.6232.87.1863.1863 90 00.6212.8714.1635.1635 90 00.5783.9276.1621.1621 90 00.575.9357.1688.1688 90 00.5629.9987.1628.1628 90 00.5629 1 .1347.1347 90 00.583 1.071.1695.1695 90 00.6098 1.1038a.2271.2271 90 00.0315.0255q.0389.0261.0931.0476a1.0023 1.0023 90 00.0583.0208 1.342 1.342 90 00.065.0194q.0737.0208.14.0502a.8402.8402 90 01.0188.0087.7477.7477 90 01.1038.059.5809.5809 90 01.0221.0174.4991.4991 90 01.1126.1286.339.339 90 01.0362.0844.4027.4027 90 01.0141.1085.4275.4275 90 01-.0033.0536.3377.3377 90 01-.0348.1132.3571.3571 90 01-.1045.1233.4208.4208 90 01-.063.0402.5126.5126 90 01-.0958.0368q-.0925.0261-.201.0261-.1072 0-.2117-.0322Q.4865 2.0037.4088 1.9413.3351 1.881.2929 1.7986A.3672.3672 90 01.2594 1.7028.4858.4858 90 01.25 1.605H.5207Zm1.6469.4435V1.4295h-.404v.6191h-.274V.6194h.274v.5863h.404V.6194h.2734V2.0485H2.1675Zm7.5496-.1668a.266.266 90 01-.0121.0141q-.0127.0134-.0288.0268a.5126.5126 90 01-.0322.0248q-.0456.0335-.1085.0603a.6707.6707 90 01-.059.0214.8335.8335 90 01-.0838.0228.7283.7283 90 01-.0603.0101.8676.8676 90 01-.1079.006q-.0791 0-.1481-.0181a.5481.5481 90 01-.0087-.002.4898.4898 90 01-.1186-.0503q-.057-.0355-.1032-.0864A.469.469 90 018.8374 1.9018.5025.5025 90 018.767 1.7946.5782.5782 90 018.7396 1.7323.7048.7048 90 018.7108 1.6305.8563.8563 90 018.698 1.5541a1.0519 1.0519 90 01-.0067-.1219V1.2378a1.0405 1.0405 90 01.002-.0683.8556.8556 90 01.0168-.1213Q8.7288.9605 8.763.8888A.672.672 90 018.7717.872.5963.5963 90 018.8381.7735.5293.5293 90 018.9319.6851q.0596-.0422.1307-.0636A.477.477 90 019.0779.6174.5126.5126 90 019.2112.6q.061 0 .1139.008A.5474.5474 90 019.4223.6301.4891.4891 90 019.4705.6496.3973.3973 90 019.5737.7179.3926.3926 90 019.5858.73.4094.4094 90 019.6702.8579.5742.5742 90 019.6963.9343a.7156.7156 90 01.0194.1092H9.4471a.5574.5574 90 000-.0007Q9.4404.9913 9.4263.9511A.2358.2358 90 009.4149.9249.1863.1863 90 009.3875.8834Q9.36.8533 9.3178.8378A.209.209 90 009.3051.8338Q9.2675.8231 9.2186.8231A.191.191 90 009.1577.8325.1997.1997 90 009.1027.8613.2358.2358 90 009.0726.8888.3002.3002 90 009.0424.9276q-.0268.0415-.0449.0972a.5065.5065 90 00-.0107.0409.6506.6506 90 00-.01.0556.7357.7357 90 00-.0047.0442.9139.9139 90 00-.0027.0703v.1963a1.0331 1.0331 90 00.002.0677.7859.7859 90 00.008.0737.7263.7263 90 000 .0013q.0107.063.0288.1119a.3806.3806 90 00.0047.0101.3363.3363 90 00.0228.0422.2734.2734 90 00.0047.0074.2419.2419 90 00.0288.0355.2097.2097 90 00.073.0476.2419.2419 90 00.0449.0121.3136.3136 90 00.0502.0047q.0322 0 .0637-.0047a.4335.4335 90 00.0154-.0027A.3745.3745 90 009.36 1.8281.341.341 90 009.3841 1.8187a.2573.2573 90 00.0241-.0114.1655.1655 90 00.0087-.0047q.0074-.0047.0127-.0087a.0784.0784 90 00.0107-.01l.0007-.2593H9.2046V1.3182h.5112l.0013.5635Zm-1.5216.1668-.3973-.9213v.9213H7.5208V.6194h.2774l.3946.9179.0007-.9179h.2774V2.0485H8.1955Zm-3.618 0-.398-.9212v.9212H3.9022V.6194h.2774l.3946.9179.0013-.9179h.2767V2.0485H4.5775Z" />
  <path fill="#fff" d="M4.8676 3.3367 4.7323 2.8 4.3899 2.8 4.3899 4.2291 4.6432 4.2291 4.6432 3.8057 4.6311 3.1638 4.7993 3.7581 4.9353 3.7581 5.1229 3.1377 5.1115 3.8057 5.1115 4.2291 5.3641 4.2291 5.3641 2.8 5.0217 2.8 4.8676 3.3367ZM4.075 2.8 3.2482 2.8 3.2482 3.0231 3.5202 3.0231 3.5202 4.0073 3.2482 4.0073 3.2482 4.2291 4.075 4.2291 4.075 4.0073 3.7963 4.0073 3.7963 3.0231 4.075 3.0231 4.075 2.8ZM6.487 2.8 5.6609 2.8 5.6609 3.0231 5.9329 3.0231 5.9329 4.0073 5.6609 4.0073 5.6609 4.2291 6.487 4.2291 6.487 4.0073 6.2083 4.0073 6.2083 3.0231 6.487 3.0231 6.487 2.8ZM7.4156 3.0244 7.8565 3.0244 7.8565 2.8 6.7041 2.8 6.7041 3.0244 7.1389 3.0244 7.1389 4.2291 7.4156 4.2291 7.4156 3.0244ZM2.946 4.006 2.2767 4.006 2.2767 2.8 2 2.8 2 4.2291 2.946 4.2291 2.946 4.006Z" />
</svg>
