<svg xmlns="http://www.w3.org/2000/svg" width="15" height="15" viewBox="0 0 10 10">
  <path fill="#fc0" d="M 0.1705 4.6591 C 0.0284 4.8295 0.0568 5.1136 0.1705 5.2557 L 4.7727 9.858 C 4.9432 9.9716 5.0852 9.9716 5.2557 9.858 L 9.8011 5.2273 C 9.9148 5.0284 9.9148 4.858 9.8011 4.6591 L 5.3125 0.1705 C 5.0852 0 4.8864 0 4.6307 0.1705 Z" />
  <path fill="none" stroke="#000" stroke-width="0.3" d="M.4545 4.7727c-.1136.1136-.1136.2273 0 .3409L4.858 9.517c.0852.0568.142.0568.2273 0L9.5455 5.0568c.0568-.0852.0568-.142 0-.2273L5.0852.3693C5 .3125 4.9432.3125 4.858.3693L.4545 4.7727Z" />
  <path d="M3.0561 3.258l.2644-.457 1.461.8434.0008-.2071.3832-.0003.0003.2082 1.4619-.8439.2637.4566-1.3898.8032 1.3918.8019-.2646.4573-1.4633-.8458.0005 1.2544.9339.0008.0008.1885-.9347.0049-.0009 2.1187-.382.0007-.001-2.1209-.9194-.0024.0004-.1897h.9186L4.7813 4.4773l-1.4612.8429-.264-.4576L4.447 4.0599Z" />
  <circle cx="3.8" cy="6.5" r="0.8"  />
  <circle cx="6.1" cy="6.5" r="0.8"  />
  <circle fill="#fc0" cx="3.8" cy="6.5" r="0.44"  />
  <circle fill="#fc0" cx="6.1" cy="6.5" r="0.44"  />
</svg>
