<svg xmlns="http://www.w3.org/2000/svg" width="20" height="10" viewBox="0 0 10 5">
  <rect width="10" height="5" fill="#f00" stroke="#fff" stroke-width="0.2px"/>
  <path fill="#fff" d="M 1.2848 3 L 0.8 3 A 0.87 0.87 90 0 0 0.8168 3.1752 A 0.6576 0.6576 90 0 0 0.8768 3.3468 Q 0.9524 3.4944 1.0844 3.6024 Q 1.2236 3.714 1.4108 3.7704 Q 1.598 3.828 1.79 3.828 Q 1.9844 3.828 2.15 3.7812 A 0.918 0.918 90 0 0 2.3216 3.7152 A 0.7536 0.7536 90 0 0 2.4344 3.6432 A 0.6396 0.6396 90 0 0 2.6216 3.4224 A 0.6048 0.6048 90 0 0 2.684 3.2196 A 0.7656 0.7656 90 0 0 2.69 3.1236 A 0.7212 0.7212 90 0 0 2.6648 2.9292 A 0.6072 0.6072 90 0 0 2.6 2.778 A 0.894 0.894 90 0 0 2.3984 2.5476 A 1.0404 1.0404 90 0 0 2.3588 2.5164 A 1.3392 1.3392 90 0 0 2.1728 2.4108 A 1.5048 1.5048 90 0 0 2.1392 2.3952 Q 2.0204 2.3424 1.8884 2.3052 A 2.4036 2.4036 90 0 1 1.772 2.2704 A 1.7952 1.7952 90 0 1 1.6676 2.2332 Q 1.5704 2.1948 1.5008 2.148 A 0.4068 0.4068 90 0 1 1.4444 2.1024 A 0.3036 0.3036 90 0 1 1.3964 2.0436 A 0.2412 0.2412 90 0 1 1.3604 1.9164 A 0.2916 0.2916 90 0 1 1.3604 1.914 A 0.3024 0.3024 90 0 1 1.382 1.8012 A 0.2904 0.2904 90 0 1 1.388 1.7868 A 0.2928 0.2928 90 0 1 1.4648 1.686 A 0.3336 0.3336 90 0 1 1.4684 1.6836 A 0.3504 0.3504 90 0 1 1.5392 1.6404 A 0.4584 0.4584 90 0 1 1.5968 1.6176 A 0.51 0.51 90 0 1 1.6844 1.5984 A 0.6996 0.6996 90 0 1 1.772 1.5936 A 0.672 0.672 90 0 1 1.8608 1.5996 Q 1.9148 1.6068 1.9592 1.6224 A 0.4248 0.4248 90 0 1 2.0408 1.662 A 0.3492 0.3492 90 0 1 2.0936 1.7028 A 0.348 0.348 90 0 1 2.174 1.8276 A 0.4788 0.4788 90 0 1 2.2004 1.938 A 0.5748 0.5748 90 0 1 2.204 1.986 L 2.6864 1.986 A 0.774 0.774 90 0 0 2.6552 1.7628 A 0.6984 0.6984 90 0 0 2.6192 1.6692 Q 2.552 1.5252 2.4332 1.4196 A 0.8316 0.8316 90 0 0 2.228 1.29 A 0.9972 0.9972 90 0 0 2.1476 1.2576 A 1.038 1.038 90 0 0 1.9052 1.206 A 1.2792 1.2792 90 0 0 1.7804 1.2 A 1.314 1.314 90 0 0 1.55 1.2192 A 1.1136 1.1136 90 0 0 1.4228 1.2504 A 0.96 0.96 90 0 0 1.2416 1.3248 A 0.8028 0.8028 90 0 0 1.136 1.3932 A 0.672 0.672 90 0 0 0.9464 1.6188 Q 0.8768 1.7508 0.8768 1.9116 A 0.6684 0.6684 90 0 0 0.9044 2.1036 A 0.6084 0.6084 90 0 0 0.9296 2.172 A 0.6624 0.6624 90 0 0 1.052 2.3592 A 0.7764 0.7764 90 0 0 1.0832 2.3904 Q 1.178 2.4816 1.3256 2.5608 A 1.5588 1.5588 90 0 0 1.346 2.5716 A 1.6776 1.6776 90 0 0 1.5308 2.652 A 2.2608 2.2608 90 0 0 1.7192 2.712 Q 1.856 2.7492 1.9484 2.7912 A 0.81 0.81 90 0 1 2.018 2.8284 Q 2.0528 2.8488 2.0816 2.8704 A 0.4428 0.4428 90 0 1 2.0996 2.886 A 0.3684 0.3684 90 0 1 2.1452 2.9364 A 0.2772 0.2772 90 0 1 2.1788 2.9988 A 0.342 0.342 90 0 1 2.2028 3.1176 A 0.3912 0.3912 90 0 1 2.2028 3.126 A 0.2916 0.2916 90 0 1 2.1896 3.216 A 0.2664 0.2664 90 0 1 2.1752 3.252 Q 2.1464 3.3096 2.0936 3.3504 A 0.354 0.354 90 0 1 2.0252 3.3912 A 0.4704 0.4704 90 0 1 1.964 3.4128 A 0.5268 0.5268 90 0 1 1.8776 3.4308 A 0.7248 0.7248 90 0 1 1.79 3.4356 Q 1.6784 3.4356 1.5872 3.4116 A 0.4596 0.4596 90 0 1 1.4936 3.3756 A 0.3768 0.3768 90 0 1 1.4288 3.3336 A 0.3492 0.3492 90 0 1 1.3304 3.2088 A 0.4092 0.4092 90 0 1 1.3256 3.1992 Q 1.2908 3.1224 1.286 3.0168 A 0.7596 0.7596 90 0 1 1.2848 3 Z M 4.1252 1.638 L 4.9148 1.638 L 4.9148 1.2348 L 2.8508 1.2348 L 2.8508 1.638 L 3.6296 1.638 L 3.6296 3.7944 L 4.1252 3.7944 L 4.1252 1.638 Z M 7.88 3.7944 L 7.88 2.856 L 8.2616 2.856 A 1.2636 1.2636 90 0 0 8.4728 2.8392 A 0.9984 0.9984 90 0 0 8.6396 2.796 A 0.912 0.912 90 0 0 8.8268 2.706 A 0.7788 0.7788 90 0 0 8.9276 2.6292 A 0.726 0.726 90 0 0 9.11 2.3772 Q 9.1748 2.232 9.1748 2.0592 A 0.9192 0.9192 90 0 0 9.152 1.854 A 0.7752 0.7752 90 0 0 9.11 1.7244 A 0.7488 0.7488 90 0 0 8.9276 1.464 A 0.8268 0.8268 90 0 0 8.7212 1.3296 A 0.9996 0.9996 90 0 0 8.6396 1.296 A 1.0188 1.0188 90 0 0 8.4128 1.2432 A 1.2984 1.2984 90 0 0 8.2616 1.2348 L 7.3868 1.2348 L 7.3868 3.7944 L 7.88 3.7944 Z M 6.98 2.7024 L 6.98 2.3304 A 1.662 1.662 90 0 0 6.9632 2.0904 A 1.4448 1.4448 90 0 0 6.9476 2.0016 Q 6.9152 1.8468 6.854 1.7172 A 1.0716 1.0716 90 0 0 6.7196 1.5072 A 0.7848 0.7848 90 0 0 6.5372 1.3464 Q 6.434 1.2756 6.3044 1.2384 A 0.9516 0.9516 90 0 0 6.092 1.2024 A 1.1088 1.1088 90 0 0 6.0272 1.2 A 1.0152 1.0152 90 0 0 5.8532 1.2144 A 0.8592 0.8592 90 0 0 5.7572 1.2372 A 0.81 0.81 90 0 0 5.57 1.3176 A 0.7416 0.7416 90 0 0 5.5316 1.3428 Q 5.4296 1.4124 5.3516 1.5108 A 1.026 1.026 90 0 0 5.222 1.7232 A 1.1208 1.1208 90 0 0 5.2196 1.7304 A 1.2624 1.2624 90 0 0 5.15 1.9368 A 1.464 1.464 90 0 0 5.1344 2.01 A 1.638 1.638 90 0 0 5.1068 2.2476 A 1.8888 1.8888 90 0 0 5.1044 2.3304 L 5.1044 2.7024 A 1.7628 1.7628 90 0 0 5.1188 2.9316 A 1.5456 1.5456 90 0 0 5.1308 3.0036 A 1.38 1.38 90 0 0 5.1764 3.1896 A 1.1916 1.1916 90 0 0 5.2052 3.2676 A 1.0488 1.0488 90 0 0 5.306 3.456 A 0.9456 0.9456 90 0 0 5.3408 3.504 A 0.8928 0.8928 90 0 0 5.5232 3.6816 A 0.8496 0.8496 90 0 0 5.75 3.7896 A 0.9456 0.9456 90 0 0 5.7536 3.7908 A 0.888 0.888 90 0 0 5.9384 3.8256 A 1.0764 1.0764 90 0 0 6.0296 3.8292 A 1.0212 1.0212 90 0 0 6.2096 3.8148 A 0.8796 0.8796 90 0 0 6.2924 3.7956 A 0.9144 0.9144 90 0 0 6.4904 3.714 A 0.8448 0.8448 90 0 0 6.5168 3.6996 Q 6.6284 3.6288 6.7172 3.5244 A 1.0836 1.0836 90 0 0 6.8648 3.2916 A 1.2744 1.2744 90 0 0 6.9368 3.0804 A 1.4688 1.4688 90 0 0 6.95 3.0168 A 1.5468 1.5468 90 0 0 6.9788 2.7696 A 1.7724 1.7724 90 0 0 6.98 2.7024 Z M 6.4796 2.3268 L 6.4796 2.7024 A 1.6968 1.6968 90 0 1 6.4724 2.8608 A 1.5252 1.5252 90 0 1 6.47 2.886 A 1.2396 1.2396 90 0 1 6.4556 2.9796 A 0.9936 0.9936 90 0 1 6.4412 3.048 A 0.7968 0.7968 90 0 1 6.4076 3.1476 A 0.6468 0.6468 90 0 1 6.3752 3.2172 A 0.4476 0.4476 90 0 1 6.3128 3.3036 A 0.39 0.39 90 0 1 6.2744 3.3408 Q 6.2264 3.3816 6.1652 3.402 A 0.3912 0.3912 90 0 1 6.074 3.4212 A 0.4788 0.4788 90 0 1 6.0296 3.4236 A 0.4476 0.4476 90 0 1 5.9564 3.4176 A 0.342 0.342 90 0 1 5.8916 3.4008 Q 5.8304 3.378 5.7836 3.336 A 0.3684 0.3684 90 0 1 5.732 3.2748 A 0.504 0.504 90 0 1 5.6948 3.2124 A 0.672 0.672 90 0 1 5.6504 3.0936 A 0.7992 0.7992 90 0 1 5.6372 3.042 A 0.99 0.99 90 0 1 5.6192 2.9448 A 1.2048 1.2048 90 0 1 5.6132 2.8824 A 2.166 2.166 90 0 1 5.606 2.7324 A 2.43 2.43 90 0 1 5.606 2.7024 L 5.606 2.3268 A 2.2152 2.2152 90 0 1 5.6108 2.184 A 1.9368 1.9368 90 0 1 5.6132 2.1384 A 1.3164 1.3164 90 0 1 5.6252 2.0424 A 1.0536 1.0536 90 0 1 5.6396 1.974 A 0.7476 0.7476 90 0 1 5.6672 1.878 A 0.5712 0.5712 90 0 1 5.7032 1.8012 Q 5.7452 1.7268 5.804 1.6776 A 0.3252 0.3252 90 0 1 5.9036 1.6272 Q 5.9588 1.6092 6.0272 1.6092 A 0.4656 0.4656 90 0 1 6.1028 1.6152 A 0.3708 0.3708 90 0 1 6.1592 1.6284 A 0.372 0.372 90 0 1 6.2648 1.6836 A 0.4104 0.4104 90 0 1 6.3392 1.7616 A 0.5052 0.5052 90 0 1 6.3692 1.806 A 0.66 0.66 90 0 1 6.4184 1.9128 A 0.8052 0.8052 90 0 1 6.4388 1.9752 A 0.9528 0.9528 90 0 1 6.4604 2.0748 A 1.158 1.158 90 0 1 6.47 2.1396 A 1.6668 1.6668 90 0 1 6.4784 2.2764 A 1.9296 1.9296 90 0 1 6.4796 2.3268 Z M 8.2616 2.4552 L 7.88 2.4552 L 7.88 1.6356 L 8.2616 1.6356 A 0.5616 0.5616 90 0 1 8.3492 1.6428 Q 8.4008 1.65 8.4452 1.6692 A 0.384 0.384 90 0 1 8.5448 1.7316 A 0.3528 0.3528 90 0 1 8.5748 1.7604 A 0.384 0.384 90 0 1 8.6504 1.8936 A 0.444 0.444 90 0 1 8.6516 1.896 A 0.5136 0.5136 90 0 1 8.6756 2.0244 A 0.6036 0.6036 90 0 1 8.6768 2.0628 A 0.4368 0.4368 90 0 1 8.6516 2.2116 A 0.3588 0.3588 90 0 1 8.5748 2.3376 A 0.3648 0.3648 90 0 1 8.4752 2.4096 A 0.4356 0.4356 90 0 1 8.4452 2.424 A 0.4068 0.4068 90 0 1 8.3576 2.448 Q 8.3132 2.4552 8.2616 2.4552 Z" />
</svg>
