<svg xmlns="http://www.w3.org/2000/svg" width="15" height="15" viewBox="0 0 10 10">
  <path fill="#fc0" d="M 0.1705 4.6591 C 0.0284 4.8295 0.0568 5.1136 0.1705 5.2557 L 4.7727 9.858 C 4.9432 9.9716 5.0852 9.9716 5.2557 9.858 L 9.8011 5.2273 C 9.9148 5.0284 9.9148 4.858 9.8011 4.6591 L 5.3125 0.1705 C 5.0852 0 4.8864 0 4.6307 0.1705 Z" />
  <path fill="none" stroke="#000" stroke-width="0.3" d="M.4545 4.7727c-.1136.1136-.1136.2273 0 .3409L4.858 9.517c.0852.0568.142.0568.2273 0L9.5455 5.0568c.0568-.0852.0568-.142 0-.2273L5.0852.3693C5 .3125 4.9432.3125 4.858.3693L.4545 4.7727Z" />
  <path d="M1.392 4.3466v1.2216h2.7557V4.3466Zm4.5739 0v1.2216h2.7557V4.3466ZM4.517 1.2216V1.5625h-.1989V1.8466h.1989V2.2727h-.1989V2.5852h.1989v.3977h-.1989v.3125h.1989v.4261h-.1989v.3125h.1989v.3977h-.1989v.3125h.1989v.4261h-.1989v.2841h.1989v.4261h-.1989v.3125h.1989v.3977h-.1989v.3125h.1989v.4261h-.1989v.3125h.1989v.3977h-.1989v.3125h.1989v.3409h.1136V8.3523h.8523v.3409h.1136V8.3523h.1705V8.0398h-.1705V7.642h.1705V7.3295h-.1705V6.9034h.1705V6.5909h-.1705V6.1932h.1705V5.8807h-.1705V5.4545h.1705V5.1705h-.1705V4.7443h.1705V4.4318h-.1705V4.0341h.1705V3.7216h-.1705V3.2955h.1705V2.983h-.1705V2.5852h.1705V2.2727h-.1705V1.8466h.1705V1.5625h-.1705V1.2216h-.1136V1.5625H4.6307V1.2216Zm.1136.625h.8523V2.2727H4.6307Zm0 .7386h.8523v.3977H4.6307Zm0 .7102h.8523v.4261H4.6307Zm0 .7386h.8523v.3977H4.6307Zm0 .7102h.8523v.4261H4.6307Zm0 .7102h.8523v.4261H4.6307Zm0 .7386h.8523v.3977H4.6307Zm0 .7102h.8523v.4261H4.6307Zm0 .7386h.8523v.3977H4.6307Z" />
</svg>
