<svg xmlns="http://www.w3.org/2000/svg" width="10" height="15" viewBox="0 0 10 15">
  <rect fill="#000" stroke="#fff" stroke-width=".4" width="9.6" height="14.6" ry="1" x=".2" y=".2"/>
  <path fill="#fff" d="M2.176 11.648V10.536l2.76-2.964a14.48 14.48 90 00.088-.1q.132-.144.244-.276a8.188 8.188 90 00.212-.264 6.956 6.956 90 00.06-.08q.184-.24.304-.448a2.928 2.928 90 00.016-.028q.06-.108.104-.204a1.76 1.76 90 00.076-.208 1.572 1.572 90 00.028-.1A1.332 1.332 90 006.1 5.568a1.74 1.74 90 00-.016-.24A1.296 1.296 90 006.02 5.056a1.296 1.296 90 00-.036-.088 1.092 1.092 90 00-.192-.292 1.044 1.044 90 00-.36-.236 1.128 1.128 90 00-.176-.052A1.344 1.344 90 004.972 4.36a1.44 1.44 90 00-.008 0q-.148 0-.284.02a1.448 1.448 90 00-.288.072 1.224 1.224 90 00-.088.036 1.012 1.012 90 00-.324.228A1.076 1.076 90 003.844 4.9a1.312 1.312 90 00-.12.268 1.716 1.716 90 00-.068.3 2.324 2.324 90 00-.02.316H2a2.704 2.704 90 01.216-1.076 2.668 2.668 90 01.616-.888 2.624 2.624 90 01.292-.244 2.988 2.988 90 01.66-.356 3.044 3.044 90 01.484-.144A3.648 3.648 90 015.024 3a3.996 3.996 90 01.56.036 2.944 2.944 90 01.592.144 2.732 2.732 90 01.268.116 2.22 2.22 90 01.572.396 2.18 2.18 90 01.508.788 2.552 2.552 90 01.116.392 3.06 3.06 90 01.06.624q0 .424-.132.804a3.22 3.22 90 01-.08.216 3.684 3.684 90 01-.292.544 6.24 6.24 90 01-.216.308 7.724 7.724 90 01-.368.456 18.476 18.476 90 01-.36.4 22.904 22.904 90 01-.396.42L4.252 10.34H7.996v1.308H2.176Z" />
</svg>
