<svg xmlns="http://www.w3.org/2000/svg" width="10" height="15" viewBox="0 0 10 15">
  <rect fill="#000" stroke="#fff" stroke-width=".4" width="9.6" height="14.6" ry="1" x=".2" y=".2"/>
  <path fill="#fff" d="M 4.788 6.668 L 3.904 6.668 L 3.904 7.932 L 4.788 7.932 Q 5.124 7.932 5.388 8.008 Q 5.656 8.084 5.848 8.244 A 1 1 90 0 1 6.112 8.588 A 1.192 1.192 90 0 1 6.136 8.648 Q 6.224 8.868 6.236 9.168 A 2.292 2.292 90 0 1 6.236 9.24 A 1.54 1.54 90 0 1 6.212 9.524 A 1.24 1.24 90 0 1 6.152 9.74 A 1 1 90 0 1 5.976 10.04 A 0.94 0.94 90 0 1 5.904 10.112 Q 5.732 10.284 5.48 10.372 A 1.548 1.548 90 0 1 5.16 10.444 A 2.02 2.02 90 0 1 4.912 10.46 Q 4.632 10.46 4.396 10.376 A 1.276 1.276 90 0 1 4.108 10.228 A 1.132 1.132 90 0 1 3.992 10.136 A 0.98 0.98 90 0 1 3.724 9.784 A 1.076 1.076 90 0 1 3.632 9.388 A 1.256 1.256 90 0 1 3.628 9.328 L 2 9.328 A 2.668 2.668 90 0 0 2.052 9.864 A 2 2 90 0 0 2.244 10.408 A 2.228 2.228 90 0 0 2.892 11.164 A 2.788 2.788 90 0 0 3.744 11.596 A 3.188 3.188 90 0 0 3.812 11.616 A 3.82 3.82 90 0 0 4.876 11.764 A 4.232 4.232 90 0 0 5.696 11.688 A 3.672 3.672 90 0 0 6.056 11.6 A 2.968 2.968 90 0 0 6.668 11.336 A 2.528 2.528 90 0 0 7.004 11.108 A 2.244 2.244 90 0 0 7.632 10.324 A 2.252 2.252 90 0 0 7.836 9.62 A 2.84 2.84 90 0 0 7.86 9.256 A 2.524 2.524 90 0 0 7.808 8.732 A 2.284 2.284 90 0 0 7.776 8.612 A 1.924 1.924 90 0 0 7.524 8.052 A 1.884 1.884 90 0 0 7.168 7.656 A 2.164 2.164 90 0 0 7.096 7.6 A 2.108 2.108 90 0 0 6.732 7.38 A 2.648 2.648 90 0 0 6.476 7.272 A 2.524 2.524 90 0 0 6.888 7.028 A 2.228 2.228 90 0 0 7.016 6.924 A 2.18 2.18 90 0 0 7.344 6.572 A 1.98 1.98 90 0 0 7.408 6.48 Q 7.568 6.24 7.648 5.972 A 1.832 1.832 90 0 0 7.732 5.432 A 2.924 2.924 90 0 0 7.684 4.904 A 2.212 2.212 90 0 0 7.524 4.38 A 2.132 2.132 90 0 0 6.94 3.616 A 2.404 2.404 90 0 0 6.352 3.268 A 2.98 2.98 90 0 0 6.036 3.156 A 3.784 3.784 90 0 0 5.336 3.02 A 4.708 4.708 90 0 0 4.876 3 A 3.572 3.572 90 0 0 4.108 3.08 A 3.14 3.14 90 0 0 3.784 3.168 A 2.948 2.948 90 0 0 3.184 3.448 A 2.556 2.556 90 0 0 2.904 3.644 A 2.264 2.264 90 0 0 2.312 4.384 A 2.044 2.044 90 0 0 2.104 5.172 A 2.444 2.444 90 0 0 2.1 5.332 L 3.728 5.332 A 1.008 1.008 90 0 1 3.76 5.084 A 0.856 0.856 90 0 1 3.824 4.912 A 0.98 0.98 90 0 1 4.08 4.588 A 1.112 1.112 90 0 1 4.36 4.424 A 1.32 1.32 90 0 1 4.452 4.388 Q 4.668 4.32 4.912 4.32 A 1.848 1.848 90 0 1 5.168 4.336 Q 5.304 4.356 5.42 4.396 A 1.14 1.14 90 0 1 5.436 4.4 Q 5.664 4.484 5.808 4.628 A 0.984 0.984 90 0 1 6.028 4.988 A 1.288 1.288 90 0 1 6.092 5.288 A 1.596 1.596 90 0 1 6.1 5.448 A 1.596 1.596 90 0 1 6.072 5.764 A 1.364 1.364 90 0 1 6.028 5.928 A 1.028 1.028 90 0 1 5.908 6.176 A 0.904 0.904 90 0 1 5.808 6.3 A 0.972 0.972 90 0 1 5.544 6.504 A 1.24 1.24 90 0 1 5.396 6.572 A 1.404 1.404 90 0 1 5.124 6.644 Q 5 6.664 4.856 6.668 A 2.456 2.456 90 0 1 4.788 6.668 Z" />
</svg>
