<?xml version="1.0" encoding="UTF-8"?>
<svg width="16" height="16" version="1.1" viewBox="0 0 4.2333 4.2333" xmlns="http://www.w3.org/2000/svg">
 <circle cx="2.1167" cy="2.1167" r="2.1167" fill-opacity="0" stroke-linejoin="round" stroke-width=".19923"/>
 <path d="m4.2333 2.1167a2.1167 2.1167 0 0 1-2.1167 2.1167 2.1167 2.1167 0 0 1-2.1167-2.1167 2.1167 2.1167 0 0 1 2.1167-2.1167 2.1167 2.1167 0 0 1 2.1167 2.1167z" stroke-linejoin="round" stroke-width=".19923"/>
 <path d="m1.9739 2.1167c0 0.25325-0.20555 0.45766-0.45766 0.45766-0.25325 0-0.4588-0.20441-0.4588-0.45766 0-0.25211 0.20555-0.45766 0.4588-0.45766 0.25211 0 0.45766 0.20555 0.45766 0.45766z" fill="#ff0" stroke-width=".29072"/>
</svg>
