<?xml version="1.0" encoding="UTF-8"?>
<svg width="16" height="16" version="1.1" viewBox="0 0 4.2333 4.2333" xmlns="http://www.w3.org/2000/svg">
 <path d="m3.6266 2.4201a1.8133 1.8133 0 0 1-1.8133 1.8133 1.8133 1.8133 0 0 1-1.8133-1.8133 1.8133 1.8133 0 0 1 1.8133-1.8133 1.8133 1.8133 0 0 1 1.8133 1.8133z" fill-opacity="0" stroke-linejoin="round" stroke-width=".17067"/>
 <path d="m4.2333 2.4201a1.8133 1.8133 0 0 1-1.8133 1.8133 1.8133 1.8133 0 0 1-1.8133-1.8133 1.8133 1.8133 0 0 1 1.8133-1.8133 1.8133 1.8133 0 0 1 1.8133 1.8133z" stroke-linejoin="round" stroke-width=".17067"/>
 <path d="m2.2977 2.4201c0 0.21695-0.17609 0.39206-0.39206 0.39206-0.21695 0-0.39304-0.17511-0.39304-0.39206 0-0.21597 0.17609-0.39206 0.39304-0.39206 0.21597 0 0.39206 0.17609 0.39206 0.39206z" fill="#ff0" stroke-width=".24905"/>
 <path d="m1.4114 0.70569a0.70569 0.70569 0 0 1-0.70569 0.70569 0.70569 0.70569 0 0 1-0.70569-0.70569 0.70569 0.70569 0 0 1 0.70569-0.70569 0.70569 0.70569 0 0 1 0.70569 0.70569z" stroke-linejoin="round" stroke-width=".19923"/>
 <path d="m0.94999 0.7058c0 0.13594-0.11034 0.24567-0.24567 0.24567-0.13594 0-0.24628-0.10973-0.24628-0.24567 0-0.13533 0.11034-0.24567 0.24628-0.24567 0.13533 0 0.24567 0.11034 0.24567 0.24567z" fill="#fff" stroke-width=".15606"/>
</svg>
